<svg width="21" height="21" viewBox="0 0 21 21" fill="none" xmlns="http://www.w3.org/2000/svg">
<path fill-rule="evenodd" clip-rule="evenodd" d="M10.5 1.82609C5.70953 1.82609 1.82609 5.70953 1.82609 10.5C1.82609 15.2905 5.70953 19.1739 10.5 19.1739C15.2905 19.1739 19.1739 15.2905 19.1739 10.5C19.1739 5.70953 15.2905 1.82609 10.5 1.82609ZM0 10.5C0 4.70101 4.70101 0 10.5 0C16.299 0 21 4.70101 21 10.5C21 16.299 16.299 21 10.5 21C4.70101 21 0 16.299 0 10.5ZM10.5 5.47826C11.0043 5.47826 11.413 5.88704 11.413 6.3913V12.7826C11.413 13.2869 11.0043 13.6957 10.5 13.6957C9.99574 13.6957 9.58696 13.2869 9.58696 12.7826V6.3913C9.58696 5.88704 9.99574 5.47826 10.5 5.47826ZM10.5 14.6087C11.0043 14.6087 11.413 15.0175 11.413 15.5217V15.7043C11.413 16.2086 11.0043 16.6174 10.5 16.6174C9.99574 16.6174 9.58696 16.2086 9.58696 15.7043V15.5217C9.58696 15.0175 9.99574 14.6087 10.5 14.6087Z" fill="#FF5722"/>
</svg>
