<svg width="83" height="76" viewBox="0 0 83 76" fill="none" xmlns="http://www.w3.org/2000/svg">
<ellipse opacity="0.2" cx="28.5" cy="27" rx="28.5" ry="27" fill="url(#paint0_linear)"/>
<circle opacity="0.2" cx="55.5" cy="48.5" r="27.5" fill="url(#paint1_linear)"/>
<path d="M27 54V29V28H52V54H27Z" fill="white"/>
<path d="M19 47L22.5 40.5H37L34 47H19Z" fill="#ECF1FF"/>
<path d="M19 19.5L22.5 13H37L34 19.5H19Z" fill="#ECF1FF"/>
<path d="M44 19.5L47.5 13H62L59 19.5H44Z" fill="#ECF1FF"/>
<path d="M44 47.5L47.5 41H62L59 47.5H44Z" fill="#ECF1FF"/>
<path d="M19 47H33V61H19V47Z" fill="white"/>
<path d="M19 20.5H33V34.5H19V20.5Z" fill="white"/>
<rect x="44" y="47" width="14" height="14" fill="white"/>
<rect x="44" y="20" width="14" height="15" fill="#F3F4FB"/>
<circle cx="9.58587" cy="48.5859" r="1.58587" fill="#4C7FF7"/>
<circle cx="60.5859" cy="66.5859" r="1.58587" fill="#4C7FF7"/>
<circle cx="45.5373" cy="6.58587" r="1.58587" fill="#4C7FF7"/>
<path d="M58.8333 35.8329C59.162 35.8319 59.4593 35.6376 59.5924 35.3371L59.5983 35.3237L62.9249 27.8387C62.9735 27.7322 62.999 27.6167 62.9999 27.4996V13.3329C63.0055 12.8782 62.6414 12.5051 62.1867 12.4996C62.18 12.4995 62.1733 12.4995 62.1666 12.4996H47.1666C46.8492 12.4978 46.5585 12.6766 46.4166 12.9604L43.0833 19.6271H43.0916C43.0318 19.7422 43.0005 19.8699 43 19.9996V26.6662H38V13.3329C38.0055 12.8782 37.6414 12.5051 37.1867 12.4996C37.1801 12.4995 37.1733 12.4995 37.1666 12.4996H22.1667C21.8508 12.4995 21.562 12.6779 21.4208 12.9604L18.0875 19.6271H18.0958C18.0346 19.7419 18.0018 19.8696 18 19.9996V34.9996C18 35.4598 18.3731 35.8329 18.8333 35.8329H25.5V39.1662H22.1667C21.8508 39.1661 21.562 39.3446 21.4208 39.6271L18.0875 46.2937H18.0958C18.0346 46.4085 18.0018 46.5362 18 46.6662V61.6662C18 62.1264 18.3731 62.4995 18.8333 62.4995H33.8333C34.1621 62.4985 34.4594 62.3042 34.5925 62.0037L34.5983 61.9904L37.7083 54.9995H43V61.6662C43 62.1264 43.3731 62.4995 43.8333 62.4995H58.8333C59.162 62.4985 59.4593 62.3042 59.5924 62.0037L59.5983 61.9904L62.9249 54.5054C62.9735 54.3988 62.999 54.2833 62.9999 54.1662V39.9996C63.0055 39.5449 62.6414 39.1717 62.1867 39.1662C62.18 39.1661 62.1733 39.1661 62.1666 39.1662H52.1666V35.8329H58.8333ZM61.3333 27.3229L59.6666 31.0729V20.1962L61.3333 16.8629V27.3229ZM47.6816 14.1663H60.8183L58.3183 19.1662H45.1816L47.6816 14.1663ZM34.6666 26.6662V20.1962L36.3333 16.8629V26.6662H34.6666ZM35.8841 28.3329L34.6666 31.0729V28.3329H35.8841ZM22.6817 14.1663H35.8183L33.3183 19.1662H20.1817L22.6817 14.1663ZM19.6667 34.1662V20.8329H33V26.6662H25.5V28.3329H33V34.1662H19.6667ZM22.6817 40.8329H25.5V45.8329H20.1817L22.6817 40.8329ZM33 60.8329H19.6667V47.4995H25.5V54.9995H27.1667V47.4995H33V60.8329ZM33.3183 45.8329H27.1667V40.8329H35.8183L33.3183 45.8329ZM34.6666 57.7395V54.9995H35.8841L34.6666 57.7395ZM36.3333 53.3329H34.6666V46.8629L36.3333 43.5295V53.3329ZM43.0833 46.2937H43.0916C43.0318 46.4088 43.0005 46.5365 43 46.6662V53.3329H38V39.9996C38.0055 39.5449 37.6414 39.1717 37.1867 39.1662C37.1801 39.1661 37.1733 39.1661 37.1666 39.1662H27.1667V35.8329H33.8333C34.1621 35.8319 34.4594 35.6376 34.5925 35.3371L34.5983 35.3237L37.7083 28.3329H43V34.9996C43 35.4598 43.3731 35.8329 43.8333 35.8329H50.5V39.1662H47.1666C46.8492 39.1644 46.5585 39.3432 46.4166 39.6271L43.0833 46.2937ZM50.5 40.8329V45.8329H45.1816L47.6816 40.8329H50.5ZM57.9999 60.8329H44.6666V54.9995H52.1666V53.3329H44.6666V47.4995H57.9999V60.8329ZM61.3333 53.9895L59.6666 57.7395V46.8629L61.3333 43.5295V53.9895ZM60.8183 40.8329L58.3183 45.8329H52.1666V40.8329H60.8183ZM50.5 26.6662V34.1662H44.6666V20.8329H57.9999V34.1662H52.1666V26.6662H50.5Z" fill="#728099"/>
<circle cx="61" cy="17" r="10" fill="#20BAC3"/>
<path d="M66.1589 14.9786C66.6459 14.4893 66.6459 13.6959 66.1589 13.2066C65.672 12.7172 64.8824 12.7172 64.3955 13.2066L66.1589 14.9786ZM59.696 19.7008L58.8143 20.5867C59.0481 20.8217 59.3653 20.9538 59.696 20.9538C60.0267 20.9538 60.3439 20.8218 60.5778 20.5868L59.696 19.7008ZM57.9692 16.1933C57.4822 15.704 56.6927 15.7039 56.2057 16.1932C55.7187 16.6826 55.7187 17.4759 56.2056 17.9653L57.9692 16.1933ZM64.3955 13.2066L58.8143 18.8148L60.5778 20.5868L66.1589 14.9786L64.3955 13.2066ZM60.5778 18.8148L57.9692 16.1933L56.2056 17.9653L58.8143 20.5867L60.5778 18.8148Z" fill="#F8FCFF"/>
<defs>
<linearGradient id="paint0_linear" x1="28.5" y1="0" x2="28.5" y2="54" gradientUnits="userSpaceOnUse">
<stop stop-color="#AAC1FD"/>
<stop offset="1" stop-color="#92B4FC"/>
</linearGradient>
<linearGradient id="paint1_linear" x1="55.5" y1="21" x2="55.5" y2="76" gradientUnits="userSpaceOnUse">
<stop stop-color="#AAC1FD"/>
<stop offset="1" stop-color="#92B4FC"/>
</linearGradient>
</defs>
</svg>
