<svg width="28" height="28" viewBox="0 0 28 28" fill="none" xmlns="http://www.w3.org/2000/svg">
<path d="M14.4999 6L7.88232 9.97049V17.9117L14.4999 21.8824L21.1176 17.9117V9.97049L14.4999 6Z" fill="#E5E6ED"/>
<path d="M21.1179 18.0591V10.4121L14.9414 14.2357V21.8827L21.1179 18.0591Z" fill="white"/>
<path d="M21.7359 10.0031L14.764 6.07008C14.6006 5.97794 14.3994 5.97794 14.236 6.07008L7.26409 10.0031C7.10068 10.0954 7 10.2658 7 10.4501V18.3163C7 18.5006 7.10068 18.6712 7.26409 18.7633L14.236 22.6965C14.3177 22.7425 14.4087 22.7657 14.4999 22.7657C14.5913 22.7657 14.6823 22.7425 14.764 22.6965L21.7359 18.7633C21.8993 18.6712 22 18.5006 22 18.3163V10.4501C22 10.2658 21.8993 10.0954 21.7359 10.0031ZM14.4999 7.11296L20.4155 10.4501L14.4999 13.7874L8.58453 10.4501L14.4999 7.11296ZM15.0281 21.3557V19.0282C15.0281 18.7431 14.7916 18.5121 14.4999 18.5121C14.2084 18.5121 13.9719 18.7431 13.9719 19.0282V21.3557L8.05635 18.0184V11.344L14.236 14.8303C14.3177 14.8762 14.4087 14.8994 14.4999 14.8994C14.5913 14.8994 14.6823 14.8762 14.764 14.8303L20.9436 11.344V18.0184L15.0281 21.3557Z" fill="#728099"/>
<path d="M14.5003 15.707C14.3838 15.707 14.2705 15.7541 14.188 15.8363C14.106 15.9183 14.0588 16.0321 14.0588 16.1482C14.0588 16.2642 14.106 16.3779 14.188 16.46C14.2705 16.5422 14.3838 16.5894 14.5003 16.5894C14.6162 16.5894 14.73 16.5422 14.812 16.46C14.894 16.3779 14.9412 16.2642 14.9412 16.1482C14.9412 16.0321 14.894 15.9183 14.812 15.8363C14.73 15.7541 14.6162 15.707 14.5003 15.707Z" fill="#728099"/>
<path d="M7.47162 2.88364L6.19432 5.90889L2.73144 7.50713V10.989L1 14.0714L2.73144 16.9539V20.5785L6.19432 22.2909L7.47162 25.3161L11.048 25.2591L14 27L17.0087 24.888L20.8406 25.3161L22.0611 22.2909L25.3253 20.5785V16.9539L27 14.0714L25.3253 10.989V7.50713L22.0611 5.90889L20.3865 2.88364H17.0087L14 1L10.7358 2.88364H7.47162Z" stroke="#728099"/>
</svg>
