<svg width="23" height="26" viewBox="0 0 23 26" fill="none" xmlns="http://www.w3.org/2000/svg">
<path d="M8.238 18.8C8.118 18.8 8.01 18.758 7.914 18.674C7.83 18.59 7.788 18.482 7.788 18.35V17.09C6.888 16.982 6.12 16.76 5.484 16.424C4.86 16.076 4.386 15.65 4.062 15.146C3.75 14.642 3.582 14.108 3.558 13.544C3.558 13.436 3.594 13.346 3.666 13.274C3.75 13.202 3.846 13.166 3.954 13.166H6.348C6.504 13.166 6.624 13.19 6.708 13.238C6.792 13.286 6.888 13.37 6.996 13.49C7.368 14.15 8.052 14.48 9.048 14.48C9.696 14.48 10.194 14.384 10.542 14.192C10.902 13.988 11.082 13.712 11.082 13.364C11.082 13.112 10.986 12.908 10.794 12.752C10.614 12.584 10.326 12.44 9.93 12.32C9.546 12.188 8.976 12.044 8.22 11.888C6.768 11.6 5.682 11.162 4.962 10.574C4.242 9.986 3.882 9.146 3.882 8.054C3.882 7.082 4.23 6.26 4.926 5.588C5.622 4.904 6.576 4.478 7.788 4.31V3.05C7.788 2.918 7.83 2.81 7.914 2.726C8.01 2.642 8.118 2.6 8.238 2.6H9.804C9.936 2.6 10.044 2.642 10.128 2.726C10.212 2.81 10.254 2.918 10.254 3.05V4.346C11.046 4.49 11.73 4.748 12.306 5.12C12.882 5.48 13.32 5.9 13.62 6.38C13.932 6.848 14.1 7.304 14.124 7.748C14.124 7.856 14.088 7.952 14.016 8.036C13.944 8.108 13.854 8.144 13.746 8.144H11.226C10.95 8.144 10.746 8.036 10.614 7.82C10.542 7.568 10.35 7.358 10.038 7.19C9.738 7.01 9.372 6.92 8.94 6.92C8.436 6.92 8.046 7.01 7.77 7.19C7.494 7.37 7.356 7.634 7.356 7.982C7.356 8.33 7.536 8.606 7.896 8.81C8.256 9.002 8.922 9.2 9.894 9.404C11.022 9.608 11.922 9.866 12.594 10.178C13.266 10.478 13.758 10.874 14.07 11.366C14.382 11.846 14.538 12.458 14.538 13.202C14.538 14.258 14.148 15.128 13.368 15.812C12.6 16.496 11.562 16.922 10.254 17.09V18.35C10.254 18.482 10.212 18.59 10.128 18.674C10.044 18.758 9.936 18.8 9.804 18.8H8.238Z" fill="#E5E6ED"/>
</svg>
