<svg width="40" height="40" viewBox="0 0 40 40" fill="none" xmlns="http://www.w3.org/2000/svg">
<path d="M20.4999 10L12 14.9999V24.9999L20.4999 30L29 24.9999V14.9999L20.4999 10Z" fill="white"/>
<circle cx="20" cy="20" r="18" fill="#F8FCFF"/>
<path d="M37.1518 15.4173L37.4271 10.474C37.4464 10.1422 37.2659 9.8306 36.9684 9.68211L32.5647 7.45649L30.3379 3.05506C30.1864 2.76038 29.8766 2.58096 29.5456 2.59659L24.5912 2.8636L20.4628 0.137494C20.1846 -0.0458312 19.8239 -0.0458312 19.5454 0.137494L15.4169 2.8636L10.4714 2.58845C10.1391 2.56891 9.82761 2.7493 9.67905 3.04692L7.45194 7.44835L3.04852 9.67397C2.75335 9.82506 2.57417 10.1347 2.58981 10.4659L2.86478 15.4091L0.137566 19.5354C-0.0458553 19.8135 -0.0458553 20.174 0.137566 20.4524L2.85663 24.5868L2.58134 29.53C2.56211 29.8619 2.74228 30.1735 3.04005 30.322L7.44379 32.5476L9.67058 36.949C9.82175 37.244 10.1316 37.4231 10.4629 37.4075L15.4088 37.1323L19.5372 39.8581C19.8138 40.0473 20.178 40.0473 20.4546 39.8581L24.5831 37.1323L29.5289 37.4075C29.8609 37.4267 30.1724 37.2463 30.3213 36.949L32.5481 32.5476L36.9518 30.322C37.2466 30.1705 37.4262 29.8612 37.4105 29.53L37.1352 24.5868L39.8624 20.4605C40.0459 20.1824 40.0459 19.8216 39.8624 19.5436L37.1518 15.4173ZM35.6004 23.9033C35.4988 24.0524 35.4515 24.2319 35.4672 24.4119L35.7255 29.0882L31.5638 31.1888C31.4052 31.2682 31.2765 31.3972 31.197 31.5557L29.095 35.7152L24.4163 35.457C24.2371 35.4505 24.0602 35.4967 23.9074 35.5902L20.0041 38.1662L16.1011 35.5902C15.9655 35.4987 15.8059 35.4492 15.6424 35.4485H15.6007L10.9216 35.7071L8.81994 31.5473C8.74045 31.3887 8.61176 31.2601 8.45277 31.1806L4.28263 29.0882L4.5413 24.4119C4.54782 24.2328 4.50123 24.056 4.40773 23.9033L1.83071 20.002L4.40773 16.1008C4.5097 15.952 4.55694 15.7722 4.5413 15.5925L4.28263 10.9159L8.44462 8.81531C8.60329 8.73586 8.73197 8.60724 8.81147 8.44866L10.9132 4.28884L15.5922 4.54739C15.771 4.55357 15.948 4.50733 16.1011 4.41388L20.0041 1.83821L23.9074 4.41388C24.0566 4.5158 24.2364 4.56302 24.4163 4.54739L29.095 4.28884L31.197 8.44866C31.2765 8.60724 31.4052 8.73586 31.5638 8.81531L35.7255 10.9159L35.4672 15.5925C35.4607 15.7712 35.5072 15.948 35.6004 16.1008L38.1778 20.002L35.6004 23.9033Z" fill="#4C7FF7"/>
<path d="M29 25.9999V16L21 21.0001V31L29 25.9999Z" fill="#BBCDFB"/>
<path d="M29.6655 15.0694L20.8344 10.0875C20.6274 9.97082 20.3726 9.97082 20.1656 10.0875L11.3345 15.0694C11.1275 15.1863 11 15.4021 11 15.6355V25.5995C11 25.8329 11.1275 26.0489 11.3345 26.1656L20.1656 31.1477C20.2691 31.2059 20.3844 31.2353 20.4999 31.2353C20.6156 31.2353 20.7309 31.2059 20.8344 31.1477L29.6655 26.1656C29.8725 26.0489 30 25.8329 30 25.5995V15.6355C30 15.4021 29.8725 15.1863 29.6655 15.0694V15.0694ZM20.4999 11.4085L27.9929 15.6355L20.4999 19.8628L13.0071 15.6355L20.4999 11.4085ZM21.1689 29.4493V26.5011C21.1689 26.1401 20.8694 25.8474 20.4999 25.8474C20.1306 25.8474 19.8311 26.1401 19.8311 26.5011V29.4493L12.338 25.222V16.7678L20.1656 21.1838C20.2691 21.242 20.3844 21.2713 20.4999 21.2713C20.6156 21.2713 20.7309 21.242 20.8344 21.1838L28.662 16.7678V25.222L21.1689 29.4493Z" fill="#728099"/>
<path d="M20.5003 23.4121C20.3528 23.4121 20.2093 23.4717 20.1048 23.5758C20.0009 23.6797 19.9412 23.8238 19.9412 23.9709C19.9412 24.1178 20.0009 24.2619 20.1048 24.3658C20.2093 24.4699 20.3528 24.5298 20.5003 24.5298C20.6471 24.5298 20.7913 24.4699 20.8952 24.3658C20.999 24.2619 21.0588 24.1178 21.0588 23.9709C21.0588 23.8238 20.999 23.6797 20.8952 23.5758C20.7913 23.4717 20.6471 23.4121 20.5003 23.4121Z" fill="#728099"/>
</svg>
