<svg width="30" height="19" viewBox="0 0 30 19" fill="none" xmlns="http://www.w3.org/2000/svg">
<rect x="1" y="3" width="4" height="4" rx="0.5" fill="#E5E6ED"/>
<rect x="1" y="8" width="4" height="4" rx="0.5" fill="#E5E6ED"/>
<rect x="1" y="13" width="4" height="4" rx="0.5" fill="#E5E6ED"/>
<rect x="6" y="3" width="4" height="4" rx="0.5" fill="#E5E6ED"/>
<rect x="6" y="8" width="4" height="4" rx="0.5" fill="#E5E6ED"/>
<rect x="6" y="13" width="4" height="4" rx="0.5" fill="#E5E6ED"/>
<rect x="11" y="3" width="4" height="4" rx="0.5" fill="#E5E6ED"/>
<rect x="11" y="8" width="4" height="4" rx="0.5" fill="#4C7FF7"/>
<rect x="11" y="13" width="4" height="4" rx="0.5" fill="#E5E6ED"/>
<rect x="16" y="3" width="4" height="4" rx="0.5" fill="#E5E6ED"/>
<rect x="16" y="8" width="4" height="4" rx="0.5" fill="#E5E6ED"/>
<rect x="16" y="13" width="4" height="4" rx="0.5" fill="#E5E6ED"/>
</svg>
