<svg width="19" height="20" viewBox="0 0 19 20" fill="none" xmlns="http://www.w3.org/2000/svg">
<path d="M14.3511 1.13545V1.21045H14.4261H18.1717C18.446 1.21045 18.6683 1.43286 18.6682 1.70706V14.6233C18.6682 14.8975 18.4458 15.1199 18.1716 15.1199H14.6631H14.6036L14.5901 15.1778C14.0356 17.5469 11.9069 19.3169 9.37161 19.3169C6.83632 19.3169 4.7076 17.5469 4.15314 15.1778L4.13959 15.1199H4.08011H0.571631C0.297417 15.1199 0.075 14.8975 0.075 14.6233V1.70708C0.075 1.43287 0.297417 1.21045 0.571631 1.21045H4.45911H4.5341V1.13545V0.571631C4.5341 0.297417 4.75652 0.075 5.03074 0.075C5.30495 0.075 5.52737 0.297417 5.52737 0.571631V1.13545V1.21045H5.60237H8.79998H8.87498V1.13545V0.571631C8.87498 0.297417 9.09739 0.075 9.37161 0.075C9.64582 0.075 9.86824 0.297417 9.86824 0.571631V1.13545V1.21045H9.94324H13.2828H13.3578V1.13545V0.571631C13.3578 0.297417 13.5802 0.075 13.8544 0.075C14.1287 0.075 14.3511 0.297417 14.3511 0.571631V1.13545ZM4.5341 2.27871V2.20371H4.45911H1.14326H1.06826V2.27871V4.6163V4.6913H1.14326H17.6H17.6751V4.6163V2.27871V2.20371H17.6H14.4261H14.3511V2.27871V2.79528C14.3511 3.06949 14.1287 3.29191 13.8544 3.29191C13.5802 3.29191 13.3578 3.06949 13.3578 2.79528V2.27871V2.20371H13.2828H9.94324H9.86824V2.27871V2.79528C9.86824 3.06949 9.64582 3.29191 9.37161 3.29191C9.09739 3.29191 8.87498 3.06949 8.87498 2.79528V2.27871V2.20371H8.79998H5.60237H5.52737V2.27871V2.79528C5.52737 3.06949 5.30495 3.29191 5.03074 3.29191C4.75652 3.29191 4.5341 3.06949 4.5341 2.79528V2.27871ZM14.7298 14.0503L14.7284 14.1267H14.8048H17.6H17.675V14.0517V5.75966V5.68466H17.6H1.14317H1.06817V5.75966V14.0517V14.1267H1.14317H3.93844H4.01458L4.01344 14.0505C4.01317 14.0331 4.01266 14.019 4.01219 14.0058C4.0116 13.9897 4.01106 13.9748 4.01106 13.9564C4.01106 11.0006 6.41587 8.59583 9.37161 8.59583C12.3273 8.59583 14.7322 11.0006 14.7322 13.9564C14.7322 13.9749 14.7316 13.9908 14.731 14.0081C14.7305 14.0209 14.7301 14.0345 14.7298 14.0503ZM5.00432 13.9564C5.00432 16.3645 6.96344 18.3237 9.37161 18.3237C11.7799 18.3237 13.7389 16.3646 13.7389 13.9564C13.7389 11.5481 11.7798 9.58909 9.37161 9.58909C6.96344 9.58909 5.00432 11.5482 5.00432 13.9564Z" fill="white" stroke="white" stroke-width="0.15"/>
<path d="M9.84307 14.1007V14.1421L9.87235 14.1714L11.0188 15.318L11.0188 15.318C11.2029 15.5021 11.2029 15.8008 11.0188 15.9849C10.9266 16.077 10.806 16.123 10.6852 16.123C10.5644 16.123 10.4439 16.077 10.3517 15.9849C10.3517 15.9849 10.3517 15.9849 10.3517 15.9849L9.03794 14.6711C8.94948 14.5825 8.8998 14.4626 8.8998 14.3375V11.3353C8.8998 11.0749 9.11103 10.8637 9.37144 10.8637C9.63184 10.8637 9.84307 11.0749 9.84307 11.3353V14.1007Z" fill="white" stroke="white" stroke-width="0.2"/>
</svg>
