<svg width="128" height="111" viewBox="0 0 128 111" fill="none" xmlns="http://www.w3.org/2000/svg">
<circle cx="12.8961" cy="71.9851" r="3.84653" fill="#4C7FF7"/>
<circle cx="83.7822" cy="102.208" r="2.19802" fill="#4C7FF7"/>
<circle cx="98.6189" cy="3.84653" r="3.84653" fill="#4C7FF7"/>
<ellipse opacity="0.2" cx="39.8218" cy="40.6634" rx="39.5644" ry="37.3663" fill="url(#paint0_linear)"/>
<ellipse opacity="0.2" cx="88.1783" cy="73.6337" rx="39.5644" ry="37.3663" fill="url(#paint1_linear)"/>
<path d="M44.9785 37.2609L28.5497 43.9868H95.0116L77.836 37.2609H44.9785Z" fill="url(#paint2_linear)"/>
<g filter="url(#filter0_d)">
<path d="M33.5382 31.0617L39.1061 51.5614C39.5404 53.1603 41.1874 54.0997 42.7847 53.6595L63.6868 47.8999C65.2842 47.4598 66.227 45.8068 65.7927 44.2078L60.2247 23.7081C59.7905 22.1092 58.1435 21.1698 56.5462 21.61L35.644 27.3696C34.0467 27.8098 33.1039 29.4628 33.5382 31.0617Z" fill="url(#paint3_linear)"/>
<path d="M33.5382 31.0617L39.1061 51.5614C39.5404 53.1603 41.1874 54.0997 42.7847 53.6595L63.6868 47.8999C65.2842 47.4598 66.227 45.8068 65.7927 44.2078L60.2247 23.7081C59.7905 22.1092 58.1435 21.1698 56.5462 21.61L35.644 27.3696C34.0467 27.8098 33.1039 29.4628 33.5382 31.0617Z" stroke="#728099"/>
</g>
<rect width="21.74" height="9.89998" rx="1" transform="matrix(0.964086 -0.265593 0.262173 0.965022 36.3903 30.243)" fill="#ECF1FF"/>
<rect width="21.7319" height="2.96658" rx="1" transform="matrix(0.964147 -0.265371 0.262393 0.964962 39.5165 41.7184)" fill="#4C7FF7"/>
<rect width="21.7319" height="2.96658" rx="1" transform="matrix(0.964147 -0.26537 0.262394 0.964962 40.8191 46.5027)" fill="url(#paint4_linear)" fill-opacity="0.4"/>
<g filter="url(#filter1_d)">
<path d="M61.1653 16.847L57.7952 44.5762C57.5953 46.221 58.7663 47.7191 60.4106 47.9224L81.9102 50.58C83.5546 50.7833 85.0496 49.6147 85.2495 47.9699L88.6196 20.2407C88.8195 18.5959 87.6485 17.0978 86.0042 16.8946L64.5046 14.2369C62.8602 14.0337 61.3652 15.2022 61.1653 16.847Z" fill="white"/>
<path d="M61.1653 16.847L57.7952 44.5762C57.5953 46.221 58.7663 47.7191 60.4106 47.9224L81.9102 50.58C83.5546 50.7833 85.0496 49.6147 85.2495 47.9699L88.6196 20.2407C88.8195 18.5959 87.6485 17.0978 86.0042 16.8946L64.5046 14.2369C62.8602 14.0337 61.3652 15.2022 61.1653 16.847Z" stroke="#728099"/>
</g>
<rect width="21.7287" height="12.3344" rx="1" transform="matrix(0.992448 0.122667 -0.120659 0.992694 64.0288 17.9075)" fill="#ECF1FF"/>
<rect width="21.7239" height="3.69617" rx="1" transform="matrix(0.992462 0.122556 -0.120769 0.992681 62.2395 32.6129)" fill="#4C7FF7"/>
<rect width="21.7239" height="3.69617" rx="1" transform="matrix(0.992462 0.122556 -0.120769 0.992681 61.4921 38.7399)" fill="#ECF1FF"/>
<path d="M28.5497 81.5952V43.9869H95.0116V81.5952C95.0116 82.6998 94.1162 83.5952 93.0116 83.5952H30.5497C29.4451 83.5952 28.5497 82.6998 28.5497 81.5952Z" fill="url(#paint5_linear)"/>
<path opacity="0.5" d="M39.8218 51.2525C38.9934 51.2525 38.3218 51.9241 38.3218 52.7525C38.3218 53.5809 38.9934 54.2525 39.8218 54.2525V51.2525ZM83.7822 54.2525C84.6106 54.2525 85.2822 53.5809 85.2822 52.7525C85.2822 51.9241 84.6106 51.2525 83.7822 51.2525V54.2525ZM39.8218 54.2525H83.7822V51.2525H39.8218V54.2525Z" fill="#ECF2FF"/>
<path opacity="0.5" d="M50.8119 57.8466C49.9835 57.8466 49.3119 58.5181 49.3119 59.3466C49.3119 60.175 49.9835 60.8466 50.8119 60.8466V57.8466ZM72.7921 60.8466C73.6205 60.8466 74.2921 60.175 74.2921 59.3466C74.2921 58.5181 73.6205 57.8466 72.7921 57.8466V60.8466ZM50.8119 60.8466H72.7921V57.8466H50.8119V60.8466Z" fill="#ECF2FF"/>
<g filter="url(#filter2_d)">
<circle cx="100.267" cy="75.8317" r="16.4851" fill="#20BAC3"/>
</g>
<path d="M101.63 69.2315C101.626 68.5412 101.064 67.9842 100.374 67.9876C99.6832 67.9909 99.1263 68.5532 99.1296 69.2436L101.63 69.2315ZM99.1948 82.7214C99.1981 83.4118 99.7604 83.9687 100.451 83.9654C101.141 83.962 101.698 83.3997 101.695 82.7093L99.1948 82.7214ZM107.157 77.194C107.847 77.1906 108.404 76.6283 108.401 75.9379C108.398 75.2476 107.835 74.6907 107.145 74.694L107.157 77.194ZM93.6672 74.7591C92.9768 74.7624 92.4199 75.3248 92.4232 76.0151C92.4266 76.7055 92.9889 77.2624 93.6793 77.2591L93.6672 74.7591ZM99.1296 69.2436L99.1948 82.7214L101.695 82.7093L101.63 69.2315L99.1296 69.2436ZM107.145 74.694L93.6672 74.7591L93.6793 77.2591L107.157 77.194L107.145 74.694Z" fill="#F8FCFF"/>
<defs>
<filter id="filter0_d" x="28.9327" y="21.0009" width="41.4653" height="41.2677" filterUnits="userSpaceOnUse" color-interpolation-filters="sRGB">
<feFlood flood-opacity="0" result="BackgroundImageFix"/>
<feColorMatrix in="SourceAlpha" type="matrix" values="0 0 0 0 0 0 0 0 0 0 0 0 0 0 0 0 0 0 127 0"/>
<feOffset dy="4"/>
<feGaussianBlur stdDeviation="2"/>
<feColorMatrix type="matrix" values="0 0 0 0 0.690196 0 0 0 0 0.794874 0 0 0 0 0.992157 0 0 0 0.53 0"/>
<feBlend mode="normal" in2="BackgroundImageFix" result="effect1_dropShadow"/>
<feBlend mode="normal" in="SourceGraphic" in2="effect1_dropShadow" result="shape"/>
</filter>
<filter id="filter1_d" x="53.2731" y="13.7138" width="39.8687" height="45.3893" filterUnits="userSpaceOnUse" color-interpolation-filters="sRGB">
<feFlood flood-opacity="0" result="BackgroundImageFix"/>
<feColorMatrix in="SourceAlpha" type="matrix" values="0 0 0 0 0 0 0 0 0 0 0 0 0 0 0 0 0 0 127 0"/>
<feOffset dy="4"/>
<feGaussianBlur stdDeviation="2"/>
<feColorMatrix type="matrix" values="0 0 0 0 0.690196 0 0 0 0 0.794874 0 0 0 0 0.992157 0 0 0 0.53 0"/>
<feBlend mode="normal" in2="BackgroundImageFix" result="effect1_dropShadow"/>
<feBlend mode="normal" in="SourceGraphic" in2="effect1_dropShadow" result="shape"/>
</filter>
<filter id="filter2_d" x="79.7822" y="59.3466" width="40.9703" height="40.9703" filterUnits="userSpaceOnUse" color-interpolation-filters="sRGB">
<feFlood flood-opacity="0" result="BackgroundImageFix"/>
<feColorMatrix in="SourceAlpha" type="matrix" values="0 0 0 0 0 0 0 0 0 0 0 0 0 0 0 0 0 0 127 0"/>
<feOffset dy="4"/>
<feGaussianBlur stdDeviation="2"/>
<feColorMatrix type="matrix" values="0 0 0 0 0.690196 0 0 0 0 0.794874 0 0 0 0 0.992157 0 0 0 0.53 0"/>
<feBlend mode="normal" in2="BackgroundImageFix" result="effect1_dropShadow"/>
<feBlend mode="normal" in="SourceGraphic" in2="effect1_dropShadow" result="shape"/>
</filter>
<linearGradient id="paint0_linear" x1="39.8218" y1="3.29706" x2="39.8218" y2="78.0297" gradientUnits="userSpaceOnUse">
<stop stop-color="#AAC1FD"/>
<stop offset="1" stop-color="#92B4FC"/>
</linearGradient>
<linearGradient id="paint1_linear" x1="88.1783" y1="36.2673" x2="88.1783" y2="111" gradientUnits="userSpaceOnUse">
<stop stop-color="#AAC1FD"/>
<stop offset="1" stop-color="#92B4FC"/>
</linearGradient>
<linearGradient id="paint2_linear" x1="61.7806" y1="37.2609" x2="61.7806" y2="43.9868" gradientUnits="userSpaceOnUse">
<stop stop-color="#7A9EF5"/>
<stop offset="1" stop-color="#5590FC"/>
</linearGradient>
<linearGradient id="paint3_linear" x1="46.0951" y1="24.4898" x2="53.3321" y2="50.7532" gradientUnits="userSpaceOnUse">
<stop offset="0.526042" stop-color="white"/>
</linearGradient>
<linearGradient id="paint4_linear" x1="10.8659" y1="0" x2="10.8659" y2="2.96658" gradientUnits="userSpaceOnUse">
<stop offset="0.567708" stop-color="#99B3F7"/>
<stop offset="1" stop-color="#6FA1FC"/>
</linearGradient>
<linearGradient id="paint5_linear" x1="61.7806" y1="43.9869" x2="61.7806" y2="83.5952" gradientUnits="userSpaceOnUse">
<stop stop-color="#AAC1FD"/>
<stop offset="1" stop-color="#92B4FC"/>
</linearGradient>
</defs>
</svg>
