<svg width="21" height="24" viewBox="0 0 21 24" fill="none" xmlns="http://www.w3.org/2000/svg">
<path d="M19.2981 8.86099L12.2981 12.8836C11.9877 13.062 11.7964 13.3927 11.7964 13.7506V21.8659C11.7964 22.6355 12.6294 23.1167 13.2961 22.7321L20.2961 18.6936C20.6057 18.515 20.7964 18.1848 20.7964 17.8274V9.72802C20.7964 8.95912 19.9648 8.47788 19.2981 8.86099Z" fill="#4C7FF7"/>
<path d="M1.50289 8.87441L8.00579 12.6579C8.62133 13.016 9 13.6745 9 14.3866V21.8885C9 22.6598 8.16377 23.1407 7.49711 22.7529L0.497106 18.6801C0.189337 18.5011 0 18.1719 0 17.8158V9.73876C0 8.96747 0.836232 8.48653 1.50289 8.87441Z" fill="#E9F0FE"/>
<path d="M18.7389 6.42428L11.1811 10.7209C10.8764 10.8941 10.5033 10.8952 10.1977 10.7238L2.53672 6.42709C1.85958 6.04732 1.85463 5.07439 2.52786 4.68774L9.93806 0.431955C10.4034 0.164714 10.976 0.166394 11.4398 0.436361L18.7478 4.69071C19.4143 5.07869 19.4093 6.04315 18.7389 6.42428Z" fill="#B7CCFC"/>
</svg>
