<svg width="8" height="10" viewBox="0 0 8 10" fill="none" xmlns="http://www.w3.org/2000/svg">
<path d="M5.46763 4.70161V0.340634C5.46763 0.152509 5.31477 0 5.12621 0H2.83214C2.64358 0 2.49072 0.152509 2.49072 0.340634V4.70161H1.51544C1.21128 4.70161 1.05894 5.06849 1.27401 5.28307L3.45325 7.45729C3.74369 7.74706 4.21462 7.74706 4.50506 7.45729L6.68429 5.28307C6.89936 5.06849 6.74702 4.70161 6.44287 4.70161H5.46763Z" fill="white"/>
<path d="M6.63975 8.6543H1.31887C0.951423 8.6543 0.653564 8.95147 0.653564 9.31808V9.33632C0.653564 9.70293 0.951423 10.0001 1.31887 10.0001H6.63975C7.0072 10.0001 7.30506 9.70293 7.30506 9.33632V9.31808C7.30506 8.95147 7.0072 8.6543 6.63975 8.6543Z" fill="white"/>
</svg>
