<?xml version="1.0" encoding="UTF-8"?>
<svg width="500px" height="500px" viewBox="0 0 500 500" version="1.1" xmlns="http://www.w3.org/2000/svg" xmlns:xlink="http://www.w3.org/1999/xlink">
    <!-- Generator: Sketch 53.2 (72643) - https://sketchapp.com -->
    <title>Artboard</title>
    <desc>Created with Sketch.</desc>
    <g id="Artboard" stroke="none" stroke-width="1" fill="none" fill-rule="evenodd">
        <g id="Group" transform="translate(25.000000, 45.000000)">
            <g id="coin" fill="#454B61" fill-rule="nonzero">
                <path d="M349.305506,59.9307282 C310.658259,21.2834813 259.273535,0 204.618117,0 C149.9627,0 98.5779751,21.2834813 59.9307282,59.9307282 C21.2842806,98.5779751 0,149.9627 0,204.618117 C0,259.273535 21.2842806,310.658259 59.9307282,349.305506 C98.5779751,387.952753 149.9627,409.236234 204.618117,409.236234 C259.273535,409.236234 310.658259,387.952753 349.305506,349.305506 C387.951954,310.658259 409.236234,259.273535 409.236234,204.618117 C409.236234,149.9627 387.951954,98.5779751 349.305506,59.9307282 Z M204.618117,385.257549 C105.013055,385.257549 23.9786856,304.223179 23.9786856,204.618117 C23.9786856,105.013055 105.013055,23.9786856 204.618117,23.9786856 C304.223179,23.9786856 385.257549,105.013055 385.257549,204.618117 C385.257549,304.223179 304.223179,385.257549 204.618117,385.257549 Z" id="Shape"></path>
                <path d="M217.460302,192.628774 L191.775933,192.628774 C177.143339,192.628774 165.23952,180.724956 165.23952,166.093162 C165.23952,151.460568 177.144139,139.55675 191.775933,139.55675 L243.143872,139.55675 C249.765187,139.55675 255.133215,134.188721 255.133215,127.567407 C255.133215,120.946092 249.765187,115.578064 243.143872,115.578064 L216.60746,115.578064 L216.60746,89.0416519 C216.60746,82.4203375 211.239432,77.0523091 204.618117,77.0523091 C197.996803,77.0523091 192.628774,82.4203375 192.628774,89.0416519 L192.628774,115.578064 L191.776732,115.578064 C163.922291,115.578064 141.261634,138.23952 141.261634,166.093162 C141.261634,193.946803 163.923091,216.60746 191.776732,216.60746 L217.461101,216.60746 C232.092895,216.60746 243.996714,228.512078 243.996714,243.143872 C243.996714,257.775666 232.092895,269.680284 217.461101,269.680284 L166.093162,269.680284 C159.471847,269.680284 154.103819,275.048313 154.103819,281.669627 C154.103819,288.290941 159.471847,293.65897 166.093162,293.65897 L192.628774,293.65897 L192.628774,320.196181 C192.628774,326.817496 197.996803,332.185524 204.618117,332.185524 C211.239432,332.185524 216.60746,326.817496 216.60746,320.196181 L216.60746,293.65897 L217.460302,293.65897 C245.313943,293.65897 267.9746,270.997513 267.9746,243.143872 C267.9746,215.290231 245.313943,192.628774 217.460302,192.628774 Z" id="Path"></path>
            </g>
            <circle id="Oval" stroke="#FFFFFF" stroke-width="10" fill="#728099" cx="370.071048" cy="329.307282" r="84.928952"></circle>
            <g id="clock" transform="translate(322.113677, 281.349911)" fill="#FFFFFF">
                <path d="M92.0863024,29.2886323 C87.029464,17.4991119 78.436318,8.92492947 66.5483753,3.85476962 C60.6066764,1.32070839 54.3817783,0.0263295371 47.8785393,0.0263295371 C41.3763975,0.0263295371 35.1974193,1.30848396 29.2623028,3.85476962 C17.4727824,8.91145126 8.84155261,17.4801484 3.77578101,29.2886323 C1.23733152,35.2046286 0,41.4025703 0,47.9047122 C0,54.4081078 1.23733152,60.6574548 3.77578101,66.5747048 C8.84155261,78.3831888 17.4738794,87.0032912 29.2623028,92.0612266 C35.1985164,94.6075123 41.3762407,95.8884129 47.8785393,95.8884129 C54.3808379,95.8884129 60.6066764,94.5940341 66.547435,92.0612266 C78.4353777,86.99091 87.0285237,78.3631282 92.0864591,66.5747048 C94.632588,60.6384913 95.9147425,54.4081078 95.9147425,47.9047122 C95.9147425,41.4025703 94.6336851,35.2246892 92.0863024,29.2886323 Z M84.430676,69.0919967 C80.6660224,75.5482186 75.5085675,80.6700972 69.013008,84.4570055 C62.5567861,88.2216592 55.4827604,90.1202069 47.8796364,90.1202069 C42.1639327,90.1202069 36.7099572,89.0193815 31.5177097,86.7639745 C26.3256191,84.5096646 21.8427019,81.5460244 18.0926236,77.7970432 C14.3425452,74.0469648 11.3577474,69.5203218 9.12584892,64.3192979 C6.90053286,59.1372375 5.8221189,53.6216696 5.8221189,47.9048689 C5.8221189,40.3006478 7.69041897,33.2625118 11.433915,26.8241563 C15.1907324,20.3622923 20.3492843,15.2349284 26.7989238,11.4589907 C33.2474663,7.6832097 40.275572,5.7946923 47.8785393,5.7946923 C55.4827604,5.7946923 62.5555323,7.69433706 69.011911,11.4589907 C75.5074705,15.2460558 80.6537979,20.373263 84.4295789,26.8239996 C88.2053599,33.2736391 90.0927803,40.3006478 90.0927803,47.9047122 C90.0927803,55.50909 88.2177411,62.5951834 84.430676,69.0919967 Z" id="Shape" fill-rule="nonzero"></path>
                <path d="M50.9203845,47.4853202 L50.9203845,20.3206039 C50.9203845,18.6950684 49.5040748,17.3839202 47.8783826,17.3839202 C46.3580086,17.3839202 44.9942012,18.6950684 44.9942012,20.3206039 L44.9942012,47.9047122 C44.9942012,47.9573712 45.0993627,48.1676941 45.0993627,48.3244175 C44.9942012,49.2685195 45.2571832,50.0551144 45.8859576,50.6849859 L61.5666075,66.3645387 C62.6158709,67.4138021 64.5557935,67.4138021 65.6042733,66.3645387 C66.8101034,65.1585519 66.7308014,63.4087347 65.6042733,62.2742138 L50.9203845,47.4853202 Z" id="Path"></path>
            </g>
        </g>
    </g>
</svg>