<svg width="128" height="109" viewBox="0 0 128 109" fill="none" xmlns="http://www.w3.org/2000/svg">
<circle cx="83.5247" cy="100.208" r="2.19802" fill="#4C7FF7"/>
<circle cx="73.8465" cy="3.84653" r="3.84653" fill="#4C7FF7"/>
<circle cx="19.5" cy="63.5" r="2.5" fill="#4C7FF7"/>
<ellipse opacity="0.1" cx="39.5644" cy="38.6633" rx="39.5644" ry="37.3663" fill="url(#paint0_linear)"/>
<ellipse opacity="0.1" cx="87.9208" cy="71.6337" rx="39.5644" ry="37.3663" fill="url(#paint1_linear)"/>
<path d="M44.721 35.2609L28.2922 41.9868H94.7542L77.5786 35.2609H44.721Z" fill="url(#paint2_linear)"/>
<g filter="url(#filter0_d)">
<path d="M33.2807 29.0617L38.8487 49.5614C39.283 51.1603 40.9299 52.0997 42.5272 51.6595L63.4294 45.8999C65.0267 45.4598 65.9695 43.8068 65.5353 42.2078L59.9673 21.7081C59.533 20.1092 57.8861 19.1698 56.2887 19.61L35.3866 25.3696C33.7893 25.8098 32.8464 27.4628 33.2807 29.0617Z" fill="url(#paint3_linear)"/>
<path d="M33.2807 29.0617L38.8487 49.5614C39.283 51.1603 40.9299 52.0997 42.5272 51.6595L63.4294 45.8999C65.0267 45.4598 65.9695 43.8068 65.5353 42.2078L59.9673 21.7081C59.533 20.1092 57.8861 19.1698 56.2887 19.61L35.3866 25.3696C33.7893 25.8098 32.8464 27.4628 33.2807 29.0617Z" stroke="#728099"/>
</g>
<rect width="21.74" height="9.89998" rx="1" transform="matrix(0.964086 -0.265593 0.262173 0.965022 36.1328 28.243)" fill="#ECF1FF"/>
<rect width="21.7319" height="2.96658" rx="1" transform="matrix(0.964147 -0.265371 0.262393 0.964962 39.259 39.7184)" fill="#4C7FF7"/>
<rect width="21.7319" height="2.96658" rx="1" transform="matrix(0.964147 -0.26537 0.262394 0.964962 40.5616 44.5027)" fill="url(#paint4_linear)" fill-opacity="0.4"/>
<g filter="url(#filter1_d)">
<path d="M60.9078 14.847L57.5378 42.5762C57.3379 44.221 58.5088 45.7191 60.1532 45.9224L81.6528 48.58C83.2971 48.7833 84.7922 47.6147 84.9921 45.9699L88.3621 18.2407C88.562 16.5959 87.3911 15.0978 85.7467 14.8946L64.2471 12.2369C62.6028 12.0337 61.1077 13.2022 60.9078 14.847Z" fill="white"/>
<path d="M60.9078 14.847L57.5378 42.5762C57.3379 44.221 58.5088 45.7191 60.1532 45.9224L81.6528 48.58C83.2971 48.7833 84.7922 47.6147 84.9921 45.9699L88.3621 18.2407C88.562 16.5959 87.3911 15.0978 85.7467 14.8946L64.2471 12.2369C62.6028 12.0337 61.1077 13.2022 60.9078 14.847Z" stroke="#728099"/>
</g>
<rect width="21.7287" height="12.3344" rx="1" transform="matrix(0.992448 0.122667 -0.120659 0.992694 63.7714 15.9075)" fill="#ECF1FF"/>
<rect width="21.7239" height="3.69617" rx="1" transform="matrix(0.992462 0.122556 -0.120769 0.992681 61.9821 30.6129)" fill="#4C7FF7"/>
<rect width="21.7239" height="3.69617" rx="1" transform="matrix(0.992462 0.122556 -0.120769 0.992681 61.2346 36.7399)" fill="#ECF1FF"/>
<path d="M28.2922 79.5952V41.9869H94.7542V79.5952C94.7542 80.6998 93.8587 81.5952 92.7542 81.5952H30.2922C29.1877 81.5952 28.2922 80.6998 28.2922 79.5952Z" fill="url(#paint5_linear)"/>
<path opacity="0.5" d="M39.5643 49.2524C38.7359 49.2524 38.0643 49.924 38.0643 50.7524C38.0643 51.5809 38.7359 52.2524 39.5643 52.2524V49.2524ZM83.5247 52.2524C84.3532 52.2524 85.0247 51.5809 85.0247 50.7524C85.0247 49.924 84.3532 49.2524 83.5247 49.2524V52.2524ZM39.5643 52.2524H83.5247V49.2524H39.5643V52.2524Z" fill="#ECF2FF"/>
<path opacity="0.5" d="M50.5544 55.8466C49.726 55.8466 49.0544 56.5181 49.0544 57.3466C49.0544 58.175 49.726 58.8466 50.5544 58.8466V55.8466ZM72.5346 58.8466C73.3631 58.8466 74.0346 58.175 74.0346 57.3466C74.0346 56.5181 73.3631 55.8466 72.5346 55.8466V58.8466ZM50.5544 58.8466H72.5346V55.8466H50.5544V58.8466Z" fill="#ECF2FF"/>
<g filter="url(#filter2_d)">
<circle cx="100.01" cy="73.8317" r="16.4851" fill="#20BAC3"/>
</g>
<path d="M101.304 84.808V82.312C104.352 81.952 105.936 79.888 105.936 77.752C105.936 75.592 104.328 73.816 101.664 73.288L101.304 73.216V68.296C102.768 68.704 103.488 69.952 103.632 70.864L105.792 70.072C105.408 68.512 104.256 66.544 101.304 66.16V63.616H99.432V66.136C96.744 66.472 94.848 68.416 94.848 70.696C94.848 73.048 96.384 74.56 98.832 75.064L99.432 75.184V80.2C97.536 79.864 96.624 78.376 96.48 76.84L94.2 77.56C94.464 79.672 96.096 81.976 99.432 82.312V84.808H101.304ZM103.584 77.872C103.584 78.976 102.864 79.912 101.304 80.2V75.568C102.864 75.928 103.584 76.864 103.584 77.872ZM97.224 70.6C97.224 69.424 98.04 68.488 99.432 68.224V72.784C97.8 72.472 97.224 71.608 97.224 70.6Z" fill="white"/>
<defs>
<filter id="filter0_d" x="28.6753" y="19.0009" width="41.4653" height="41.2677" filterUnits="userSpaceOnUse" color-interpolation-filters="sRGB">
<feFlood flood-opacity="0" result="BackgroundImageFix"/>
<feColorMatrix in="SourceAlpha" type="matrix" values="0 0 0 0 0 0 0 0 0 0 0 0 0 0 0 0 0 0 127 0"/>
<feOffset dy="4"/>
<feGaussianBlur stdDeviation="2"/>
<feColorMatrix type="matrix" values="0 0 0 0 0.690196 0 0 0 0 0.794874 0 0 0 0 0.992157 0 0 0 0.53 0"/>
<feBlend mode="normal" in2="BackgroundImageFix" result="effect1_dropShadow"/>
<feBlend mode="normal" in="SourceGraphic" in2="effect1_dropShadow" result="shape"/>
</filter>
<filter id="filter1_d" x="53.0156" y="11.7138" width="39.8687" height="45.3893" filterUnits="userSpaceOnUse" color-interpolation-filters="sRGB">
<feFlood flood-opacity="0" result="BackgroundImageFix"/>
<feColorMatrix in="SourceAlpha" type="matrix" values="0 0 0 0 0 0 0 0 0 0 0 0 0 0 0 0 0 0 127 0"/>
<feOffset dy="4"/>
<feGaussianBlur stdDeviation="2"/>
<feColorMatrix type="matrix" values="0 0 0 0 0.690196 0 0 0 0 0.794874 0 0 0 0 0.992157 0 0 0 0.53 0"/>
<feBlend mode="normal" in2="BackgroundImageFix" result="effect1_dropShadow"/>
<feBlend mode="normal" in="SourceGraphic" in2="effect1_dropShadow" result="shape"/>
</filter>
<filter id="filter2_d" x="79.5248" y="57.3466" width="40.9703" height="40.9703" filterUnits="userSpaceOnUse" color-interpolation-filters="sRGB">
<feFlood flood-opacity="0" result="BackgroundImageFix"/>
<feColorMatrix in="SourceAlpha" type="matrix" values="0 0 0 0 0 0 0 0 0 0 0 0 0 0 0 0 0 0 127 0"/>
<feOffset dy="4"/>
<feGaussianBlur stdDeviation="2"/>
<feColorMatrix type="matrix" values="0 0 0 0 0.690196 0 0 0 0 0.794874 0 0 0 0 0.992157 0 0 0 0.53 0"/>
<feBlend mode="normal" in2="BackgroundImageFix" result="effect1_dropShadow"/>
<feBlend mode="normal" in="SourceGraphic" in2="effect1_dropShadow" result="shape"/>
</filter>
<linearGradient id="paint0_linear" x1="39.5644" y1="1.297" x2="39.5644" y2="76.0297" gradientUnits="userSpaceOnUse">
<stop stop-color="#AAC1FD"/>
<stop offset="1" stop-color="#92B4FC"/>
</linearGradient>
<linearGradient id="paint1_linear" x1="87.9208" y1="34.2673" x2="87.9208" y2="109" gradientUnits="userSpaceOnUse">
<stop stop-color="#AAC1FD"/>
<stop offset="1" stop-color="#92B4FC"/>
</linearGradient>
<linearGradient id="paint2_linear" x1="61.5232" y1="35.2609" x2="61.5232" y2="41.9868" gradientUnits="userSpaceOnUse">
<stop stop-color="#7A9EF5"/>
<stop offset="1" stop-color="#5590FC"/>
</linearGradient>
<linearGradient id="paint3_linear" x1="45.8377" y1="22.4898" x2="53.0746" y2="48.7532" gradientUnits="userSpaceOnUse">
<stop offset="0.526042" stop-color="white"/>
</linearGradient>
<linearGradient id="paint4_linear" x1="10.8659" y1="0" x2="10.8659" y2="2.96658" gradientUnits="userSpaceOnUse">
<stop offset="0.567708" stop-color="#99B3F7"/>
<stop offset="1" stop-color="#6FA1FC"/>
</linearGradient>
<linearGradient id="paint5_linear" x1="61.5232" y1="41.9869" x2="61.5232" y2="81.5952" gradientUnits="userSpaceOnUse">
<stop stop-color="#AAC1FD"/>
<stop offset="1" stop-color="#92B4FC"/>
</linearGradient>
</defs>
</svg>
