<svg width="15" height="14" viewBox="0 0 15 14" fill="none" xmlns="http://www.w3.org/2000/svg">
<path d="M14.2317 8.39989L14.2317 1.74455C14.2317 1.28513 13.8019 0.912637 13.2718 0.912637L10.3921 0.912637L10.3921 9.23181L13.2718 9.23181C13.8019 9.23181 14.2317 8.85937 14.2317 8.39989Z" fill="#FF6F6F"/>
<path d="M1.76439 8.72902L4.34226 8.72902C4.56766 8.72902 4.68058 8.87872 4.7185 8.94318C4.75642 9.00721 4.83312 9.17811 4.72404 9.37403L3.81518 11.0029C3.61577 11.3595 3.59532 11.7789 3.75851 12.1534C3.9217 12.5282 4.24383 12.8001 4.64223 12.8989L5.28308 13.0583C5.43903 13.0973 5.60436 13.0477 5.71301 12.9277L9.19249 9.08058C9.55339 8.68068 9.75195 8.16501 9.75195 7.62815L9.75195 3.08384C9.75195 1.8867 8.77322 0.912618 7.57035 0.912618L3.22973 0.913042C2.24971 0.913042 1.38431 1.56992 1.12568 2.51008L0.194238 6.76433C0.166968 6.88264 0.152907 7.00393 0.152907 7.12521C0.152907 8.00939 0.875989 8.72903 1.7644 8.72903L1.76439 8.72902Z" fill="#FF6F6F"/>
</svg>
