<svg width="88" height="85" viewBox="0 0 88 85" fill="none" xmlns="http://www.w3.org/2000/svg">
<mask id="mask0" mask-type="alpha" maskUnits="userSpaceOnUse" x="3" y="0" width="85" height="85">
<path d="M88 42.5C88 65.9721 66.6267 85 45.6923 85C25.2679 85 3.38458 65.9721 3.38458 42.5C3.38458 19.0279 28.6719 0 45.6923 0C62.7126 0 88 16.6092 88 42.5Z" fill="#C4C4C4"/>
</mask>
<g mask="url(#mask0)">
<path d="M88 42.5C88 65.9721 66.6267 85 45.6923 85C25.2679 85 3.38458 65.9721 3.38458 42.5C3.38458 19.0279 28.6719 0 45.6923 0C62.7126 0 88 16.6092 88 42.5Z" fill="url(#paint0_linear)"/>
<g opacity="0.9">
<ellipse cx="46.61" cy="79.2138" rx="24.983" ry="19.3839" fill="url(#paint1_linear)"/>
<path d="M40.8447 65.1605V57.8915H50.4536V65.1605C50.0692 67.4865 47.4108 68.3911 46.1296 68.5526C43.8234 68.9403 41.6454 66.4527 40.8447 65.1605Z" fill="#A9C7FD"/>
<ellipse cx="45.1687" cy="38.5076" rx="17.7764" ry="17.4455" fill="url(#paint2_linear)"/>
<ellipse cx="33.1576" cy="47.2303" rx="4.80443" ry="4.84598" fill="#BAD4FD"/>
<ellipse cx="33.1577" cy="47.2302" rx="2.66913" ry="2.69221" fill="#D4DFFE"/>
<ellipse cx="58.1406" cy="47.2303" rx="4.80443" ry="4.84598" fill="#BAD4FD"/>
<ellipse cx="58.1407" cy="47.2302" rx="2.66913" ry="2.69221" fill="#D4DFFE"/>
<path d="M33.2497 43.6608C32.0966 55.6789 42.0578 59.3295 47.1825 59.6526C57.1758 58.8772 59.674 48.6683 59.6739 43.6608C60.0583 31.6428 55.0296 31.8689 52.4673 33.4843C50.7057 34.7765 45.8373 36.5857 40.4562 33.4843C35.0751 30.3828 33.4097 38.9764 33.2497 43.6608Z" fill="url(#paint3_linear)"/>
<path d="M54.2972 48.6841C50.4537 45.5827 44.2079 47.2302 42.7666 48.6841C42.7666 53.3362 46.9304 54.6609 49.0123 54.4993C52.4715 54.4993 53.9769 50.461 54.2972 48.6841Z" fill="white"/>
<path d="M43.247 42.3843C44.4001 42.3843 44.6884 43.3535 44.6884 43.8381L44.5218 43.7821C43.6947 43.504 42.7994 43.504 41.9723 43.7821L41.8057 43.8381C41.8057 43.3535 42.094 42.3843 43.247 42.3843Z" fill="#4C7FF7"/>
<path d="M53.8168 42.3843C54.9699 42.3843 55.2581 43.3535 55.2581 43.8381L55.0915 43.7821C54.2644 43.504 53.3691 43.504 52.542 43.7821L52.3755 43.8381C52.3755 43.3535 52.6637 42.3843 53.8168 42.3843Z" fill="#4C7FF7"/>
<ellipse cx="56.6995" cy="45.7764" rx="2.40221" ry="1.45379" fill="#BBCDFB"/>
<ellipse cx="40.3644" cy="45.7764" rx="2.40222" ry="1.45379" fill="#BBCDFB"/>
<path opacity="0.4" d="M81.2758 45.0607C81.0992 45.2148 80.9103 45.3542 80.7111 45.4774C79.3291 46.3687 77.1824 46.9301 75.4193 47.2199C74.2507 45.8504 72.9558 44.0228 72.4713 42.438C72.4039 42.2238 72.3522 42.005 72.3165 41.7832C71.888 39.4738 72.5758 37.5764 74.0384 37.0334C74.932 36.7543 75.9024 36.8798 76.6964 37.3774C77.4905 37.8749 78.0295 38.6951 78.173 39.624C78.8776 39.0054 79.8154 38.7256 80.742 38.8575C81.6685 38.9894 82.4919 39.52 82.9977 40.3109C83.7733 41.6728 83.0855 43.5702 81.2758 45.0607Z" fill="url(#paint4_linear)"/>
<path opacity="0.2" d="M19.3775 69.1315C19.2009 69.2856 19.0121 69.425 18.8128 69.5482C17.4308 70.4395 15.2841 71.0009 13.521 71.2907C12.3524 69.9212 11.0575 68.0936 10.573 66.5088C10.5056 66.2946 10.4539 66.0758 10.4182 65.854C9.98967 63.5446 10.6775 61.6472 12.1401 61.1042C13.0338 60.8251 14.0041 60.9506 14.7981 61.4482C15.5922 61.9457 16.1312 62.7659 16.2747 63.6948C16.9793 63.0762 17.9171 62.7964 18.8437 62.9283C19.7702 63.0602 20.5937 63.5908 21.0994 64.3817C21.8751 65.7436 21.1872 67.641 19.3775 69.1315Z" fill="url(#paint5_linear)"/>
</g>
</g>
<path d="M6.89744 35.7001C6.89744 37.3428 5.57298 38.6667 3.94872 38.6667C2.32446 38.6667 1 37.3428 1 35.7001C1 34.0573 2.32446 32.7334 3.94872 32.7334C5.57298 32.7334 6.89744 34.0573 6.89744 35.7001Z" stroke="#D1DAF6" stroke-width="2"/>
<path d="M77.9678 11.3334C77.9678 10.643 77.4081 10.0834 76.7178 10.0834C76.0274 10.0834 75.4678 10.643 75.4678 11.3334H77.9678ZM75.4678 18.1334C75.4678 18.8237 76.0274 19.3834 76.7178 19.3834C77.4081 19.3834 77.9678 18.8237 77.9678 18.1334H75.4678ZM75.4678 11.3334V18.1334H77.9678V11.3334H75.4678Z" fill="#729FFA"/>
<path d="M80.1025 15.9834C80.7928 15.9834 81.3525 15.4238 81.3525 14.7334C81.3525 14.043 80.7928 13.4834 80.1025 13.4834L80.1025 15.9834ZM73.3333 13.4834C72.6429 13.4834 72.0833 14.043 72.0833 14.7334C72.0833 15.4238 72.6429 15.9834 73.3333 15.9834L73.3333 13.4834ZM80.1025 13.4834L73.3333 13.4834L73.3333 15.9834L80.1025 15.9834L80.1025 13.4834Z" fill="#729FFA"/>
<defs>
<linearGradient id="paint0_linear" x1="45.6923" y1="0" x2="45.6923" y2="85" gradientUnits="userSpaceOnUse">
<stop offset="0.59375" stop-color="#F1F6FF"/>
<stop offset="0.838542" stop-color="#B9CFFC"/>
</linearGradient>
<linearGradient id="paint1_linear" x1="46.61" y1="63.222" x2="30.5719" y2="85.8682" gradientUnits="userSpaceOnUse">
<stop stop-color="#7CA3F9"/>
<stop offset="1" stop-color="#6F9FFB"/>
</linearGradient>
<linearGradient id="paint2_linear" x1="45.1687" y1="21.062" x2="45.1687" y2="55.9531" gradientUnits="userSpaceOnUse">
<stop stop-color="#7EA8F3"/>
<stop offset="1" stop-color="#9DBBFC"/>
</linearGradient>
<linearGradient id="paint3_linear" x1="46.4262" y1="32.6924" x2="46.4262" y2="59.6526" gradientUnits="userSpaceOnUse">
<stop stop-color="#D9E2FE"/>
<stop offset="0.947917" stop-color="#CEDCFE"/>
</linearGradient>
<linearGradient id="paint4_linear" x1="78.7442" y1="38.052" x2="75.3938" y2="47.2106" gradientUnits="userSpaceOnUse">
<stop stop-color="#A6BEFD"/>
<stop offset="1" stop-color="#6393EA"/>
</linearGradient>
<linearGradient id="paint5_linear" x1="16.8459" y1="62.1228" x2="13.4955" y2="71.2814" gradientUnits="userSpaceOnUse">
<stop stop-color="#A6BEFD"/>
<stop offset="1" stop-color="#6393EA"/>
</linearGradient>
</defs>
</svg>
