<?xml version="1.0" encoding="UTF-8"?>
<svg width="20px" height="20px" viewBox="0 0 20 20" version="1.1" xmlns="http://www.w3.org/2000/svg" xmlns:xlink="http://www.w3.org/1999/xlink">
    <!-- Generator: Sketch 53.2 (72643) - https://sketchapp.com -->
    <title>MONEY Copy</title>
    <desc>Created with Sketch.</desc>
    <g id="Page-1" stroke="none" stroke-width="1" fill="none" fill-rule="evenodd">
        <g id="IF_Project-Discovery" transform="translate(-799.000000, -515.000000)" fill="#0083E3">
            <g id="Card-3" transform="translate(777.000000, 229.000000)">
                <g id="MONEY" transform="translate(20.900000, 285.000000)">
                    <g transform="translate(1.363043, 1.363043)">
                        <path d="M10.2461409,9.01013718 L8.84027431,9.01013718 C8.25534245,9.01013718 7.78206787,8.49610445 7.78206787,7.86692837 C7.78206787,7.23501079 8.25534245,6.7196073 8.84027431,6.7196073 L11.3208421,6.7196073 C11.587297,6.7196073 11.8042674,6.48520837 11.8042674,6.19872079 C11.8042674,5.91223321 11.587297,5.67646353 11.3208421,5.67646353 L10.0291705,5.67646353 L10.0291705,4.61001694 C10.0291705,4.32490012 9.81093129,4.08913043 9.54447643,4.08913043 C9.28055924,4.08913043 9.05978236,4.32490012 9.05978236,4.61001694 L9.05978236,5.67646353 L8.84027431,5.67646353 C7.72750807,5.67646353 6.81521739,6.65929413 6.81521739,7.86692837 C6.81521739,9.06907961 7.72750807,10.0519102 8.84027431,10.0519102 L10.2461409,10.0519102 C10.8298039,10.0519102 11.3043473,10.5659429 11.3043473,11.195119 C11.3043473,11.8270366 10.8298039,12.3396986 10.2461409,12.3396986 L7.72243274,12.3396986 C7.45597788,12.3396986 7.2390075,12.576839 7.2390075,12.8605851 C7.2390075,13.1470727 7.45597788,13.3842131 7.72243274,13.3842131 L9.05724469,13.3842131 L9.05724469,14.471221 C9.05724469,14.7577086 9.27548391,14.9934783 9.54066993,14.9934783 C9.80585596,14.9934783 10.0240952,14.7577086 10.0240952,14.471221 L10.0240952,13.3842131 L10.2575604,13.3842131 L10.2651734,13.3842131 C11.3728643,13.3663933 12.2673913,12.3917872 12.2673913,11.195119 C12.2673913,9.98748476 11.360176,9.01013718 10.2461409,9.01013718" id="Fill-43"></path>
                        <path d="M9.5425842,18.1062118 C4.82248622,18.1062118 0.97524801,14.2607693 0.97524801,9.54130435 C0.97524801,4.81928007 4.82248622,0.973837528 9.5425842,0.973837528 C14.2626822,0.973837528 18.1099204,4.81928007 18.1099204,9.54130435 C18.1099204,14.2607693 14.2626822,18.1062118 9.5425842,18.1062118 M16.2899694,2.79354445 C14.4879363,0.990473386 12.0933313,0 9.5425842,0 C6.99311696,0 4.59723209,0.990473386 2.79519902,2.79354445 C0.990606246,4.59533583 0,6.98961968 0,9.54130435 C0,12.0904297 0.990606246,14.4847135 2.79519902,16.2877846 C4.59723209,18.0895759 6.99311696,19.0826087 9.5425842,19.0826087 C12.0933313,19.0826087 14.4879363,18.0895759 16.2899694,16.2877846 C18.0945622,14.4847135 19.0826087,12.0904297 19.0826087,9.54130435 C19.0826087,6.98961968 18.0945622,4.59533583 16.2899694,2.79354445" id="Fill-44"></path>
                    </g>
                </g>
            </g>
        </g>
    </g>
</svg>