<?xml version="1.0" encoding="UTF-8"?>
<svg width="18px" height="22px" viewBox="0 0 18 22" version="1.1" xmlns="http://www.w3.org/2000/svg" xmlns:xlink="http://www.w3.org/1999/xlink">
    <!-- Generator: Sketch 53.2 (72643) - https://sketchapp.com -->
    <title>placeholder copy</title>
    <desc>Created with Sketch.</desc>
    <g id="Page-1" stroke="none" stroke-width="1" fill="none" fill-rule="evenodd">
        <g id="IF_Project-Discovery" transform="translate(-800.000000, -433.000000)" fill="#0083E3" fill-rule="nonzero">
            <g id="Card-3" transform="translate(777.000000, 229.000000)">
                <g id="placeholder-copy" transform="translate(23.750000, 204.250000)">
                    <path d="M8.54553525,0 C3.83968668,0 0.00892950392,3.83075718 0.00892950392,8.53660574 C0.00892950392,9.07237598 0.0580417755,9.61261097 0.16073107,10.1394517 C0.165195822,10.170705 0.18305483,10.2644648 0.218772846,10.4251958 C0.348250653,11.0011488 0.540234987,11.5681723 0.790261097,12.1084073 C1.71,14.273812 3.73253264,17.6000522 8.17049608,21.1629243 C8.28211488,21.2522193 8.41605744,21.2968668 8.55,21.2968668 C8.68394256,21.2968668 8.81788512,21.2522193 8.92950392,21.1629243 C13.3630026,17.6000522 15.39,14.273812 16.3097389,12.1084073 C16.559765,11.5681723 16.7517493,11.0056136 16.8812272,10.4251958 C16.9169452,10.2644648 16.9348042,10.170705 16.9392689,10.1394517 C17.0374935,9.61261097 17.0910705,9.07237598 17.0910705,8.53660574 C17.082141,3.83075718 13.2513838,0 8.54553525,0 Z M15.7427154,9.92960836 C15.7427154,9.93853786 15.7382507,9.94746736 15.7382507,9.95639687 C15.7337859,9.97872063 15.7203916,10.0456919 15.6980679,10.1483812 C15.6980679,10.152846 15.6980679,10.152846 15.6980679,10.1573107 C15.5864491,10.6573629 15.4212533,11.1440209 15.2024804,11.6128198 C15.1980157,11.6172846 15.1980157,11.6262141 15.1935509,11.6306789 C14.3586423,13.608564 12.528094,16.6267363 8.54553525,19.9172585 C4.5629765,16.6267363 2.7324282,13.608564 1.89751958,11.6306789 C1.89305483,11.6262141 1.89305483,11.6172846 1.88859008,11.6128198 C1.67428198,11.1484856 1.50908616,10.6573629 1.39300261,10.1573107 C1.39300261,10.152846 1.39300261,10.152846 1.39300261,10.1483812 C1.3662141,10.0456919 1.3572846,9.97872063 1.35281984,9.95639687 C1.35281984,9.94746736 1.34835509,9.93853786 1.34835509,9.9251436 C1.25906005,9.46527415 1.21441253,9.00093995 1.21441253,8.53214099 C1.21441253,4.49154047 4.50493473,1.20101828 8.54553525,1.20101828 C12.5861358,1.20101828 15.876658,4.49154047 15.876658,8.53214099 C15.876658,9.0054047 15.8320104,9.47420366 15.7427154,9.92960836 Z" id="Shape"></path>
                    <path d="M8.54553525,3.21015666 C5.55861619,3.21015666 3.12532637,5.64344648 3.12532637,8.63036554 C3.12532637,11.6172846 5.55861619,14.0505744 8.54553525,14.0505744 C11.5324543,14.0505744 13.9657441,11.6172846 13.9657441,8.63036554 C13.9657441,5.64344648 11.5324543,3.21015666 8.54553525,3.21015666 Z M8.54553525,12.8450914 C6.21939948,12.8450914 4.3308094,10.9520366 4.3308094,8.63036554 C4.3308094,6.30869452 6.22386423,4.41563969 8.54553525,4.41563969 C10.8672063,4.41563969 12.7602611,6.30869452 12.7602611,8.63036554 C12.7602611,10.9520366 10.871671,12.8450914 8.54553525,12.8450914 Z" id="Shape"></path>
                </g>
            </g>
        </g>
    </g>
</svg>