<?xml version="1.0" encoding="UTF-8"?>
<svg width="18px" height="22px" viewBox="0 0 18 22" version="1.1" xmlns="http://www.w3.org/2000/svg" xmlns:xlink="http://www.w3.org/1999/xlink">
    <!-- Generator: Sketch 53.2 (72643) - https://sketchapp.com -->
    <title>avatar</title>
    <desc>Created with Sketch.</desc>
    <g id="Page-1" stroke="none" stroke-width="1" fill="none" fill-rule="evenodd">
        <g id="IF_ProjectDetail" transform="translate(-977.000000, -550.000000)" fill="#0083E3" fill-rule="nonzero">
            <g id="avatar" transform="translate(977.000000, 550.000000)">
                <path d="M8.92116788,11.3956204 C8.94306569,11.3956204 8.9649635,11.3956204 8.99124088,11.3956204 C9,11.3956204 9.00875912,11.3956204 9.01751825,11.3956204 C9.03065693,11.3956204 9.04817518,11.3956204 9.06131387,11.3956204 C10.3445255,11.3737226 11.3824818,10.9226277 12.1489051,10.059854 C13.8350365,8.15912409 13.5547445,4.90072993 13.5240876,4.58978102 C13.4145985,2.25547445 12.3109489,1.13868613 11.4,0.617518248 C10.7211679,0.227737226 9.92846715,0.0175182482 9.04379562,0 L9.01313869,0 C9.00875912,0 9,0 8.99562044,0 L8.96934307,0 C8.48321168,0 7.52846715,0.0788321168 6.61313869,0.6 C5.69343066,1.12116788 4.57226277,2.2379562 4.46277372,4.58978102 C4.43211679,4.90072993 4.15182482,8.15912409 5.8379562,10.059854 C6.6,10.9226277 7.6379562,11.3737226 8.92116788,11.3956204 Z M5.63211679,4.69927007 C5.63211679,4.68613139 5.63649635,4.6729927 5.63649635,4.66423358 C5.7810219,1.52408759 8.01021898,1.18686131 8.9649635,1.18686131 L8.98248175,1.18686131 C8.99124088,1.18686131 9.00437956,1.18686131 9.01751825,1.18686131 C10.2,1.21313869 12.210219,1.69489051 12.3459854,4.66423358 C12.3459854,4.67737226 12.3459854,4.69051095 12.350365,4.69927007 C12.3547445,4.72992701 12.6613139,7.7080292 11.2686131,9.27591241 C10.7167883,9.89781022 9.9810219,10.2043796 9.01313869,10.2131387 C9.00437956,10.2131387 9,10.2131387 8.99124088,10.2131387 L8.99124088,10.2131387 C8.98248175,10.2131387 8.97810219,10.2131387 8.96934307,10.2131387 C8.00583942,10.2043796 7.26569343,9.89781022 6.71824818,9.27591241 C5.32992701,7.71678832 5.62773723,4.72554745 5.63211679,4.69927007 Z" id="Shape"></path>
                <path d="M17.9912409,16.8 C17.9912409,16.7956204 17.9912409,16.7912409 17.9912409,16.7868613 C17.9912409,16.7518248 17.9868613,16.7167883 17.9868613,16.6773723 C17.9605839,15.810219 17.9036496,13.7824818 16.0029197,13.1343066 C15.989781,13.129927 15.9722628,13.1255474 15.9591241,13.1211679 C13.9839416,12.6175182 12.3416058,11.4788321 12.3240876,11.4656934 C12.0569343,11.2773723 11.6890511,11.3430657 11.5007299,11.610219 C11.3124088,11.8773723 11.3781022,12.2452555 11.6452555,12.4335766 C11.719708,12.4861314 13.4627737,13.6992701 15.6437956,14.259854 C16.6642336,14.6233577 16.7781022,15.7138686 16.8087591,16.7124088 C16.8087591,16.7518248 16.8087591,16.7868613 16.8131387,16.8218978 C16.8175182,17.2160584 16.7912409,17.8248175 16.7211679,18.1751825 C16.0116788,18.5781022 13.2306569,19.9708029 9,19.9708029 C4.78686131,19.9708029 1.98832117,18.5737226 1.27445255,18.1708029 C1.20437956,17.820438 1.17372263,17.2116788 1.18248175,16.8175182 C1.18248175,16.7824818 1.18686131,16.7474453 1.18686131,16.7080292 C1.21751825,15.7094891 1.33138686,14.6189781 2.35182482,14.2554745 C4.53284672,13.6948905 6.27591241,12.4773723 6.35036496,12.4291971 C6.61751825,12.2408759 6.68321168,11.8729927 6.49489051,11.6058394 C6.30656934,11.3386861 5.93868613,11.2729927 5.67153285,11.4613139 C5.6540146,11.4744526 4.02043796,12.6131387 2.03649635,13.1167883 C2.0189781,13.1211679 2.00583942,13.1255474 1.99270073,13.129927 C0.0919708029,13.7824818 0.0350364964,15.810219 0.00875912409,16.6729927 C0.00875912409,16.7124088 0.00875912409,16.7474453 0.00437956204,16.7824818 C0.00437956204,16.7868613 0.00437956204,16.7912409 0.00437956204,16.7956204 C8.67361738e-19,17.0233577 -0.00437956204,18.1927007 0.227737226,18.779562 C0.271532847,18.8934307 0.350364964,18.989781 0.455474453,19.0554745 C0.586861314,19.1430657 3.73576642,21.1489051 9.00437956,21.1489051 C14.2729927,21.1489051 17.4218978,19.1386861 17.5532847,19.0554745 C17.6540146,18.989781 17.7372263,18.8934307 17.7810219,18.779562 C18,18.1970803 17.9956204,17.0277372 17.9912409,16.8 Z" id="Path"></path>
            </g>
        </g>
    </g>
</svg>