<svg width="12" height="14" viewBox="0 0 12 14" fill="none" xmlns="http://www.w3.org/2000/svg">
<path d="M2.5 13.22C2.38 13.22 2.27333 13.18 2.18 13.1C2.1 13.02 2.06667 12.92 2.08 12.8L2.46 10.36H0.46C0.326667 10.36 0.213333 10.32 0.12 10.24C0.04 10.16 1.49012e-08 10.0533 1.49012e-08 9.92V9.28C1.49012e-08 9.14667 0.04 9.04 0.12 8.96C0.213333 8.88 0.326667 8.84 0.46 8.84H2.68L3.2 5.28H0.98C0.846667 5.28 0.733333 5.24 0.64 5.16C0.56 5.08 0.52 4.97333 0.52 4.84V4.2C0.52 4.06667 0.56 3.96 0.64 3.88C0.733333 3.8 0.846667 3.76 0.98 3.76H3.44L3.8 1.32C3.82667 1.2 3.88 1.1 3.96 1.02C4.04 0.939999 4.14 0.899999 4.26 0.899999H4.94C5.06 0.899999 5.16 0.939999 5.24 1.02C5.32 1.1 5.35333 1.2 5.34 1.32L4.98 3.76H7.98L8.34 1.32C8.36667 1.2 8.42 1.1 8.5 1.02C8.58 0.939999 8.68 0.899999 8.8 0.899999H9.48C9.6 0.899999 9.7 0.939999 9.78 1.02C9.86 1.1 9.89333 1.2 9.88 1.32L9.52 3.76H11.5C11.6333 3.76 11.74 3.8 11.82 3.88C11.9 3.96 11.94 4.06667 11.94 4.2V4.84C11.94 4.97333 11.9 5.08 11.82 5.16C11.74 5.24 11.6333 5.28 11.5 5.28H9.3L8.78 8.84H10.98C11.1133 8.84 11.22 8.88 11.3 8.96C11.38 9.04 11.42 9.14667 11.42 9.28V9.92C11.42 10.0533 11.38 10.16 11.3 10.24C11.22 10.32 11.1133 10.36 10.98 10.36H8.54L8.18 12.8C8.15333 12.92 8.1 13.02 8.02 13.1C7.94 13.18 7.84 13.22 7.72 13.22H7.04C6.92 13.22 6.81333 13.18 6.72 13.1C6.64 13.02 6.60667 12.92 6.62 12.8L7 10.36H4L3.64 12.8C3.61333 12.92 3.56 13.02 3.48 13.1C3.4 13.18 3.3 13.22 3.18 13.22H2.5ZM4.24 8.84H7.22L7.74 5.28H4.76L4.24 8.84Z" fill="#728099"/>
</svg>
