<svg width="64" height="62" viewBox="0 0 64 62" fill="none" xmlns="http://www.w3.org/2000/svg">
<mask id="mask0" mask-type="alpha" maskUnits="userSpaceOnUse" x="2" y="0" width="62" height="62">
<path d="M63.9999 31C63.9999 48.1208 48.4557 62 33.2307 62C18.3765 62 2.46143 48.1208 2.46143 31C2.46143 13.8792 20.8522 0 33.2307 0C45.6091 0 63.9999 12.1149 63.9999 31Z" fill="#C4C4C4"/>
</mask>
<g mask="url(#mask0)">
<path d="M63.9999 31C63.9999 48.1208 48.4557 62 33.2307 62C18.3765 62 2.46143 48.1208 2.46143 31C2.46143 13.8792 20.8522 0 33.2307 0C45.6091 0 63.9999 12.1149 63.9999 31Z" fill="url(#paint0_linear)"/>
<g opacity="0.6">
<ellipse cx="16.1914" cy="54.4012" rx="13.4465" ry="10.4636" fill="url(#paint1_linear)"/>
<path d="M13.0884 46.815V42.8911H18.2601V46.815C18.0532 48.0706 16.6224 48.5589 15.9328 48.6461C14.6916 48.8554 13.5194 47.5125 13.0884 46.815Z" fill="#A9C7FD"/>
<ellipse cx="15.4156" cy="32.4276" rx="9.56771" ry="9.41725" fill="url(#paint2_linear)"/>
<ellipse cx="8.9511" cy="37.1362" rx="2.58587" ry="2.6159" fill="#BAD4FD"/>
<ellipse cx="8.951" cy="37.1361" rx="1.43659" ry="1.45328" fill="#D4DFFE"/>
<ellipse cx="22.3976" cy="37.1362" rx="2.58587" ry="2.6159" fill="#BAD4FD"/>
<ellipse cx="22.3975" cy="37.1361" rx="1.43659" ry="1.45328" fill="#D4DFFE"/>
<path d="M9.00073 35.2093C8.38012 41.6967 13.7415 43.6674 16.4997 43.8418C21.8784 43.4232 23.223 37.9124 23.2229 35.2093C23.4298 28.7219 20.7233 28.844 19.3441 29.7159C18.396 30.4135 15.7757 31.3901 12.8795 29.7159C9.98324 28.0417 9.08688 32.6806 9.00073 35.2093Z" fill="url(#paint3_linear)"/>
<path d="M20.3291 37.9209C18.2604 36.2467 14.8988 37.1361 14.123 37.9209C14.123 40.4321 16.3641 41.1472 17.4847 41.06C19.3465 41.06 20.1567 38.88 20.3291 37.9209Z" fill="white"/>
<path d="M14.3815 34.5202C15.0021 34.5202 15.1572 35.0434 15.1572 35.305C14.654 35.1353 14.109 35.1353 13.6057 35.305C13.6057 35.0434 13.7609 34.5202 14.3815 34.5202Z" fill="#4C7FF7"/>
<path d="M20.0704 34.5202C20.691 34.5202 20.8462 35.0434 20.8462 35.305C20.3429 35.1353 19.7979 35.1353 19.2947 35.305C19.2947 35.0434 19.4498 34.5202 20.0704 34.5202Z" fill="#4C7FF7"/>
<ellipse cx="21.6218" cy="36.3513" rx="1.29293" ry="0.784767" fill="#BBCDFB"/>
<ellipse cx="12.83" cy="36.3513" rx="1.29293" ry="0.784767" fill="#BBCDFB"/>
</g>
<g opacity="0.6">
<ellipse cx="49.4714" cy="54.4012" rx="13.4465" ry="10.4636" fill="url(#paint4_linear)"/>
<path d="M46.3684 46.815V42.8911H51.5401V46.815C51.3333 48.0706 49.9024 48.5589 49.2129 48.6461C47.9716 48.8554 46.7994 47.5125 46.3684 46.815Z" fill="#A9C7FD"/>
<ellipse cx="48.6956" cy="32.4276" rx="9.56771" ry="9.41725" fill="url(#paint5_linear)"/>
<ellipse cx="42.2311" cy="37.1362" rx="2.58587" ry="2.6159" fill="#BAD4FD"/>
<ellipse cx="42.231" cy="37.1361" rx="1.4366" ry="1.45328" fill="#D4DFFE"/>
<ellipse cx="55.6777" cy="37.1362" rx="2.58587" ry="2.6159" fill="#BAD4FD"/>
<ellipse cx="55.6776" cy="37.1361" rx="1.43659" ry="1.45328" fill="#D4DFFE"/>
<path d="M42.2808 35.2093C41.6602 41.6967 47.0215 43.6674 49.7798 43.8418C55.1584 43.4232 56.503 37.9124 56.503 35.2093C56.7098 28.7219 54.0033 28.844 52.6242 29.7159C51.676 30.4135 49.0557 31.3901 46.1595 29.7159C43.2633 28.0417 42.3669 32.6806 42.2808 35.2093Z" fill="url(#paint6_linear)"/>
<path d="M53.6092 37.9209C51.5405 36.2467 48.1788 37.1361 47.4031 37.9209C47.4031 40.4321 49.6442 41.1472 50.7647 41.06C52.6265 41.06 53.4368 38.88 53.6092 37.9209Z" fill="white"/>
<path d="M47.6615 34.5202C48.2821 34.5202 48.4373 35.0434 48.4373 35.305C47.934 35.1353 47.389 35.1353 46.8857 35.305C46.8857 35.0434 47.0409 34.5202 47.6615 34.5202Z" fill="#4C7FF7"/>
<path d="M53.3505 34.5202C53.9711 34.5202 54.1262 35.0434 54.1262 35.305C53.623 35.1353 53.078 35.1353 52.5747 35.305C52.5747 35.0434 52.7299 34.5202 53.3505 34.5202Z" fill="#4C7FF7"/>
<ellipse cx="54.9018" cy="36.3513" rx="1.29293" ry="0.784767" fill="#BBCDFB"/>
<ellipse cx="46.1101" cy="36.3513" rx="1.29293" ry="0.784767" fill="#BBCDFB"/>
</g>
<ellipse cx="33.898" cy="57.7795" rx="18.1695" ry="14.1389" fill="url(#paint7_linear)"/>
<path d="M29.7051 47.5288V42.2267H36.6933V47.5288C36.4138 49.2254 34.4804 49.8852 33.5486 50.0031C31.8714 50.2858 30.2874 48.4714 29.7051 47.5288Z" fill="#A9C7FD"/>
<ellipse cx="32.8499" cy="28.0878" rx="12.9283" ry="12.725" fill="url(#paint8_linear)"/>
<ellipse cx="24.1145" cy="34.4503" rx="3.49413" ry="3.53472" fill="#BAD4FD"/>
<ellipse cx="24.1145" cy="34.4502" rx="1.94118" ry="1.96373" fill="#D4DFFE"/>
<ellipse cx="42.2839" cy="34.4503" rx="3.49413" ry="3.53472" fill="#BAD4FD"/>
<ellipse cx="42.284" cy="34.4502" rx="1.94118" ry="1.96373" fill="#D4DFFE"/>
<path d="M24.1815 31.8466C23.3429 40.6127 30.5874 43.2756 34.3145 43.5112C41.5823 42.9457 43.3992 35.4992 43.3991 31.8466C43.6786 23.0806 40.0214 23.2455 38.1579 24.4237C36.8768 25.3663 33.3361 26.6859 29.4226 24.4237C25.5091 22.1615 24.2979 28.4297 24.1815 31.8466Z" fill="url(#paint9_linear)"/>
<path d="M39.4889 35.5107C36.6936 33.2485 32.1513 34.4503 31.103 35.5107C31.103 38.9041 34.1313 39.8703 35.6454 39.7524C38.1612 39.7524 39.256 36.8068 39.4889 35.5107Z" fill="white"/>
<path d="M31.4525 30.9155C32.2911 30.9155 32.5008 31.6224 32.5008 31.9759C31.8208 31.7466 31.0843 31.7466 30.4043 31.9759C30.4043 31.6224 30.6139 30.9155 31.4525 30.9155Z" fill="#4C7FF7"/>
<path d="M39.1396 30.9155C39.9781 30.9155 40.1878 31.6224 40.1878 31.9759C39.5078 31.7466 38.7713 31.7466 38.0913 31.9759C38.0913 31.6224 38.301 30.9155 39.1396 30.9155Z" fill="#4C7FF7"/>
<ellipse cx="41.2361" cy="33.3898" rx="1.74706" ry="1.06041" fill="#BBCDFB"/>
<ellipse cx="29.356" cy="33.3898" rx="1.74707" ry="1.06041" fill="#BBCDFB"/>
</g>
<path d="M4.74359 26.04C4.74359 27.0927 3.89853 27.9333 2.87179 27.9333C1.84506 27.9333 1 27.0927 1 26.04C1 24.9873 1.84506 24.1467 2.87179 24.1467C3.89853 24.1467 4.74359 24.9873 4.74359 26.04Z" stroke="#D1DAF6" stroke-width="2"/>
<path d="M57.0447 8.26672C57.0447 7.57637 56.485 7.01672 55.7947 7.01672C55.1043 7.01672 54.5447 7.57637 54.5447 8.26672H57.0447ZM54.5447 13.2267C54.5447 13.9171 55.1043 14.4767 55.7947 14.4767C56.485 14.4767 57.0447 13.9171 57.0447 13.2267H54.5447ZM54.5447 8.26672V13.2267H57.0447V8.26672H54.5447Z" fill="#729FFA"/>
<path d="M58.2563 11.9967C58.9467 11.9967 59.5063 11.4371 59.5063 10.7467C59.5063 10.0563 58.9467 9.4967 58.2563 9.4967L58.2563 11.9967ZM53.3333 9.4967C52.6429 9.4967 52.0833 10.0563 52.0833 10.7467C52.0833 11.4371 52.6429 11.9967 53.3333 11.9967L53.3333 9.4967ZM58.2563 9.4967L53.3333 9.4967L53.3333 11.9967L58.2563 11.9967L58.2563 9.4967Z" fill="#729FFA"/>
<defs>
<linearGradient id="paint0_linear" x1="33.2307" y1="0" x2="33.2307" y2="62" gradientUnits="userSpaceOnUse">
<stop stop-color="#DDE6F8"/>
<stop offset="0.786458" stop-color="#B9CFFC"/>
</linearGradient>
<linearGradient id="paint1_linear" x1="16.1914" y1="45.7687" x2="7.5255" y2="57.9693" gradientUnits="userSpaceOnUse">
<stop stop-color="#7CA3F9"/>
<stop offset="1" stop-color="#6F9FFB"/>
</linearGradient>
<linearGradient id="paint2_linear" x1="15.4156" y1="23.0103" x2="15.4156" y2="41.8448" gradientUnits="userSpaceOnUse">
<stop stop-color="#7EA8F3"/>
<stop offset="1" stop-color="#9DBBFC"/>
</linearGradient>
<linearGradient id="paint3_linear" x1="16.0927" y1="29.2885" x2="16.0927" y2="43.8418" gradientUnits="userSpaceOnUse">
<stop stop-color="#D9E2FE"/>
<stop offset="0.947917" stop-color="#CEDCFE"/>
</linearGradient>
<linearGradient id="paint4_linear" x1="49.4714" y1="45.7687" x2="40.8055" y2="57.9693" gradientUnits="userSpaceOnUse">
<stop stop-color="#7CA3F9"/>
<stop offset="1" stop-color="#6F9FFB"/>
</linearGradient>
<linearGradient id="paint5_linear" x1="48.6956" y1="23.0103" x2="48.6956" y2="41.8448" gradientUnits="userSpaceOnUse">
<stop stop-color="#7EA8F3"/>
<stop offset="1" stop-color="#9DBBFC"/>
</linearGradient>
<linearGradient id="paint6_linear" x1="49.3727" y1="29.2885" x2="49.3727" y2="43.8418" gradientUnits="userSpaceOnUse">
<stop stop-color="#D9E2FE"/>
<stop offset="0.947917" stop-color="#CEDCFE"/>
</linearGradient>
<linearGradient id="paint7_linear" x1="33.898" y1="46.1149" x2="22.1883" y2="62.6009" gradientUnits="userSpaceOnUse">
<stop stop-color="#7CA3F9"/>
<stop offset="1" stop-color="#6F9FFB"/>
</linearGradient>
<linearGradient id="paint8_linear" x1="32.8499" y1="15.3629" x2="32.8499" y2="40.8128" gradientUnits="userSpaceOnUse">
<stop stop-color="#7EA8F3"/>
<stop offset="1" stop-color="#9DBBFC"/>
</linearGradient>
<linearGradient id="paint9_linear" x1="33.7644" y1="23.8461" x2="33.7644" y2="43.5112" gradientUnits="userSpaceOnUse">
<stop stop-color="#D9E2FE"/>
<stop offset="0.947917" stop-color="#CEDCFE"/>
</linearGradient>
</defs>
</svg>
