<svg width="14" height="15" viewBox="0 0 14 15" fill="none" xmlns="http://www.w3.org/2000/svg">
<path d="M5.05774 7.89936C5.05774 7.72001 4.91226 7.57471 4.73276 7.57471H3.59872C3.41943 7.57471 3.27393 7.72001 3.27393 7.89936V9.03325C3.27393 9.21284 3.41943 9.35819 3.59872 9.35819H4.73276C4.91226 9.35819 5.05774 9.21284 5.05774 9.03325V7.89936Z" fill="#728099"/>
<path d="M7.89179 7.89936C7.89179 7.72001 7.74628 7.57471 7.56714 7.57471H6.43295C6.25366 7.57471 6.10815 7.72001 6.10815 7.89936V9.03325C6.10815 9.21284 6.25366 9.35819 6.43295 9.35819H7.56714C7.74628 9.35819 7.89179 9.21284 7.89179 9.03325V7.89936Z" fill="#728099"/>
<path d="M10.7259 7.89936C10.7259 7.72001 10.5804 7.57471 10.4012 7.57471H9.26711C9.08761 7.57471 8.94214 7.72001 8.94214 7.89936V9.03325C8.94214 9.21284 9.08761 9.35819 9.26711 9.35819H10.4012C10.5804 9.35819 10.7259 9.21284 10.7259 9.03325V7.89936Z" fill="#728099"/>
<path d="M5.05774 10.7335C5.05774 10.5539 4.91226 10.4087 4.73276 10.4087H3.59872C3.41943 10.4087 3.27393 10.5539 3.27393 10.7335V11.8672C3.27393 12.0467 3.41943 12.192 3.59872 12.192H4.73276C4.91226 12.192 5.05774 12.0466 5.05774 11.8672V10.7335Z" fill="#728099"/>
<path d="M7.89179 10.7335C7.89179 10.5539 7.74628 10.4087 7.56714 10.4087H6.43295C6.25366 10.4087 6.10815 10.5539 6.10815 10.7335V11.8672C6.10815 12.0467 6.25366 12.192 6.43295 12.192H7.56714C7.74628 12.192 7.89179 12.0466 7.89179 11.8672V10.7335Z" fill="#728099"/>
<path d="M10.7259 10.7335C10.7259 10.5539 10.5804 10.4087 10.4013 10.4087H9.26711C9.08761 10.4087 8.94214 10.5539 8.94214 10.7335V11.8672C8.94214 12.0467 9.08761 12.192 9.26711 12.192H10.4013C10.5804 12.192 10.7259 12.0466 10.7259 11.8672V10.7335Z" fill="#728099"/>
<path d="M12.7539 1.5946V3.32652C12.7539 4.10934 12.1188 4.74016 11.3361 4.74016H10.4418C9.65901 4.74016 9.01554 4.10934 9.01554 3.32652V1.58838H4.98446V3.32652C4.98446 4.10934 4.34102 4.74016 3.55838 4.74016H2.66385C1.88118 4.74016 1.24617 4.10934 1.24617 3.32652V1.5946C0.562106 1.61522 0 2.18125 0 2.87698V13.0269C0 13.7357 0.574512 14.3178 1.28333 14.3178H12.7167C13.4244 14.3178 14 13.7345 14 13.0269V2.87698C14 2.18125 13.4379 1.61522 12.7539 1.5946ZM12.3385 12.3948C12.3385 12.7012 12.0901 12.9497 11.7837 12.9497H2.1919C1.88547 12.9497 1.6371 12.7012 1.6371 12.3948V7.15204C1.6371 6.8456 1.88544 6.59709 2.1919 6.59709H11.7836C12.0901 6.59709 12.3384 6.8456 12.3384 7.15204L12.3385 12.3948Z" fill="#728099"/>
<path d="M2.66055 3.81175H3.54519C3.81371 3.81175 4.03142 3.59436 4.03142 3.32584V0.486571C4.03142 0.218028 3.81371 0.000488281 3.54519 0.000488281H2.66055C2.392 0.000488281 2.17432 0.218028 2.17432 0.486571V3.32584C2.17432 3.59436 2.392 3.81175 2.66055 3.81175Z" fill="#728099"/>
<path d="M10.4303 3.81175H11.3149C11.5833 3.81175 11.801 3.59436 11.801 3.32584V0.486571C11.801 0.218028 11.5833 0.000488281 11.3149 0.000488281H10.4303C10.1618 0.000488281 9.94409 0.218028 9.94409 0.486571V3.32584C9.94409 3.59436 10.1618 3.81175 10.4303 3.81175Z" fill="#728099"/>
</svg>
