<svg width="227" height="39" viewBox="0 0 227 39" fill="none" xmlns="http://www.w3.org/2000/svg">
<path d="M19.1702 38.3405C8.58827 38.3405 0 29.7522 0 19.1702C0 8.58827 8.58827 0 19.1702 0C29.7522 0 38.3405 8.58827 38.3405 19.1702C38.3405 29.7522 29.7522 38.3405 19.1702 38.3405Z" fill="#4C7FF7"/>
<path fill-rule="evenodd" clip-rule="evenodd" d="M24.0614 21.1838C24.4353 20.9034 24.7157 21.2461 24.9961 21.3707C26.2424 21.8692 27.4886 22.2431 28.8283 21.8692C29.1399 21.7758 29.4203 21.6512 29.7007 21.5265C30.0434 21.3396 30.5107 21.0903 30.4484 20.6542C30.3861 20.2803 29.8876 20.3738 29.5449 20.2803C28.5479 19.9999 27.5509 19.7195 26.5539 19.4702C26.3358 19.4079 26.1177 19.3768 26.0554 19.1275C28.8595 18.5979 30.1992 17.2582 30.3861 14.7968C30.3861 14.7345 30.4173 14.6722 30.4173 14.6099C30.355 14.1114 30.5107 13.426 30.0434 13.239C29.5137 13.0209 29.358 13.7375 29.1087 14.0802C27.3328 16.3546 25.1831 18.224 22.784 19.7818C22.1609 20.1868 22.0986 20.5607 22.2855 21.215C22.784 22.8662 23.1891 24.5175 23.6253 26.1999C23.6876 26.4492 23.8433 26.7607 23.5318 26.9788C23.1891 27.1969 23.0021 26.8854 22.8464 26.6984C21.6936 25.4522 20.6031 24.1748 19.7931 22.6481C19.1699 21.4954 19.2634 21.1838 20.4162 20.5607C21.1328 20.1868 21.2885 19.8129 21.0393 19.034C20.5408 17.6632 20.1981 16.23 19.7619 14.828C19.6684 14.4853 19.6061 13.9868 19.1388 14.0179C18.7649 14.0491 18.7026 14.4853 18.578 14.828C18.1106 16.3235 17.7056 17.819 17.2071 19.3145C16.989 19.9064 17.176 20.1868 17.7056 20.4984C19.0765 21.2773 19.1699 21.62 18.3287 22.9909C17.5187 24.3617 16.4905 25.608 15.4001 26.7607C15.2443 26.9477 15.0885 27.1969 14.7769 27.0411C14.4965 26.8854 14.6212 26.605 14.6523 26.3557C14.9639 24.5175 15.5558 22.7728 16.0543 20.9969C16.2101 20.4984 16.1166 20.218 15.6805 19.9376C13.0322 18.1928 10.6643 16.1677 8.82613 13.5817C8.70151 13.3948 8.54573 13.1456 8.32763 13.2079C8.01607 13.2702 7.98492 13.6441 7.92261 13.8933C7.48642 15.9496 8.9196 18.3175 10.9759 18.9094C11.3809 19.034 11.8171 19.0964 12.4091 19.221C11.3186 19.8129 10.197 19.9376 9.13769 20.2491C8.73266 20.3426 7.95376 20.1557 7.95376 20.7476C7.95376 21.3084 8.6392 21.5888 9.16885 21.7758C10.4151 22.2431 11.6302 22.025 12.8453 21.5888C13.3126 21.4331 13.7488 21.215 14.3096 20.9657C13.7176 22.0562 12.9076 22.8039 12.1287 23.6763C13.1257 23.9567 13.9669 23.614 14.995 23.5205C14.1538 24.2683 13.3438 24.5798 12.4091 24.4864C11.4432 24.3617 11.2563 23.8632 11.8171 23.0843C11.9106 22.9286 12.1287 22.8351 12.0664 22.5547C11.1317 22.617 10.1658 22.7728 9.23116 22.4612C8.51457 22.212 7.89145 21.9004 7.45527 21.2773C6.95677 20.5918 7.11255 20.0934 7.92261 19.8441C8.60804 19.626 9.29347 19.5014 10.0101 19.3456C10.0101 18.9717 9.6985 18.9717 9.51156 18.8471C7.76683 17.5697 7.14371 15.825 7.3618 13.7375C7.42411 13.2079 7.57989 12.6471 8.20301 12.4913C8.79498 12.3355 9.10654 12.8028 9.38694 13.2079C11.1005 15.6692 13.3749 17.5386 15.8051 19.221C16.3659 19.626 16.5528 19.4702 16.7086 18.8783C17.1136 17.4139 17.581 15.9496 18.0172 14.4853C18.2041 13.8933 18.4533 13.3013 19.1699 13.3325C19.8865 13.3325 20.1358 13.9556 20.3227 14.5476C20.7901 16.0119 21.2574 17.4762 21.6313 18.9717C21.8182 19.6883 22.0363 19.626 22.5348 19.2833C24.965 17.6009 27.2082 15.7004 28.9529 13.2702C29.2333 12.8652 29.5449 12.3978 30.1369 12.5536C30.6977 12.7094 30.8846 13.2079 30.9469 13.7064C31.2585 15.7627 30.5731 17.4762 28.9841 18.7848C28.766 18.9406 28.4856 19.0029 28.2987 19.3768C28.9529 19.5325 29.5761 19.6572 30.1992 19.8441C31.2896 20.1557 31.4766 20.7788 30.6665 21.5888C29.7007 22.5547 28.4856 22.7416 27.2082 22.6793C26.9278 22.6481 26.6162 22.5235 26.3047 22.6481C26.3047 22.7416 26.2735 22.8039 26.3047 22.8351C26.5228 23.209 27.1459 23.4894 26.8032 24.019C26.4293 24.611 25.775 24.5798 25.1831 24.4864C24.5288 24.3929 23.968 24.0502 23.2825 23.614C24.3107 23.5517 25.2142 24.019 26.18 23.7386C25.4323 22.8351 24.7469 21.9939 24.0614 21.1838ZM16.8021 20.7165C16.3659 22.212 15.9297 23.7075 15.5247 25.2029C15.8986 25.3276 16.0232 25.1095 16.179 24.8914C16.6463 24.2683 17.1448 23.6451 17.581 23.022C18.5468 21.5577 18.4845 21.4642 16.8021 20.7165ZM22.8464 25.5145C22.4413 24.019 22.0051 22.5235 21.6001 21.028C21.569 20.9346 21.4132 20.7476 21.382 20.7476C20.977 20.9346 20.572 21.1215 20.2292 21.3707C19.9488 21.5888 20.1358 21.9004 20.2604 22.1497C20.9147 23.427 21.8494 24.4864 22.8464 25.5145ZM26.0866 22.4924C26.0866 22.5235 26.0554 22.5235 26.0554 22.5547C26.0554 22.5858 26.0866 22.5858 26.1177 22.617C26.1177 22.5858 26.1489 22.5547 26.1489 22.5235C26.1177 22.4924 26.0866 22.4924 26.0866 22.4924Z" fill="white"/>
<path d="M59.526 12.2835C61.3844 12.2835 62.6945 12.8623 63.9436 13.9896C64.0959 14.1419 64.0959 14.3552 63.9741 14.5075L62.8468 15.6653C62.725 15.8176 62.5422 15.8176 62.3898 15.6653C61.6282 14.995 60.5923 14.5989 59.5869 14.5989C57.241 14.5989 55.5044 16.5488 55.5044 18.8642C55.5044 21.1492 57.2715 23.0991 59.5869 23.0991C60.6837 23.0991 61.6282 22.6725 62.3898 22.0632C62.5422 21.9413 62.725 21.9413 62.8468 22.0632L63.9741 23.2209C64.1264 23.3428 64.0959 23.5865 63.9436 23.7084C62.6945 24.9271 61.1407 25.4755 59.4955 25.4755C55.8395 25.4755 52.8843 22.5811 52.8843 18.9252C52.8843 15.2692 55.87 12.2835 59.526 12.2835Z" fill="#4C7FF7"/>
<path d="M66.3809 12.801C66.3809 12.6182 66.5332 12.4659 66.716 12.4659H68.4221C68.6049 12.4659 68.7572 12.6182 68.7572 12.801V24.8962C68.7572 25.079 68.6049 25.2313 68.4221 25.2313H66.716C66.5332 25.2313 66.3809 25.079 66.3809 24.8962V12.801Z" fill="#4C7FF7"/>
<path d="M72.1086 12.801C72.1086 12.6182 72.261 12.4659 72.4438 12.4659H77.684C79.8776 12.4659 81.6751 14.2329 81.6751 16.396C81.6751 18.0717 80.5479 19.4427 78.9636 20.0825L81.4619 24.7134C81.5837 24.9571 81.4619 25.2313 81.1572 25.2313H79.2378C79.0855 25.2313 78.9941 25.1399 78.9331 25.079L76.4958 20.2348H74.4546V24.8962C74.4546 25.079 74.3022 25.2313 74.1194 25.2313H72.4438C72.2305 25.2313 72.1086 25.079 72.1086 24.8962V12.801ZM77.4707 18.2849C78.4457 18.2849 79.2683 17.4319 79.2683 16.4265C79.2683 15.4516 78.4152 14.6594 77.4707 14.6594H74.485V18.2849H77.4707Z" fill="#4C7FF7"/>
<path d="M89.9315 12.2831C91.7899 12.2831 93.1 12.8619 94.3491 13.9892C94.5015 14.1415 94.5015 14.3548 94.3796 14.5071L93.2523 15.6649C93.1305 15.8172 92.9477 15.8172 92.7953 15.6649C92.0337 14.9946 90.9978 14.5985 89.9924 14.5985C87.6465 14.5985 85.9099 16.5484 85.9099 18.8638C85.9099 21.1488 87.677 23.0987 89.9924 23.0987C91.0892 23.0987 92.0337 22.6721 92.7953 22.0628C92.9477 21.941 93.1305 21.941 93.2523 22.0628L94.3796 23.2205C94.5319 23.3424 94.5015 23.5861 94.3491 23.708C93.1 24.9267 91.5462 25.4751 89.901 25.4751C86.245 25.4751 83.2898 22.5808 83.2898 18.9248C83.2898 15.2688 86.2755 12.2831 89.9315 12.2831Z" fill="#4C7FF7"/>
<path d="M96.7863 12.801C96.7863 12.6182 96.9387 12.4659 97.1215 12.4659H98.7971C98.9799 12.4659 99.1322 12.6182 99.1322 12.801V23.0682H103.794C104.007 23.0682 104.129 23.2205 104.129 23.4033V24.8962C104.129 25.079 103.976 25.2313 103.794 25.2313H97.091C96.8777 25.2313 96.7559 25.079 96.7559 24.8962V12.801H96.7863Z" fill="#4C7FF7"/>
<path d="M106.018 12.801C106.018 12.6182 106.17 12.4659 106.353 12.4659H113.787C114 12.4659 114.122 12.6182 114.122 12.801V14.2938C114.122 14.4766 113.97 14.629 113.787 14.629H108.364V17.6452H112.873C113.056 17.6452 113.208 17.7975 113.208 17.9803V19.5036C113.208 19.7169 113.056 19.8387 112.873 19.8387H108.364V23.0377H113.787C114 23.0377 114.122 23.1901 114.122 23.3729V24.8657C114.122 25.0485 113.97 25.2008 113.787 25.2008H106.353C106.14 25.2008 106.018 25.0485 106.018 24.8657V12.801Z" fill="#4C7FF7"/>
<path d="M116.011 23.4643L116.681 22.337C116.833 22.0933 117.138 22.0933 117.29 22.2152C117.382 22.2761 118.875 23.3424 120.063 23.3424C121.007 23.3424 121.739 22.7331 121.739 21.941C121.739 20.9965 120.946 20.3567 119.423 19.7474C117.717 19.0466 115.98 17.9498 115.98 15.7867C115.98 14.172 117.199 12.2831 120.093 12.2831C121.952 12.2831 123.384 13.2275 123.749 13.5017C123.932 13.6236 123.993 13.9283 123.871 14.1111L123.17 15.1469C123.018 15.3602 122.744 15.5125 122.531 15.3602C122.378 15.2688 121.007 14.3548 120.002 14.3548C118.966 14.3548 118.387 15.0555 118.387 15.6344C118.387 16.4875 119.058 17.0663 120.55 17.6756C122.317 18.3764 124.359 19.4427 124.359 21.8191C124.359 23.708 122.744 25.4446 120.154 25.4446C117.839 25.4446 116.498 24.3783 116.133 24.0127C115.919 23.8603 115.828 23.7689 116.011 23.4643Z" fill="#4C7FF7"/>
<path d="M136.515 12.2831C140.171 12.2831 143.096 15.2383 143.096 18.8943C143.096 22.5503 140.171 25.4446 136.515 25.4446C132.859 25.4446 129.965 22.5503 129.965 18.8943C129.965 15.2383 132.859 12.2831 136.515 12.2831ZM136.515 24.165C139.409 24.165 141.816 21.7886 141.816 18.8943C141.816 16 139.409 13.5627 136.515 13.5627C133.621 13.5627 131.244 15.9695 131.244 18.8943C131.244 21.7886 133.621 24.165 136.515 24.165Z" fill="#728099"/>
<path d="M145.898 12.801C145.898 12.6182 146.051 12.4659 146.234 12.4659H153.424C153.637 12.4659 153.759 12.6182 153.759 12.801V13.3189C153.759 13.5017 153.606 13.654 153.424 13.654H147.269V18.6505H152.51C152.692 18.6505 152.845 18.8029 152.845 18.9857V19.5036C152.845 19.6864 152.692 19.8387 152.51 19.8387H147.269V24.8352C147.269 25.018 147.117 25.1704 146.934 25.1704H146.264C146.051 25.1704 145.929 25.018 145.929 24.8352V12.801H145.898Z" fill="#728099"/>
<path d="M158.481 24.7742L164.178 12.4657C164.239 12.3438 164.331 12.2524 164.483 12.2524H164.666C164.849 12.2524 164.909 12.3438 164.97 12.4657L170.607 24.7742C170.729 25.0179 170.576 25.2616 170.302 25.2616H168.718C168.444 25.2616 168.322 25.1398 168.2 24.896L167.316 22.9157H161.802L160.918 24.896C160.857 25.0788 160.675 25.2616 160.4 25.2616H158.816C158.512 25.2616 158.359 25.0179 158.481 24.7742ZM166.372 20.9049L164.544 16.8833H164.483L162.716 20.9049H166.372Z" fill="#4C7FF7"/>
<path d="M172.252 12.6182C172.252 12.4354 172.404 12.2831 172.587 12.2831H173.044L180.661 20.3567H180.691V12.801C180.691 12.6182 180.843 12.4659 181.026 12.4659H182.702C182.885 12.4659 183.037 12.6182 183.037 12.801V25.1095C183.037 25.2923 182.885 25.4446 182.702 25.4446H182.275L174.628 17.0663H174.598V24.9267C174.598 25.1095 174.446 25.2618 174.263 25.2618H172.587C172.404 25.2618 172.252 25.1095 172.252 24.9267V12.6182Z" fill="#4C7FF7"/>
<path d="M192.055 12.2831C193.7 12.2831 195.285 12.9229 196.503 13.9892C196.656 14.1415 196.656 14.3548 196.534 14.5071L195.406 15.6953C195.254 15.8477 195.102 15.8477 194.919 15.6953C194.127 14.9946 193.152 14.629 192.147 14.629C189.862 14.629 188.064 16.5789 188.064 18.8638C188.064 21.1184 189.862 23.0378 192.177 23.0378C193.213 23.0378 193.974 22.7331 194.34 22.5808V21.027H192.878C192.664 21.027 192.543 20.8746 192.543 20.6918V19.2599C192.543 19.0466 192.695 18.9248 192.878 18.9248H196.381C196.564 18.9248 196.716 19.0771 196.716 19.2599V23.9517C196.716 24.1041 196.656 24.1955 196.564 24.2564C196.564 24.2564 194.675 25.4446 192.025 25.4446C188.399 25.4446 185.474 22.5503 185.474 18.8943C185.474 15.2383 188.399 12.2831 192.055 12.2831Z" fill="#4C7FF7"/>
<path d="M199.397 12.801C199.397 12.6182 199.55 12.4659 199.733 12.4659H207.197C207.41 12.4659 207.532 12.6182 207.532 12.801V14.2938C207.532 14.4766 207.38 14.629 207.197 14.629H201.774V17.6452H206.283C206.466 17.6452 206.618 17.7975 206.618 17.9803V19.5036C206.618 19.7169 206.466 19.8387 206.283 19.8387H201.774V23.0377H207.197C207.41 23.0377 207.532 23.1901 207.532 23.3729V24.8657C207.532 25.0485 207.38 25.2008 207.197 25.2008H199.763C199.55 25.2008 199.428 25.0485 199.428 24.8657V12.801H199.397Z" fill="#4C7FF7"/>
<path d="M210.152 12.801C210.152 12.6182 210.305 12.4659 210.487 12.4659H212.163C212.346 12.4659 212.498 12.6182 212.498 12.801V23.0682H217.16C217.373 23.0682 217.495 23.2205 217.495 23.4033V24.8962C217.495 25.079 217.342 25.2313 217.16 25.2313H210.457C210.244 25.2313 210.122 25.079 210.122 24.8962V12.801H210.152Z" fill="#4C7FF7"/>
<path d="M218.652 23.4643L219.322 22.337C219.475 22.0933 219.779 22.0933 219.932 22.2152C220.023 22.2761 221.516 23.3424 222.704 23.3424C223.649 23.3424 224.38 22.7331 224.38 21.941C224.38 20.9965 223.588 20.3567 222.064 19.7474C220.358 19.0466 218.622 17.9498 218.622 15.7867C218.622 14.172 219.84 12.2831 222.735 12.2831C224.593 12.2831 226.025 13.2275 226.391 13.5017C226.573 13.6236 226.634 13.9283 226.513 14.1111L225.812 15.1469C225.659 15.3602 225.385 15.5125 225.172 15.3602C225.02 15.2688 223.649 14.3548 222.643 14.3548C221.607 14.3548 221.029 15.0555 221.029 15.6344C221.029 16.4875 221.699 17.0663 223.192 17.6756C224.959 18.3764 227 19.4427 227 21.8191C227 23.708 225.385 25.4446 222.796 25.4446C220.48 25.4446 219.14 24.3783 218.774 24.0127C218.561 23.8603 218.469 23.7689 218.652 23.4643Z" fill="#4C7FF7"/>
</svg>
