<svg width="43" height="44" viewBox="0 0 43 44" fill="none" xmlns="http://www.w3.org/2000/svg">
<rect width="43" height="44" rx="21.5" fill="#4C7FF7"/>
<path fill-rule="evenodd" clip-rule="evenodd" d="M26.7899 23.317C27.2236 22.9918 27.5488 23.3893 27.874 23.5338C29.3193 24.112 30.7647 24.5456 32.3185 24.112C32.6798 24.0036 33.005 23.859 33.3302 23.7145C33.7277 23.4977 34.2697 23.2086 34.1975 22.7027C34.1252 22.2691 33.5471 22.3775 33.1496 22.2691C31.9933 21.9439 30.837 21.6187 29.6807 21.3296C29.4277 21.2574 29.1748 21.2212 29.1025 20.9322C32.3546 20.3179 33.9084 18.7641 34.1252 15.9095C34.1252 15.8372 34.1613 15.765 34.1613 15.6927C34.0891 15.1145 34.2697 14.3196 33.7277 14.1028C33.1134 13.8498 32.9328 14.6809 32.6437 15.0784C30.584 17.7162 28.0908 19.8843 25.3084 21.691C24.5858 22.1607 24.5135 22.5943 24.7303 23.3532C25.3084 25.2683 25.7782 27.1834 26.2841 29.1346C26.3563 29.4237 26.537 29.7851 26.1757 30.038C25.7782 30.2909 25.5614 29.9296 25.3807 29.7128C24.0437 28.2674 22.779 26.7859 21.8396 25.0153C21.1169 23.6784 21.2253 23.317 22.5622 22.5943C23.3933 22.1607 23.574 21.7271 23.2849 20.8238C22.7068 19.2339 22.3093 17.5717 21.8034 15.9456C21.695 15.5482 21.6227 14.97 21.0807 15.0061C20.6471 15.0423 20.5749 15.5482 20.4303 15.9456C19.8883 17.6801 19.4186 19.4145 18.8404 21.149C18.5875 21.8355 18.8043 22.1607 19.4186 22.5221C21.0085 23.4254 21.1169 23.8229 20.1412 25.4128C19.2017 27.0027 18.0093 28.4481 16.7446 29.7851C16.5639 30.0019 16.3833 30.2909 16.0219 30.1103C15.6967 29.9296 15.8413 29.6044 15.8774 29.3153C16.2387 27.1834 16.9253 25.1599 17.5034 23.1002C17.6841 22.5221 17.5757 22.1969 17.0698 21.8717C13.9984 19.8481 11.2522 17.4994 9.12029 14.5003C8.97575 14.2835 8.79508 13.9944 8.54214 14.0667C8.1808 14.1389 8.14467 14.5725 8.0724 14.8616C7.56652 17.2465 9.22869 19.9927 11.6136 20.6792C12.0833 20.8238 12.5892 20.896 13.2757 21.0406C12.011 21.7271 10.7102 21.8717 9.48163 22.233C9.01189 22.3414 8.10853 22.1246 8.10853 22.8111C8.10853 23.4616 8.90348 23.7868 9.51777 24.0036C10.9631 24.5456 12.3724 24.2926 13.7816 23.7868C14.3236 23.6061 14.8295 23.3532 15.4799 23.0641C14.7934 24.3288 13.8539 25.196 12.9505 26.2078C14.1068 26.533 15.0824 26.1355 16.2749 26.0271C15.2992 26.8943 14.3598 27.2557 13.2757 27.1473C12.1556 27.0027 11.9388 26.4246 12.5892 25.5212C12.6976 25.3405 12.9505 25.2321 12.8783 24.9069C11.7942 24.9792 10.6741 25.1599 9.59004 24.7985C8.75895 24.5095 8.03626 24.1481 7.53038 23.4254C6.95223 22.6305 7.13291 22.0523 8.0724 21.7633C8.86735 21.5103 9.6623 21.3658 10.4934 21.1851C10.4934 20.7515 10.132 20.7515 9.91524 20.607C7.89173 19.1255 7.16904 17.1019 7.42198 14.6809C7.49425 14.0667 7.67492 13.4162 8.39761 13.2356C9.08416 13.0549 9.4455 13.5969 9.77071 14.0667C11.7581 16.9213 14.3959 19.0893 17.2144 21.0406C17.8648 21.5103 18.0816 21.3296 18.2623 20.6431C18.732 18.9448 19.274 17.2465 19.7799 15.5482C19.9967 14.8616 20.2858 14.1751 21.1169 14.2112C21.948 14.2112 22.237 14.9339 22.4538 15.6204C22.9958 17.3187 23.5379 19.017 23.9715 20.7515C24.1883 21.5826 24.4412 21.5103 25.0194 21.1128C27.8378 19.1616 30.4395 16.9574 32.463 14.1389C32.7882 13.6692 33.1496 13.1272 33.8361 13.3078C34.4865 13.4885 34.7034 14.0667 34.7756 14.6448C35.137 17.0297 34.342 19.017 32.4992 20.5347C32.2462 20.7154 31.921 20.7876 31.7042 21.2212C32.463 21.4019 33.1857 21.5464 33.9084 21.7633C35.1731 22.1246 35.3899 22.8473 34.4504 23.7868C33.3302 24.9069 31.921 25.1237 30.4395 25.0515C30.1143 25.0153 29.753 24.8708 29.3916 25.0153C29.3916 25.1237 29.3555 25.196 29.3916 25.2321C29.6446 25.6658 30.3672 25.991 29.9698 26.6052C29.5361 27.2918 28.7773 27.2557 28.0908 27.1473C27.332 27.0389 26.6815 26.6414 25.8866 26.1355C27.079 26.0632 28.1269 26.6052 29.2471 26.28C28.3799 25.2321 27.5849 24.2565 26.7899 23.317ZM18.3707 22.775C17.8648 24.5095 17.3589 26.2439 16.8892 27.9783C17.3228 28.1229 17.4673 27.8699 17.648 27.617C18.19 26.8943 18.7681 26.1716 19.274 25.4489C20.3942 23.7506 20.3219 23.6422 18.3707 22.775ZM25.3807 28.3397C24.911 26.6052 24.4051 24.8708 23.9353 23.1364C23.8992 23.028 23.7185 22.8111 23.6824 22.8111C23.2127 23.0279 22.7429 23.2448 22.3454 23.5338C22.0202 23.7868 22.237 24.1481 22.3816 24.4372C23.1404 25.9187 24.2244 27.1473 25.3807 28.3397ZM29.1387 24.8347C29.1387 24.8708 29.1025 24.8708 29.1025 24.9069C29.1025 24.9431 29.1387 24.9431 29.1748 24.9792C29.1748 24.9431 29.2109 24.9069 29.2109 24.8708C29.1748 24.8347 29.1387 24.8347 29.1387 24.8347Z" fill="#F8FCFF"/>
</svg>
