<svg width="31" height="31" viewBox="0 0 31 31" fill="none" xmlns="http://www.w3.org/2000/svg">
<path d="M15.7249 6.7998L8.5 11.0497V19.5497L15.7249 23.7998L22.95 19.5497V11.0497L15.7249 6.7998Z" fill="white"/>
<path d="M22.95 20.3998V11.8999L16.15 16.15V24.6499L22.95 20.3998Z" fill="#BBCDFB"/>
<path d="M23.5156 11.1088L16.0092 6.8742C15.8333 6.77501 15.6167 6.77501 15.4407 6.8742L7.9343 11.1088C7.75837 11.2082 7.64996 11.3916 7.64996 11.59V20.0593C7.64996 20.2577 7.75837 20.4414 7.9343 20.5406L15.4407 24.7754C15.5287 24.8248 15.6267 24.8498 15.7249 24.8498C15.8233 24.8498 15.9212 24.8248 16.0092 24.7754L23.5156 20.5406C23.6916 20.4414 23.8 20.2577 23.8 20.0593V11.59C23.8 11.3916 23.6916 11.2082 23.5156 11.1088V11.1088ZM15.7249 7.99704L22.094 11.59L15.7249 15.1832L9.35597 11.59L15.7249 7.99704ZM16.2935 23.3317V20.8258C16.2935 20.5189 16.039 20.2701 15.7249 20.2701C15.411 20.2701 15.1564 20.5189 15.1564 20.8258V23.3317L8.7873 19.7385V12.5524L15.4407 16.306C15.5287 16.3555 15.6267 16.3804 15.7249 16.3804C15.8233 16.3804 15.9212 16.3555 16.0092 16.306L22.6626 12.5524V19.7385L16.2935 23.3317Z" fill="#4C7FF7"/>
<path d="M15.7252 18.2002C15.5999 18.2002 15.4778 18.2508 15.389 18.3394C15.3007 18.4277 15.2499 18.5501 15.2499 18.6752C15.2499 18.8001 15.3007 18.9225 15.389 19.0108C15.4778 19.0994 15.5999 19.1502 15.7252 19.1502C15.85 19.1502 15.9726 19.0994 16.0609 19.0108C16.1491 18.9225 16.1999 18.8001 16.1999 18.6752C16.1999 18.5501 16.1491 18.4277 16.0609 18.3394C15.9726 18.2508 15.85 18.2002 15.7252 18.2002Z" fill="#4C7FF7"/>
</svg>
