<svg width="28" height="22" viewBox="0 0 28 22" fill="none" xmlns="http://www.w3.org/2000/svg">
<path d="M20.0635 0.499929L19.5635 0.499929L19.5635 0.999929L19.5635 14.6565L19.5635 15.1565L20.0635 15.1565L25.1738 15.1565C26.2819 15.1565 27.3772 14.4187 27.3772 13.2908L27.3772 2.36559C27.3772 1.2378 26.282 0.499929 25.1738 0.499929L20.0635 0.499929Z" stroke="#FF6F6F"/>
<path d="M5.8469 14.3311L5.84689 14.3311L9.32799 14.3311C9.41826 14.3311 9.47073 14.3568 9.50316 14.3791C9.5412 14.4053 9.56478 14.4369 9.57375 14.451L9.57456 14.4522C9.58463 14.468 9.59919 14.4972 9.60377 14.5282C9.60576 14.5417 9.60578 14.5547 9.60327 14.5684C9.60088 14.5814 9.59487 14.6025 9.57719 14.6319C9.57716 14.632 9.57713 14.632 9.5771 14.6321L7.96476 17.3052C7.96474 17.3052 7.96472 17.3052 7.9647 17.3053C7.52487 18.033 7.47843 18.8984 7.83969 19.6653C8.19949 20.4299 8.90328 20.9697 9.74852 21.1636L10.8848 21.4251L10.9975 20.938L10.8854 21.4253L10.8851 21.4252C11.3232 21.5265 11.7971 21.401 12.1178 21.0733L12.118 21.0731L18.2926 14.7578L18.2929 14.7574C19.0204 14.0117 19.4279 13.0414 19.4279 12.0239L19.4279 4.56411C19.4279 2.28465 17.4275 0.499876 15.0565 0.499876L15.0564 0.499876L7.35374 0.500571C7.35373 0.500571 7.35371 0.500571 7.3537 0.500571C5.41768 0.50059 3.6694 1.70187 3.14071 3.47971L3.13667 3.49329L3.13341 3.50708L1.48117 10.4879C1.42364 10.7198 1.39372 10.9585 1.39372 11.1983C1.39372 12.964 2.94045 14.3311 4.75341 14.3311L5.8469 14.3311Z" stroke="#FF6F6F"/>
</svg>
