<svg width="99" height="99" viewBox="0 0 99 99" fill="none" xmlns="http://www.w3.org/2000/svg">
<path d="M42.5109 77.8801C58.1847 77.8801 70.8909 65.174 70.8909 49.5001C70.8909 33.8263 58.1847 21.1201 42.5109 21.1201C26.837 21.1201 14.1309 33.8263 14.1309 49.5001C14.1309 65.174 26.837 77.8801 42.5109 77.8801Z" fill="#E5E6ED" fill-opacity="0.5"/>
<path d="M73.533 14.5203H33.933C32.475 14.5203 31.293 15.7023 31.293 17.1603V81.8403C31.293 83.2982 32.475 84.4803 33.933 84.4803H81.453C82.9109 84.4803 84.093 83.2982 84.093 81.8403V25.0803L73.533 14.5203Z" fill="white" fill-opacity="0.22"/>
<path d="M81.4527 85.8002H33.9327C31.749 85.8002 29.9727 84.0238 29.9727 81.8402V17.1602C29.9727 14.9766 31.749 13.2002 33.9327 13.2002H73.5327C73.8828 13.2002 74.2184 13.3395 74.4659 13.587L85.0259 24.147C85.2734 24.3945 85.4127 24.7297 85.4127 25.0802V81.8402C85.4127 84.0238 83.6363 85.8002 81.4527 85.8002V85.8002ZM33.9327 15.8402C33.205 15.8402 32.6127 16.4319 32.6127 17.1602V81.8402C32.6127 82.5685 33.205 83.1602 33.9327 83.1602H81.4527C82.1803 83.1602 82.7727 82.5685 82.7727 81.8402V25.627L72.9862 15.8405H33.9327V15.8402Z" fill="#8C97AD" fill-opacity="0.2"/>
<path d="M73.5312 25.08H84.0912L73.5312 14.52V25.08Z" fill="#E5E6ED" fill-opacity="0.5"/>
<path d="M84.0909 26.4002H73.5309C72.802 26.4002 72.2109 25.8098 72.2109 25.0802V14.5202C72.2109 13.9866 72.5327 13.5045 73.0257 13.3009C73.5194 13.0946 74.0853 13.2094 74.4642 13.587L85.0242 24.147C85.402 24.5248 85.5145 25.0918 85.3103 25.5854C85.106 26.0791 84.6245 26.4002 84.0909 26.4002V26.4002ZM74.8509 23.7602H80.9044L74.8509 17.7067V23.7602Z" fill="#E1E3EC"/>
<path d="M18.6387 61.2671C18.3011 61.2671 17.9632 61.1381 17.7055 60.8803L13.9725 57.1474C13.4571 56.6319 13.4571 55.7963 13.9725 55.2809C14.488 54.7654 15.3236 54.7654 15.839 55.2809L19.572 59.0138C20.0874 59.5293 20.0874 60.3649 19.572 60.8803C19.3142 61.1381 18.9767 61.2671 18.6387 61.2671V61.2671Z" fill="#8C97AD" fill-opacity="0.2"/>
<path d="M14.9058 61.2671C14.5682 61.2671 14.2303 61.1381 13.9725 60.8803C13.4571 60.3649 13.4571 59.5293 13.9725 59.0138L17.7055 55.2809C18.221 54.7654 19.0565 54.7654 19.572 55.2809C20.0874 55.7963 20.0874 56.6319 19.572 57.1474L15.839 60.8803C15.5813 61.1381 15.2434 61.2671 14.9058 61.2671V61.2671Z" fill="#8C97AD" fill-opacity="0.2"/>
<path d="M26.0114 55.4403C26.7404 55.4403 27.3314 54.8493 27.3314 54.1203C27.3314 53.3913 26.7404 52.8003 26.0114 52.8003C25.2824 52.8003 24.6914 53.3913 24.6914 54.1203C24.6914 54.8493 25.2824 55.4403 26.0114 55.4403Z" fill="#8C97AD" fill-opacity="0.2"/>
<path d="M22.0524 40.9203C22.7814 40.9203 23.3724 40.3293 23.3724 39.6003C23.3724 38.8713 22.7814 38.2803 22.0524 38.2803C21.3234 38.2803 20.7324 38.8713 20.7324 39.6003C20.7324 40.3293 21.3234 40.9203 22.0524 40.9203Z" fill="#8C97AD" fill-opacity="0.2"/>
<path d="M47.472 54.948V57H45.348V54.948H47.472ZM52.7319 57L51.3639 55.092L50.2479 57H47.9919L50.2119 53.508L47.9079 50.304H50.2119L51.5679 52.188L52.6839 50.304H54.9399L52.6719 53.712L55.0359 57H52.7319ZM57.8616 48.12V57H55.8096V48.12H57.8616ZM61.7143 50.22C62.5623 50.22 63.2383 50.432 63.7423 50.856C64.2543 51.28 64.5743 51.84 64.7023 52.536H62.7823C62.7263 52.264 62.5983 52.052 62.3983 51.9C62.2063 51.74 61.9623 51.66 61.6663 51.66C61.4343 51.66 61.2583 51.712 61.1383 51.816C61.0183 51.912 60.9583 52.052 60.9583 52.236C60.9583 52.444 61.0663 52.6 61.2823 52.704C61.5063 52.808 61.8543 52.912 62.3263 53.016C62.8383 53.136 63.2583 53.26 63.5863 53.388C63.9143 53.508 64.1983 53.708 64.4383 53.988C64.6783 54.268 64.7983 54.644 64.7983 55.116C64.7983 55.5 64.6943 55.84 64.4863 56.136C64.2783 56.432 63.9783 56.664 63.5863 56.832C63.1943 57 62.7303 57.084 62.1943 57.084C61.2903 57.084 60.5663 56.884 60.0223 56.484C59.4783 56.084 59.1463 55.512 59.0263 54.768H61.0063C61.0383 55.056 61.1583 55.276 61.3663 55.428C61.5823 55.58 61.8583 55.656 62.1943 55.656C62.4263 55.656 62.6023 55.604 62.7223 55.5C62.8423 55.388 62.9023 55.244 62.9023 55.068C62.9023 54.836 62.7903 54.672 62.5663 54.576C62.3503 54.472 61.9943 54.364 61.4983 54.252C61.0023 54.148 60.5943 54.036 60.2743 53.916C59.9543 53.796 59.6783 53.604 59.4463 53.34C59.2143 53.068 59.0983 52.7 59.0983 52.236C59.0983 51.636 59.3263 51.152 59.7823 50.784C60.2383 50.408 60.8823 50.22 61.7143 50.22ZM70.1226 57L68.7546 55.092L67.6386 57H65.3826L67.6026 53.508L65.2986 50.304H67.6026L68.9586 52.188L70.0746 50.304H72.3306L70.0626 53.712L72.4266 57H70.1226Z" fill="#CCD0DC"/>
</svg>
