<svg width="23" height="23" viewBox="0 0 23 23" fill="none" xmlns="http://www.w3.org/2000/svg">
<rect x="20" y="14.1538" width="6.19231" height="17" rx="2" transform="rotate(90 20 14.1538)" fill="#4C7FF7"/>
<path fill-rule="evenodd" clip-rule="evenodd" d="M2 0C0.895431 0 0 0.895431 0 2V21C0 22.1046 0.89543 23 2 23H21C22.1046 23 23 22.1046 23 21V2C23 0.895431 22.1046 0 21 0H2ZM20 6.59999C20 5.49542 19.1046 4.59999 18 4.59999L5 4.59999C3.89543 4.59999 3 5.49542 3 6.59998V7.19999C3 8.30456 3.89543 9.19999 5 9.19999L18 9.19999C19.1046 9.19999 20 8.30456 20 7.19999V6.59999Z" fill="#4C7FF7" fill-opacity="0.3"/>
<path fill-rule="evenodd" clip-rule="evenodd" d="M20.5066 9.33045C20.321 9.85287 20.4573 10.4698 20.9308 10.7582L22.2946 11.589C22.733 11.8561 22.8285 12.4519 22.4956 12.8426C22.2211 13.1647 21.7489 13.2302 21.3971 12.9951L19.6789 11.8468C19.3063 11.5978 18.8183 11.6355 18.4401 11.8759C17.5723 12.4277 16.5205 12.7508 15.3868 12.7508C12.4118 12.7508 10 10.5256 10 7.78069C10 5.03576 12.4118 2.81055 15.3868 2.81055C18.3619 2.81055 20.7737 5.03576 20.7737 7.78069C20.7737 8.32184 20.6799 8.84278 20.5066 9.33045ZM15.3868 11.0941C17.3702 11.0941 18.9781 9.61066 18.9781 7.7807C18.9781 5.95075 17.3702 4.46727 15.3868 4.46727C13.4035 4.46727 11.7956 5.95075 11.7956 7.7807C11.7956 9.61066 13.4035 11.0941 15.3868 11.0941Z" fill="#4C7FF7"/>
</svg>
