<svg width="114" height="94" viewBox="0 0 114 94" fill="none" xmlns="http://www.w3.org/2000/svg">
<circle cx="3.5" cy="65.5" r="3.5" fill="#4C7FF7"/>
<circle cx="110.5" cy="90.5" r="3.5" fill="#4C7FF7"/>
<circle cx="89.5" cy="3.5" r="3.5" fill="#4C7FF7"/>
<g filter="url(#filter0_d)">
<rect x="40" y="20" width="63" height="62" rx="4" fill="white"/>
<rect x="40.75" y="20.75" width="61.5" height="60.5" rx="3.25" stroke="#728099" stroke-width="1.5"/>
</g>
<ellipse opacity="0.2" cx="71" cy="51.5" rx="25" ry="24.5" fill="url(#paint0_linear)"/>
<circle cx="71" cy="47" r="4" fill="url(#paint1_linear)"/>
<path d="M78.9196 58.004C79.0084 58.5491 78.5534 59 78.0012 59C76.6368 59 74.0129 59 71 59C67.9871 59 65.3632 59 63.9988 59C63.4466 59 62.9916 58.5491 63.0804 58.004C63.633 54.6098 66.9682 52 71 52C75.0318 52 78.3671 54.6098 78.9196 58.004Z" fill="url(#paint2_linear)"/>
<g filter="url(#filter1_d)">
<rect x="15" y="7" width="63" height="62" rx="4" fill="white"/>
<rect x="15.75" y="7.75" width="61.5" height="60.5" rx="3.25" stroke="#728099" stroke-width="1.5"/>
</g>
<ellipse opacity="0.2" cx="46" cy="38.5" rx="25" ry="24.5" fill="url(#paint3_linear)"/>
<circle cx="46" cy="34" r="4" fill="url(#paint4_linear)"/>
<path d="M53.9196 45.004C54.0084 45.5491 53.5534 46 53.0012 46C51.6368 46 49.0129 46 46 46C42.9871 46 40.3632 46 38.9988 46C38.4466 46 37.9916 45.5491 38.0804 45.004C38.633 41.6098 41.9682 39 46 39C50.0318 39 53.3671 41.6098 53.9196 45.004Z" fill="url(#paint5_linear)"/>
<g filter="url(#filter2_d)">
<circle cx="78.5" cy="25.5" r="15.5" fill="#20BAC3"/>
</g>
<path d="M79.08 28.96H76.68C76.648 28.544 76.632 28.24 76.632 28.048C76.632 26.576 77.28 25.368 78.576 24.424L79.68 23.632C80.432 23.088 80.808 22.392 80.808 21.544C80.808 20.872 80.584 20.304 80.136 19.84C79.688 19.36 79.048 19.12 78.216 19.12C77.368 19.12 76.704 19.392 76.224 19.936C75.744 20.48 75.504 21.12 75.504 21.856C75.504 22.304 75.552 22.664 75.648 22.936L72.936 22.744C72.84 22.408 72.792 22.04 72.792 21.64C72.792 20.328 73.272 19.168 74.232 18.16C75.192 17.136 76.52 16.624 78.216 16.624C79.912 16.624 81.248 17.096 82.224 18.04C83.2 18.984 83.688 20.112 83.688 21.424C83.688 23.104 82.888 24.512 81.288 25.648L80.256 26.368C79.456 26.928 79.056 27.688 79.056 28.648C79.056 28.76 79.064 28.864 79.08 28.96ZM76.656 33.664C76.32 33.312 76.152 32.896 76.152 32.416C76.152 31.936 76.32 31.52 76.656 31.168C77.008 30.816 77.424 30.64 77.904 30.64C78.384 30.64 78.792 30.816 79.128 31.168C79.48 31.52 79.656 31.936 79.656 32.416C79.656 32.896 79.48 33.312 79.128 33.664C78.792 34 78.384 34.168 77.904 34.168C77.408 34.168 76.992 34 76.656 33.664Z" fill="white"/>
<defs>
<filter id="filter0_d" x="40" y="19" width="67" height="64" filterUnits="userSpaceOnUse" color-interpolation-filters="sRGB">
<feFlood flood-opacity="0" result="BackgroundImageFix"/>
<feColorMatrix in="SourceAlpha" type="matrix" values="0 0 0 0 0 0 0 0 0 0 0 0 0 0 0 0 0 0 127 0"/>
<feOffset dx="3"/>
<feGaussianBlur stdDeviation="0.5"/>
<feColorMatrix type="matrix" values="0 0 0 0 0 0 0 0 0 0 0 0 0 0 0 0 0 0 0.08 0"/>
<feBlend mode="normal" in2="BackgroundImageFix" result="effect1_dropShadow"/>
<feBlend mode="normal" in="SourceGraphic" in2="effect1_dropShadow" result="shape"/>
</filter>
<filter id="filter1_d" x="15" y="6" width="67" height="64" filterUnits="userSpaceOnUse" color-interpolation-filters="sRGB">
<feFlood flood-opacity="0" result="BackgroundImageFix"/>
<feColorMatrix in="SourceAlpha" type="matrix" values="0 0 0 0 0 0 0 0 0 0 0 0 0 0 0 0 0 0 127 0"/>
<feOffset dx="3"/>
<feGaussianBlur stdDeviation="0.5"/>
<feColorMatrix type="matrix" values="0 0 0 0 0 0 0 0 0 0 0 0 0 0 0 0 0 0 0.08 0"/>
<feBlend mode="normal" in2="BackgroundImageFix" result="effect1_dropShadow"/>
<feBlend mode="normal" in="SourceGraphic" in2="effect1_dropShadow" result="shape"/>
</filter>
<filter id="filter2_d" x="59" y="10" width="39" height="39" filterUnits="userSpaceOnUse" color-interpolation-filters="sRGB">
<feFlood flood-opacity="0" result="BackgroundImageFix"/>
<feColorMatrix in="SourceAlpha" type="matrix" values="0 0 0 0 0 0 0 0 0 0 0 0 0 0 0 0 0 0 127 0"/>
<feOffset dy="4"/>
<feGaussianBlur stdDeviation="2"/>
<feColorMatrix type="matrix" values="0 0 0 0 0.690196 0 0 0 0 0.794874 0 0 0 0 0.992157 0 0 0 0.53 0"/>
<feBlend mode="normal" in2="BackgroundImageFix" result="effect1_dropShadow"/>
<feBlend mode="normal" in="SourceGraphic" in2="effect1_dropShadow" result="shape"/>
</filter>
<linearGradient id="paint0_linear" x1="71" y1="27" x2="71" y2="76" gradientUnits="userSpaceOnUse">
<stop stop-color="#AAC1FD"/>
<stop offset="1" stop-color="#92B4FC"/>
</linearGradient>
<linearGradient id="paint1_linear" x1="71" y1="43" x2="71" y2="51" gradientUnits="userSpaceOnUse">
<stop stop-color="#AAC1FD"/>
<stop offset="1" stop-color="#92B4FC"/>
</linearGradient>
<linearGradient id="paint2_linear" x1="71" y1="52" x2="71" y2="59" gradientUnits="userSpaceOnUse">
<stop stop-color="#AAC1FD"/>
<stop offset="1" stop-color="#92B4FC"/>
</linearGradient>
<linearGradient id="paint3_linear" x1="46" y1="14" x2="46" y2="63" gradientUnits="userSpaceOnUse">
<stop stop-color="#AAC1FD"/>
<stop offset="1" stop-color="#92B4FC"/>
</linearGradient>
<linearGradient id="paint4_linear" x1="46" y1="30" x2="46" y2="38" gradientUnits="userSpaceOnUse">
<stop stop-color="#AAC1FD"/>
<stop offset="1" stop-color="#92B4FC"/>
</linearGradient>
<linearGradient id="paint5_linear" x1="46" y1="39" x2="46" y2="46" gradientUnits="userSpaceOnUse">
<stop stop-color="#AAC1FD"/>
<stop offset="1" stop-color="#92B4FC"/>
</linearGradient>
</defs>
</svg>
