<svg width="35" height="35" viewBox="0 0 35 35" fill="none" xmlns="http://www.w3.org/2000/svg">
<path d="M17.5 35C27.165 35 35 27.165 35 17.5C35 7.83502 27.165 0 17.5 0C7.83502 0 0 7.83502 0 17.5C0 27.165 7.83502 35 17.5 35Z" fill="#7F92A6" fill-opacity="0.5"/>
<path d="M23.1153 13.2995C22.8827 13.0668 22.5055 13.0668 22.2728 13.2995L15.1355 20.4369L12.392 17.6934C12.1594 17.4608 11.7822 17.4608 11.5495 17.6934C11.3168 17.9261 11.3168 18.3032 11.5495 18.5359L14.7142 21.7006C14.9468 21.9332 15.3242 21.9331 15.5567 21.7006L23.1153 14.142C23.348 13.9094 23.3479 13.5322 23.1153 13.2995Z" fill="white" stroke="white"/>
</svg>
