<svg width="20" height="20" viewBox="0 0 20 20" fill="none" xmlns="http://www.w3.org/2000/svg">
<path d="M18.2207 4.88533C16.9169 2.62707 14.8118 1.01175 12.293 0.336844C9.77435 -0.33806 7.14354 0.00831762 4.88528 1.31209C2.62705 2.61586 1.01169 4.72105 0.336827 7.23976C-0.338039 9.75846 0.00830059 12.3893 1.31207 14.6475C2.48158 16.6732 4.34037 18.2127 6.54603 18.9823C7.59157 19.3471 8.68304 19.5292 9.77282 19.5292C10.9577 19.5292 12.1405 19.3138 13.2585 18.8842C13.4552 18.8086 13.5533 18.5879 13.4777 18.3913C13.4021 18.1947 13.1814 18.0965 12.9848 18.1722C10.0089 19.316 6.78725 18.7963 4.3803 16.9896L4.72203 15.2058L4.88669 15.1524C5.50892 14.9502 5.85068 14.2795 5.6486 13.6572L5.52776 13.2854C5.4998 13.1993 5.49996 13.1083 5.52814 13.0224C5.63414 12.6992 5.59627 12.3457 5.4242 12.0523C5.25214 11.7589 4.96206 11.5532 4.62827 11.4879L3.76738 11.3197L2.10632 10.0568C2.00681 9.98114 1.87655 9.95905 1.75762 9.99766L0.785123 10.3136C0.764488 9.96573 0.764183 9.61802 0.783788 9.27214C0.82216 9.30788 0.847144 9.33217 0.862516 9.34812C0.881549 9.37981 0.905122 9.40888 0.932737 9.43405C1.01215 9.50637 1.08409 9.53918 1.23514 9.53918C1.37394 9.53914 1.57942 9.51149 1.9187 9.46136C2.24047 9.4138 2.56057 9.36021 2.56374 9.35968C2.69201 9.3382 2.80045 9.25276 2.85149 9.13318C2.90252 9.01356 2.88906 8.87621 2.81579 8.76872L2.34811 8.08276L3.01798 7.60376C3.06261 7.57183 3.09984 7.53067 3.12711 7.48307L4.16548 5.67032L4.58403 5.22183C5.01172 4.76343 5.13378 4.09276 4.89493 3.51314C4.75403 3.17126 4.50793 2.88664 4.20011 2.69481C4.53349 2.43273 4.88894 2.19075 5.26671 1.97269C6.65276 1.17245 8.16536 0.784644 9.66206 0.769807L8.98097 1.62417L6.45533 2.50959C6.35276 2.54552 6.27037 2.62356 6.22895 2.72403L5.5236 4.43391C5.47352 4.5554 5.48943 4.69401 5.56575 4.80096L6.59592 6.24399C6.44838 6.3786 6.30478 6.57466 6.13325 6.81809C6.05803 6.92485 5.98701 7.02566 5.93792 7.08219C5.89523 7.13139 5.85251 7.17945 5.81017 7.22706C5.5886 7.47632 5.35951 7.73413 5.19676 8.07849C4.8389 8.83597 4.91118 9.71639 5.38537 10.3762C5.84389 11.0141 6.59981 11.3384 7.40662 11.2435C7.53806 11.2281 7.66061 11.1978 7.7792 11.1684C8.1062 11.0875 8.2098 11.0794 8.31469 11.1776C8.36572 11.2254 8.37042 11.2344 8.36939 11.3965C8.36866 11.4997 8.36786 11.628 8.40341 11.7745C8.46036 12.0089 8.60755 12.1709 8.7258 12.301C8.78457 12.3657 8.84537 12.4326 8.8641 12.4775C8.98307 12.7625 8.93127 12.9204 8.81776 13.2664C8.80803 13.296 8.79811 13.3262 8.78816 13.3572C8.61571 13.891 8.85609 14.4205 9.06817 14.8876C9.13705 15.0393 9.20209 15.1825 9.24469 15.309C9.58764 16.3266 9.84472 16.5597 10.051 16.6535C10.1591 16.7026 10.2709 16.7242 10.3839 16.7242C10.9337 16.7241 11.5075 16.2136 11.7711 15.89C11.9366 15.6867 11.9774 15.4832 12.0071 15.3346C12.022 15.2607 12.0336 15.2023 12.0559 15.1642C12.09 15.1058 12.1302 15.0606 12.181 15.0033C12.2833 14.8881 12.4106 14.7449 12.493 14.4852C12.5556 14.2879 12.6011 14.2395 12.7518 14.079C12.7781 14.0511 12.806 14.0213 12.8361 13.9886C13.3441 13.4358 13.2133 13.0136 13.0747 12.5664C12.9581 12.1902 13.162 11.9496 13.6551 11.4904C13.8689 11.2914 14.0899 11.0855 14.2607 10.8382C14.3355 10.73 14.563 10.4007 14.4222 10.0743C14.2842 9.75426 13.9336 9.70048 13.6519 9.65731C13.5406 9.64022 13.3725 9.61443 13.319 9.57946C13.083 9.42517 12.9386 9.10316 12.7989 8.79172C12.7711 8.72974 12.7437 8.66856 12.7159 8.60917C12.6663 8.50321 12.6168 8.37501 12.5643 8.2393C12.4256 7.88014 12.2683 7.47304 12.0006 7.18926C11.7599 6.93427 11.3063 6.81145 10.9061 6.70305C10.7714 6.66662 10.6444 6.63221 10.5606 6.60128C10.4904 6.57534 10.4142 6.57065 10.3415 6.58774C10.1467 6.6334 10.0251 6.68371 9.93489 6.75603C9.91105 6.77514 9.84045 6.83788 9.7991 6.93873C9.65946 6.87171 9.46745 6.74374 9.34928 6.66498C9.34684 6.66334 9.34436 6.6617 9.34192 6.66006C9.38174 6.5007 9.3457 6.3728 9.30794 6.29293C9.09487 5.84223 8.38758 5.87751 8.24805 5.88938C8.16879 5.89601 8.06851 5.89956 7.96244 5.9033C7.79583 5.90921 7.61167 5.91585 7.42946 5.93629L7.43885 5.91013C7.57715 5.52477 7.94516 5.26585 8.35459 5.26585H8.57143C8.78202 5.26585 8.95282 5.09505 8.95282 4.88446C8.95282 4.67387 8.78202 4.50306 8.57143 4.50306H8.35459C7.74674 4.50306 7.19012 4.82297 6.87814 5.3265L6.30924 4.52957L6.86895 3.17286L9.33692 2.30762C9.40459 2.2839 9.46425 2.24156 9.50899 2.18545L10.6061 0.809285C13.4094 1.07594 16.0481 2.64767 17.5602 5.26665C17.963 5.96425 18.2609 6.69866 18.459 7.44981L18.2973 7.59399C18.0862 7.7823 17.9626 8.0524 17.9578 8.33507C17.9578 8.33816 17.9577 8.34122 17.9576 8.34427L17.6942 7.61985C17.6549 7.51176 17.5971 7.41262 17.5224 7.32524L17.0526 6.7751C16.8704 6.56184 16.6051 6.43959 16.3247 6.43959H15.7496C15.5454 6.43959 15.3588 6.55143 15.2625 6.73135C15.1662 6.91131 15.1767 7.12865 15.29 7.29846L15.3482 7.38585C14.9765 7.70545 14.5466 7.9612 14.0889 8.13368L13.3005 6.62348V6.28656C13.3005 6.18235 13.2578 6.08261 13.1824 6.01071L12.4725 5.33294C12.4333 5.29556 12.3866 5.26696 12.3355 5.24899L11.6965 5.0244C11.4976 4.95445 11.28 5.05908 11.2102 5.25776C11.1403 5.45653 11.2448 5.67421 11.4435 5.74405L12.0051 5.94144L12.5377 6.44977V6.71708C12.5377 6.77853 12.5526 6.8391 12.581 6.89361L13.5681 8.78425C13.6568 8.95437 13.8583 9.0321 14.0381 8.96558L14.3255 8.85962C14.9932 8.61337 15.6121 8.21725 16.1153 7.71414C16.2438 7.58556 16.2638 7.38421 16.1629 7.23289L16.1426 7.20241H16.3247C16.3817 7.20241 16.4356 7.22725 16.4726 7.27058L16.9425 7.82071C16.9576 7.83845 16.9693 7.85851 16.9773 7.88052L17.4959 9.30643C17.5404 9.42894 17.6445 9.52018 17.7717 9.54841C17.7991 9.55447 17.8268 9.55745 17.8543 9.55745C17.9543 9.55745 18.0517 9.51805 18.124 9.44573L18.3708 9.1989C18.5271 9.04255 18.6347 8.84474 18.6861 8.62546C19.0678 11.6847 17.8683 14.8494 15.3328 16.8395C15.167 16.9695 15.1381 17.2092 15.2682 17.375C15.3982 17.5407 15.6379 17.5696 15.8037 17.4395C17.6343 16.0028 18.8919 13.9478 19.3448 11.6531C19.802 9.33637 19.4028 6.93278 18.2207 4.88533ZM1.80347 10.7848L3.37622 11.9806C3.42272 12.016 3.47665 12.0402 3.53395 12.0514L4.48188 12.2366C4.60287 12.2602 4.70379 12.3318 4.76616 12.4381C4.82852 12.5444 4.84164 12.6674 4.80327 12.7846C4.72432 13.0254 4.72393 13.2801 4.80224 13.521L4.92308 13.8928C4.99528 14.1151 4.87315 14.3546 4.65097 14.4268L4.27194 14.55C4.1397 14.5929 4.04136 14.7045 4.01523 14.841L3.71017 16.4334C3.0395 15.8196 2.45064 15.0941 1.97267 14.2662C1.38954 13.2563 1.0252 12.1791 0.864614 11.0898L1.80347 10.7848ZM4.02633 4.70141L3.57766 5.18213C3.55763 5.2036 3.54012 5.22733 3.52552 5.25281L2.50664 7.03165L1.60108 7.67917C1.43241 7.79977 1.39099 8.03294 1.50778 8.20428L1.84646 8.70106C1.65124 8.73012 1.47605 8.75408 1.35956 8.76678C1.33717 8.7453 1.31375 8.72352 1.28953 8.70102C1.19886 8.6168 1.07288 8.50432 0.885058 8.33996C1.19482 6.42277 2.11864 4.61662 3.57159 3.23793C3.84981 3.32555 4.07813 3.53308 4.18966 3.80379C4.31515 4.10824 4.251 4.46061 4.02633 4.70141ZM7.13614 6.78566C7.30626 6.68992 7.70112 6.67593 7.9894 6.6657C8.10494 6.66162 8.21411 6.65773 8.3116 6.64957C8.36306 6.64526 8.42019 6.64606 8.47409 6.65026C8.45002 6.71205 8.4422 6.77987 8.45265 6.84715C8.471 6.96551 8.54397 7.0683 8.64955 7.12479C8.7211 7.16309 8.8207 7.2295 8.92612 7.29979C9.22421 7.49852 9.56212 7.72375 9.87955 7.74397C10.1682 7.7627 10.3288 7.59819 10.3976 7.52812C10.4031 7.52255 10.4083 7.51698 10.4138 7.51191C10.4526 7.48033 10.4889 7.43799 10.5159 7.38691C10.5769 7.40434 10.641 7.4217 10.7066 7.43951C10.9325 7.50066 11.3529 7.61448 11.4457 7.71288C11.6107 7.88777 11.7393 8.22064 11.8528 8.51431C11.9101 8.66272 11.9643 8.80279 12.025 8.93266C12.0511 8.98839 12.0768 9.0458 12.1029 9.10393C12.2789 9.49649 12.4784 9.94147 12.9016 10.2181C13.0934 10.3435 13.3287 10.3796 13.5363 10.4114C13.5614 10.4153 13.5901 10.4197 13.6193 10.4245C13.4961 10.5964 13.3207 10.7597 13.1354 10.9323C12.6632 11.372 12.0756 11.9193 12.3462 12.7924C12.4739 13.2046 12.4799 13.2492 12.2745 13.4726C12.2465 13.5031 12.2204 13.5309 12.1959 13.5569C12.02 13.7441 11.8811 13.8921 11.766 14.2544C11.7326 14.3597 11.6893 14.4084 11.6107 14.4969C11.5479 14.5677 11.4695 14.6559 11.3973 14.7795C11.3108 14.9275 11.2822 15.0701 11.2593 15.1847C11.2367 15.2974 11.2239 15.3539 11.1796 15.4083C11.0789 15.5319 10.891 15.7115 10.6981 15.834C10.5188 15.9479 10.4142 15.9634 10.3785 15.9613C10.3378 15.9177 10.1904 15.7266 9.96762 15.0655C9.91269 14.9024 9.83648 14.7345 9.76279 14.5722C9.60034 14.2145 9.4324 13.8445 9.5141 13.5916C9.52375 13.5618 9.53329 13.5326 9.54267 13.5042C9.67319 13.1063 9.7964 12.7306 9.56815 12.1837C9.49865 12.0171 9.388 11.8954 9.29047 11.788C9.22734 11.7185 9.15582 11.6398 9.1448 11.5945C9.13137 11.5392 9.13179 11.4754 9.13229 11.4015C9.13358 11.2022 9.13557 10.9011 8.83618 10.6207C8.41409 10.2256 7.92189 10.3474 7.59615 10.4279C7.4961 10.4526 7.40158 10.476 7.31782 10.4859C6.78198 10.5487 6.30359 10.3465 6.00493 9.93091C5.6925 9.49619 5.64715 8.91119 5.88661 8.40427C6.00253 8.15897 6.17764 7.96188 6.38041 7.73379C6.4247 7.68393 6.4694 7.63366 6.51411 7.58217C6.58848 7.49642 6.67034 7.38031 6.75689 7.25738C6.86022 7.11072 7.05261 6.83761 7.13614 6.78566Z" fill="white"/>
</svg>
