<svg width="29" height="30" viewBox="0 0 29 30" fill="none" xmlns="http://www.w3.org/2000/svg">
<path d="M27.0569 8.12765C25.1208 4.77424 21.9947 2.37556 18.2545 1.37337C14.5144 0.371167 10.6078 0.88552 7.25439 2.82155C3.90104 4.75759 1.50231 7.8837 0.500172 11.6238C-0.501971 15.364 0.012326 19.2707 1.94836 22.624C3.68502 25.632 6.44523 27.9181 9.72053 29.061C11.2731 29.6027 12.8939 29.8731 14.5122 29.8731C16.2717 29.8731 18.0281 29.5533 19.6883 28.9152C19.9802 28.803 20.1259 28.4753 20.0137 28.1833C19.9014 27.8914 19.5737 27.7455 19.2818 27.858C14.8627 29.5564 10.0787 28.7847 6.50453 26.1019L7.01197 23.4531L7.25649 23.3737C8.18047 23.0735 8.68797 22.0775 8.38789 21.1535L8.20845 20.6013C8.16693 20.4735 8.16716 20.3384 8.20902 20.2107C8.36642 19.7309 8.31018 19.2059 8.05467 18.7702C7.79916 18.3346 7.36841 18.0291 6.87275 17.9322L5.59437 17.6824L3.12779 15.807C2.98001 15.6947 2.78658 15.6619 2.60998 15.7192L1.16587 16.1883C1.13523 15.6718 1.13477 15.1554 1.16389 14.6418C1.22087 14.6949 1.25797 14.731 1.28079 14.7547C1.30906 14.8017 1.34406 14.8449 1.38507 14.8823C1.50299 14.9897 1.60982 15.0384 1.83411 15.0384C2.04023 15.0383 2.34535 14.9972 2.84917 14.9228C3.32699 14.8522 3.80232 14.7726 3.80702 14.7718C3.9975 14.7399 4.15853 14.6131 4.23432 14.4355C4.3101 14.2579 4.29011 14.0539 4.1813 13.8943L3.48683 12.8757L4.48155 12.1644C4.54782 12.117 4.6031 12.0558 4.6436 11.9852L6.18553 9.29331L6.80705 8.62733C7.44216 7.94662 7.62341 6.95071 7.26872 6.09C7.05949 5.58233 6.69405 5.15968 6.23696 4.87483C6.732 4.48565 7.25983 4.12633 7.8208 3.80251C9.87901 2.61419 12.1251 2.03833 14.3477 2.01629L13.3363 3.28499L9.58584 4.59978C9.43353 4.65314 9.31118 4.76903 9.24967 4.91822L8.20228 7.4573C8.12791 7.6377 8.15153 7.84354 8.26486 8.00236L9.79461 10.1452C9.57553 10.3451 9.36228 10.6362 9.10756 10.9977C8.99587 11.1562 8.8904 11.3059 8.81751 11.3899C8.75412 11.4629 8.69069 11.5343 8.62782 11.605C8.29879 11.9751 7.95861 12.358 7.71692 12.8693C7.18552 13.9941 7.29285 15.3015 7.99701 16.2813C8.67789 17.2286 9.80039 17.7102 10.9985 17.5692C11.1936 17.5464 11.3756 17.5013 11.5517 17.4577C12.0373 17.3376 12.1911 17.3256 12.3469 17.4714C12.4227 17.5423 12.4296 17.5558 12.4281 17.7964C12.427 17.9496 12.4259 18.1401 12.4786 18.3577C12.5632 18.7057 12.7818 18.9463 12.9574 19.1395C13.0447 19.2355 13.1349 19.3349 13.1627 19.4016C13.3394 19.8249 13.2625 20.0593 13.0939 20.5731C13.0795 20.617 13.0648 20.6619 13.05 20.7079C12.7939 21.5006 13.1509 22.2868 13.4658 22.9805C13.5681 23.2057 13.6646 23.4183 13.7279 23.6063C14.2372 25.1174 14.6189 25.4635 14.9253 25.6028C15.0858 25.6758 15.2518 25.7078 15.4196 25.7077C16.2361 25.7076 17.0881 24.9496 17.4794 24.469C17.7253 24.1672 17.7858 23.865 17.83 23.6443C17.852 23.5345 17.8694 23.4479 17.9024 23.3912C17.9531 23.3046 18.0127 23.2374 18.0882 23.1523C18.2401 22.9813 18.4291 22.7686 18.5515 22.3829C18.6445 22.09 18.7121 22.0181 18.9358 21.7798C18.9748 21.7384 19.0163 21.6941 19.0609 21.6456C19.8153 20.8247 19.621 20.1976 19.4152 19.5337C19.2421 18.9751 19.545 18.6178 20.2772 17.9359C20.5946 17.6403 20.9228 17.3346 21.1765 16.9674C21.2875 16.8066 21.6253 16.3177 21.4162 15.833C21.2114 15.3578 20.6907 15.2779 20.2723 15.2138C20.1071 15.1884 19.8574 15.1501 19.778 15.0982C19.4275 14.8691 19.2132 14.3909 19.0058 13.9284C18.9645 13.8364 18.9238 13.7455 18.8825 13.6574C18.8089 13.5 18.7353 13.3096 18.6574 13.1081C18.4513 12.5748 18.2178 11.9703 17.8202 11.5489C17.4629 11.1702 16.7893 10.9878 16.1949 10.8269C15.9951 10.7728 15.8064 10.7217 15.682 10.6757C15.5777 10.6372 15.4645 10.6303 15.3566 10.6556C15.0673 10.7234 14.8868 10.7981 14.7528 10.9055C14.7174 10.9339 14.6126 11.0271 14.5512 11.1768C14.3438 11.0773 14.0587 10.8873 13.8832 10.7703C13.8796 10.7679 13.8759 10.7655 13.8723 10.763C13.9314 10.5264 13.8779 10.3365 13.8218 10.2179C13.5054 9.54859 12.4551 9.60098 12.2479 9.6186C12.1302 9.62845 11.9813 9.63372 11.8238 9.63927C11.5764 9.64805 11.303 9.65791 11.0324 9.68826L11.0463 9.64941C11.2517 9.07717 11.7982 8.69269 12.4061 8.69269H12.7281C13.0409 8.69269 13.2945 8.43906 13.2945 8.12634C13.2945 7.81363 13.0409 7.55999 12.7281 7.55999H12.4061C11.5035 7.55999 10.677 8.03504 10.2137 8.78275L9.3689 7.59936L10.2 5.58471L13.8649 4.29987C13.9653 4.26464 14.0539 4.20177 14.1204 4.11845L15.7495 2.07492C19.9123 2.47089 23.8307 4.80482 26.076 8.69388C26.6741 9.72978 27.1165 10.8203 27.4106 11.9358L27.1705 12.1499C26.8571 12.4295 26.6735 12.8306 26.6665 13.2503C26.6664 13.2549 26.6663 13.2595 26.6662 13.264L26.275 12.1883C26.2167 12.0277 26.1308 11.8805 26.0199 11.7508L25.3222 10.9338C25.0517 10.6172 24.6578 10.4356 24.2414 10.4356H23.3873C23.0841 10.4356 22.8071 10.6017 22.664 10.8689C22.521 11.1361 22.5367 11.4589 22.7048 11.711L22.7913 11.8408C22.2393 12.3154 21.601 12.6951 20.9213 12.9513L19.7506 10.7087V10.2084C19.7506 10.0537 19.6872 9.90554 19.5753 9.79877L18.521 8.79232C18.4628 8.73682 18.3935 8.69434 18.3177 8.66766L17.3687 8.33416C17.0734 8.23028 16.7502 8.38564 16.6465 8.68068C16.5428 8.97584 16.698 9.29909 16.9931 9.4028L17.827 9.69591L18.6179 10.4508V10.8477C18.6179 10.9389 18.64 11.0289 18.6822 11.1098L20.1479 13.9173C20.2797 14.17 20.5789 14.2854 20.8459 14.1866L21.2727 14.0293C22.2642 13.6636 23.1832 13.0754 23.9304 12.3283C24.1212 12.1373 24.1509 11.8383 24.0011 11.6136L23.971 11.5684H24.2414C24.326 11.5684 24.406 11.6053 24.461 11.6696L25.1587 12.4865C25.1812 12.5129 25.1986 12.5427 25.2105 12.5753L25.9805 14.6927C26.0467 14.8747 26.2012 15.0102 26.39 15.0521C26.4308 15.0611 26.4719 15.0655 26.5127 15.0655C26.6613 15.0655 26.8059 15.007 26.9132 14.8996L27.2797 14.5331C27.5118 14.3009 27.6716 14.0072 27.7479 13.6815C28.3148 18.2244 26.5335 22.9238 22.7684 25.8789C22.5223 26.072 22.4793 26.428 22.6725 26.6741C22.8656 26.9202 23.2216 26.9631 23.4677 26.7699C26.186 24.6365 28.0534 21.5849 28.7261 18.1775C29.405 14.7372 28.8122 11.168 27.0569 8.12765ZM2.67806 16.8881L5.01352 18.6638C5.08257 18.7163 5.16266 18.7522 5.24773 18.7688L6.65536 19.0439C6.83503 19.079 6.9849 19.1853 7.07751 19.3432C7.17011 19.501 7.1896 19.6837 7.13262 19.8576C7.01537 20.2152 7.0148 20.5934 7.13109 20.9512L7.31053 21.5033C7.41775 21.8333 7.23638 22.1891 6.90645 22.2963L6.34361 22.4792C6.14724 22.543 6.00122 22.7086 5.96242 22.9112L5.50941 25.2759C4.5135 24.3644 3.63908 23.2871 2.92932 22.0577C2.0634 20.5581 1.52236 18.9585 1.28391 17.341L2.67806 16.8881ZM5.9789 7.85452L5.31264 8.56837C5.2829 8.60026 5.25691 8.63549 5.23521 8.67332L3.72223 11.3148L2.37752 12.2763C2.12706 12.4554 2.06555 12.8017 2.23898 13.0561L2.74189 13.7938C2.45201 13.837 2.19186 13.8725 2.01888 13.8914C1.98563 13.8595 1.95085 13.8272 1.91488 13.7937C1.78025 13.6687 1.59317 13.5017 1.31427 13.2576C1.77425 10.4107 3.14608 7.72861 5.30364 5.68134C5.71677 5.81144 6.05582 6.11962 6.22144 6.5216C6.40779 6.97371 6.31252 7.49695 5.9789 7.85452ZM10.5968 10.9495C10.8494 10.8074 11.4358 10.7866 11.8639 10.7714C12.0354 10.7653 12.1975 10.7596 12.3423 10.7474C12.4187 10.741 12.5036 10.7422 12.5836 10.7485C12.5479 10.8402 12.5362 10.9409 12.5518 11.0408C12.579 11.2166 12.6874 11.3692 12.8441 11.4531C12.9504 11.51 13.0983 11.6086 13.2548 11.713C13.6975 12.0081 14.1993 12.3426 14.6706 12.3726C15.0993 12.4004 15.3378 12.1561 15.44 12.052C15.4481 12.0438 15.4558 12.0355 15.464 12.028C15.5215 11.9811 15.5755 11.9182 15.6156 11.8424C15.7061 11.8682 15.8013 11.894 15.8988 11.9205C16.2342 12.0113 16.8584 12.1803 16.9964 12.3264C17.2413 12.5861 17.4323 13.0804 17.6008 13.5165C17.6859 13.7369 17.7663 13.9449 17.8566 14.1377C17.8953 14.2205 17.9334 14.3057 17.9722 14.392C18.2335 14.975 18.5297 15.6358 19.1582 16.0465C19.4431 16.2328 19.7924 16.2863 20.1007 16.3336C20.1379 16.3393 20.1806 16.3459 20.224 16.3531C20.0411 16.6083 19.7806 16.8508 19.5054 17.1071C18.8042 17.7601 17.9316 18.5727 18.3335 19.8692C18.5232 20.4814 18.532 20.5475 18.227 20.8793C18.1854 20.9246 18.1467 20.9658 18.1104 21.0044C17.8491 21.2825 17.6428 21.5022 17.472 22.0403C17.4223 22.1966 17.3581 22.2689 17.2413 22.4003C17.148 22.5055 17.0317 22.6364 16.9245 22.8199C16.796 23.0398 16.7535 23.2515 16.7195 23.4216C16.6859 23.589 16.6669 23.673 16.6012 23.7537C16.4516 23.9373 16.1726 24.2039 15.8861 24.3859C15.6199 24.555 15.4645 24.5781 15.4115 24.5749C15.3511 24.5101 15.1322 24.2264 14.8014 23.2446C14.7199 23.0024 14.6067 22.7532 14.4973 22.5122C14.256 21.9809 14.0066 21.4315 14.128 21.056C14.1423 21.0117 14.1564 20.9685 14.1704 20.9262C14.3642 20.3354 14.5472 19.7775 14.2082 18.9653C14.105 18.718 13.9407 18.5372 13.7959 18.3777C13.7021 18.2746 13.5959 18.1577 13.5796 18.0904C13.5596 18.0083 13.5603 17.9136 13.561 17.8038C13.5629 17.5079 13.5659 17.0607 13.1213 16.6444C12.4945 16.0577 11.7636 16.2385 11.2799 16.3581C11.1313 16.3948 10.991 16.4296 10.8666 16.4442C10.0709 16.5374 9.36052 16.2372 8.91702 15.6201C8.45308 14.9745 8.38573 14.1058 8.74132 13.3531C8.91346 12.9888 9.17349 12.6962 9.47459 12.3575C9.54035 12.2834 9.60674 12.2088 9.67312 12.1323C9.78357 12.005 9.90512 11.8326 10.0336 11.65C10.1871 11.4322 10.4728 11.0267 10.5968 10.9495Z" fill="white"/>
</svg>
