<svg width="147" height="139" viewBox="0 0 147 139" fill="none" xmlns="http://www.w3.org/2000/svg">
<ellipse opacity="0.2" cx="52.5" cy="50.5" rx="52.5" ry="49.5" fill="url(#paint0_linear)"/>
<circle opacity="0.2" cx="97" cy="89" r="50" fill="url(#paint1_linear)"/>
<g filter="url(#filter0_d)">
<rect x="75.9774" y="38.2079" width="52.8539" height="67.7191" rx="4" fill="white"/>
<rect x="76.7274" y="38.9579" width="51.3539" height="66.2191" rx="3.25" stroke="#728099" stroke-width="1.5"/>
</g>
<ellipse cx="102.817" cy="55.9636" rx="11.9747" ry="11.1489" fill="#ECF1FF"/>
<ellipse cx="102.404" cy="51.8343" rx="3.30337" ry="2.89045" fill="#728099"/>
<path d="M108.88 59.517C109.024 60.0502 108.565 60.5056 108.012 60.5056C106.845 60.5056 104.77 60.5056 102.404 60.5056C100.039 60.5056 97.9636 60.5056 96.7965 60.5056C96.2443 60.5056 95.7853 60.0502 95.9292 59.517C96.5401 57.2541 99.207 55.5505 102.404 55.5505C105.602 55.5505 108.269 57.2541 108.88 59.517Z" fill="#728099"/>
<path d="M90.8427 71.3932C90.0142 71.3932 89.3427 72.0648 89.3427 72.8932C89.3427 73.7216 90.0142 74.3932 90.8427 74.3932L90.8427 71.3932ZM113.966 74.3932C114.795 74.3932 115.466 73.7216 115.466 72.8932C115.466 72.0648 114.795 71.3932 113.966 71.3932L113.966 74.3932ZM90.8427 74.3932L113.966 74.3932L113.966 71.3932L90.8427 71.3932L90.8427 74.3932Z" fill="#20BAC3"/>
<path d="M81.7584 94.0168C80.6539 94.0168 79.7584 94.9123 79.7584 96.0168C79.7584 97.1214 80.6539 98.0168 81.7584 98.0168V94.0168ZM122.225 98.0168C123.329 98.0168 124.225 97.1214 124.225 96.0168C124.225 94.9123 123.329 94.0168 122.225 94.0168V98.0168ZM81.7584 98.0168H122.225V94.0168H81.7584V98.0168Z" fill="#ECF2FF"/>
<path d="M81.7584 89.0618C80.6539 89.0618 79.7584 89.9572 79.7584 91.0618C79.7584 92.1663 80.6539 93.0618 81.7584 93.0618V89.0618ZM122.225 93.0618C123.329 93.0618 124.225 92.1663 124.225 91.0618C124.225 89.9572 123.329 89.0618 122.225 89.0618V93.0618ZM81.7584 93.0618H122.225V89.0618H81.7584V93.0618Z" fill="#ECF2FF"/>
<path d="M81.7584 83.281C80.6539 83.281 79.7584 84.1764 79.7584 85.281C79.7584 86.3856 80.6539 87.281 81.7584 87.281V83.281ZM122.225 87.281C123.329 87.281 124.225 86.3856 124.225 85.281C124.225 84.1764 123.329 83.281 122.225 83.281V87.281ZM81.7584 87.281H122.225V83.281H81.7584V87.281Z" fill="#ECF2FF"/>
<path d="M81.7584 78.3258C80.6539 78.3258 79.7584 79.2212 79.7584 80.3258C79.7584 81.4304 80.6539 82.3258 81.7584 82.3258V78.3258ZM122.225 82.3258C123.329 82.3258 124.225 81.4304 124.225 80.3258C124.225 79.2212 123.329 78.3258 122.225 78.3258V82.3258ZM81.7584 82.3258H122.225V78.3258H81.7584V82.3258Z" fill="#ECF2FF"/>
<g filter="url(#filter1_d)">
<rect x="53.6797" y="34.9045" width="58.6348" height="74.3258" rx="4" fill="white"/>
<rect x="54.4297" y="35.6545" width="57.1348" height="72.8258" rx="3.25" stroke="#728099" stroke-width="1.5"/>
</g>
<ellipse cx="83.4101" cy="53.8989" rx="13.2135" ry="12.3876" fill="#ECF1FF"/>
<ellipse cx="82.9972" cy="49.7697" rx="3.71629" ry="3.30337" fill="#728099"/>
<path d="M89.9135 58.6867C90.0272 59.2271 89.5696 59.6798 89.0173 59.6798C87.7897 59.6798 85.5529 59.6798 82.9971 59.6798C80.4412 59.6798 78.2044 59.6798 76.9768 59.6798C76.4245 59.6798 75.967 59.2271 76.0806 58.6867C76.6524 55.9672 79.5314 53.8989 82.9971 53.8989C86.4627 53.8989 89.3418 55.9672 89.9135 58.6867Z" fill="#728099"/>
<path d="M70.1967 71.3932C69.3682 71.3932 68.6967 72.0648 68.6967 72.8932C68.6967 73.7216 69.3682 74.3932 70.1967 74.3932L70.1967 71.3932ZM95.7978 74.3932C96.6262 74.3932 97.2978 73.7216 97.2978 72.8932C97.2978 72.0648 96.6262 71.3932 95.7978 71.3932L95.7978 74.3932ZM70.1967 74.3932L95.7978 74.3932L95.7978 71.3932L70.1967 71.3932L70.1967 74.3932Z" fill="#20BAC3"/>
<path d="M60.2865 96.4944C59.1819 96.4944 58.2865 97.3898 58.2865 98.4944C58.2865 99.599 59.1819 100.494 60.2865 100.494V96.4944ZM104.882 100.494C105.987 100.494 106.882 99.599 106.882 98.4944C106.882 97.3898 105.987 96.4944 104.882 96.4944V100.494ZM60.2865 100.494H104.882V96.4944H60.2865V100.494Z" fill="#ECF2FF"/>
<path d="M60.2865 90.7134C59.1819 90.7134 58.2865 91.6088 58.2865 92.7134C58.2865 93.8179 59.1819 94.7134 60.2865 94.7134V90.7134ZM104.882 94.7134C105.987 94.7134 106.882 93.8179 106.882 92.7134C106.882 91.6088 105.987 90.7134 104.882 90.7134V94.7134ZM60.2865 94.7134H104.882V90.7134H60.2865V94.7134Z" fill="#ECF2FF"/>
<path d="M60.2865 84.9326C59.1819 84.9326 58.2865 85.828 58.2865 86.9326C58.2865 88.0372 59.1819 88.9326 60.2865 88.9326V84.9326ZM104.882 88.9326C105.987 88.9326 106.882 88.0372 106.882 86.9326C106.882 85.828 105.987 84.9326 104.882 84.9326V88.9326ZM60.2865 88.9326H104.882V84.9326H60.2865V88.9326Z" fill="#ECF2FF"/>
<path d="M60.2865 79.1516C59.1819 79.1516 58.2865 80.047 58.2865 81.1516C58.2865 82.2562 59.1819 83.1516 60.2865 83.1516V79.1516ZM104.882 83.1516C105.987 83.1516 106.882 82.2562 106.882 81.1516C106.882 80.047 105.987 79.1516 104.882 79.1516V83.1516ZM60.2865 83.1516H104.882V79.1516H60.2865V83.1516Z" fill="#ECF2FF"/>
<g filter="url(#filter2_d)">
<rect x="21.4718" y="27.4719" width="70.1966" height="88.3652" rx="4" fill="white"/>
<rect x="22.2218" y="28.2219" width="68.6966" height="86.8652" rx="3.25" stroke="#728099" stroke-width="1.5"/>
</g>
<ellipse cx="56.9831" cy="49.7697" rx="15.691" ry="14.8652" fill="#ECF1FF"/>
<path d="M41.2921 71.3932C40.4637 71.3932 39.7921 72.0648 39.7921 72.8932C39.7921 73.7216 40.4637 74.3932 41.2921 74.3932L41.2921 71.3932ZM71.8483 74.3932C72.6767 74.3932 73.3483 73.7216 73.3483 72.8932C73.3483 72.0648 72.6767 71.3932 71.8483 71.3932L71.8483 74.3932ZM41.2921 74.3932L71.8483 74.3932L71.8483 71.3932L41.2921 71.3932L41.2921 74.3932Z" fill="#4C7FF7"/>
<path d="M29.7303 101.449C28.6258 101.449 27.7303 102.345 27.7303 103.449C27.7303 104.554 28.6258 105.449 29.7303 105.449V101.449ZM82.5843 105.449C83.6888 105.449 84.5843 104.554 84.5843 103.449C84.5843 102.345 83.6888 101.449 82.5843 101.449V105.449ZM29.7303 105.449H82.5843V101.449H29.7303V105.449Z" fill="#ECF2FF"/>
<path d="M29.7303 94.0168C28.6258 94.0168 27.7303 94.9123 27.7303 96.0168C27.7303 97.1214 28.6258 98.0168 29.7303 98.0168V94.0168ZM82.5843 98.0168C83.6888 98.0168 84.5843 97.1214 84.5843 96.0168C84.5843 94.9123 83.6888 94.0168 82.5843 94.0168V98.0168ZM29.7303 98.0168H82.5843V94.0168H29.7303V98.0168Z" fill="#ECF2FF"/>
<path d="M29.7303 87.4102C28.6258 87.4102 27.7303 88.3056 27.7303 89.4102C27.7303 90.5147 28.6258 91.4102 29.7303 91.4102V87.4102ZM82.5843 91.4102C83.6888 91.4102 84.5843 90.5147 84.5843 89.4102C84.5843 88.3056 83.6888 87.4102 82.5843 87.4102V91.4102ZM29.7303 91.4102H82.5843V87.4102H29.7303V91.4102Z" fill="#ECF2FF"/>
<path d="M29.7303 80.8033C28.6258 80.8033 27.7303 81.6988 27.7303 82.8033C27.7303 83.9079 28.6258 84.8033 29.7303 84.8033V80.8033ZM82.5843 84.8033C83.6888 84.8033 84.5843 83.9079 84.5843 82.8033C84.5843 81.6988 83.6888 80.8033 82.5843 80.8033V84.8033ZM29.7303 84.8033H82.5843V80.8033H29.7303V84.8033Z" fill="#ECF2FF"/>
<circle cx="11.9747" cy="97.2556" r="2.89045" fill="#4C7FF7"/>
<circle cx="117.683" cy="118.728" r="2.89045" fill="#4C7FF7"/>
<circle cx="92.0814" cy="16.3231" r="2.89045" fill="#4C7FF7"/>
<g filter="url(#filter3_d)">
<circle cx="124.289" cy="35.3174" r="12.8006" fill="#20BAC3"/>
</g>
<path d="M130.646 32.5378C131.133 32.0485 131.133 31.2551 130.646 30.7658C130.159 30.2764 129.369 30.2764 128.882 30.7658L130.646 32.5378ZM122.62 38.8306L121.738 39.7166C121.972 39.9516 122.289 40.0836 122.62 40.0836C122.95 40.0836 123.267 39.9516 123.501 39.7166L122.62 38.8306ZM120.162 34.589C119.675 34.0996 118.886 34.0996 118.399 34.5889C117.912 35.0782 117.912 35.8716 118.399 36.3609L120.162 34.589ZM128.882 30.7658L121.738 37.9446L123.501 39.7166L130.646 32.5378L128.882 30.7658ZM123.501 37.9446L120.162 34.589L118.399 36.3609L121.738 39.7166L123.501 37.9446Z" fill="#F8FCFF"/>
<circle cx="57" cy="45" r="4" fill="url(#paint2_linear)"/>
<path d="M64.9196 55.7144C65.0084 56.2595 64.5534 56.7104 64.0012 56.7104C62.6368 56.7104 60.0129 56.7104 57 56.7104C53.9871 56.7104 51.3632 56.7104 49.9988 56.7104C49.4466 56.7104 48.9916 56.2595 49.0804 55.7144C49.633 52.3202 52.9682 49.7104 57 49.7104C61.0318 49.7104 64.3671 52.3202 64.9196 55.7144Z" fill="url(#paint3_linear)"/>
<defs>
<filter id="filter0_d" x="75.9774" y="37.2079" width="56.8539" height="69.7191" filterUnits="userSpaceOnUse" color-interpolation-filters="sRGB">
<feFlood flood-opacity="0" result="BackgroundImageFix"/>
<feColorMatrix in="SourceAlpha" type="matrix" values="0 0 0 0 0 0 0 0 0 0 0 0 0 0 0 0 0 0 127 0"/>
<feOffset dx="3"/>
<feGaussianBlur stdDeviation="0.5"/>
<feColorMatrix type="matrix" values="0 0 0 0 0 0 0 0 0 0 0 0 0 0 0 0 0 0 0.08 0"/>
<feBlend mode="normal" in2="BackgroundImageFix" result="effect1_dropShadow"/>
<feBlend mode="normal" in="SourceGraphic" in2="effect1_dropShadow" result="shape"/>
</filter>
<filter id="filter1_d" x="53.6797" y="33.9045" width="62.6348" height="76.3258" filterUnits="userSpaceOnUse" color-interpolation-filters="sRGB">
<feFlood flood-opacity="0" result="BackgroundImageFix"/>
<feColorMatrix in="SourceAlpha" type="matrix" values="0 0 0 0 0 0 0 0 0 0 0 0 0 0 0 0 0 0 127 0"/>
<feOffset dx="3"/>
<feGaussianBlur stdDeviation="0.5"/>
<feColorMatrix type="matrix" values="0 0 0 0 0 0 0 0 0 0 0 0 0 0 0 0 0 0 0.08 0"/>
<feBlend mode="normal" in2="BackgroundImageFix" result="effect1_dropShadow"/>
<feBlend mode="normal" in="SourceGraphic" in2="effect1_dropShadow" result="shape"/>
</filter>
<filter id="filter2_d" x="21.4718" y="26.4719" width="74.1966" height="90.3652" filterUnits="userSpaceOnUse" color-interpolation-filters="sRGB">
<feFlood flood-opacity="0" result="BackgroundImageFix"/>
<feColorMatrix in="SourceAlpha" type="matrix" values="0 0 0 0 0 0 0 0 0 0 0 0 0 0 0 0 0 0 127 0"/>
<feOffset dx="3"/>
<feGaussianBlur stdDeviation="0.5"/>
<feColorMatrix type="matrix" values="0 0 0 0 0 0 0 0 0 0 0 0 0 0 0 0 0 0 0.08 0"/>
<feBlend mode="normal" in2="BackgroundImageFix" result="effect1_dropShadow"/>
<feBlend mode="normal" in="SourceGraphic" in2="effect1_dropShadow" result="shape"/>
</filter>
<filter id="filter3_d" x="107.489" y="22.5168" width="33.6011" height="33.6011" filterUnits="userSpaceOnUse" color-interpolation-filters="sRGB">
<feFlood flood-opacity="0" result="BackgroundImageFix"/>
<feColorMatrix in="SourceAlpha" type="matrix" values="0 0 0 0 0 0 0 0 0 0 0 0 0 0 0 0 0 0 127 0"/>
<feOffset dy="4"/>
<feGaussianBlur stdDeviation="2"/>
<feColorMatrix type="matrix" values="0 0 0 0 0.690196 0 0 0 0 0.794874 0 0 0 0 0.992157 0 0 0 0.53 0"/>
<feBlend mode="normal" in2="BackgroundImageFix" result="effect1_dropShadow"/>
<feBlend mode="normal" in="SourceGraphic" in2="effect1_dropShadow" result="shape"/>
</filter>
<linearGradient id="paint0_linear" x1="52.5" y1="1" x2="52.5" y2="100" gradientUnits="userSpaceOnUse">
<stop stop-color="#AAC1FD"/>
<stop offset="1" stop-color="#92B4FC"/>
</linearGradient>
<linearGradient id="paint1_linear" x1="97" y1="39" x2="97" y2="139" gradientUnits="userSpaceOnUse">
<stop stop-color="#AAC1FD"/>
<stop offset="1" stop-color="#92B4FC"/>
</linearGradient>
<linearGradient id="paint2_linear" x1="57" y1="41" x2="57" y2="49" gradientUnits="userSpaceOnUse">
<stop stop-color="#A6BEFD"/>
<stop offset="1" stop-color="#6393EA"/>
</linearGradient>
<linearGradient id="paint3_linear" x1="57" y1="49.7104" x2="57" y2="56.7104" gradientUnits="userSpaceOnUse">
<stop stop-color="#A6BEFD"/>
<stop offset="1" stop-color="#6393EA"/>
</linearGradient>
</defs>
</svg>
