<svg width="19" height="20" viewBox="0 0 19 20" fill="none" xmlns="http://www.w3.org/2000/svg">
<g clip-path="url(#clip0)">
<path d="M9.42793 0.160693C11.9255 0.160693 14.2737 1.1678 16.0405 2.99776C17.8075 4.8278 18.7809 7.26117 18.7809 9.85033C18.7809 12.4395 17.8075 14.8729 16.0405 16.7029C14.2737 18.5329 11.9255 19.54 9.42793 19.54C6.9304 19.54 4.58216 18.5329 2.81531 16.7029C1.0484 14.8729 0.075 12.4395 0.075 9.85033C0.075 7.26117 1.0484 4.8278 2.81531 2.99776C4.58216 1.1678 6.9304 0.160693 9.42793 0.160693ZM1.02984 9.85033C1.02984 14.6425 4.79467 18.5457 9.42793 18.5457C14.0612 18.5457 17.826 14.6425 17.826 9.85033C17.826 5.05813 14.0612 1.15499 9.42793 1.15499C4.79467 1.15499 1.02984 5.05813 1.02984 9.85033Z" fill="white" stroke="white" stroke-width="0.15"/>
<path d="M9.9054 5.60119V5.67619H9.9804H11.2031C11.4643 5.67619 11.6805 5.89628 11.6805 6.17334C11.6805 6.4504 11.4643 6.67049 11.2031 6.67049H8.83627C8.11822 6.67049 7.53859 7.27463 7.53859 8.01184C7.53859 8.74901 8.11819 9.35315 8.83627 9.35315H10.0197C11.2592 9.35315 12.2722 10.3985 12.2722 11.6888C12.2722 12.9791 11.2592 14.0244 10.0197 14.0244H9.9804H9.9054V14.0994V15.3658C9.9054 15.6429 9.68919 15.863 9.42799 15.863C9.16678 15.863 8.95057 15.6429 8.95057 15.3658V14.0994V14.0244H8.87557H7.65292C7.39172 14.0244 7.1755 13.8044 7.1755 13.5273C7.1755 13.2502 7.39172 13.0301 7.65292 13.0301H10.0197C10.7378 13.0301 11.3174 12.426 11.3174 11.6888C11.3174 10.9516 10.7378 10.3474 10.0197 10.3474H8.83631C7.59681 10.3474 6.58379 9.30213 6.58379 8.01184C6.58379 6.72155 7.59678 5.67619 8.83631 5.67619H8.87557H8.95057V5.60119V4.33484C8.95057 4.05778 9.16678 3.8377 9.42799 3.8377C9.68919 3.8377 9.9054 4.05778 9.9054 4.33484V5.60119Z" fill="white" stroke="white" stroke-width="0.15"/>
</g>
<defs>
<clipPath id="clip0">
<rect width="18.8559" height="19.5293" fill="white" transform="translate(0 0.0856934)"/>
</clipPath>
</defs>
</svg>
