<svg width="28" height="29" viewBox="0 0 28 29" fill="none" xmlns="http://www.w3.org/2000/svg">
<path d="M14 0.075C17.7188 0.075 21.2152 1.57466 23.8456 4.29901C26.476 7.02345 27.925 10.646 27.925 14.5C27.925 18.354 26.476 21.9766 23.8456 24.701C21.2152 27.4253 17.7188 28.925 14 28.925C10.2812 28.925 6.78483 27.4253 4.15442 24.701C1.52399 21.9766 0.075 18.354 0.075 14.5C0.075 10.646 1.52399 7.02345 4.15442 4.29901C6.78483 1.57466 10.2812 0.075 14 0.075ZM1.56562 14.5C1.56562 21.5973 7.14113 27.3758 14 27.3758C20.8589 27.3758 26.4344 21.5973 26.4344 14.5C26.4344 7.4027 20.8589 1.62422 14 1.62422C7.14113 1.62422 1.56562 7.4027 1.56562 14.5Z" fill="white" stroke="white" stroke-width="0.15"/>
<path d="M14.7453 8.19028V8.26528H14.8203H16.636C17.0451 8.26528 17.3813 8.6096 17.3813 9.03989C17.3813 9.47018 17.0451 9.8145 16.636 9.8145H13.1214C12.0764 9.8145 11.2307 10.6941 11.2307 11.77C11.2307 12.8458 12.0763 13.7254 13.1214 13.7254H14.8787C16.7406 13.7254 18.2599 15.2952 18.2599 17.2301C18.2599 19.165 16.7406 20.7348 14.8787 20.7348H14.8203H14.7453V20.8098V22.6903C14.7453 23.1206 14.4092 23.4649 14 23.4649C13.5909 23.4649 13.2547 23.1206 13.2547 22.6903V20.8098V20.7348H13.1797H11.3641C10.955 20.7348 10.6188 20.3904 10.6188 19.9601C10.6188 19.5299 10.955 19.1855 11.3641 19.1855H14.8787C15.9237 19.1855 16.7693 18.3058 16.7693 17.2301C16.7693 16.1543 15.9237 15.2746 14.8787 15.2746H13.1214C11.2595 15.2746 9.74016 13.7049 9.74016 11.77C9.74016 9.83507 11.2595 8.26528 13.1214 8.26528H13.1797H13.2547V8.19028V6.30981C13.2547 5.87952 13.5909 5.53521 14 5.53521C14.4092 5.53521 14.7453 5.87952 14.7453 6.30981V8.19028Z" fill="white" stroke="white" stroke-width="0.15"/>
</svg>
