<svg width="19" height="24" viewBox="0 0 19 24" fill="none" xmlns="http://www.w3.org/2000/svg">
<path fill-rule="evenodd" clip-rule="evenodd" d="M8.85402 0.811938L1.28624 7.94678C0.627627 8.56772 1.06706 9.6744 1.97223 9.6744H3.23562V11.9693C4.74663 10.2536 7.01022 9.16331 9.54023 9.16331C12.0694 9.16331 14.3324 10.2528 15.8434 11.9677V9.6744H17.1078C18.013 9.6744 18.4524 8.56772 17.7938 7.94679L10.226 0.811938C9.84077 0.448755 9.23924 0.448755 8.85402 0.811938Z" fill="white"/>
<path d="M14.5329 12.2647C13.1994 10.99 11.4263 10.2881 9.5404 10.2881C7.6545 10.2881 5.88145 10.99 4.54791 12.2647C3.21437 13.5393 2.47998 15.2341 2.47998 17.0367C2.47998 18.8393 3.2144 20.534 4.54791 21.8086C5.88142 23.0833 7.6545 23.7852 9.5404 23.7852C11.4263 23.7852 13.1994 23.0833 14.5329 21.8086C15.8664 20.534 16.6008 18.8393 16.6008 17.0367C16.6008 15.2341 15.8664 13.5393 14.5329 12.2647ZM9.5404 16.6149C10.6353 16.6149 11.5261 17.4663 11.5261 18.5129C11.5261 19.3796 10.9151 20.112 10.0832 20.3383C10.0235 20.3545 9.98168 20.4059 9.98168 20.4653V20.8208C9.98168 21.0479 9.79907 21.2434 9.56172 21.254C9.30829 21.2654 9.09913 21.0724 9.09913 20.8327V20.4652C9.09913 20.406 9.05759 20.3546 8.99799 20.3384C8.16972 20.1132 7.5602 19.3864 7.55469 18.5247C7.55323 18.2947 7.74242 18.0979 7.98297 18.0913C8.2326 18.0845 8.43721 18.2758 8.43721 18.5129C8.43721 19.1193 8.97549 19.6078 9.61925 19.5647C10.1627 19.5284 10.6029 19.1077 10.6408 18.5882C10.6858 17.9729 10.1748 17.4584 9.5404 17.4584C8.44546 17.4584 7.55466 16.607 7.55466 15.5604C7.55466 14.6937 8.16574 13.9613 8.99758 13.7351C9.05734 13.7188 9.09913 13.6674 9.09913 13.608V13.2525C9.09913 13.0254 9.28173 12.83 9.51908 12.8193C9.77251 12.8079 9.98168 13.0009 9.98168 13.2406V13.6081C9.98168 13.6673 10.0232 13.7187 10.0828 13.7349C10.9111 13.9601 11.5206 14.6869 11.5261 15.5486C11.5276 15.7786 11.3384 15.9754 11.0978 15.982C10.8482 15.9889 10.6436 15.7975 10.6436 15.5604C10.6436 14.954 10.1053 14.4656 9.46155 14.5086C8.91812 14.5449 8.47792 14.9657 8.43997 15.4851C8.39501 16.1005 8.90604 16.6149 9.5404 16.6149Z" fill="white"/>
</svg>
