<svg width="16" height="14" viewBox="0 0 16 14" fill="none" xmlns="http://www.w3.org/2000/svg">
<path d="M1.02783 7.47266L8.40674 13.877C8.46338 13.9258 8.53564 13.9531 8.61182 13.9531L10.3403 13.9531C10.4849 13.9531 10.5513 13.7734 10.4419 13.6797L3.60205 7.74219L15.0317 7.74219C15.1177 7.74219 15.188 7.67188 15.188 7.58594L15.188 6.41406C15.188 6.32812 15.1177 6.25781 15.0317 6.25781L3.604 6.25781L10.4438 0.320313C10.5532 0.22461 10.4868 0.0468754 10.3423 0.0468754L8.55517 0.0468756C8.51807 0.0468756 8.48096 0.0605475 8.45361 0.0859381L1.02783 6.52734C0.960217 6.58614 0.906003 6.65876 0.868853 6.7403C0.831702 6.82184 0.812477 6.9104 0.812477 7C0.812477 7.0896 0.831702 7.17816 0.868853 7.2597C0.906003 7.34124 0.960217 7.41386 1.02783 7.47266Z" fill="#728099"/>
</svg>
