<svg width="30" height="30" viewBox="0 0 30 30" fill="none" xmlns="http://www.w3.org/2000/svg">
<path d="M8.67188 7.32422C8.54297 7.32422 8.4375 7.42969 8.4375 7.55859V8.96484C8.4375 9.09375 8.54297 9.19922 8.67188 9.19922H19.9219C20.0508 9.19922 20.1562 9.09375 20.1562 8.96484V7.55859C20.1562 7.42969 20.0508 7.32422 19.9219 7.32422H8.67188ZM14.0625 11.543H8.67188C8.54297 11.543 8.4375 11.6484 8.4375 11.7773V13.1836C8.4375 13.3125 8.54297 13.418 8.67188 13.418H14.0625C14.1914 13.418 14.2969 13.3125 14.2969 13.1836V11.7773C14.2969 11.6484 14.1914 11.543 14.0625 11.543ZM12.6562 24.9609H6.09375V4.33594H22.5V13.7109C22.5 13.8398 22.6055 13.9453 22.7344 13.9453H24.375C24.5039 13.9453 24.6094 13.8398 24.6094 13.7109V3.16406C24.6094 2.64551 24.1904 2.22656 23.6719 2.22656H4.92188C4.40332 2.22656 3.98438 2.64551 3.98438 3.16406V26.1328C3.98438 26.6514 4.40332 27.0703 4.92188 27.0703H12.6562C12.7852 27.0703 12.8906 26.9648 12.8906 26.8359V25.1953C12.8906 25.0664 12.7852 24.9609 12.6562 24.9609ZM25.5469 22.3828H21.3281V21.3105C22.6846 20.9062 23.6719 19.6523 23.6719 18.1641C23.6719 16.3506 22.2041 14.8828 20.3906 14.8828C18.5771 14.8828 17.1094 16.3506 17.1094 18.1641C17.1094 19.6494 18.0967 20.9062 19.4531 21.3105V22.3828H15.2344C14.9766 22.3828 14.7656 22.5938 14.7656 22.8516V27.3047C14.7656 27.5625 14.9766 27.7734 15.2344 27.7734H25.5469C25.8047 27.7734 26.0156 27.5625 26.0156 27.3047V22.8516C26.0156 22.5938 25.8047 22.3828 25.5469 22.3828ZM18.9258 18.1641C18.9258 17.3555 19.582 16.6992 20.3906 16.6992C21.1992 16.6992 21.8555 17.3555 21.8555 18.1641C21.8555 18.9727 21.1992 19.6289 20.3906 19.6289C19.582 19.6289 18.9258 18.9727 18.9258 18.1641ZM24.1992 25.957H16.582V24.1992H24.1992V25.957Z" fill="#728099"/>
</svg>
