<svg width="20" height="22" viewBox="0 0 20 22" fill="none" xmlns="http://www.w3.org/2000/svg">
<path d="M10 22C11.5768 22 12.8558 20.7689 12.8558 19.25H7.14421C7.14421 20.7689 8.42322 22 10 22ZM19.6156 15.5671C18.7531 14.6751 17.1393 13.3332 17.1393 8.9375C17.1393 5.59883 14.7071 2.92617 11.4277 2.27047V1.375C11.4277 0.615742 10.7884 0 10 0C9.21161 0 8.57233 0.615742 8.57233 1.375V2.27047C5.29287 2.92617 2.86074 5.59883 2.86074 8.9375C2.86074 13.3332 1.2469 14.6751 0.384405 15.5671C0.116548 15.8443 -0.00220127 16.1756 3.08654e-05 16.5C0.00494156 17.2047 0.579493 17.875 1.43306 17.875H18.5669C19.4205 17.875 19.9955 17.2047 20 16.5C20.0022 16.1756 19.8835 15.8439 19.6156 15.5671Z" fill="#4C7FF7"/>
</svg>
