<svg width="28" height="28" viewBox="0 0 28 28" fill="none" xmlns="http://www.w3.org/2000/svg">
<circle cx="14" cy="13.9995" r="12.1333" fill="#E2EBFE"/>
<path d="M14.4331 7.06738L8.69788 10.5085V17.3908L14.4331 20.8321L20.1685 17.3908V10.5085L14.4331 7.06738Z" fill="#E5E6ED"/>
<path d="M20.1689 17.519V10.8916L14.8159 14.2054V20.8328L20.1689 17.519Z" fill="white"/>
<path d="M20.7045 10.5359L14.6621 7.12727C14.5205 7.04742 14.3462 7.04742 14.2046 7.12727L8.16223 10.5359C8.02061 10.6159 7.93335 10.7636 7.93335 10.9233V17.7407C7.93335 17.9004 8.02061 18.0482 8.16223 18.1281L14.2046 21.5369C14.2754 21.5767 14.3542 21.5968 14.4333 21.5968C14.5125 21.5968 14.5913 21.5767 14.6621 21.5369L20.7045 18.1281C20.8461 18.0482 20.9333 17.9004 20.9333 17.7407V10.9233C20.9333 10.7636 20.8461 10.6159 20.7045 10.5359V10.5359ZM14.4333 8.0311L19.5601 10.9233L14.4333 13.8156L9.30661 10.9233L14.4333 8.0311ZM14.891 20.3748V18.3576C14.891 18.1106 14.6861 17.9104 14.4333 17.9104C14.1806 17.9104 13.9757 18.1106 13.9757 18.3576V20.3748L8.84886 17.4825V11.698L14.2046 14.7194C14.2754 14.7593 14.3542 14.7794 14.4333 14.7794C14.5125 14.7794 14.5913 14.7593 14.6621 14.7194L20.0178 11.698V17.4825L14.891 20.3748Z" fill="#4C7FF7"/>
<path d="M14.4336 15.4805C14.3327 15.4805 14.2345 15.5212 14.163 15.5925C14.0919 15.6636 14.051 15.7622 14.051 15.8628C14.051 15.9633 14.0919 16.0619 14.163 16.133C14.2345 16.2043 14.3327 16.2452 14.4336 16.2452C14.5341 16.2452 14.6327 16.2043 14.7038 16.133C14.7748 16.0619 14.8157 15.9633 14.8157 15.8628C14.8157 15.7622 14.7748 15.6636 14.7038 15.5925C14.6327 15.5212 14.5341 15.4805 14.4336 15.4805Z" fill="#4C7FF7"/>
<path d="M7.47162 2.88364L6.19432 5.90889L2.73144 7.50713V10.989L1 14.0714L2.73144 16.9539V20.5785L6.19432 22.2909L7.47162 25.3161L11.048 25.2591L14 27L17.0087 24.888L20.8406 25.3161L22.0611 22.2909L25.3253 20.5785V16.9539L27 14.0714L25.3253 10.989V7.50713L22.0611 5.90889L20.3865 2.88364H17.0087L14 1L10.7358 2.88364H7.47162Z" stroke="#4C7FF7"/>
</svg>
