<svg width="28" height="24" viewBox="0 0 28 24" fill="none" xmlns="http://www.w3.org/2000/svg">
<path d="M7.16962 11.065H8.1085C8.1085 9.96451 8.1085 8.8761 8.1085 7.78768C8.1085 6.8919 8.15161 6.85148 9.0676 6.84879C9.35856 6.84879 9.64953 6.8461 9.94049 6.84879C11.8681 6.86361 11.7199 6.59824 11.7186 8.66461C11.7186 9.4432 11.7186 10.2218 11.7186 11.0475C11.9638 11.061 12.151 11.0704 12.3625 11.0812C12.3881 10.9317 12.4218 10.8253 12.4218 10.7189C12.4258 9.17514 12.446 7.63142 12.4164 6.08906C12.4042 5.48827 12.6292 5.19731 13.2111 5.05991C14.2106 4.82149 15.1926 4.51301 16.1854 4.25034C16.801 4.08734 17.0273 4.25034 17.0408 4.89153C17.061 5.82638 17.0462 6.76258 17.0462 7.78903C17.5365 7.78903 17.9554 7.80654 18.3717 7.78499C18.8957 7.7567 19.1071 8.00994 19.1044 8.50431C19.1018 9.34891 19.1044 10.1935 19.1044 11.0489H19.9315C19.9841 10.5222 19.9167 9.99953 20.1053 9.59811C20.3707 9.03235 20.9674 8.82895 21.5897 8.90304C22.1838 8.97443 22.6095 9.29772 22.8385 9.88099C23.8353 12.4161 24.8442 14.9472 25.8478 17.481C26.2182 18.4145 26.5954 19.3467 26.955 20.2842C27.642 22.0731 26.5886 23.7637 24.6677 23.9617C24.4455 23.9846 24.2219 23.998 23.9983 23.998C17.061 23.9994 10.1223 24.0048 3.18505 23.99C2.65701 23.99 2.09664 23.932 1.61035 23.7475C0.307758 23.2504 -0.338821 21.7404 0.178445 20.4122C1.55513 16.8749 2.96548 13.3496 4.36102 9.81903C4.60483 9.20208 5.09786 8.92728 5.71884 8.899C6.34522 8.87071 6.91637 9.12261 7.14267 9.70992C7.28816 10.0871 7.16962 10.5653 7.16962 11.0691V11.065ZM12.3948 18.0481C12.1725 18.0374 11.9745 18.0212 11.7765 18.0212C10.187 18.0185 8.59749 18.0387 7.00932 17.9983C6.78032 17.9929 6.55805 17.7019 6.3331 17.543C6.54458 17.3665 6.73182 17.0985 6.97429 17.0338C7.30567 16.9463 7.6788 17.0123 8.07214 17.0123V12.1575C6.86923 11.9918 6.87596 11.9932 6.62541 13.0802C6.09468 15.3877 5.56528 17.6952 5.0103 19.996C4.95507 20.2223 4.76649 20.4998 4.56847 20.5806C4.42703 20.6385 4.12394 20.4526 3.96768 20.2991C3.28743 19.6336 2.5708 19.4747 1.85417 19.8747C1.20489 20.2371 0.869479 20.9955 1.04864 21.7013C1.25204 22.5055 1.87841 22.9783 2.78902 22.9783C9.99706 22.9824 17.2038 22.9824 24.4118 22.9783C25.2995 22.9783 25.9286 22.5082 26.1145 21.7485C26.2963 21.0049 26 20.2681 25.3669 19.8936C24.661 19.476 23.9147 19.6242 23.2385 20.2654C23.0661 20.4297 22.763 20.617 22.5825 20.5671C22.4007 20.5159 22.2269 20.2021 22.169 19.9731C21.847 18.6947 21.5628 17.4083 21.2638 16.1246C20.9513 14.7842 20.6374 13.4453 20.3343 12.1481H19.1556V18.6166L19.3321 18.4805C19.5813 18.7163 20.0366 18.948 20.0393 19.1864C20.046 19.7818 19.487 19.6255 19.1125 19.6255C16.2245 19.6336 13.3377 19.6282 10.4497 19.6336C10.0765 19.6336 9.70341 19.5595 9.76941 19.1298C9.7977 18.9439 10.191 18.7082 10.4376 18.6839C11.0747 18.6206 11.7226 18.6624 12.3948 18.6624V18.0481ZM16.0049 5.34818C15.3192 5.53273 14.705 5.73344 14.0746 5.85736C13.5816 5.95435 13.4509 6.18874 13.4536 6.67637C13.4738 10.4521 13.4644 14.2279 13.4657 18.0037C13.4657 18.199 13.4873 18.3943 13.5007 18.6179H16.0036V5.34818H16.0049ZM25.1581 18.5816C25.1581 18.5506 25.1715 18.5021 25.1567 18.463C24.0831 15.7433 23.0163 13.0196 21.9076 10.3134C21.8295 10.1235 21.4308 10.0669 21.1816 9.947C21.1264 10.172 20.9836 10.4158 21.028 10.6178C21.4295 12.4498 21.8619 14.2751 22.2875 16.103C22.5179 17.0931 22.7509 18.0832 22.957 18.9614C23.745 18.8254 24.4361 18.7055 25.1581 18.5802V18.5816ZM1.96463 18.5735C2.7513 18.7136 3.46254 18.8402 4.20342 18.9736C4.17917 19.0194 4.21015 18.9816 4.21958 18.9412C4.88098 16.1165 5.54643 13.2931 6.18762 10.4643C6.2213 10.3134 6.04213 10.114 5.96131 9.93757C5.72962 10.0521 5.36053 10.11 5.28779 10.2891C4.15357 13.0519 3.05708 15.8309 1.96597 18.5748L1.96463 18.5735ZM9.11745 7.87524V16.9516H10.6652V7.87524H9.11745ZM18.0187 18.6287V8.79123H17.0974V18.6287H18.0187ZM12.3854 16.9651V12.1306H11.759V16.9651H12.3854Z" fill="#26385B"/>
<path d="M16.3491 2.15031C16.7209 0.655093 17.3554 0.00985757 18.4869 0.000428242C18.8129 -0.00226585 19.2924 0.00177528 19.4392 0.198444C20.1262 1.12252 21.4692 0.840985 22.1333 1.74216C22.2505 1.90111 22.3354 2.08431 22.4445 2.27155C23.832 2.12337 24.7439 2.65007 25.3541 3.97556C25.602 4.51169 26.1435 5.23505 27.0541 5.06128C27.2252 5.02895 27.438 5.01413 27.5821 5.08688C27.7546 5.17443 28.0011 5.38053 27.9863 5.50715C27.9647 5.69439 27.7519 5.99344 27.5983 6.0096C27.0002 6.07022 26.394 6.03654 25.7892 6.03654C25.7677 6.03654 25.7367 6.0352 25.7259 6.02173C25.2693 5.49234 24.69 5.02222 24.395 4.4147C24.1216 3.85163 23.8926 3.37478 23.2433 3.26297C22.6183 3.15656 22.0875 3.4583 21.8087 4.11027C21.5932 4.61406 21.3494 4.84575 20.7944 4.51842C20.6475 4.43221 20.3041 4.46993 20.1922 4.58712C20.0589 4.72587 20.0077 5.02491 20.0495 5.22832C20.1195 5.57855 20.234 5.92609 19.7881 6.0581C19.314 6.19819 19.1618 5.80216 19.0446 5.46809C18.697 4.47801 19.4392 3.41789 20.525 3.41923C21.1257 3.41923 21.3925 3.12154 21.4383 2.62447C21.4773 2.19746 21.0018 1.96712 20.4253 2.12472C20.0144 2.23787 19.8124 2.09104 19.6332 1.73677C19.3059 1.09154 18.7738 0.840985 18.2269 1.02284C17.6611 1.21008 17.3756 1.70848 17.482 2.41029C17.5588 2.91274 17.3459 3.13231 16.8718 3.1377C16.0433 3.14578 15.2136 3.17138 14.3892 3.11749C14.1736 3.10268 13.9756 2.8198 13.7695 2.6595C13.9891 2.49112 14.1952 2.20016 14.4296 2.17591C15.0681 2.10856 15.7201 2.15301 16.3518 2.15301L16.3491 2.15031Z" fill="#26385B"/>
<path d="M12.396 18.0491V18.6633C11.7238 18.6633 11.0759 18.6216 10.4388 18.6849C10.1923 18.7091 9.79892 18.9449 9.77063 19.1307C9.70463 19.5591 10.0764 19.6345 10.4509 19.6345C13.339 19.6292 16.2257 19.6345 19.1137 19.6265C19.4882 19.6265 20.0472 19.7814 20.0405 19.1873C20.0378 18.9489 19.5825 18.7159 19.3333 18.4815L19.1569 18.6175V12.149H20.3355C20.6386 13.4462 20.9525 14.7852 21.265 16.1255C21.564 17.4092 21.8482 18.6957 22.1702 19.974C22.2281 20.203 22.4005 20.5169 22.5837 20.568C22.7642 20.6179 23.0673 20.4306 23.2397 20.2663C23.916 19.6251 24.6636 19.4769 25.3681 19.8945C25.9998 20.269 26.2976 21.0058 26.1157 21.7494C25.9298 22.5091 25.3007 22.9793 24.413 22.9793C17.205 22.9833 9.99828 22.9833 2.79023 22.9793C1.87828 22.9793 1.25191 22.5064 1.04985 21.7023C0.872041 20.9964 1.20611 20.238 1.85538 19.8757C2.57201 19.4756 3.28999 19.6345 3.9689 20.3C4.12516 20.4535 4.42825 20.6394 4.56969 20.5815C4.7677 20.5007 4.95763 20.2232 5.01151 19.9969C5.5665 17.6961 6.09589 15.3887 6.62663 13.0812C6.87718 11.9941 6.87044 11.9914 8.07335 12.1584V17.0132C7.68136 17.0132 7.30823 16.9472 6.97551 17.0347C6.73439 17.0994 6.5458 17.3675 6.33431 17.5439C6.55927 17.7029 6.78153 17.9938 7.01053 17.9992C8.5987 18.0396 10.1882 18.0194 11.7777 18.0221C11.9757 18.0221 12.1738 18.0396 12.396 18.0491ZM11.2888 20.7216C10.7095 20.7216 10.1289 20.7216 9.54971 20.7216C9.18466 20.7216 8.80345 20.8146 8.8708 21.2389C8.90313 21.4396 9.27896 21.7238 9.5093 21.7332C10.7109 21.7817 11.9178 21.7817 13.1194 21.7292C13.339 21.7198 13.5464 21.3978 13.7592 21.22C13.5383 21.0543 13.3295 20.7728 13.0925 20.7445C12.4984 20.6758 11.8909 20.7216 11.2888 20.7216ZM14.9904 22.0121C15.3151 21.6578 15.5117 21.4436 15.7098 21.2281C15.4673 21.0597 15.245 20.8065 14.977 20.7432C14.6402 20.6623 14.2334 20.7984 14.3007 21.2348C14.3371 21.4719 14.6671 21.6645 14.9904 22.0121Z" fill="white"/>
<path d="M16.0051 5.34863V18.6197H13.5023C13.4888 18.3961 13.4672 18.2008 13.4672 18.0055C13.4646 14.2297 13.4753 10.4539 13.4551 6.67817C13.4524 6.19054 13.5831 5.9548 14.0761 5.85916C14.7065 5.73658 15.3208 5.53453 16.0064 5.34998L16.0051 5.34863ZM14.7227 6.62563C14.6109 6.62563 14.4735 6.58388 14.3927 6.63372C14.1718 6.76977 13.9737 6.94354 13.7676 7.10383C13.963 7.27491 14.134 7.52277 14.3603 7.59416C14.623 7.67768 14.953 7.66555 15.2198 7.58608C15.411 7.5295 15.5471 7.29107 15.7074 7.13347C15.5363 6.96509 15.3841 6.76303 15.1847 6.64045C15.0716 6.5704 14.879 6.62833 14.7227 6.62563ZM14.7469 8.35928C14.7469 8.35928 14.7469 8.35255 14.7469 8.34985C14.6365 8.34985 14.4977 8.30675 14.4196 8.35794C14.1893 8.50746 13.9832 8.69335 13.7676 8.86577C13.9886 9.03146 14.1893 9.26046 14.4385 9.34397C14.6756 9.42345 14.9827 9.40863 15.2211 9.32781C15.4124 9.26315 15.6993 9.00048 15.6737 8.88598C15.6279 8.68662 15.3976 8.50072 15.2022 8.37275C15.0945 8.30136 14.9005 8.36063 14.7469 8.36063V8.35928ZM14.7348 10.101C14.7348 10.101 14.7348 10.097 14.7348 10.0956C14.6244 10.0956 14.4843 10.0525 14.4088 10.1037C14.1825 10.2559 13.9818 10.4445 13.7703 10.6183C13.9737 10.7799 14.1569 11.013 14.3873 11.0817C14.6486 11.1598 14.9732 11.145 15.2359 11.0628C15.4232 11.0035 15.7074 10.722 15.6777 10.6156C15.6225 10.4162 15.3908 10.2384 15.1915 10.1145C15.0797 10.0444 14.8897 10.1024 14.7348 10.1024V10.101ZM14.751 11.8252C14.5516 11.8414 14.3091 11.8077 14.1206 11.8926C13.9697 11.9599 13.7973 12.1701 13.7905 12.3223C13.7851 12.4718 13.963 12.7466 14.0855 12.7614C14.5166 12.8167 14.9625 12.8167 15.3935 12.7614C15.5175 12.7453 15.6953 12.4705 15.6899 12.3196C15.6845 12.1674 15.5121 11.9653 15.3598 11.8885C15.1969 11.805 14.9719 11.8427 14.751 11.8252ZM14.7362 14.553C14.848 14.553 14.9598 14.5476 15.0716 14.553C15.4366 14.5719 15.7518 14.4304 15.6791 14.0492C15.6441 13.8633 15.3087 13.6815 15.0743 13.6006C14.8547 13.5252 14.561 13.5185 14.3496 13.6033C14.126 13.6936 13.9603 13.9293 13.769 14.1004C13.9576 14.2499 14.134 14.4237 14.3415 14.5409C14.4439 14.5988 14.6042 14.5503 14.7389 14.5517L14.7362 14.553ZM14.7281 18.027C14.7281 18.027 14.7281 18.0365 14.7281 18.0405C14.8601 18.0405 15.0231 18.089 15.1201 18.0311C15.3356 17.8977 15.5188 17.7118 15.7155 17.5475C15.5161 17.3832 15.3396 17.1393 15.112 17.0774C14.8264 16.9979 14.4816 17.0087 14.196 17.0962C14.0195 17.1501 13.8202 17.4074 13.7986 17.5933C13.7838 17.7213 14.0317 17.9287 14.2041 18.0149C14.3455 18.085 14.5503 18.0297 14.7267 18.0297L14.7281 18.027ZM14.8035 15.337C14.8035 15.337 14.8035 15.3316 14.8035 15.3303C14.6688 15.3303 14.5112 15.2845 14.4061 15.3397C14.1785 15.4596 13.9778 15.632 13.7663 15.7829C13.9805 15.9553 14.1704 16.2004 14.4142 16.2786C14.6755 16.3634 15.0029 16.3419 15.2736 16.2678C15.4447 16.2206 15.6966 15.9728 15.6777 15.8502C15.6495 15.6643 15.442 15.4717 15.2642 15.3518C15.1564 15.2791 14.9611 15.3383 14.8049 15.3383L14.8035 15.337Z" fill="white"/>
<path d="M25.1571 18.5834C24.4351 18.7087 23.7427 18.8286 22.956 18.9646C22.7499 18.0864 22.5169 17.0963 22.2865 16.1062C21.8609 14.2796 21.4285 12.453 21.0271 10.621C20.9826 10.4176 21.1241 10.1752 21.1806 9.9502C21.4298 10.0687 21.8286 10.1267 21.9067 10.3166C23.0153 13.0228 24.0822 15.7465 25.1558 18.4662C25.1706 18.5039 25.1571 18.5524 25.1571 18.5848V18.5834Z" fill="white"/>
<path d="M1.96472 18.5738C3.05718 15.8299 4.15233 13.0509 5.28654 10.2881C5.36063 10.1089 5.72838 10.051 5.96007 9.93652C6.04089 10.113 6.22005 10.3123 6.18637 10.4632C5.54652 13.292 4.88108 16.1168 4.21833 18.9402C4.2089 18.9819 4.17792 19.0183 4.20217 18.9725C3.45994 18.8405 2.75005 18.7125 1.96338 18.5724L1.96472 18.5738Z" fill="white"/>
<path d="M9.11865 7.875H10.6664V16.9514H9.11865V7.875ZM10.6637 11.0392C10.2515 10.8277 10.0387 10.6284 9.84741 10.6472C9.69654 10.662 9.45542 10.957 9.46889 11.1093C9.48236 11.2736 9.74773 11.5417 9.89725 11.5376C10.0899 11.5336 10.2798 11.3046 10.6637 11.0379V11.0392ZM9.9673 15.2891C10.1653 14.9241 10.3755 14.7099 10.3539 14.52C10.3377 14.3664 10.0037 14.1051 9.88109 14.1401C9.70058 14.1913 9.48909 14.4526 9.46754 14.6439C9.45138 14.7921 9.70597 14.9699 9.9673 15.2891ZM10.6543 9.28671C10.2475 9.08061 10.0306 8.88259 9.83933 8.90414C9.68846 8.92166 9.45542 9.21935 9.46754 9.37561C9.48101 9.53726 9.75311 9.80262 9.90129 9.79589C10.0953 9.78781 10.2798 9.55611 10.6529 9.28805L10.6543 9.28671ZM9.96325 13.5447C10.1626 13.1797 10.3741 12.9668 10.3539 12.7769C10.3391 12.6233 10.0037 12.358 9.88647 12.393C9.70327 12.4482 9.49044 12.7042 9.46754 12.8968C9.44868 13.0436 9.70462 13.2241 9.96325 13.5447ZM9.89186 17.039C10.1289 16.6955 10.3606 16.5055 10.3593 16.3169C10.3579 16.1593 10.0805 16.0058 9.92554 15.8509C9.76255 16.0139 9.5093 16.1566 9.46484 16.3466C9.43117 16.4894 9.66691 16.6941 9.89186 17.0376V17.039Z" fill="white"/>
<path d="M18.0185 18.6285H17.0972V8.79102H18.0185V18.6285Z" fill="white"/>
<path d="M12.3866 16.9644H11.7603V12.1299H12.3866V16.9644Z" fill="white"/>
<path d="M11.2876 20.723C11.8897 20.723 12.4972 20.6772 13.0913 20.7459C13.3283 20.7728 13.5371 21.0557 13.758 21.2214C13.5452 21.3992 13.3391 21.7211 13.1182 21.7306C11.9166 21.7817 10.7097 21.7831 9.50811 21.7346C9.27776 21.7252 8.90194 21.4423 8.86961 21.2402C8.80226 20.8159 9.18347 20.723 9.54852 20.723C10.1277 20.723 10.7083 20.723 11.2876 20.723Z" fill="#26385B"/>
<path d="M14.9886 22.0097C14.6653 21.6622 14.3353 21.4696 14.2989 21.2325C14.2315 20.7961 14.6383 20.66 14.9751 20.7408C15.2432 20.8055 15.4654 21.0574 15.7079 21.2258C15.5112 21.4413 15.3132 21.6555 14.9886 22.0097Z" fill="#26385B"/>
<path d="M14.7226 6.62608C14.8789 6.62608 15.0715 6.5695 15.1847 6.63955C15.384 6.76347 15.5349 6.96418 15.7073 7.13256C15.547 7.29017 15.4096 7.52725 15.2197 7.58517C14.9516 7.66465 14.623 7.67812 14.3603 7.59325C14.134 7.52051 13.9629 7.27266 13.7676 7.10293C13.975 6.94398 14.1717 6.76886 14.3926 6.63281C14.4734 6.58297 14.6108 6.62473 14.7226 6.62608Z" fill="#26385B"/>
<path d="M14.7479 8.36075C14.9028 8.36075 15.0954 8.30283 15.2032 8.37288C15.3985 8.50085 15.6288 8.68539 15.6746 8.8861C15.7002 8.99925 15.4133 9.26193 15.222 9.32793C14.9822 9.4101 14.6751 9.42357 14.4394 9.3441C14.1902 9.26058 13.9908 9.03158 13.7686 8.8659C13.9841 8.69348 14.1902 8.50758 14.4205 8.35806C14.4987 8.30687 14.6361 8.34998 14.7479 8.34998C14.7479 8.35267 14.7479 8.35671 14.7479 8.35941V8.36075Z" fill="#26385B"/>
<path d="M14.7365 10.1009C14.8914 10.1009 15.0813 10.0443 15.1931 10.113C15.3911 10.2369 15.6242 10.4147 15.6794 10.6141C15.709 10.7218 15.4261 11.002 15.2376 11.0613C14.9749 11.1448 14.6502 11.1583 14.3889 11.0802C14.1572 11.0115 13.9754 10.7771 13.772 10.6168C13.9835 10.443 14.1842 10.2531 14.4105 10.1022C14.4873 10.051 14.626 10.0941 14.7365 10.0941C14.7365 10.0955 14.7365 10.0982 14.7365 10.0995V10.1009Z" fill="#26385B"/>
<path d="M14.7516 11.8252C14.9725 11.8427 15.1961 11.8063 15.3604 11.8885C15.5127 11.9653 15.6851 12.1673 15.6905 12.3196C15.6959 12.4704 15.5181 12.7452 15.3941 12.7614C14.9631 12.8166 14.5172 12.8166 14.0861 12.7614C13.9636 12.7452 13.7857 12.4718 13.7911 12.3223C13.7965 12.17 13.9689 11.9612 14.1212 11.8925C14.3111 11.8077 14.5536 11.8414 14.7516 11.8252Z" fill="#26385B"/>
<path d="M14.7375 14.5508C14.6027 14.5508 14.4424 14.598 14.3401 14.54C14.1326 14.4228 13.9575 14.2504 13.7676 14.0995C13.9589 13.9271 14.1245 13.6927 14.3482 13.6025C14.5596 13.5176 14.8533 13.5244 15.0729 13.5998C15.3073 13.6806 15.6427 13.8625 15.6777 14.0484C15.7504 14.4296 15.4352 14.571 15.0702 14.5522C14.9584 14.5468 14.8466 14.5522 14.7348 14.5508H14.7375Z" fill="#26385B"/>
<path d="M14.729 18.025C14.5526 18.025 14.3478 18.0816 14.2064 18.0102C14.034 17.924 13.7861 17.7166 13.8009 17.5886C13.8225 17.4027 14.0218 17.1454 14.1983 17.0915C14.4825 17.004 14.8274 16.9946 15.1143 17.0727C15.3419 17.1347 15.5184 17.3798 15.7178 17.5428C15.5211 17.7071 15.3379 17.8944 15.1224 18.0264C15.0267 18.0857 14.8638 18.0358 14.7304 18.0358C14.7304 18.0318 14.7304 18.0264 14.7304 18.0224L14.729 18.025Z" fill="#26385B"/>
<path d="M14.8047 15.3374C14.9609 15.3374 15.1576 15.2782 15.264 15.3509C15.4418 15.4708 15.6493 15.6621 15.6776 15.8493C15.6964 15.9719 15.4445 16.2211 15.2735 16.2669C15.0027 16.341 14.6754 16.3625 14.414 16.2777C14.1702 16.1995 13.9803 15.9544 13.7661 15.782C13.9776 15.6311 14.1783 15.46 14.406 15.3388C14.511 15.2835 14.6686 15.3293 14.8033 15.3293C14.8033 15.332 14.8033 15.3347 14.8033 15.3361L14.8047 15.3374Z" fill="#26385B"/>
<path d="M10.664 11.0393C10.2788 11.3061 10.0902 11.5351 9.89755 11.5391C9.74668 11.5418 9.48132 11.2737 9.46919 11.1107C9.45707 10.9572 9.69684 10.6635 9.84771 10.6487C10.039 10.6298 10.2532 10.8292 10.664 11.0407V11.0393Z" fill="#26385B"/>
<path d="M9.96582 15.288C9.70584 14.9687 9.44989 14.7909 9.46606 14.6427C9.48761 14.4514 9.6991 14.1901 9.8796 14.1389C10.0022 14.1039 10.3363 14.3652 10.3524 14.5188C10.3726 14.7087 10.1625 14.9229 9.96582 15.288Z" fill="#26385B"/>
<path d="M10.6547 9.28689C10.2802 9.55495 10.097 9.78664 9.90305 9.79473C9.75353 9.80146 9.48278 9.53609 9.46931 9.37445C9.45584 9.21819 9.69022 8.92049 9.84109 8.90298C10.0324 8.88143 10.2479 9.07944 10.6561 9.28554L10.6547 9.28689Z" fill="#26385B"/>
<path d="M9.96154 13.5445C9.7029 13.2239 9.44697 13.0434 9.46583 12.8966C9.49007 12.704 9.70156 12.448 9.88476 12.3928C10.0019 12.3578 10.3374 12.6231 10.3522 12.7767C10.371 12.9666 10.1609 13.1795 9.96154 13.5445Z" fill="#26385B"/>
<path d="M9.8907 17.0403C9.66574 16.6968 9.43 16.4907 9.46368 16.3492C9.50813 16.1579 9.76138 16.0165 9.92437 15.8535C10.0793 16.0084 10.3554 16.162 10.3581 16.3196C10.3608 16.5068 10.1278 16.6981 9.8907 17.0416V17.0403Z" fill="#26385B"/>
</svg>
