<svg width="28" height="29" viewBox="0 0 28 29" fill="none" xmlns="http://www.w3.org/2000/svg">
<path d="M21.347 1.68609V1.76109H21.422H26.984C27.4115 1.76109 27.7579 2.10764 27.7577 2.53491V21.7148C27.7577 22.1421 27.4112 22.4887 26.9839 22.4887H21.774H21.7145L21.7009 22.5466C20.8738 26.0805 17.6985 28.721 13.9164 28.721C10.1343 28.721 6.95889 26.0807 6.13179 22.5466L6.11824 22.4887H6.05876H0.848844C0.421562 22.4887 0.075 22.1421 0.075 21.7148V2.53493C0.075 2.10765 0.421562 1.76109 0.848844 1.76109H6.62155H6.69655V1.68609V0.848844C6.69655 0.421562 7.04311 0.075 7.47039 0.075C7.89767 0.075 8.24424 0.421562 8.24424 0.848844V1.68609V1.76109H8.31923H13.0675H13.1425V1.68609V0.848844C13.1425 0.421562 13.4891 0.075 13.9164 0.075C14.3437 0.075 14.6902 0.421562 14.6902 0.848844V1.68609V1.76109H14.7652H19.7243H19.7993V1.68609V0.848844C19.7993 0.421562 20.1459 0.075 20.5731 0.075C21.0004 0.075 21.347 0.421562 21.347 0.848844V1.68609ZM6.69655 3.38377V3.30877H6.62155H1.69769H1.62269V3.38377V6.85498V6.92998H1.69769H26.1352H26.2102V6.85498V3.38377V3.30877H26.1352H21.422H21.347V3.38377V4.15085C21.347 4.57813 21.0004 4.92469 20.5731 4.92469C20.1459 4.92469 19.7993 4.57813 19.7993 4.15085V3.38377V3.30877H19.7243H14.7652H14.6902V3.38377V4.15085C14.6902 4.57813 14.3437 4.92469 13.9164 4.92469C13.4891 4.92469 13.1425 4.57813 13.1425 4.15085V3.38377V3.30877H13.0675H8.31923H8.24424V3.38377V4.15085C8.24424 4.57813 7.89767 4.92469 7.47039 4.92469C7.04311 4.92469 6.69655 4.57813 6.69655 4.15085V3.38377ZM21.9094 20.8646L21.908 20.941H21.9843H26.135H26.2101V20.866V8.55281V8.47781H26.135H1.69755H1.62255V8.55281V20.866V20.941H1.69755H5.84839H5.92452L5.92338 20.8649C5.92302 20.8408 5.92229 20.8201 5.92158 20.8002C5.92069 20.7753 5.91986 20.7518 5.91986 20.7245C5.91986 16.3153 9.50716 12.728 13.9164 12.728C18.3256 12.728 21.9129 16.3153 21.9129 20.7245C21.9129 20.7522 21.912 20.7772 21.9111 20.8036C21.9104 20.8227 21.9098 20.8426 21.9094 20.8646ZM7.46754 20.7245C7.46754 24.2804 10.3605 27.1733 13.9164 27.1733C17.4724 27.1733 20.3652 24.2806 20.3652 20.7245C20.3652 17.1685 17.4723 14.2757 13.9164 14.2757C10.3605 14.2757 7.46754 17.1686 7.46754 20.7245Z" fill="white" stroke="white" stroke-width="0.15"/>
<path d="M14.6649 20.9801V20.9387V16.8322C14.6649 16.4188 14.3296 16.0834 13.9161 16.0834C13.5026 16.0834 13.1673 16.4188 13.1673 16.8322V21.2904C13.1673 21.4889 13.2461 21.6794 13.3865 21.8199L14.6649 20.9801ZM14.6649 20.9801L14.6942 21.0094L16.3966 22.712L16.3966 22.712C16.689 23.0044 16.689 23.4786 16.3966 23.771C16.2503 23.9172 16.0587 23.9903 15.867 23.9903C15.6752 23.9903 15.4838 23.9172 15.3375 23.771C15.3375 23.771 15.3374 23.771 15.3374 23.771L13.3866 21.82L14.6649 20.9801Z" fill="white" stroke="white" stroke-width="0.2"/>
</svg>
