<svg width="22" height="24" viewBox="0 0 22 24" fill="none" xmlns="http://www.w3.org/2000/svg">
<path d="M0.284668 21.5479C0.284668 22.75 1.28781 23.7252 2.52424 23.7252H18.9478C20.1842 23.7252 21.1874 22.75 21.1874 21.5479V9.20946H0.284668V21.5479ZM15.2152 12.657C15.2152 12.3576 15.4671 12.1126 15.7751 12.1126H17.6414C17.9493 12.1126 18.2013 12.3576 18.2013 12.657V14.4714C18.2013 14.7708 17.9493 15.0158 17.6414 15.0158H15.7751C15.4671 15.0158 15.2152 14.7708 15.2152 14.4714V12.657ZM15.2152 18.4633C15.2152 18.1639 15.4671 17.9189 15.7751 17.9189H17.6414C17.9493 17.9189 18.2013 18.1639 18.2013 18.4633V20.2777C18.2013 20.5771 17.9493 20.8221 17.6414 20.8221H15.7751C15.4671 20.8221 15.2152 20.5771 15.2152 20.2777V18.4633ZM9.24297 12.657C9.24297 12.3576 9.49492 12.1126 9.80287 12.1126H11.6692C11.9771 12.1126 12.2291 12.3576 12.2291 12.657V14.4714C12.2291 14.7708 11.9771 15.0158 11.6692 15.0158H9.80287C9.49492 15.0158 9.24297 14.7708 9.24297 14.4714V12.657ZM9.24297 18.4633C9.24297 18.1639 9.49492 17.9189 9.80287 17.9189H11.6692C11.9771 17.9189 12.2291 18.1639 12.2291 18.4633V20.2777C12.2291 20.5771 11.9771 20.8221 11.6692 20.8221H9.80287C9.49492 20.8221 9.24297 20.5771 9.24297 20.2777V18.4633ZM3.27077 12.657C3.27077 12.3576 3.52272 12.1126 3.83066 12.1126H5.69698C6.00492 12.1126 6.25687 12.3576 6.25687 12.657V14.4714C6.25687 14.7708 6.00492 15.0158 5.69698 15.0158H3.83066C3.52272 15.0158 3.27077 14.7708 3.27077 14.4714V12.657ZM3.27077 18.4633C3.27077 18.1639 3.52272 17.9189 3.83066 17.9189H5.69698C6.00492 17.9189 6.25687 18.1639 6.25687 18.4633V20.2777C6.25687 20.5771 6.00492 20.8221 5.69698 20.8221H3.83066C3.52272 20.8221 3.27077 20.5771 3.27077 20.2777V18.4633ZM18.9478 3.40315H16.7082V1.22579C16.7082 0.826605 16.3723 0.5 15.9617 0.5H14.4686C14.0581 0.5 13.7221 0.826605 13.7221 1.22579V3.40315H7.74992V1.22579C7.74992 0.826605 7.41398 0.5 7.0034 0.5H5.51034C5.09976 0.5 4.76382 0.826605 4.76382 1.22579V3.40315H2.52424C1.28781 3.40315 0.284668 4.37843 0.284668 5.58052V7.75788H21.1874V5.58052C21.1874 4.37843 20.1842 3.40315 18.9478 3.40315Z" fill="white"/>
</svg>
