<?xml version="1.0" encoding="UTF-8"?>
<svg width="50px" height="50px" viewBox="0 0 50 50" version="1.1" xmlns="http://www.w3.org/2000/svg" xmlns:xlink="http://www.w3.org/1999/xlink">
    <!-- Generator: Sketch 52.6 (67491) - http://www.bohemiancoding.com/sketch -->
    <title>Circle-isologo</title>
    <desc>Created with Sketch.</desc>
    <defs>
        <polygon id="path-1" points="0 0.0005 50 0.0005 50 50 0 50"></polygon>
    </defs>
    <g id="Circle-isologo" stroke="none" stroke-width="1" fill="none" fill-rule="evenodd">
        <g id="Group-10">
            <g id="Group-3">
                <mask id="mask-2" fill="white">
                    <use xlink:href="#path-1"></use>
                </mask>
                <g id="Clip-2"></g>
                <path d="M25,1.2725 C11.916,1.2725 1.271,11.9175 1.271,25.0005 C1.271,38.0835 11.916,48.7275 25,48.7275 C38.083,48.7275 48.728,38.0835 48.728,25.0005 C48.728,11.9175 38.083,1.2725 25,1.2725 M25,50.0005 C11.215,50.0005 0,38.7855 0,25.0005 C0,11.2145 11.215,0.0005 25,0.0005 C38.785,0.0005 50,11.2145 50,25.0005 C50,38.7855 38.785,50.0005 25,50.0005" id="Fill-1" fill="#FFFFFF" mask="url(#mask-2)"></path>
            </g>
            <path d="M25,43.9375 C17.063,43.9375 9.925,38.9225 7.238,31.4585 C7.131,31.1615 7.285,30.8335 7.583,30.7255 C7.88,30.6185 8.209,30.7725 8.315,31.0705 C10.84,38.0815 17.545,42.7915 25,42.7915 C32.455,42.7915 39.16,38.0815 41.684,31.0695 C41.79,30.7725 42.119,30.6185 42.416,30.7245 C42.714,30.8325 42.868,31.1605 42.761,31.4585 C40.074,38.9225 32.937,43.9375 25,43.9375" id="Fill-4" fill="#74B6F8"></path>
            <path d="M10.9648,13.8975 C10.8348,13.8975 10.7038,13.8525 10.5978,13.7625 C10.3548,13.5595 10.3218,13.1985 10.5258,12.9565 C14.1238,8.6595 19.4008,6.1945 24.9998,6.1945 C30.5998,6.1945 35.8748,8.6595 39.4738,12.9565 C39.6768,13.1985 39.6448,13.5595 39.4018,13.7625 C39.1578,13.9655 38.7978,13.9345 38.5948,13.6915 C35.2148,9.6555 30.2598,7.3405 24.9998,7.3405 C19.7398,7.3405 14.7848,9.6555 11.4038,13.6925 C11.2908,13.8275 11.1278,13.8975 10.9648,13.8975" id="Fill-6" fill="#74B6F8"></path>
            <path d="M35.6484,29.5029 C35.6324,29.5289 35.5994,29.5649 35.6074,29.5789 C35.6234,29.6119 35.6604,29.6349 35.6884,29.6609 C35.7044,29.6089 35.7194,29.5579 35.7354,29.5049 C35.7064,29.5049 35.6764,29.5049 35.6484,29.5029 Z M30.6834,34.1869 C30.0444,31.8749 29.4094,29.5619 28.7564,27.2529 C28.7104,27.0889 28.4664,26.8189 28.4314,26.8369 C27.8304,27.1349 27.1954,27.4059 26.6734,27.8169 C26.2634,28.1399 26.5284,28.6179 26.7254,29.0109 C27.7034,30.9599 29.1224,32.5899 30.6834,34.1869 Z M21.3614,26.7709 C20.6964,29.0909 20.0344,31.4009 19.3744,33.7049 C19.9434,33.9099 20.1524,33.5379 20.3774,33.2389 C21.1034,32.2779 21.8544,31.3349 22.5194,30.3329 C24.0244,28.0639 23.9584,27.8979 21.3614,26.7709 Z M32.5294,27.4909 C33.1134,27.0619 33.5254,27.6069 33.9724,27.7839 C35.8864,28.5459 37.8144,29.1359 39.8904,28.5419 C40.3484,28.4109 40.8034,28.2279 41.2174,27.9929 C41.7594,27.6869 42.4804,27.3189 42.3884,26.6599 C42.3104,26.1029 41.5034,26.2319 41.0164,26.0899 C39.4884,25.6479 37.9474,25.2479 36.4094,24.8429 C36.0774,24.7549 35.7364,24.7099 35.6274,24.3089 C39.9344,23.5009 42.0134,21.4229 42.3154,17.6239 C42.3234,17.5279 42.3624,17.4299 42.3514,17.3369 C42.2604,16.5829 42.5164,15.5029 41.7944,15.2069 C40.9744,14.8719 40.7424,15.9989 40.3354,16.5239 C37.6014,20.0419 34.2724,22.9009 30.5714,25.3239 C29.6054,25.9559 29.5054,26.5099 29.8164,27.5319 C30.5874,30.0689 31.2264,32.6469 31.9054,35.2119 C32.0114,35.6149 32.2334,36.0979 31.7714,36.4009 C31.2544,36.7429 30.9754,36.2429 30.7034,35.9449 C28.9384,34.0169 27.2314,32.0339 25.9964,29.7109 C25.0504,27.9329 25.1724,27.4419 26.9624,26.5149 C28.0584,25.9459 28.3184,25.3389 27.9024,24.1569 C27.1524,22.0209 26.5854,19.8189 25.9154,17.6549 C25.7524,17.1269 25.6814,16.3519 24.9604,16.3829 C24.3754,16.4089 24.2734,17.1009 24.1194,17.6079 C23.4184,19.9169 22.7564,22.2379 21.9904,24.5239 C21.6764,25.4589 21.9584,25.8759 22.7664,26.3309 C24.8744,27.5149 25.0014,28.0619 23.7514,30.1919 C22.4974,32.3289 20.9134,34.2219 19.2194,36.0239 C18.9674,36.2929 18.7174,36.6959 18.2594,36.4419 C17.8124,36.1949 18.0004,35.7549 18.0624,35.3939 C18.5484,32.5799 19.4544,29.8739 20.2464,27.1419 C20.4744,26.3529 20.3644,25.9489 19.6714,25.4909 C15.6094,22.8079 11.9334,19.6939 9.0934,15.6859 C8.8984,15.4089 8.6824,15.0209 8.3354,15.0949 C7.8344,15.2029 7.8154,15.7549 7.7274,16.1559 C7.0394,19.3229 9.2574,22.9579 12.4324,23.8719 C13.0774,24.0589 13.7444,24.1679 14.6234,24.3619 C12.9264,25.2629 11.2124,25.4769 9.5864,25.9669 C8.9124,26.1689 7.7044,25.8979 7.6934,26.7969 C7.6824,27.6619 8.7624,28.0709 9.5814,28.3839 C11.5034,29.1139 13.3864,28.7739 15.2394,28.0869 C15.9464,27.8249 16.6334,27.5069 17.5054,27.1419 C16.6104,28.8289 15.3614,29.9639 14.1284,31.3389 C15.6584,31.7569 16.9484,31.2359 18.5304,31.0889 C17.2384,32.2319 15.9924,32.7379 14.5444,32.5579 C13.0474,32.3689 12.7484,31.5829 13.6404,30.3999 C13.8064,30.1799 14.1094,30.0339 14.0274,29.5989 C12.5744,29.6749 11.0974,29.9109 9.6504,29.4399 C8.5674,29.0859 7.5934,28.5819 6.9194,27.6359 C6.1654,26.5789 6.3824,25.8059 7.6194,25.4189 C8.6664,25.0909 9.7554,24.8989 10.8364,24.6439 C10.8574,24.0749 10.3614,24.0559 10.0904,23.8559 C7.4234,21.8799 6.4424,19.1959 6.7944,15.9769 C6.8824,15.1539 7.1494,14.2899 8.0874,14.0589 C9.0004,13.8329 9.4834,14.5379 9.9354,15.1799 C12.5994,18.9519 16.0874,21.8369 19.8234,24.4729 C20.7004,25.0929 20.9554,24.8579 21.2104,23.9349 C21.8394,21.6549 22.5494,19.3989 23.2424,17.1379 C23.5214,16.2279 23.9164,15.3249 25.0414,15.3429 C26.1654,15.3599 26.5274,16.3029 26.8024,17.1919 C27.5004,19.4499 28.2324,21.7039 28.8024,23.9959 C29.0834,25.1219 29.4294,24.9889 30.1874,24.4599 C33.9384,21.8449 37.4024,18.9329 40.0854,15.1789 C40.5374,14.5459 41.0144,13.8269 41.9334,14.0599 C42.8024,14.2759 43.0704,15.0699 43.1844,15.8519 C43.6484,19.0279 42.6314,21.6459 40.1484,23.6919 C39.8274,23.9559 39.3594,24.0419 39.1124,24.6119 C40.1104,24.8549 41.0794,25.0649 42.0324,25.3289 C43.7074,25.7929 43.9864,26.7849 42.7554,28.0329 C41.2834,29.5279 39.4054,29.8269 37.4024,29.7209 C36.9494,29.6959 36.4854,29.4599 36.0294,29.6919 C36.0294,29.8139 35.9964,29.9199 36.0344,29.9869 C36.3634,30.5749 37.3154,30.9929 36.7864,31.8249 C36.2164,32.7159 35.2124,32.6889 34.2904,32.5409 C33.2924,32.3819 32.4154,31.8889 31.3504,31.1869 C32.9584,31.0989 34.3224,31.8189 35.8104,31.3719 C34.6684,30.0179 33.5894,28.7429 32.5134,27.4689 L32.5294,27.4909 Z" id="Fill-8" fill="#FFFFFF"></path>
        </g>
    </g>
</svg>