<?xml version="1.0" encoding="utf-8"?>
<!-- Generator: Adobe Illustrator 16.0.0, SVG Export Plug-In . SVG Version: 6.00 Build 0)  -->
<!DOCTYPE svg PUBLIC "-//W3C//DTD SVG 1.1//EN" "http://www.w3.org/Graphics/SVG/1.1/DTD/svg11.dtd">
<svg version="1.1" id="Layer_1" xmlns="http://www.w3.org/2000/svg" xmlns:xlink="http://www.w3.org/1999/xlink" x="0px" y="0px"
	 width="50px" height="50px" viewBox="0 0 50 50" enable-background="new 0 0 50 50" xml:space="preserve">
<title>Circle-isologo</title>
<desc>Created with Sketch.</desc>
<g id="Clip-2">
</g>
<g>
	<path id="Fill-4" fill="#74B6F8" stroke="#74B6F8" stroke-miterlimit="10" d="M25,43.938c-7.937,0-15.075-5.016-17.762-12.479
		c-0.107-0.297,0.047-0.625,0.345-0.733c0.297-0.106,0.626,0.047,0.732,0.345C10.84,38.082,17.545,42.791,25,42.791
		c7.455,0,14.16-4.709,16.683-11.722c0.106-0.297,0.436-0.45,0.732-0.345c0.298,0.107,0.452,0.436,0.346,0.734
		C40.074,38.922,32.938,43.938,25,43.938"/>
	<path id="Fill-6" fill="#74B6F8" stroke="#74B6F8" stroke-miterlimit="10" d="M10.965,13.897c-0.13,0-0.261-0.045-0.367-0.135
		c-0.243-0.203-0.276-0.564-0.072-0.806C14.125,8.66,19.401,6.194,25,6.194c5.6,0,10.875,2.465,14.474,6.762
		c0.203,0.242,0.171,0.603-0.071,0.806c-0.244,0.203-0.604,0.172-0.808-0.071C35.216,9.655,30.261,7.34,25,7.34
		s-10.215,2.315-13.596,6.352C11.292,13.828,11.128,13.897,10.965,13.897"/>
	<g id="Fill-8">
		<path fill="#FFFFFF" d="M18.538,36.772c-0.131,0-0.266-0.038-0.399-0.112c-0.541-0.298-0.424-0.829-0.355-1.146l0.033-0.161
			c0.243-1.406,0.593-2.797,0.978-4.163l-0.098,0.087c-1.208,1.069-2.349,1.567-3.589,1.567c-0.194,0-0.392-0.012-0.593-0.037
			c-0.831-0.105-1.351-0.391-1.544-0.85c-0.194-0.461-0.036-1.035,0.471-1.707c0.046-0.062,0.101-0.118,0.156-0.175
			c0.081-0.083,0.138-0.144,0.168-0.211c-0.173,0.011-0.347,0.023-0.521,0.036c-0.517,0.038-1.036,0.075-1.554,0.075
			c-0.82,0-1.493-0.095-2.117-0.299c-1.357-0.442-2.239-1.027-2.857-1.896c-0.434-0.608-0.577-1.148-0.423-1.605
			c0.15-0.447,0.571-0.782,1.252-0.995c0.735-0.23,1.5-0.396,2.239-0.557c0.258-0.056,0.517-0.112,0.776-0.171
			c-0.046-0.102-0.15-0.154-0.325-0.234c-0.099-0.045-0.2-0.092-0.293-0.16c-2.629-1.948-3.771-4.675-3.396-8.107
			c0.048-0.449,0.194-1.816,1.482-2.133c0.135-0.034,0.268-0.05,0.396-0.05c0.822,0,1.288,0.661,1.699,1.245
			c2.885,4.086,6.776,7.092,9.845,9.257c0.282,0.199,0.489,0.3,0.615,0.3c0.096,0,0.217-0.083,0.387-0.7
			c0.521-1.886,1.105-3.785,1.67-5.621l0.364-1.184c0.212-0.689,0.605-1.972,2.005-1.972c1.413,0.021,1.802,1.276,2.034,2.026
			l0.362,1.167c0.574,1.842,1.167,3.747,1.641,5.65c0.108,0.432,0.229,0.669,0.34,0.669c0.158,0,0.484-0.228,0.66-0.35
			c4.476-3.121,7.51-5.965,9.838-9.222c0.444-0.625,0.901-1.268,1.709-1.268c0.13,0,0.266,0.018,0.403,0.053
			c1.064,0.264,1.33,1.267,1.437,1.998c0.476,3.254-0.576,5.969-3.124,8.069c-0.107,0.088-0.229,0.16-0.354,0.232
			c-0.169,0.098-0.323,0.187-0.448,0.332l0.593,0.141c0.678,0.16,1.344,0.316,2.001,0.499c0.929,0.257,1.477,0.673,1.627,1.238
			c0.151,0.563-0.115,1.196-0.792,1.883c-1.197,1.215-2.732,1.781-4.83,1.781c-0.236,0-0.475-0.007-0.715-0.02
			c-0.151-0.009-0.304-0.038-0.457-0.068c-0.152-0.03-0.305-0.062-0.457-0.062c-0.07,0-0.134,0.007-0.193,0.021
			c0.067,0.163,0.197,0.299,0.334,0.442c0.363,0.381,0.86,0.902,0.383,1.653C36.606,32.572,36,32.87,35.144,32.87
			c-0.259,0-0.542-0.026-0.892-0.082c-1.015-0.162-1.915-0.652-3.038-1.392l-0.06-0.04c0.179,0.673,0.993,3.792,0.993,3.792
			l0.043,0.15c0.11,0.376,0.277,0.945-0.281,1.311c-0.156,0.104-0.314,0.156-0.47,0.156c-0.373,0-0.613-0.287-0.806-0.519
			l-0.114-0.133c-1.616-1.766-3.449-3.854-4.743-6.286c-0.487-0.914-0.734-1.555-0.557-2.122c0.176-0.566,0.754-0.961,1.629-1.413
			c0.999-0.52,1.19-0.999,0.819-2.053c-0.482-1.372-0.895-2.79-1.293-4.162c-0.228-0.785-0.455-1.569-0.697-2.349
			c-0.026-0.085-0.05-0.176-0.075-0.27c-0.148-0.562-0.256-0.827-0.601-0.827c-0.333,0.014-0.444,0.338-0.581,0.832l-0.626,2.096
			c-0.495,1.659-1.007,3.374-1.567,5.044c-0.252,0.75-0.109,1.075,0.662,1.51c1.048,0.588,1.689,1.057,1.866,1.71
			c0.179,0.66-0.154,1.415-0.788,2.495c-1.102,1.877-2.51,3.689-4.566,5.876L19.308,36.3C19.124,36.51,18.894,36.772,18.538,36.772z
			 M19.69,33.514c0.172-0.006,0.277-0.138,0.432-0.349l0.56-0.737c0.552-0.722,1.123-1.468,1.63-2.233
			c0.635-0.957,1.043-1.611,0.934-1.98c-0.104-0.348-0.717-0.658-1.722-1.1L19.69,33.514z M28.215,27.221
			c-0.481,0.232-0.979,0.473-1.386,0.792c-0.201,0.158-0.136,0.377,0.098,0.84c0.864,1.724,2.043,3.158,3.254,4.448l0,0
			c-0.551-1.994-1.101-3.988-1.664-5.979c-0.012-0.043-0.068-0.125-0.121-0.188L28.215,27.221z M31.635,30.93
			c0.586,0,1.137,0.091,1.669,0.179c0.502,0.083,0.976,0.161,1.451,0.161c0.212,0,0.411-0.016,0.603-0.048l-3.028-3.585
			l-0.161-0.191l0.217-0.158c0.188-0.138,0.385-0.207,0.585-0.207c0.307,0,0.561,0.158,0.783,0.298
			c0.104,0.065,0.207,0.131,0.312,0.173c1.283,0.511,2.664,0.983,4.08,0.983c0.58,0,1.129-0.076,1.678-0.232
			c0.462-0.132,0.89-0.309,1.271-0.526c0.664-0.371,1.107-0.656,1.048-1.081c-0.024-0.174-0.199-0.224-0.68-0.278
			c-0.183-0.021-0.362-0.042-0.515-0.086c-1.353-0.391-2.717-0.75-4.079-1.108l-0.521-0.137c-0.403-0.102-0.823-0.208-0.96-0.709
			l-0.071-0.262l0.267-0.05c4.192-0.787,6.192-2.779,6.485-6.459c0.004-0.047,0.013-0.095,0.022-0.143
			c-0.011-0.302-0.012-0.533-0.012-0.766c0-0.666-0.026-1.113-0.377-1.257c-0.069-0.028-0.133-0.042-0.188-0.042
			c-0.266,0-0.463,0.375-0.653,0.737c-0.104,0.2-0.209,0.394-0.325,0.543c-2.581,3.321-5.795,6.218-9.825,8.856
			c-0.811,0.53-0.95,0.944-0.652,1.926c0.351,1.154,0.678,2.327,0.99,3.495l0.291-0.017C31.438,30.933,31.537,30.93,31.635,30.93z
			 M14.604,31.188c0.241,0.041,0.488,0.061,0.748,0.061c0.585,0,1.16-0.1,1.769-0.206c0.445-0.077,0.903-0.157,1.387-0.202
			l0.397-0.037c0.192-0.672,0.392-1.338,0.589-1.996c0.173-0.578,0.346-1.155,0.513-1.733c0.205-0.708,0.107-0.99-0.473-1.374
			c-4.681-3.092-8.063-6.228-10.644-9.869l-0.067-0.097c-0.121-0.177-0.271-0.398-0.402-0.398c-0.279,0.057-0.34,0.295-0.411,0.682
			l-0.038,0.192c-0.655,3.013,1.504,6.551,4.53,7.422c0.423,0.123,0.856,0.211,1.353,0.313c0.255,0.052,0.527,0.108,0.822,0.173
			l0.664,0.146l-0.6,0.318c-1.214,0.645-2.43,0.944-3.606,1.234c-0.498,0.122-0.991,0.244-1.476,0.39
			c-0.221,0.066-0.48,0.087-0.73,0.106C8.194,26.37,7.948,26.449,7.944,26.8c-0.008,0.687,0.947,1.052,1.714,1.346
			c0.708,0.269,1.416,0.396,2.175,0.396c0.995,0,2.05-0.219,3.32-0.689c0.462-0.172,0.915-0.367,1.418-0.583l1.483-0.627
			l-0.328,0.617c-0.716,1.351-1.639,2.337-2.615,3.382C14.943,30.821,14.774,31.003,14.604,31.188z"/>
		<path fill="#FFFFFF" d="M41.593,14.015c0.107,0,0.221,0.014,0.342,0.045c0.869,0.216,1.137,1.01,1.251,1.792
			c0.464,3.176-0.554,5.794-3.036,7.84c-0.32,0.264-0.789,0.35-1.036,0.92c0.998,0.243,1.968,0.453,2.92,0.717
			c1.675,0.464,1.954,1.456,0.724,2.704c-1.3,1.318-2.915,1.707-4.652,1.707c-0.231,0-0.466-0.007-0.701-0.02
			c-0.307-0.018-0.617-0.13-0.928-0.13c-0.149,0-0.298,0.025-0.445,0.101c0,0.123-0.033,0.229,0.005,0.295
			c0.329,0.588,1.281,1.007,0.753,1.838c-0.396,0.62-1.002,0.796-1.645,0.796c-0.282,0-0.57-0.034-0.852-0.079
			c-0.998-0.159-1.875-0.652-2.94-1.354c0.096-0.005,0.189-0.008,0.283-0.008c1.107,0,2.105,0.34,3.121,0.34
			c0.348,0,0.698-0.04,1.056-0.147c-1.137-1.348-2.209-2.615-3.279-3.883c0.157-0.115,0.302-0.159,0.438-0.159
			c0.37,0,0.678,0.325,1.004,0.453c1.367,0.545,2.741,1.001,4.172,1.001c0.572,0,1.153-0.072,1.746-0.242
			c0.458-0.131,0.912-0.313,1.326-0.549c0.543-0.306,1.264-0.675,1.172-1.333c-0.078-0.557-0.885-0.428-1.372-0.57
			c-1.528-0.441-3.069-0.842-4.607-1.247c-0.331-0.088-0.673-0.133-0.782-0.534c4.308-0.808,6.387-2.886,6.688-6.685
			c0.008-0.096,0.047-0.194,0.036-0.287c-0.092-0.754,0.165-1.834-0.557-2.13c-0.104-0.042-0.197-0.061-0.283-0.061
			c-0.599,0-0.82,0.919-1.176,1.378c-2.734,3.518-6.063,6.377-9.765,8.8c-0.966,0.632-1.065,1.186-0.755,2.208
			c0.771,2.537,1.41,5.115,2.089,7.681c0.106,0.403,0.328,0.886-0.134,1.188c-0.124,0.082-0.233,0.115-0.333,0.115
			c-0.317,0-0.528-0.344-0.735-0.57c-1.765-1.928-3.472-3.912-4.707-6.234c-0.946-1.777-0.824-2.27,0.967-3.196
			c1.096-0.569,1.355-1.176,0.939-2.358c-0.75-2.136-1.316-4.338-1.986-6.502c-0.161-0.518-0.231-1.273-0.915-1.273
			c-0.013,0-0.027,0-0.041,0.001c-0.585,0.026-0.687,0.718-0.841,1.225c-0.701,2.309-1.363,4.63-2.129,6.916
			c-0.314,0.935-0.032,1.352,0.776,1.807c2.108,1.184,2.235,1.731,0.985,3.86c-1.254,2.138-2.838,4.03-4.532,5.832
			c-0.196,0.209-0.39,0.499-0.682,0.499c-0.084,0-0.176-0.024-0.278-0.081c-0.447-0.246-0.259-0.687-0.197-1.047
			c0.486-2.814,1.392-5.521,2.184-8.252c0.228-0.789,0.118-1.193-0.575-1.652c-4.062-2.683-7.738-5.797-10.578-9.805
			c-0.178-0.254-0.375-0.601-0.673-0.601c-0.027,0-0.056,0.003-0.085,0.009c-0.501,0.108-0.52,0.66-0.608,1.061
			c-0.688,3.167,1.53,6.802,4.705,7.716c0.645,0.187,1.312,0.296,2.191,0.49c-1.697,0.901-3.411,1.115-5.037,1.605
			c-0.674,0.202-1.882-0.068-1.893,0.83c-0.011,0.865,1.069,1.273,1.888,1.587c0.756,0.287,1.506,0.408,2.25,0.408
			c1.148,0,2.283-0.289,3.407-0.705c0.707-0.263,1.394-0.58,2.266-0.944c-0.895,1.687-2.144,2.821-3.377,4.196
			c0.422,0.115,0.826,0.159,1.223,0.159c1.041,0,2.034-0.303,3.179-0.409c-1.122,0.993-2.209,1.505-3.424,1.505
			c-0.185,0-0.372-0.012-0.562-0.035c-1.497-0.189-1.796-0.976-0.904-2.158c0.166-0.221,0.469-0.367,0.387-0.802
			c-0.775,0.041-1.557,0.127-2.337,0.127c-0.683,0-1.364-0.066-2.04-0.286c-1.083-0.354-2.057-0.857-2.731-1.804
			c-0.754-1.057-0.537-1.83,0.7-2.217c1.047-0.328,2.136-0.52,3.217-0.775c0.021-0.569-0.475-0.588-0.746-0.788
			c-2.667-1.976-3.648-4.66-3.296-7.879c0.088-0.823,0.355-1.687,1.293-1.918c0.119-0.029,0.231-0.043,0.336-0.043
			c0.702,0,1.119,0.605,1.512,1.164c2.664,3.772,6.152,6.657,9.888,9.293c0.33,0.233,0.572,0.346,0.759,0.346
			c0.31,0,0.469-0.308,0.628-0.883c0.629-2.28,1.339-4.536,2.032-6.797c0.276-0.901,0.667-1.795,1.766-1.795
			c0.011,0,0.022,0,0.033,0c1.125,0.017,1.486,0.96,1.762,1.849c0.697,2.258,1.43,4.512,2,6.804c0.155,0.621,0.33,0.859,0.582,0.859
			c0.206,0,0.463-0.158,0.803-0.395c3.751-2.615,7.215-5.527,9.898-9.281C40.479,14.629,40.89,14.015,41.593,14.015 M19.676,33.764
			c0.352,0,0.521-0.285,0.702-0.525c0.726-0.961,1.477-1.903,2.142-2.905c1.505-2.269,1.439-2.435-1.158-3.562
			c-0.665,2.319-1.327,4.629-1.987,6.934C19.489,33.746,19.588,33.764,19.676,33.764 M30.685,34.188
			c-0.639-2.312-1.274-4.625-1.928-6.935c-0.044-0.158-0.273-0.417-0.32-0.417c-0.001,0-0.003,0-0.004,0.001
			c-0.602,0.298-1.236,0.569-1.758,0.979c-0.41,0.323-0.146,0.802,0.052,1.194C27.704,30.96,29.124,32.59,30.685,34.188
			 M35.689,29.661c0.017-0.052,0.03-0.103,0.047-0.156c-0.028,0-0.06,0-0.087-0.002c-0.016,0.026-0.049,0.062-0.041,0.076
			C35.624,29.611,35.661,29.635,35.689,29.661 M32.515,27.469c0.006,0.007,0.012,0.014,0.018,0.021
			c-0.001,0-0.001,0.001-0.002,0.001L32.515,27.469 M41.593,13.515c-0.937,0-1.455,0.729-1.871,1.315l-0.042,0.059
			c-2.311,3.232-5.326,6.058-9.777,9.161c-0.213,0.148-0.366,0.243-0.457,0.284c-0.035-0.065-0.092-0.198-0.156-0.458
			c-0.476-1.911-1.07-3.819-1.646-5.664l-0.362-1.167c-0.235-0.761-0.674-2.178-2.231-2.202c0,0,0,0-0.001,0
			c-1.625,0-2.07,1.451-2.284,2.148l-0.364,1.184c-0.566,1.838-1.151,3.738-1.672,5.628c-0.088,0.317-0.151,0.451-0.187,0.507
			c-0.06-0.019-0.189-0.075-0.43-0.245c-3.053-2.154-6.922-5.143-9.768-9.173c-0.441-0.626-0.969-1.375-1.92-1.375
			c-0.148,0-0.302,0.019-0.457,0.058c-0.967,0.238-1.529,1.029-1.67,2.35c-0.386,3.525,0.791,6.33,3.495,8.334
			c0.042,0.03,0.083,0.057,0.125,0.081c-0.062,0.013-0.124,0.027-0.186,0.041c-0.745,0.162-1.515,0.329-2.261,0.563
			c-0.761,0.238-1.237,0.625-1.414,1.153c-0.181,0.538-0.027,1.153,0.456,1.831c0.651,0.915,1.571,1.528,2.983,1.989
			c0.65,0.212,1.348,0.311,2.195,0.311c0.509,0,1.018-0.035,1.51-0.071c-0.532,0.726-0.687,1.365-0.461,1.899
			c0.23,0.547,0.817,0.884,1.742,1.001c0.211,0.026,0.421,0.039,0.625,0.039c1.124,0,2.165-0.384,3.234-1.201
			c-0.302,1.125-0.572,2.265-0.771,3.417c-0.008,0.049-0.02,0.099-0.031,0.15c-0.073,0.335-0.226,1.031,0.479,1.419
			c0.17,0.095,0.346,0.144,0.52,0.144c0.469,0,0.763-0.336,0.958-0.558l0.089-0.1c2.068-2.2,3.487-4.026,4.598-5.921
			c0.409-0.697,0.698-1.269,0.814-1.778c0.104,0.376,0.299,0.793,0.559,1.28c1.308,2.457,3.152,4.56,4.779,6.337
			c0.035,0.038,0.07,0.081,0.106,0.124c0.202,0.242,0.508,0.608,0.998,0.608c0.205,0,0.41-0.066,0.609-0.198
			c0.711-0.466,0.497-1.196,0.382-1.589l-0.041-0.145c-0.157-0.595-0.312-1.189-0.468-1.785c-0.119-0.458-0.239-0.919-0.361-1.383
			c0.937,0.584,1.745,0.974,2.652,1.119c0.362,0.058,0.658,0.085,0.931,0.085c0.935,0,1.63-0.346,2.065-1.026
			c0.583-0.917-0.04-1.57-0.412-1.961c-0.001-0.001-0.001-0.002-0.002-0.003c0.029,0.006,0.059,0.012,0.089,0.018
			c0.156,0.031,0.316,0.062,0.491,0.072c0.246,0.014,0.489,0.021,0.729,0.021c2.169,0,3.761-0.59,5.009-1.856
			c0.742-0.753,1.03-1.467,0.855-2.122c-0.176-0.656-0.782-1.132-1.802-1.415c-0.664-0.184-1.318-0.338-2.011-0.501
			c-0.023-0.005-0.047-0.011-0.07-0.017c0.12-0.069,0.255-0.147,0.382-0.252c2.62-2.16,3.701-4.952,3.213-8.298
			c-0.068-0.462-0.273-1.869-1.626-2.205C41.899,13.536,41.743,13.515,41.593,13.515L41.593,13.515z M11.833,28.292
			c-0.729,0-1.407-0.123-2.073-0.376c-0.67-0.256-1.572-0.602-1.565-1.113c0.001-0.119,0.036-0.185,0.755-0.241
			c0.263-0.021,0.536-0.042,0.782-0.116c0.478-0.144,0.957-0.262,1.464-0.387c1.191-0.293,2.422-0.596,3.664-1.255l1.201-0.637
			l-1.327-0.293c-0.297-0.065-0.57-0.122-0.826-0.174c-0.496-0.102-0.924-0.189-1.333-0.308c-2.909-0.837-4.984-4.235-4.355-7.13
			c0.014-0.063,0.026-0.13,0.039-0.199c0.055-0.297,0.093-0.421,0.15-0.463c0.062,0.059,0.156,0.196,0.21,0.275l0.068,0.099
			c2.6,3.669,6.003,6.825,10.712,9.935c0.49,0.324,0.546,0.488,0.37,1.096c-0.167,0.577-0.34,1.154-0.513,1.73
			c-0.182,0.606-0.365,1.219-0.543,1.836l-0.227,0.021c-0.498,0.047-0.96,0.127-1.407,0.205c-0.597,0.104-1.162,0.202-1.726,0.202
			c-0.077,0-0.152-0.002-0.226-0.006c0.057-0.06,0.113-0.12,0.169-0.18c0.988-1.058,1.921-2.056,2.653-3.436l0.655-1.234
			l-1.29,0.539c-0.299,0.125-0.577,0.244-0.841,0.358c-0.511,0.22-0.952,0.409-1.406,0.578
			C13.825,28.078,12.797,28.292,11.833,28.292L11.833,28.292z M31.235,30.693c-0.297-1.105-0.607-2.215-0.939-3.308
			c-0.252-0.829-0.211-1.146,0.55-1.644c4.055-2.654,7.288-5.569,9.886-8.912c0.136-0.175,0.244-0.381,0.349-0.581
			c0.111-0.211,0.318-0.604,0.433-0.604c0.014,0,0.043,0.003,0.094,0.024c0.206,0.084,0.222,0.478,0.222,1.025
			c0,0.233,0,0.474,0.028,0.702c-0.001-0.007-0.003-0.01-0.004-0.01c-0.002,0-0.005,0.012-0.008,0.023
			c-0.012,0.057-0.022,0.115-0.026,0.172c-0.282,3.55-2.22,5.472-6.282,6.234l-0.533,0.1l0.143,0.523
			c0.176,0.643,0.719,0.78,1.044,0.861l0.093,0.024l0.522,0.138c1.339,0.353,2.725,0.717,4.074,1.106
			c0.18,0.053,0.37,0.074,0.555,0.095c0.156,0.018,0.418,0.047,0.483,0.096c0.015,0.236-0.383,0.482-0.867,0.753l-0.077,0.044
			c-0.366,0.208-0.775,0.377-1.219,0.504c-0.525,0.15-1.052,0.223-1.608,0.223c-1.373,0-2.728-0.464-3.986-0.966
			c-0.078-0.03-0.173-0.09-0.273-0.152c-0.239-0.149-0.537-0.336-0.916-0.336c-0.254,0-0.501,0.086-0.732,0.255l-0.434,0.316
			l0.317,0.376l0.005,0.007l0,0l0.023,0.027l1.207,1.429l1.502,1.777c-0.034,0.001-0.068,0.002-0.103,0.002
			c-0.456,0-0.92-0.077-1.411-0.158c-0.543-0.089-1.104-0.182-1.71-0.182c-0.103,0-0.206,0.003-0.311,0.009L31.235,30.693
			L31.235,30.693z M24.97,27.669c-0.229-0.69-0.897-1.179-1.958-1.773c-0.675-0.381-0.762-0.573-0.547-1.212
			c0.561-1.674,1.074-3.391,1.57-5.052c0.187-0.626,0.374-1.252,0.564-1.878c0.021-0.071,0.042-0.146,0.063-0.223
			c0.118-0.425,0.2-0.642,0.321-0.647c0,0,0.001,0,0.001,0c0.161,0,0.233,0.093,0.377,0.64c0.025,0.097,0.051,0.192,0.078,0.281
			c0.241,0.778,0.469,1.561,0.695,2.344c0.4,1.375,0.812,2.797,1.297,4.175c0.327,0.931,0.184,1.29-0.698,1.749
			c-0.932,0.481-1.55,0.911-1.752,1.56C24.977,27.644,24.973,27.656,24.97,27.669L24.97,27.669z M29.661,32.358
			c-0.94-1.07-1.82-2.241-2.487-3.572l-0.024-0.047c-0.069-0.137-0.213-0.422-0.189-0.508c0.401-0.319,0.855-0.54,1.337-0.772
			C28.755,29.084,29.208,30.72,29.661,32.358L29.661,32.358z M20.197,32.65l1.488-5.191c0.639,0.287,1.252,0.597,1.321,0.826
			c0.084,0.284-0.486,1.144-0.902,1.771c-0.503,0.758-1.072,1.501-1.621,2.219L20.197,32.65L20.197,32.65z"/>
	</g>
	<g>
		<path fill="#FFFFFF" d="M25,2c12.682,0,23,10.318,23,23c0,12.683-10.317,23-23,23C12.318,48,2,37.683,2,25C2,12.318,12.318,2,25,2
			 M25,0C11.193,0,0,11.193,0,25c0,13.808,11.193,25,25,25s25-11.192,25-25C50,11.193,38.808,0,25,0L25,0z"/>
	</g>
</g>
</svg>
