<svg width="38" height="24" viewBox="0 0 38 24" fill="none" xmlns="http://www.w3.org/2000/svg">
<path fill-rule="evenodd" clip-rule="evenodd" d="M26.7135 13.796C27.3048 13.3525 27.7483 13.8946 28.1918 14.0917C30.1627 14.88 32.1337 15.4713 34.2525 14.88C34.7452 14.7322 35.1887 14.5351 35.6321 14.338C36.1742 14.0424 36.9133 13.6482 36.8147 12.9584C36.7162 12.3671 35.9278 12.5149 35.3858 12.3671C33.809 11.9236 32.2322 11.4801 30.6555 11.0859C30.3105 10.9874 29.9656 10.9381 29.8671 10.5439C34.3017 9.70627 36.4205 7.58749 36.7162 3.69484C36.7162 3.59629 36.7654 3.49774 36.7654 3.3992C36.6669 2.61081 36.9133 1.52679 36.1742 1.23114C35.3365 0.886224 35.0901 2.01953 34.6959 2.56154C31.8873 6.15854 28.4874 9.11498 24.6933 11.5787C23.7078 12.2192 23.6093 12.8105 23.9049 13.8453C24.6933 16.4568 25.3339 19.0683 26.0237 21.7291C26.1223 22.1233 26.3686 22.6161 25.8759 22.961C25.3339 23.3059 25.0382 22.8132 24.7919 22.5175C22.9687 20.5465 21.2441 18.5263 19.963 16.1119C18.9775 14.2888 19.1254 13.796 20.9485 12.8105C22.0818 12.2192 22.3282 11.628 21.934 10.3961C21.1456 8.22805 20.6036 5.96144 19.9137 3.74411C19.7659 3.2021 19.6674 2.41372 18.9283 2.46299C18.337 2.51227 18.2384 3.2021 18.0413 3.74411C17.3022 6.10927 16.6617 8.47442 15.8733 10.8396C15.5283 11.7758 15.824 12.2192 16.6617 12.712C18.8297 13.9438 18.9775 14.4858 17.6471 16.6539C16.366 18.822 14.74 20.7929 13.0154 22.6161C12.769 22.9117 12.5226 23.3059 12.0299 23.0595C11.5864 22.8131 11.7835 22.3697 11.8328 21.9755C12.3255 19.0683 13.2617 16.309 14.0501 13.5004C14.2965 12.712 14.1487 12.2685 13.4588 11.825C9.27055 9.06571 5.52573 5.8629 2.61856 1.77316C2.42146 1.47751 2.1751 1.08332 1.83018 1.18187C1.33744 1.28042 1.28816 1.8717 1.18962 2.2659C0.499779 5.51798 2.76638 9.2628 6.01847 10.199C6.65903 10.3961 7.34886 10.4947 8.28507 10.6917C6.56048 11.628 4.78662 11.825 3.1113 12.3178C2.47074 12.4656 1.23889 12.17 1.23889 13.1062C1.23889 13.9931 2.32292 14.4366 3.16057 14.7322C5.13153 15.4713 7.05322 15.1264 8.97491 14.4366C9.71402 14.1902 10.4039 13.8453 11.2908 13.4511C10.3546 15.1757 9.07345 16.3583 7.8416 17.7379C9.41837 18.1814 10.7488 17.6394 12.3748 17.4916C11.0444 18.6741 9.76329 19.1669 8.28507 19.0191C6.75758 18.822 6.46193 18.0336 7.34886 16.8017C7.49669 16.5554 7.84161 16.4075 7.74306 15.9641C6.26484 16.0626 4.73734 16.309 3.25912 15.8162C2.12582 15.4221 1.14034 14.9293 0.450505 13.9438C-0.337879 12.8598 -0.0915088 12.0714 1.18962 11.6772C2.27364 11.3323 3.35767 11.1352 4.49097 10.8888C4.49097 10.2976 3.99823 10.2976 3.70259 10.1005C0.943245 8.08023 -0.0422345 5.32088 0.302684 2.01953C0.401232 1.18187 0.647601 0.294936 1.63308 0.0485658C2.56929 -0.197804 3.06203 0.541306 3.50549 1.18187C6.21556 5.07451 9.81257 8.03095 13.6559 10.6917C14.5429 11.3323 14.8385 11.0859 15.0849 10.1497C15.7254 7.83386 16.4646 5.51798 17.1544 3.2021C17.45 2.2659 17.8442 1.32969 18.9775 1.37896C20.1108 1.37896 20.505 2.36444 20.8007 3.30065C21.5398 5.61653 22.2789 7.9324 22.8702 10.2976C23.1658 11.4309 23.5107 11.3323 24.2991 10.7903C28.1425 8.1295 31.6902 5.12379 34.4496 1.28042C34.893 0.639854 35.3858 -0.0992558 36.322 0.147114C37.2089 0.393484 37.5046 1.18187 37.6031 1.97025C38.0958 5.22234 37.0118 7.9324 34.4988 10.0019C34.1539 10.2483 33.7105 10.3468 33.4148 10.9381C34.4496 11.1845 35.435 11.3816 36.4205 11.6772C38.1451 12.17 38.4408 13.1554 37.1596 14.4366C35.6321 15.9641 33.7105 16.2597 31.6902 16.1612C31.2468 16.1119 30.754 15.9148 30.2613 16.1119C30.2613 16.2597 30.212 16.3583 30.2613 16.4075C30.6062 16.9988 31.5917 17.4423 31.0497 18.2799C30.4584 19.2161 29.4236 19.1669 28.4874 19.0191C27.4527 18.8712 26.5657 18.3292 25.4817 17.6394C27.1077 17.5408 28.5367 18.2799 30.0642 17.8365C28.8816 16.4075 27.7976 15.0771 26.7135 13.796ZM15.2327 13.0569C14.5429 15.4221 13.853 17.7872 13.2125 20.1524C13.8038 20.3494 14.0009 20.0045 14.2472 19.6596C14.9863 18.6741 15.7747 17.6887 16.4646 16.7032C17.992 14.3873 17.8935 14.2395 15.2327 13.0569ZM24.7919 20.6451C24.1513 18.2799 23.4615 15.9148 22.8209 13.5496C22.7716 13.4018 22.5253 13.1062 22.476 13.1062C21.8354 13.4018 21.1949 13.6975 20.6528 14.0917C20.2094 14.4366 20.505 14.9293 20.7021 15.3235C21.7369 17.3437 23.2151 19.0191 24.7919 20.6451ZM29.9164 15.8655C29.9164 15.9148 29.8671 15.9148 29.8671 15.9641C29.8671 16.0133 29.9164 16.0133 29.9656 16.0626C29.9656 16.0133 30.0149 15.9641 30.0149 15.9148C29.9656 15.8655 29.9164 15.8655 29.9164 15.8655Z" fill="#F8FCFF"/>
</svg>
