<svg width="57" height="56" viewBox="0 0 57 56" fill="none" xmlns="http://www.w3.org/2000/svg">
<path d="M28.5 56C13.044 56 0.5 43.456 0.5 28C0.5 12.544 13.044 0 28.5 0C43.956 0 56.5 12.544 56.5 28C56.5 43.456 43.956 56 28.5 56Z" fill="#4C7FF7"/>
<path fill-rule="evenodd" clip-rule="evenodd" d="M35.6442 30.9412C36.1903 30.5317 36.5998 31.0322 37.0094 31.2143C38.8296 31.9424 40.6499 32.4884 42.6067 31.9424C43.0617 31.8058 43.4713 31.6238 43.8809 31.4418C44.3814 31.1687 45.064 30.8047 44.973 30.1676C44.882 29.6215 44.1539 29.758 43.6533 29.6215C42.1971 29.212 40.7409 28.8024 39.2847 28.4384C38.9662 28.3473 38.6476 28.3018 38.5566 27.9378C42.6522 27.1642 44.609 25.2074 44.882 21.6124C44.882 21.5214 44.9275 21.4304 44.9275 21.3394C44.8365 20.6113 45.064 19.6101 44.3814 19.3371C43.6078 19.0185 43.3803 20.0652 43.0162 20.5658C40.4224 23.8877 37.2824 26.6181 33.7784 28.8934C32.8683 29.485 32.7773 30.0311 33.0503 30.9867C33.7784 33.3986 34.37 35.8104 35.0071 38.2677C35.0981 38.6318 35.3256 39.0869 34.8706 39.4054C34.37 39.724 34.097 39.2689 33.8694 38.9958C32.1857 37.1756 30.593 35.3098 29.4098 33.08C28.4997 31.3963 28.6362 30.9412 30.3199 30.0311C31.3666 29.485 31.5941 28.9389 31.2301 27.8013C30.502 25.799 30.0014 23.7057 29.3643 21.6579C29.2278 21.1573 29.1368 20.4292 28.4542 20.4747C27.9081 20.5202 27.8171 21.1573 27.6351 21.6579C26.9525 23.8422 26.3609 26.0265 25.6328 28.2108C25.3142 29.0755 25.5873 29.485 26.3609 29.9401C28.3632 31.0777 28.4997 31.5783 27.271 33.5806C26.0878 35.5829 24.5861 37.4031 22.9934 39.0869C22.7659 39.3599 22.5383 39.7239 22.0833 39.4964C21.6737 39.2689 21.8557 38.8593 21.9012 38.4953C22.3563 35.8104 23.2209 33.262 23.949 30.6682C24.1766 29.9401 24.04 29.5305 23.403 29.121C19.5349 26.5726 16.0764 23.6147 13.3915 19.8376C13.2095 19.5646 12.982 19.2006 12.6634 19.2916C12.2084 19.3826 12.1629 19.9287 12.0719 20.2927C11.4348 23.2961 13.5281 26.7546 16.5315 27.6192C17.1231 27.8013 17.7602 27.8923 18.6248 28.0743C17.0321 28.9389 15.3938 29.121 13.8466 29.576C13.255 29.7125 12.1174 29.4395 12.1174 30.3041C12.1174 31.1232 13.1185 31.5328 13.8921 31.8058C15.7124 32.4884 17.4871 32.1699 19.2619 31.5328C19.9445 31.3053 20.5816 30.9867 21.4007 30.6227C20.5361 32.2154 19.3529 33.3075 18.2152 34.5817C19.6714 34.9913 20.9001 34.4907 22.4018 34.3542C21.1731 35.4463 19.99 35.9014 18.6248 35.7649C17.2141 35.5829 16.941 34.8548 17.7602 33.7171C17.8967 33.4896 18.2152 33.3531 18.1242 32.9435C16.759 33.0345 15.3483 33.262 13.9831 32.807C12.9365 32.4429 12.0264 31.9879 11.3893 31.0777C10.6612 30.0766 10.8887 29.3485 12.0719 28.9844C13.073 28.6659 14.0741 28.4839 15.1208 28.2563C15.1208 27.7103 14.6657 27.7103 14.3927 27.5282C11.8443 25.6625 10.9342 23.1141 11.2527 20.0652C11.3438 19.2916 11.5713 18.4725 12.4814 18.2449C13.346 18.0174 13.8011 18.7 14.2107 19.2916C16.7135 22.8866 20.0355 25.617 23.585 28.0743C24.4041 28.6659 24.6771 28.4384 24.9047 27.5737C25.4963 25.4349 26.1789 23.2961 26.8159 21.1573C27.089 20.2927 27.453 19.4281 28.4997 19.4736C29.5463 19.4736 29.9104 20.3837 30.1834 21.2483C30.866 23.3872 31.5486 25.5259 32.0947 27.7103C32.3677 28.7569 32.6863 28.6659 33.4144 28.1653C36.9639 25.708 40.2403 22.9321 42.7887 19.3826C43.1983 18.791 43.6533 18.1084 44.5179 18.3359C45.3371 18.5635 45.6101 19.2916 45.7011 20.0197C46.1562 23.0231 45.155 25.526 42.8342 27.4372C42.5157 27.6648 42.1061 27.7558 41.8331 28.3018C42.7887 28.5294 43.6988 28.7114 44.609 28.9844C46.2017 29.4395 46.4747 30.3496 45.2915 31.5328C43.8809 32.9435 42.1061 33.2165 40.2403 33.1255C39.8308 33.08 39.3757 32.898 38.9207 33.08C38.9207 33.2165 38.8751 33.3075 38.9207 33.3531C39.2392 33.8991 40.1493 34.3087 39.6488 35.0823C39.1027 35.9469 38.147 35.9014 37.2824 35.7649C36.3268 35.6284 35.5077 35.1278 34.5065 34.4907C36.0082 34.3997 37.3279 35.0823 38.7386 34.6727C37.6465 33.3531 36.6453 32.1244 35.6442 30.9412ZM25.0412 30.2586C24.4041 32.4429 23.767 34.6272 23.1754 36.8115C23.7215 36.9936 23.9035 36.675 24.1311 36.3565C24.8137 35.4463 25.5418 34.5362 26.1789 33.6261C27.5896 31.4873 27.4985 31.3508 25.0412 30.2586ZM33.8694 37.2666C33.2779 35.0823 32.6408 32.898 32.0492 30.7137C32.0037 30.5772 31.7761 30.3041 31.7306 30.3041C31.139 30.5772 30.5475 30.8502 30.0469 31.2143C29.6373 31.5328 29.9104 31.9879 30.0924 32.3519C31.048 34.2177 32.4132 35.7649 33.8694 37.2666ZM38.6021 32.8525C38.6021 32.898 38.5566 32.898 38.5566 32.9435C38.5566 32.989 38.6021 32.989 38.6476 33.0345C38.6476 32.989 38.6931 32.9435 38.6931 32.898C38.6476 32.8525 38.6021 32.8525 38.6021 32.8525Z" fill="white"/>
</svg>
