<svg width="37" height="36" viewBox="0 0 37 36" fill="none" xmlns="http://www.w3.org/2000/svg">
<path d="M18.5 36C8.564 36 0.5 27.936 0.5 18C0.5 8.064 8.564 0 18.5 0C28.436 0 36.5 8.064 36.5 18C36.5 27.936 28.436 36 18.5 36Z" fill="#4C7FF7"/>
<path fill-rule="evenodd" clip-rule="evenodd" d="M23.0926 19.8907C23.4436 19.6275 23.7069 19.9493 23.9702 20.0663C25.1404 20.5343 26.3105 20.8854 27.5685 20.5343C27.861 20.4466 28.1243 20.3296 28.3876 20.2125C28.7094 20.037 29.1482 19.803 29.0897 19.3934C29.0312 19.0424 28.5631 19.1301 28.2413 19.0424C27.3052 18.7791 26.369 18.5158 25.4329 18.2818C25.2281 18.2233 25.0234 18.194 24.9648 17.96C27.5977 17.4627 28.8556 16.2047 29.0312 13.8937C29.0312 13.8351 29.0604 13.7766 29.0604 13.7181C29.0019 13.2501 29.1482 12.6065 28.7094 12.4309C28.2121 12.2262 28.0658 12.899 27.8317 13.2208C26.1643 15.3564 24.1457 17.1116 21.8932 18.5743C21.3081 18.9546 21.2496 19.3057 21.4251 19.92C21.8932 21.4705 22.2735 23.0209 22.683 24.6007C22.7415 24.8347 22.8878 25.1272 22.5953 25.332C22.2735 25.5368 22.0979 25.2442 21.9517 25.0687C20.8693 23.8986 19.8454 22.6991 19.0848 21.2657C18.4997 20.1833 18.5874 19.8907 19.6698 19.3057C20.3427 18.9546 20.489 18.6036 20.2549 17.8722C19.7869 16.585 19.4651 15.2393 19.0555 13.9229C18.9677 13.6011 18.9092 13.133 18.4704 13.1623C18.1194 13.1916 18.0609 13.6011 17.9439 13.9229C17.505 15.3271 17.1247 16.7313 16.6567 18.1355C16.4519 18.6913 16.6274 18.9546 17.1247 19.2472C18.4119 19.9785 18.4997 20.3003 17.7098 21.5875C16.9492 22.8747 15.9838 24.0448 14.9599 25.1272C14.8137 25.3028 14.6674 25.5368 14.3749 25.3905C14.1116 25.2442 14.2286 24.981 14.2578 24.7469C14.5504 23.0209 15.1062 21.3827 15.5743 19.7152C15.7205 19.2472 15.6328 18.9839 15.2232 18.7206C12.7366 17.0823 10.5133 15.1808 8.78731 12.7527C8.6703 12.5772 8.52403 12.3432 8.31925 12.4017C8.02671 12.4602 7.99745 12.8112 7.93894 13.0453C7.52939 14.9761 8.87508 17.1994 10.8058 17.7552C11.1862 17.8722 11.5957 17.9307 12.1515 18.0477C11.1276 18.6036 10.0745 18.7206 9.07985 19.0131C8.69955 19.1009 7.9682 18.9254 7.9682 19.4812C7.9682 20.0078 8.61179 20.271 9.10911 20.4466C10.2793 20.8854 11.4202 20.6806 12.5611 20.271C12.9999 20.1248 13.4095 19.92 13.936 19.686C13.3802 20.7099 12.6196 21.412 11.8883 22.2311C12.8244 22.4944 13.6142 22.1726 14.5796 22.0848C13.7898 22.7869 13.0292 23.0794 12.1515 22.9917C11.2447 22.8747 11.0691 22.4066 11.5957 21.6752C11.6835 21.529 11.8883 21.4412 11.8297 21.1779C10.9521 21.2364 10.0452 21.3827 9.16762 21.0902C8.49477 20.8561 7.90969 20.5636 7.50013 19.9785C7.03207 19.3349 7.17834 18.8668 7.93894 18.6328C8.58253 18.428 9.22613 18.311 9.89897 18.1648C9.89897 17.8137 9.60643 17.8137 9.4309 17.6967C7.79267 16.4973 7.20759 14.859 7.41237 12.899C7.47088 12.4017 7.61715 11.8751 8.20223 11.7288C8.75806 11.5826 9.0506 12.0214 9.31389 12.4017C10.9229 14.7128 13.0584 16.468 15.3402 18.0477C15.8668 18.428 16.0423 18.2818 16.1886 17.7259C16.5689 16.351 17.0077 14.9761 17.4173 13.6011C17.5928 13.0453 17.8268 12.4895 18.4997 12.5187C19.1725 12.5187 19.4066 13.1038 19.5821 13.6596C20.0209 15.0346 20.4597 16.4095 20.8108 17.8137C20.9863 18.4865 21.1911 18.428 21.6591 18.1062C23.941 16.5265 26.0472 14.742 27.6855 12.4602C27.9488 12.0799 28.2413 11.6411 28.7971 11.7874C29.3237 11.9336 29.4992 12.4017 29.5577 12.8698C29.8503 14.8005 29.2067 16.4095 27.7147 17.6382C27.51 17.7844 27.2467 17.843 27.0711 18.194C27.6855 18.3403 28.2706 18.4573 28.8556 18.6328C29.8795 18.9254 30.0551 19.5104 29.2945 20.271C28.3876 21.1779 27.2467 21.3534 26.0472 21.2949C25.784 21.2657 25.4914 21.1487 25.1989 21.2657C25.1989 21.3534 25.1696 21.412 25.1989 21.4412C25.4037 21.7923 25.9887 22.0555 25.6669 22.5529C25.3159 23.1087 24.7016 23.0794 24.1457 22.9917C23.5314 22.9039 23.0048 22.5821 22.3612 22.1726C23.3266 22.1141 24.175 22.5529 25.0819 22.2896C24.3798 21.4412 23.7362 20.6514 23.0926 19.8907ZM16.2764 19.4519C15.8668 20.8561 15.4573 22.2603 15.077 23.6645C15.428 23.7815 15.545 23.5768 15.6913 23.372C16.1301 22.7869 16.5982 22.2018 17.0077 21.6167C17.9146 20.2418 17.8561 20.154 16.2764 19.4519ZM21.9517 23.9571C21.5714 22.5529 21.1618 21.1487 20.7815 19.7445C20.7522 19.6567 20.606 19.4812 20.5767 19.4812C20.1964 19.6567 19.8161 19.8322 19.4943 20.0663C19.231 20.271 19.4066 20.5636 19.5236 20.7976C20.1379 21.997 21.0155 22.9917 21.9517 23.9571ZM24.9941 21.1194C24.9941 21.1487 24.9648 21.1487 24.9648 21.1779C24.9648 21.2072 24.9941 21.2072 25.0234 21.2364C25.0234 21.2072 25.0526 21.1779 25.0526 21.1487C25.0234 21.1194 24.9941 21.1194 24.9941 21.1194Z" fill="white"/>
</svg>
