<svg width="22" height="22" viewBox="0 0 22 22" fill="none" xmlns="http://www.w3.org/2000/svg">
<path d="M18.3254 3.31875C16.2979 1.27968 13.6021 0.156738 10.7348 0.156738C7.86741 0.156738 5.17164 1.27968 3.14411 3.31875C1.11658 5.35782 0 8.06894 0 10.9526C0 13.8363 1.11662 16.5474 3.14411 18.5865C5.1716 20.6256 7.86741 21.7485 10.7348 21.7485C13.6021 21.7485 16.2979 20.6256 18.3254 18.5865C20.3529 16.5474 21.4695 13.8363 21.4695 10.9526C21.4695 8.06894 20.3529 5.35787 18.3254 3.31875ZM10.7348 10.2779C12.3995 10.2779 13.7539 11.64 13.7539 13.3142C13.7539 14.7007 12.8248 15.8723 11.5601 16.2343C11.4692 16.2603 11.4057 16.3425 11.4057 16.4375V17.0062C11.4057 17.3696 11.128 17.6822 10.7672 17.6993C10.3819 17.7175 10.0638 17.4088 10.0638 17.0253V16.4374C10.0638 16.3426 10.0007 16.2604 9.91007 16.2345C8.65075 15.8743 7.72404 14.7115 7.71565 13.3331C7.71343 12.9651 8.00109 12.6503 8.36682 12.6398C8.74636 12.6288 9.05746 12.935 9.05746 13.3142C9.05746 14.2843 9.87586 15.0657 10.8546 14.9969C11.6809 14.9388 12.3502 14.2657 12.4079 13.4347C12.4762 12.4503 11.6993 11.6274 10.7348 11.6274C9.06999 11.6274 7.71561 10.2653 7.71561 8.59102C7.71561 7.20455 8.64471 6.03295 9.90944 5.67095C10.0003 5.64493 10.0638 5.56274 10.0638 5.46772V4.899C10.0638 4.53565 10.3415 4.22303 10.7023 4.20595C11.0877 4.18774 11.4057 4.49647 11.4057 4.87994V5.46785C11.4057 5.56261 11.4688 5.64484 11.5595 5.67078C12.8188 6.03092 13.7455 7.19372 13.7539 8.57217C13.7561 8.94012 13.4684 9.25493 13.1027 9.26547C12.7232 9.27644 12.4121 8.97027 12.4121 8.59102C12.4121 7.621 11.5937 6.83956 10.6149 6.90838C9.78864 6.96645 9.11935 7.63959 9.06165 8.47054C8.9933 9.45495 9.77027 10.2779 10.7348 10.2779Z" fill="white"/>
</svg>
