<svg width="59" height="60" viewBox="0 0 59 60" fill="none" xmlns="http://www.w3.org/2000/svg">
<rect width="59" height="60" fill="#4C7FF7"/>
<path fill-rule="evenodd" clip-rule="evenodd" d="M37.7135 31.9797C38.3048 31.5303 38.7483 32.0796 39.1918 32.2793C41.1627 33.0782 43.1337 33.6773 45.2525 33.0782C45.7452 32.9284 46.1887 32.7287 46.6321 32.5289C47.1742 32.2294 47.9133 31.8299 47.8147 31.1309C47.7162 30.5317 46.9278 30.6815 46.3858 30.5317C44.809 30.0824 43.2322 29.633 41.6555 29.2336C41.3105 29.1337 40.9656 29.0838 40.8671 28.6843C45.3017 27.8355 47.4205 25.6885 47.7162 21.744C47.7162 21.6442 47.7654 21.5443 47.7654 21.4445C47.6669 20.6456 47.9133 19.5471 47.1742 19.2475C46.3365 18.898 46.0901 20.0464 45.6959 20.5956C42.8873 24.2405 39.4874 27.2364 35.6933 29.7329C34.7078 30.3819 34.6093 30.9811 34.9049 32.0296C35.6933 34.6759 36.3339 37.3222 37.0237 40.0185C37.1223 40.4179 37.3686 40.9172 36.8759 41.2667C36.3339 41.6162 36.0382 41.1169 35.7919 40.8173C33.9687 38.8201 32.2441 36.773 30.963 34.3264C29.9775 32.479 30.1254 31.9797 31.9485 30.9811C33.0818 30.3819 33.3282 29.7828 32.934 28.5345C32.1456 26.3376 31.6036 24.0408 30.9137 21.794C30.7659 21.2447 30.6674 20.4459 29.9283 20.4958C29.337 20.5457 29.2384 21.2447 29.0413 21.794C28.3022 24.1906 27.6617 26.5873 26.8733 28.9839C26.5283 29.9326 26.824 30.3819 27.6616 30.8812C29.8297 32.1295 29.9775 32.6787 28.6471 34.8757C27.366 37.0726 25.74 39.0698 24.0154 40.9172C23.769 41.2168 23.5226 41.6162 23.0299 41.3666C22.5864 41.1169 22.7835 40.6675 22.8328 40.2681C23.3255 37.3222 24.2617 34.5261 25.0501 31.6801C25.2965 30.8812 25.1487 30.4319 24.4588 29.9825C20.2706 27.1864 16.5257 23.941 13.6186 19.7968C13.4215 19.4972 13.1751 19.0977 12.8302 19.1976C12.3374 19.2975 12.2882 19.8966 12.1896 20.2961C11.4998 23.5915 13.7664 27.3861 17.0185 28.3348C17.659 28.5345 18.3489 28.6344 19.2851 28.8341C17.5605 29.7828 15.7866 29.9825 14.1113 30.4818C13.4707 30.6316 12.2389 30.332 12.2389 31.2807C12.2389 32.1794 13.3229 32.6288 14.1606 32.9284C16.1315 33.6773 18.0532 33.3278 19.9749 32.6288C20.714 32.3792 21.4039 32.0296 22.2908 31.6302C21.3546 33.3778 20.0735 34.5761 18.8416 35.9741C20.4184 36.4235 21.7488 35.8743 23.3748 35.7245C22.0444 36.9228 20.7633 37.4221 19.2851 37.2723C17.7576 37.0726 17.4619 36.2737 18.3489 35.0254C18.4967 34.7758 18.8416 34.626 18.7431 34.1766C17.2648 34.2765 15.7373 34.5261 14.2591 34.0268C13.1258 33.6274 12.1403 33.1281 11.4505 32.1295C10.6621 31.031 10.9085 30.2322 12.1896 29.8327C13.2736 29.4832 14.3577 29.2835 15.491 29.0338C15.491 28.4347 14.9982 28.4347 14.7026 28.235C11.9432 26.1878 10.9578 23.3917 11.3027 20.0464C11.4012 19.1976 11.6476 18.2989 12.6331 18.0492C13.5693 17.7996 14.062 18.5485 14.5055 19.1976C17.2156 23.1421 20.8126 26.1379 24.6559 28.8341C25.5429 29.4832 25.8385 29.2336 26.0849 28.2849C26.7254 25.9382 27.4646 23.5915 28.1544 21.2447C28.45 20.2961 28.8442 19.3474 29.9775 19.3973C31.1108 19.3973 31.505 20.3959 31.8007 21.3446C32.5398 23.6913 33.2789 26.038 33.8702 28.4347C34.1658 29.5831 34.5107 29.4832 35.2991 28.934C39.1425 26.2377 42.6902 23.192 45.4496 19.2975C45.893 18.6484 46.3858 17.8994 47.322 18.1491C48.2089 18.3987 48.5046 19.1976 48.6031 19.9965C49.0958 23.2919 48.0118 26.038 45.4988 28.1351C45.1539 28.3847 44.7105 28.4846 44.4148 29.0838C45.4496 29.3334 46.435 29.5331 47.4205 29.8327C49.1451 30.332 49.4408 31.3306 48.1596 32.6288C46.6321 34.1766 44.7105 34.4762 42.6902 34.3764C42.2468 34.3264 41.754 34.1267 41.2613 34.3264C41.2613 34.4762 41.212 34.5761 41.2613 34.626C41.6062 35.2252 42.5917 35.6745 42.0497 36.5233C41.4584 37.472 40.4236 37.4221 39.4874 37.2723C38.4527 37.1225 37.5657 36.5733 36.4817 35.8743C38.1077 35.7744 39.5367 36.5233 41.0642 36.074C39.8816 34.626 38.7976 33.2779 37.7135 31.9797ZM26.2327 31.2308C25.5429 33.6274 24.853 36.024 24.2125 38.4207C24.8038 38.6204 25.0009 38.2709 25.2472 37.9214C25.9863 36.9228 26.7747 35.9242 27.4646 34.9256C28.992 32.5789 28.8935 32.4291 26.2327 31.2308ZM35.7919 38.92C35.1513 36.5233 34.4615 34.1267 33.8209 31.7301C33.7716 31.5803 33.5253 31.2807 33.476 31.2807C32.8354 31.5803 32.1949 31.8798 31.6528 32.2793C31.2094 32.6288 31.505 33.1281 31.7021 33.5275C32.7369 35.5747 34.2151 37.2723 35.7919 38.92ZM40.9164 34.0768C40.9164 34.1267 40.8671 34.1267 40.8671 34.1766C40.8671 34.2266 40.9164 34.2266 40.9656 34.2765C40.9656 34.2266 41.0149 34.1766 41.0149 34.1267C40.9656 34.0768 40.9164 34.0768 40.9164 34.0768Z" fill="#F8FCFF"/>
</svg>
