<svg width="19" height="18" viewBox="0 0 19 18" fill="none" xmlns="http://www.w3.org/2000/svg">
    <path d="M9.33331 0.25C4.50128 0.25 0.583313 4.16797 0.583313 9C0.583313 13.832 4.50128 17.75 9.33331 17.75C14.1653 17.75 18.0833 13.832 18.0833 9C18.0833 4.16797 14.1653 0.25 9.33331 0.25ZM9.76886 13.2422L9.77277 13.8613C9.77277 13.9473 9.70245 14.0195 9.61652 14.0195H9.06183C8.97589 14.0195 8.90558 13.9492 8.90558 13.8633V13.25C7.1712 13.1211 6.3548 12.1328 6.26691 11.0586C6.25909 10.9668 6.33136 10.8887 6.42316 10.8887H7.3255C7.40167 10.8887 7.46808 10.9434 7.4798 11.0176C7.57941 11.6367 8.06183 12.0996 8.92706 12.2148V9.42773L8.44464 9.30469C7.42316 9.06055 6.4505 8.42383 6.4505 7.10352C6.4505 5.67969 7.53253 4.91406 8.91534 4.7793V4.13477C8.91534 4.04883 8.98566 3.97852 9.07159 3.97852H9.62042C9.70636 3.97852 9.77667 4.04883 9.77667 4.13477V4.77344C11.1146 4.9082 12.1185 5.68945 12.2357 6.90625C12.2454 6.99805 12.1732 7.07812 12.0794 7.07812H11.2025C11.1243 7.07812 11.0579 7.01953 11.0482 6.94336C10.97 6.37305 10.513 5.9082 9.76886 5.80664V8.42969L10.265 8.54492C11.5306 8.85742 12.3919 9.46289 12.3919 10.8184C12.3919 12.2891 11.2982 13.1094 9.76886 13.2422ZM7.66534 7.01367C7.66534 7.50977 7.97198 7.89453 8.63214 8.13281C8.72394 8.16992 8.81573 8.19922 8.92511 8.23047V5.80859C8.20441 5.90039 7.66534 6.30469 7.66534 7.01367ZM9.94073 9.6543C9.88605 9.64258 9.83136 9.62891 9.76886 9.61133V12.2227C10.6009 12.1484 11.1751 11.6914 11.1751 10.9258C11.1751 10.3262 10.8646 9.93555 9.94073 9.6543Z"
          fill="#728099"/>
</svg>
