<svg width="16" height="15" viewBox="0 0 16 15" fill="none" xmlns="http://www.w3.org/2000/svg">
<path d="M7.87695 10.2588C7.89157 10.2775 7.91024 10.2926 7.93156 10.303C7.95288 10.3133 7.97629 10.3187 8 10.3187C8.02371 10.3187 8.04712 10.3133 8.06844 10.303C8.08976 10.2926 8.10843 10.2775 8.12305 10.2588L10.3105 7.49121C10.3906 7.38965 10.3184 7.23926 10.1875 7.23926H8.74023V0.629883C8.74023 0.543945 8.66992 0.473633 8.58398 0.473633H7.41211C7.32617 0.473633 7.25586 0.543945 7.25586 0.629883V7.2373H5.8125C5.68164 7.2373 5.60938 7.3877 5.68945 7.48926L7.87695 10.2588ZM15.1484 9.5752H13.9766C13.8906 9.5752 13.8203 9.64551 13.8203 9.73145V12.7393H2.17969V9.73145C2.17969 9.64551 2.10938 9.5752 2.02344 9.5752H0.851562C0.765625 9.5752 0.695312 9.64551 0.695312 9.73145V13.5986C0.695312 13.9443 0.974609 14.2236 1.32031 14.2236H14.6797C15.0254 14.2236 15.3047 13.9443 15.3047 13.5986V9.73145C15.3047 9.64551 15.2344 9.5752 15.1484 9.5752Z" fill="#4C7FF7"/>
</svg>
