<svg width="14" height="14" viewBox="0 0 14 14" fill="none" xmlns="http://www.w3.org/2000/svg">
<path d="M6.02344 0.75H7.97656C8.30127 0.75 8.5625 1.01123 8.5625 1.33594V5.4375H10.7036C11.1382 5.4375 11.3555 5.9624 11.0479 6.27002L7.33447 9.98584C7.15137 10.1689 6.85107 10.1689 6.66797 9.98584L2.94971 6.27002C2.64209 5.9624 2.85938 5.4375 3.29395 5.4375H5.4375V1.33594C5.4375 1.01123 5.69873 0.75 6.02344 0.75ZM13.25 9.92969V12.6641C13.25 12.9888 12.9888 13.25 12.6641 13.25H1.33594C1.01123 13.25 0.75 12.9888 0.75 12.6641V9.92969C0.75 9.60498 1.01123 9.34375 1.33594 9.34375H4.91748L6.11377 10.54C6.60449 11.0308 7.39551 11.0308 7.88623 10.54L9.08252 9.34375H12.6641C12.9888 9.34375 13.25 9.60498 13.25 9.92969ZM10.2227 12.0781C10.2227 11.8096 10.0029 11.5898 9.73438 11.5898C9.46582 11.5898 9.24609 11.8096 9.24609 12.0781C9.24609 12.3467 9.46582 12.5664 9.73438 12.5664C10.0029 12.5664 10.2227 12.3467 10.2227 12.0781ZM11.7852 12.0781C11.7852 11.8096 11.5654 11.5898 11.2969 11.5898C11.0283 11.5898 10.8086 11.8096 10.8086 12.0781C10.8086 12.3467 11.0283 12.5664 11.2969 12.5664C11.5654 12.5664 11.7852 12.3467 11.7852 12.0781Z" fill="white"/>
</svg>
