<svg width="177" height="161" viewBox="0 0 177 161" fill="none" xmlns="http://www.w3.org/2000/svg">
<ellipse opacity="0.2" cx="92.9908" cy="153.429" rx="50.4074" ry="7.06645" fill="#9CA6B8"/>
<path d="M55.1816 40.3378C49.3016 54.1473 28.4457 44.8174 19.2864 55.8709C-8.27146 74.6061 -6.82178 121.959 29.3818 128.619C57.5149 139.299 84.2991 122.085 111.57 120.535C131.854 125.244 160.222 137.441 174.03 114.531C188.929 86.4604 137.412 87.664 155.836 58.3984C180.681 12.3056 69.8932 -35.6661 55.1722 40.3439L55.1816 40.3378Z" fill="#DBE5FD"/>
<path d="M92.4662 49.7607L113.372 61.707V85.5997L92.4662 97.546L71.5603 85.5997L71.5603 61.707L92.4662 49.7607Z" fill="#4C7FF7"/>
<path d="M92.4662 49.7607L113.372 61.707V85.5997L92.4662 97.546L71.5603 85.5997L71.5603 61.707L92.4662 49.7607Z" stroke="#DBE5FD"/>
<path d="M71.5603 61.7075L92.4663 49.7612L113.372 61.7075L92.2687 72.6583L71.5603 61.7075Z" fill="#4C7FF7"/>
<path d="M71.5603 61.7075L92.4663 49.7612L113.372 61.7075L92.2687 72.6583L71.5603 61.7075Z" stroke="#DBE5FD"/>
<path d="M70.7405 61.1211L90.7603 71.846C91.8261 72.4169 93.1067 72.4169 94.1725 71.846L114.192 61.1211" stroke="#DBE5FD" stroke-width="3.6129"/>
<path d="M90.7727 29.0265C91.8207 28.4215 93.1119 28.4215 94.1598 29.0265L130.267 49.8732C131.315 50.4783 131.961 51.5964 131.961 52.8065V94.4999C131.961 95.71 131.315 96.8282 130.267 97.4332L94.1598 118.28L95.9663 121.409L94.1598 118.28C93.1119 118.885 91.8207 118.885 90.7727 118.28L88.9663 121.409L90.7727 118.28L54.6652 97.4332C53.6172 96.8282 52.9717 95.71 52.9717 94.4999V52.8065C52.9717 51.5964 53.6172 50.4783 54.6652 49.8732L90.7727 29.0265Z" stroke="#4C7FF7" stroke-width="7.22581" stroke-linejoin="round"/>
<circle cx="92.964" cy="118.95" r="6.84011" fill="#DBE5FD" stroke="#4C7FF7" stroke-width="7.22581"/>
<circle cx="51.1521" cy="52.2494" r="6.84011" fill="#DBE5FD" stroke="#4C7FF7" stroke-width="7.22581"/>
<circle cx="133.781" cy="52.2494" r="6.84011" fill="#DBE5FD" stroke="#4C7FF7" stroke-width="7.22581"/>
</svg>
