<svg width="126" height="113" viewBox="0 0 126 113" fill="none" xmlns="http://www.w3.org/2000/svg">
<g opacity="0.5">
<rect x="31.2222" y="1.11689" width="94" height="65" rx="5" transform="rotate(7.16339 31.2222 1.11689)" fill="#F2F2F2" stroke="#DEDEDE" stroke-width="2" stroke-linejoin="round" stroke-dasharray="5 2"/>
<rect x="0.755127" y="38.6346" width="95" height="75" rx="6" transform="rotate(-12.9838 0.755127 38.6346)" fill="#ECECEC"/>
<path d="M85.4288 19.1113L8.65261 36.8137C4.29796 37.8178 1.572 42.1775 2.57606 46.5321L14.3774 97.7151C14.3775 97.7157 14.3777 97.7166 14.3778 97.7171L15.8528 104.114C16.8569 108.469 21.2166 111.195 25.5712 110.191L102.347 92.4883C106.702 91.4842 109.428 87.1245 108.424 82.7698L95.1472 25.1879C94.1432 20.8332 89.7835 18.1073 85.4288 19.1113ZM24.8798 107.192C22.1786 107.815 19.4746 106.124 18.8518 103.423L17.5199 97.646L22.9975 88.8854L55.9659 81.2838C56.2461 81.2192 56.4895 81.0806 56.6832 80.8951L78.8415 94.7498L24.8798 107.192V107.192ZM52.6224 73.6319L53.7418 78.4866C53.7475 78.5148 53.754 78.5429 53.7611 78.5704L53.775 78.6304L23.1845 85.6837L22.032 80.6852L52.6224 73.6319ZM31.4588 75.3532L33.3926 72.2608C34.1044 71.1223 35.2169 70.3292 36.5252 70.0275C37.8337 69.7258 39.1812 69.9517 40.3195 70.6636L43.4121 72.5971L31.4588 75.3532ZM105.425 83.4615C106.048 86.1625 104.357 88.8666 101.656 89.4895L83.0832 93.7718L58.6942 78.5223L76.9543 49.3183C77.6661 48.1799 78.7786 47.3867 80.0869 47.0851C81.3952 46.7834 82.7429 47.0093 83.8812 47.7212L99.4251 57.4402L105.425 83.4615L105.425 83.4615ZM98.4473 53.1987L85.5133 45.1117C83.6775 43.9639 81.5051 43.5997 79.3955 44.0861C77.2858 44.5725 75.4922 45.8513 74.3443 47.6867L56.4115 76.3672L55.2757 71.4408C55.0847 70.6128 54.2588 70.096 53.4303 70.287L47.6535 71.619L41.9513 68.0536C40.1156 66.9061 37.9431 66.5418 35.8335 67.0282C33.7239 67.5146 31.9303 68.7934 30.7823 70.6288L27.217 76.3311L19.8409 78.0318C19.0127 78.2227 18.4961 79.0489 18.6871 79.8771L20.3878 87.2533L16.5419 93.4045L5.57504 45.8406C4.95226 43.1396 6.64289 40.4355 9.34408 39.8127L86.1203 22.1103C88.8215 21.4875 91.5255 23.1783 92.1483 25.8793L98.4473 53.1987Z" fill="#DEDEDE"/>
<path d="M63.0317 46.1747L59.5882 46.9687C59.1371 45.9513 58.4906 45.0582 57.7029 44.327L59.5775 41.3289C60.0281 40.6083 59.8091 39.6587 59.0886 39.2085C58.3677 38.7579 57.4183 38.9768 56.9678 39.6975L55.0932 42.6955C54.0909 42.3078 53.0049 42.1174 51.893 42.1574L51.0989 38.7135C50.908 37.8854 50.082 37.3687 49.2535 37.5597C48.4251 37.7507 47.9087 38.5768 48.0997 39.405L48.8937 42.8486C47.8764 43.2997 46.9835 43.9462 46.2522 44.7336L43.2541 42.8591C42.5333 42.4085 41.5839 42.6274 41.1333 43.3481C40.6827 44.0687 40.9017 45.0183 41.6222 45.4685L44.6203 47.3431C44.2325 48.3453 44.042 49.4316 44.0821 50.5435L40.6385 51.3375C39.8102 51.5285 39.2937 52.3546 39.4847 53.1829C39.6756 54.0111 40.5016 54.5279 41.33 54.3369L44.7736 53.5429C45.2247 54.5602 45.8712 55.4533 46.6589 56.1845L44.7843 59.1826C44.3337 59.9033 44.5526 60.8528 45.2732 61.3031C45.6336 61.5283 46.0513 61.5864 46.4349 61.4979C46.8186 61.4095 47.1687 61.1747 47.394 60.8141L49.2686 57.816C50.2709 58.2038 51.3569 58.3942 52.4688 58.3541L53.2629 61.7979C53.4538 62.6259 54.2798 63.1427 55.1082 62.9517C55.9366 62.7607 56.453 61.9346 56.262 61.1063L55.468 57.6628C56.4854 57.2117 57.3783 56.5652 58.1096 55.7777L61.1076 57.6523C61.468 57.8775 61.8857 57.9356 62.2693 57.8472C62.653 57.7587 63.0031 57.5239 63.2284 57.1633C63.679 56.4427 63.4601 55.4931 62.7395 55.0428L59.7415 53.1683C60.1292 52.166 60.3198 51.0797 60.2797 49.9678L63.7229 49.1739C64.5512 48.9829 65.0677 48.1568 64.8767 47.3286C64.6859 46.5003 63.86 45.9837 63.0317 46.1747ZM53.3103 55.154C50.6091 55.7768 47.9051 54.086 47.2823 51.385C46.6596 48.6839 48.3502 45.9798 51.0514 45.357C53.7526 44.7342 56.4565 46.425 57.0793 49.126C57.7021 51.8271 56.0115 54.5312 53.3103 55.154Z" fill="#DEDEDE"/>
<path d="M56.7498 84.6828L23.1602 92.4276C22.332 92.6185 21.8154 93.4446 22.0064 94.2729C22.1974 95.1012 23.0233 95.6177 23.8517 95.4267L57.4413 87.6819C58.2696 87.4909 58.7861 86.6648 58.5952 85.8366C58.4042 85.0083 57.5781 84.4918 56.7498 84.6828Z" fill="#DEDEDE"/>
<path d="M45.4288 94.031L24.6353 98.8254C23.8071 99.0164 23.2905 99.8425 23.4815 100.671C23.6724 101.499 24.4984 102.016 25.3268 101.825L46.1203 97.0302C46.9485 96.8392 47.4651 96.0131 47.2741 95.1848C47.0832 94.3568 46.2572 93.84 45.4288 94.031Z" fill="#DEDEDE"/>
</g>
</svg>
