<svg width="22" height="22" viewBox="0 0 22 22" fill="none" xmlns="http://www.w3.org/2000/svg">
<path d="M14.4407 6.90567C13.8185 3.14234 12.3508 0.5 10.6428 0.5C8.9348 0.5 7.46713 3.14234 6.84487 6.90567H14.4407ZM6.52301 10.9514C6.52301 11.8869 6.5745 12.7846 6.66463 13.6485H14.6167C14.7068 12.7846 14.7583 11.8869 14.7583 10.9514C14.7583 10.0158 14.7068 9.11815 14.6167 8.25423H6.66463C6.5745 9.11815 6.52301 10.0158 6.52301 10.9514ZM20.4574 6.90567C19.23 4.04419 16.7452 1.8317 13.6769 0.938283C14.724 2.3627 15.4449 4.50776 15.8226 6.90567H20.4574ZM7.60445 0.938283C4.54036 1.8317 2.05131 4.04419 0.82825 6.90567H5.46302C5.83638 4.50776 6.55734 2.3627 7.60445 0.938283ZM20.9165 8.25423H15.9942C16.0844 9.13922 16.1359 10.0453 16.1359 10.9514C16.1359 11.8574 16.0844 12.7635 15.9942 13.6485H20.9122C21.1483 12.7846 21.2813 11.8869 21.2813 10.9514C21.2813 10.0158 21.1483 9.11815 20.9165 8.25423ZM5.14974 10.9514C5.14974 10.0453 5.20124 9.13922 5.29136 8.25423H0.369065C0.137326 9.11815 0 10.0158 0 10.9514C0 11.8869 0.137326 12.7846 0.369065 13.6485H5.28707C5.20124 12.7635 5.14974 11.8574 5.14974 10.9514ZM6.84487 14.997C7.46713 18.7604 8.9348 21.4027 10.6428 21.4027C12.3508 21.4027 13.8185 18.7604 14.4407 14.997H6.84487ZM13.6811 20.9644C16.7452 20.071 19.2343 17.8585 20.4616 14.997H15.8269C15.4492 17.395 14.7283 19.54 13.6811 20.9644ZM0.82825 14.997C2.05561 17.8585 4.54036 20.071 7.60875 20.9644C6.56163 19.54 5.84067 17.395 5.46302 14.997H0.82825Z" fill="white"/>
</svg>
