<?xml version="1.0" encoding="UTF-8"?>
<svg width="16px" height="16px" viewBox="0 0 16 16" version="1.1" xmlns="http://www.w3.org/2000/svg" xmlns:xlink="http://www.w3.org/1999/xlink">
    <!-- Generator: Sketch 53.2 (72643) - https://sketchapp.com -->
    <title>cancel</title>
    <desc>Created with Sketch.</desc>
    <g id="Page-1" stroke="none" stroke-width="1" fill="none" fill-rule="evenodd">
        <g id="IF_Signed-Agreement" transform="translate(-569.000000, -481.000000)" fill="#FF0050" fill-rule="nonzero">
            <g id="cancel" transform="translate(569.000000, 481.000000)">
                <path d="M13.6336134,2.3394958 C12.1243697,0.830252101 10.1210084,0 7.98655462,0 C5.85210084,0 3.8487395,0.830252101 2.3394958,2.3394958 C0.830252101,3.8487395 0,5.85210084 0,7.98655462 C0,10.1210084 0.830252101,12.1243697 2.3394958,13.6336134 C3.8487395,15.1428571 5.85210084,15.9731092 7.98655462,15.9731092 C10.1210084,15.9731092 12.1243697,15.1428571 13.6336134,13.6336134 C15.1428571,12.1243697 15.9731092,10.1210084 15.9731092,7.98655462 C15.9731092,5.85210084 15.1428571,3.8487395 13.6336134,2.3394958 Z M12.9915966,12.9915966 C11.6537815,14.3294118 9.87563025,15.0655462 7.98655462,15.0655462 C6.09747899,15.0655462 4.31932773,14.3294118 2.98151261,12.9915966 C0.221848739,10.2319328 0.221848739,5.74117647 2.98151261,2.98151261 C4.31932773,1.64369748 6.09747899,0.907563025 7.98655462,0.907563025 C9.87563025,0.907563025 11.6537815,1.64369748 12.9915966,2.98151261 C15.7512605,5.74117647 15.7512605,10.2319328 12.9915966,12.9915966 Z" id="Shape"></path>
                <path d="M11.5058824,4.46722689 C11.3277311,4.28907563 11.0420168,4.28907563 10.8638655,4.46722689 L7.98655462,7.34453782 L5.1092437,4.46722689 C4.93109244,4.28907563 4.64537815,4.28907563 4.46722689,4.46722689 C4.28907563,4.64537815 4.28907563,4.93109244 4.46722689,5.1092437 L7.34453782,7.98655462 L4.46722689,10.8638655 C4.28907563,11.0420168 4.28907563,11.3277311 4.46722689,11.5058824 C4.55462185,11.5932773 4.67226891,11.6403361 4.78655462,11.6403361 C4.90084034,11.6403361 5.01848739,11.5966387 5.10588235,11.5058824 L7.98319328,8.62857143 L10.8605042,11.5058824 C10.9478992,11.5932773 11.0655462,11.6403361 11.1798319,11.6403361 C11.297479,11.6403361 11.4117647,11.5966387 11.4991597,11.5058824 C11.6773109,11.3277311 11.6773109,11.0420168 11.4991597,10.8638655 L8.62857143,7.98655462 L11.5058824,5.1092437 C11.6840336,4.93109244 11.6840336,4.64537815 11.5058824,4.46722689 Z" id="Path"></path>
            </g>
        </g>
    </g>
</svg>