<svg width="100" height="97" viewBox="0 0 100 97" fill="none" xmlns="http://www.w3.org/2000/svg">
<mask id="mask0" mask-type="alpha" maskUnits="userSpaceOnUse" x="3" y="0" width="97" height="97">
<path d="M100 48.5C100 75.2858 75.7122 97 51.9231 97C28.7135 97 3.84613 75.2858 3.84613 48.5C3.84613 21.7142 32.5818 0 51.9231 0C71.2643 0 100 18.954 100 48.5Z" fill="#C4C4C4"/>
</mask>
<g mask="url(#mask0)">
<path d="M100 48.5C100 75.2858 75.7122 97 51.9231 97C28.7135 97 3.84613 75.2858 3.84613 48.5C3.84613 21.7142 32.5818 0 51.9231 0C71.2643 0 100 18.954 100 48.5Z" fill="url(#paint0_linear)"/>
<g opacity="0.9">
<ellipse cx="52.9659" cy="90.3969" rx="28.3898" ry="22.1205" fill="url(#paint1_linear)"/>
<path d="M46.4144 74.3596V66.0644H57.3335V74.3596C56.8968 77.014 53.8758 78.0463 52.4199 78.2307C49.7993 78.6731 47.3243 75.8343 46.4144 74.3596Z" fill="#A9C7FD"/>
<ellipse cx="51.328" cy="43.9439" rx="20.2005" ry="19.9084" fill="url(#paint2_linear)"/>
<ellipse cx="37.6791" cy="53.8981" rx="5.45958" ry="5.53012" fill="#BAD4FD"/>
<ellipse cx="37.6792" cy="53.898" rx="3.0331" ry="3.07229" fill="#D4DFFE"/>
<ellipse cx="66.0689" cy="53.8981" rx="5.45959" ry="5.53012" fill="#BAD4FD"/>
<ellipse cx="66.069" cy="53.898" rx="3.0331" ry="3.07229" fill="#D4DFFE"/>
<path d="M37.7837 49.8247C36.4734 63.5394 47.7929 67.7054 53.6165 68.0741C64.9725 67.1893 67.8114 55.5391 67.8113 49.8247C68.248 36.11 62.5337 36.368 59.6219 38.2114C57.6201 39.6861 52.0878 41.7507 45.9729 38.2114C39.8581 34.6721 37.9656 44.4789 37.7837 49.8247Z" fill="url(#paint3_linear)"/>
<path d="M61.7014 55.5571C57.3337 52.0178 50.2363 53.898 48.5984 55.5571C48.5984 60.866 53.33 62.3776 55.6958 62.1933C59.6268 62.1933 61.3374 57.5848 61.7014 55.5571Z" fill="white"/>
<path d="M49.1443 48.3679C50.4546 48.3679 50.7822 49.4739 50.7822 50.0269L50.4239 49.9059C49.5939 49.6257 48.6948 49.6257 47.8648 49.9059L47.5065 50.0269C47.5065 49.4739 47.834 48.3679 49.1443 48.3679Z" fill="#4C7FF7"/>
<path d="M61.1555 48.3679C62.4658 48.3679 62.7933 49.4739 62.7933 50.0269L62.435 49.9059C61.605 49.6257 60.7059 49.6257 59.8759 49.9059L59.5176 50.0269C59.5176 49.4739 59.8452 48.3679 61.1555 48.3679Z" fill="#4C7FF7"/>
<ellipse cx="64.4312" cy="52.2389" rx="2.72979" ry="1.65903" fill="#BBCDFB"/>
<ellipse cx="45.8686" cy="52.2389" rx="2.72979" ry="1.65903" fill="#BBCDFB"/>
<path opacity="0.4" d="M92.3588 51.4223C92.1581 51.5982 91.9435 51.7572 91.7172 51.8978C90.1466 52.9149 87.7072 53.5556 85.7037 53.8863C84.3757 52.3235 82.9043 50.2379 82.3538 48.4293C82.2771 48.1849 82.2183 47.9352 82.1778 47.6821C81.6908 45.0467 82.4725 42.8814 84.1345 42.2617C85.15 41.9432 86.2527 42.0865 87.155 42.6542C88.0574 43.222 88.6699 44.158 88.8329 45.2181C89.6336 44.5121 90.6993 44.1928 91.7522 44.3434C92.8051 44.4939 93.7408 45.0994 94.3156 46.002C95.197 47.5561 94.4153 49.7213 92.3588 51.4223Z" fill="url(#paint4_linear)"/>
<path opacity="0.2" d="M22.0199 78.8913C21.8192 79.0671 21.6046 79.2262 21.3782 79.3668C19.8077 80.3839 17.3683 81.0245 15.3648 81.3553C14.0368 79.7925 12.5653 77.7069 12.0148 75.8983C11.9382 75.6539 11.8794 75.4042 11.8389 75.1511C11.3519 72.5157 12.1335 70.3504 13.7956 69.7307C14.8111 69.4122 15.9138 69.5555 16.8161 70.1232C17.7184 70.691 18.3309 71.6269 18.494 72.6871C19.2947 71.9811 20.3604 71.6618 21.4133 71.8123C22.4661 71.9629 23.4019 72.5684 23.9766 73.471C24.858 75.0251 24.0764 77.1903 22.0199 78.8913Z" fill="url(#paint5_linear)"/>
</g>
</g>
<path d="M7.97436 40.74C7.97436 42.696 6.40485 44.2667 4.48718 44.2667C2.56951 44.2667 1 42.696 1 40.74C1 38.784 2.56951 37.2134 4.48718 37.2134C6.40485 37.2134 7.97436 38.784 7.97436 40.74Z" stroke="#D1DAF6" stroke-width="2"/>
<path d="M88.4293 12.9333C88.4293 12.243 87.8697 11.6833 87.1793 11.6833C86.489 11.6833 85.9293 12.243 85.9293 12.9333H88.4293ZM85.9293 20.6933C85.9293 21.3837 86.489 21.9433 87.1793 21.9433C87.8697 21.9433 88.4293 21.3837 88.4293 20.6933H85.9293ZM85.9293 12.9333V20.6933H88.4293V12.9333H85.9293Z" fill="#729FFA"/>
<path d="M91.0256 18.0634C91.7159 18.0634 92.2756 17.5037 92.2756 16.8134C92.2756 16.123 91.7159 15.5634 91.0256 15.5634L91.0256 18.0634ZM83.3333 15.5634C82.6429 15.5634 82.0833 16.123 82.0833 16.8134C82.0833 17.5037 82.6429 18.0634 83.3333 18.0634L83.3333 15.5634ZM91.0256 15.5634L83.3333 15.5634L83.3333 18.0634L91.0256 18.0634L91.0256 15.5634Z" fill="#729FFA"/>
<defs>
<linearGradient id="paint0_linear" x1="51.9231" y1="0" x2="51.9231" y2="97" gradientUnits="userSpaceOnUse">
<stop stop-color="#DDE6F8"/>
<stop offset="0.786458" stop-color="#B9CFFC"/>
</linearGradient>
<linearGradient id="paint1_linear" x1="52.9659" y1="72.1475" x2="34.6381" y2="97.9178" gradientUnits="userSpaceOnUse">
<stop stop-color="#7CA3F9"/>
<stop offset="1" stop-color="#6F9FFB"/>
</linearGradient>
<linearGradient id="paint2_linear" x1="51.328" y1="24.0355" x2="51.328" y2="63.8523" gradientUnits="userSpaceOnUse">
<stop stop-color="#7EA8F3"/>
<stop offset="1" stop-color="#9DBBFC"/>
</linearGradient>
<linearGradient id="paint3_linear" x1="52.757" y1="37.3077" x2="52.757" y2="68.0741" gradientUnits="userSpaceOnUse">
<stop stop-color="#D9E2FE"/>
<stop offset="0.947917" stop-color="#CEDCFE"/>
</linearGradient>
<linearGradient id="paint4_linear" x1="89.482" y1="43.4241" x2="85.6463" y2="53.8652" gradientUnits="userSpaceOnUse">
<stop stop-color="#A6BEFD"/>
<stop offset="1" stop-color="#6393EA"/>
</linearGradient>
<linearGradient id="paint5_linear" x1="19.1431" y1="70.8931" x2="15.3073" y2="81.3342" gradientUnits="userSpaceOnUse">
<stop stop-color="#A6BEFD"/>
<stop offset="1" stop-color="#6393EA"/>
</linearGradient>
</defs>
</svg>
