<?xml version="1.0" encoding="UTF-8"?>
<svg width="21px" height="21px" viewBox="0 0 21 21" version="1.1" xmlns="http://www.w3.org/2000/svg" xmlns:xlink="http://www.w3.org/1999/xlink">
    <!-- Generator: Sketch 51.2 (57519) - http://www.bohemiancoding.com/sketch -->
    <title>info</title>
    <desc>Created with Sketch.</desc>
    <defs></defs>
    <g id="C247" stroke="none" stroke-width="1" fill="none" fill-rule="evenodd">
        <g id="Home" transform="translate(-334.000000, -19.000000)" fill="#0083E3" fill-rule="nonzero">
            <g id="info" transform="translate(334.000000, 19.000000)">
                <path d="M17.9246074,3.07543359 C15.9414199,1.09216406 13.3046895,0 10.5,0 C7.69531055,0 5.05858008,1.09216406 3.07543359,3.07543359 C1.09216406,5.05858008 0,7.69531055 0,10.5 C0,13.3046895 1.09216406,15.9414199 3.07543359,17.9246074 C5.05858008,19.9078359 7.69531055,21 10.5,21 C13.3046895,21 15.9414199,19.9078359 17.9246074,17.9246074 C19.9078359,15.9414199 21,13.3046895 21,10.5 C21,7.69531055 19.9078359,5.05858008 17.9246074,3.07543359 Z M10.5,20.1633633 C5.17161914,20.1633633 0.836636719,15.8284219 0.836636719,10.5 C0.836636719,5.17157813 5.17161914,0.836636719 10.5,0.836636719 C15.8283809,0.836636719 20.1633633,5.17161914 20.1633633,10.5 C20.1633633,15.8283809 15.8283809,20.1633633 10.5,20.1633633 Z" id="Shape"></path>
                <path d="M11.1428691,15.565579 C11.1428691,15.9045648 10.8544836,16.1803424 10.5,16.1803424 C10.1455164,16.1803424 9.85713085,15.9045648 9.85713085,15.565579 L9.85713085,8.43442096 C9.85713085,8.09543518 10.1455164,7.81965764 10.5,7.81965764 C10.8544836,7.81965764 11.1428691,8.09543518 11.1428691,8.43442096 L11.1428691,15.565579 Z" id="Shape"></path>
                <path d="M10.9549542,5.95436591 C10.8348601,6.07412388 10.6690478,6.14286915 10.5,6.14286915 C10.3308261,6.14286915 10.1650139,6.07412388 10.0456341,5.95503824 C9.92587612,5.83494411 9.85713085,5.66908984 9.85713085,5.50004202 C9.85713085,5.33061602 9.92575006,5.16488781 10.0449197,5.04567611 C10.1650139,4.92591814 10.3308681,4.85717287 10.5,4.85717287 C10.6690898,4.85717287 10.8349441,4.92591814 10.954618,5.04533994 C11.0742499,5.16497185 11.1428271,5.33065804 11.1428271,5.5 C11.1428691,5.66913186 11.0741239,5.83494411 10.9549542,5.95436591 Z" id="Shape"></path>
            </g>
        </g>
    </g>
</svg>