<svg width="44" height="43" viewBox="0 0 44 43" fill="none" xmlns="http://www.w3.org/2000/svg">
<mask id="mask0" mask-type="alpha" maskUnits="userSpaceOnUse" x="1" y="0" width="43" height="43">
<path d="M44.0001 21.5C44.0001 33.3741 33.3134 43 22.8462 43C12.634 43 1.69238 33.3741 1.69238 21.5C1.69238 9.62588 14.3361 0 22.8462 0C31.3564 0 44.0001 8.4023 44.0001 21.5Z" fill="#C4C4C4"/>
</mask>
<g mask="url(#mask0)">
<path d="M44.0001 21.5C44.0001 33.3741 33.3134 43 22.8462 43C12.634 43 1.69238 33.3741 1.69238 21.5C1.69238 9.62588 14.3361 0 22.8462 0C31.3564 0 44.0001 8.4023 44.0001 21.5Z" fill="url(#paint0_linear)"/>
<g opacity="0.9">
<ellipse cx="23.3052" cy="40.0729" rx="12.4915" ry="9.80599" fill="url(#paint1_linear)"/>
<path d="M20.4226 32.9636V29.2863H25.227V32.9636C25.0349 34.1403 23.7056 34.5979 23.065 34.6796C21.912 34.8757 20.823 33.6173 20.4226 32.9636Z" fill="#A9C7FD"/>
<ellipse cx="22.5845" cy="19.4803" rx="8.8882" ry="8.82539" fill="url(#paint2_linear)"/>
<ellipse cx="16.579" cy="23.893" rx="2.40222" ry="2.4515" fill="#BAD4FD"/>
<ellipse cx="16.5789" cy="23.8929" rx="1.33456" ry="1.36194" fill="#D4DFFE"/>
<ellipse cx="29.0707" cy="23.893" rx="2.40222" ry="2.4515" fill="#BAD4FD"/>
<ellipse cx="29.0706" cy="23.8929" rx="1.33456" ry="1.36194" fill="#D4DFFE"/>
<path d="M16.6251 22.0873C16.0486 28.167 21.0292 30.0138 23.5916 30.1772C28.5882 29.785 29.8373 24.6205 29.8373 22.0873C30.0294 16.0076 27.5151 16.1219 26.2339 16.9391C25.3532 17.5928 22.9189 18.5081 20.2284 16.9391C17.5379 15.3701 16.7052 19.7175 16.6251 22.0873Z" fill="url(#paint3_linear)"/>
<path d="M27.1491 24.6285C25.2273 23.0595 22.1045 23.893 21.3838 24.6285C21.3838 26.9819 23.4657 27.652 24.5067 27.5703C26.2363 27.5703 26.989 25.5274 27.1491 24.6285Z" fill="white"/>
<path d="M21.624 21.4415C22.2005 21.4415 22.3447 21.9318 22.3447 22.1769C21.8774 22.018 21.3706 22.018 20.9033 22.1769C20.9033 21.9318 21.0475 21.4415 21.624 21.4415Z" fill="#4C7FF7"/>
<path d="M26.9087 21.4415C27.4852 21.4415 27.6293 21.9318 27.6293 22.1769C27.162 22.018 26.6553 22.018 26.188 22.1769C26.188 21.9318 26.3321 21.4415 26.9087 21.4415Z" fill="#4C7FF7"/>
<ellipse cx="28.35" cy="23.1576" rx="1.20111" ry="0.735447" fill="#BBCDFB"/>
<ellipse cx="20.1826" cy="23.1576" rx="1.20111" ry="0.735447" fill="#BBCDFB"/>
<path opacity="0.4" d="M40.6382 22.7955C40.5499 22.8735 40.4554 22.944 40.3558 23.0063C39.6648 23.4572 38.5915 23.7412 37.7099 23.8878C37.1256 23.195 36.4782 22.2704 36.2359 21.4687C36.2022 21.3604 36.1764 21.2497 36.1585 21.1375C35.9443 19.9692 36.2882 19.0093 37.0195 18.7346C37.4663 18.5934 37.9515 18.6569 38.3485 18.9086C38.7455 19.1603 39.015 19.5752 39.0868 20.0452C39.4391 19.7322 39.908 19.5907 40.3712 19.6574C40.8345 19.7241 41.2462 19.9926 41.4991 20.3927C41.8869 21.0816 41.543 22.0415 40.6382 22.7955Z" fill="url(#paint4_linear)"/>
<path opacity="0.2" d="M9.68894 34.9725C9.60063 35.0505 9.50622 35.121 9.40662 35.1833C8.71559 35.6342 7.64224 35.9182 6.7607 36.0648C6.17639 35.372 5.52894 34.4474 5.28672 33.6457C5.253 33.5374 5.22714 33.4267 5.20931 33.3145C4.99503 32.1462 5.33895 31.1863 6.07026 30.9116C6.51707 30.7704 7.00224 30.8339 7.39927 31.0856C7.7963 31.3373 8.0658 31.7522 8.13755 32.2222C8.48987 31.9092 8.95876 31.7677 9.42203 31.8344C9.88529 31.9011 10.297 32.1696 10.5499 32.5697C10.9377 33.2586 10.5938 34.2185 9.68894 34.9725Z" fill="url(#paint5_linear)"/>
</g>
</g>
<mask id="path-18-inside-1" fill="white">
<ellipse cx="1.97436" cy="18.06" rx="1.97436" ry="2.00667"/>
</mask>
<path d="M1.94872 18.06C1.94872 18.0653 1.94822 18.0683 1.94795 18.0697C1.94766 18.0711 1.94734 18.072 1.94707 18.0727C1.94641 18.0743 1.94543 18.0756 1.9448 18.0762C1.94418 18.0769 1.94628 18.0745 1.95299 18.0716C1.95645 18.0701 1.96057 18.0687 1.96502 18.0678C1.96959 18.0669 1.97297 18.0667 1.97436 18.0667V22.0667C4.19982 22.0667 5.94872 20.2421 5.94872 18.06H1.94872ZM1.97436 18.0667C1.97575 18.0667 1.97912 18.0669 1.9837 18.0678C1.98815 18.0687 1.99227 18.0701 1.99573 18.0716C2.00244 18.0745 2.00454 18.0769 2.00392 18.0762C2.00329 18.0756 2.00231 18.0743 2.00164 18.0727C2.00138 18.072 2.00106 18.0711 2.00077 18.0697C2.0005 18.0683 2 18.0653 2 18.06H-2C-2 20.2421 -0.251099 22.0667 1.97436 22.0667V18.0667ZM2 18.06C2 18.0547 2.0005 18.0517 2.00077 18.0503C2.00106 18.0489 2.00138 18.048 2.00164 18.0474C2.00231 18.0458 2.00329 18.0444 2.00392 18.0438C2.00454 18.0431 2.00244 18.0456 1.99573 18.0485C1.99227 18.0499 1.98815 18.0513 1.9837 18.0522C1.97912 18.0532 1.97575 18.0533 1.97436 18.0533V14.0533C-0.251099 14.0533 -2 15.8779 -2 18.06H2ZM1.97436 18.0533C1.97297 18.0533 1.96959 18.0532 1.96502 18.0522C1.96057 18.0513 1.95645 18.0499 1.95299 18.0485C1.94628 18.0456 1.94418 18.0431 1.9448 18.0438C1.94543 18.0444 1.94641 18.0458 1.94707 18.0474C1.94734 18.048 1.94766 18.0489 1.94795 18.0503C1.94822 18.0517 1.94872 18.0547 1.94872 18.06H5.94872C5.94872 15.8779 4.19982 14.0533 1.97436 14.0533V18.0533Z" fill="#D1DAF6" mask="url(#path-18-inside-1)"/>
<path d="M39.6089 5.73334C39.6089 5.04298 39.0492 4.48334 38.3589 4.48334C37.6685 4.48334 37.1089 5.04298 37.1089 5.73334H39.6089ZM37.1089 9.17334C37.1089 9.86369 37.6685 10.4233 38.3589 10.4233C39.0492 10.4233 39.6089 9.86369 39.6089 9.17334H37.1089ZM37.1089 5.73334V9.17334H39.6089V5.73334H37.1089Z" fill="#729FFA"/>
<path d="M40.051 8.70331C40.7414 8.70331 41.301 8.14366 41.301 7.45331C41.301 6.76295 40.7414 6.20331 40.051 6.20331L40.051 8.70331ZM36.6664 6.20331C35.9761 6.20331 35.4164 6.76295 35.4164 7.45331C35.4164 8.14366 35.9761 8.70331 36.6664 8.70331L36.6664 6.20331ZM40.051 6.20331L36.6664 6.20331L36.6664 8.70331L40.051 8.70331L40.051 6.20331Z" fill="#729FFA"/>
<defs>
<linearGradient id="paint0_linear" x1="22.8462" y1="0" x2="22.8462" y2="43" gradientUnits="userSpaceOnUse">
<stop offset="0.59375" stop-color="#F1F6FF"/>
<stop offset="0.838542" stop-color="#B9CFFC"/>
</linearGradient>
<linearGradient id="paint1_linear" x1="23.3052" y1="31.983" x2="15.1608" y2="43.3494" gradientUnits="userSpaceOnUse">
<stop stop-color="#7CA3F9"/>
<stop offset="1" stop-color="#6F9FFB"/>
</linearGradient>
<linearGradient id="paint2_linear" x1="22.5845" y1="10.6549" x2="22.5845" y2="28.3057" gradientUnits="userSpaceOnUse">
<stop stop-color="#7EA8F3"/>
<stop offset="1" stop-color="#9DBBFC"/>
</linearGradient>
<linearGradient id="paint3_linear" x1="23.2134" y1="16.5385" x2="23.2134" y2="30.1772" gradientUnits="userSpaceOnUse">
<stop stop-color="#D9E2FE"/>
<stop offset="0.947917" stop-color="#CEDCFE"/>
</linearGradient>
<linearGradient id="paint4_linear" x1="39.3724" y1="19.2499" x2="37.6623" y2="23.8702" gradientUnits="userSpaceOnUse">
<stop stop-color="#A6BEFD"/>
<stop offset="1" stop-color="#6393EA"/>
</linearGradient>
<linearGradient id="paint5_linear" x1="8.42317" y1="31.4269" x2="6.71308" y2="36.0472" gradientUnits="userSpaceOnUse">
<stop stop-color="#A6BEFD"/>
<stop offset="1" stop-color="#6393EA"/>
</linearGradient>
</defs>
</svg>
