<svg width="14" height="11" viewBox="0 0 14 11" fill="none" xmlns="http://www.w3.org/2000/svg">
<path d="M14 1.25508V5.49303C14 5.49303 13.093 5.67172 12.9061 5.69522C12.7199 5.71867 12.1345 5.90767 11.7103 5.49992C11.0561 4.87292 8.7317 2.56135 8.7317 2.56135C8.7317 2.56135 8.33093 2.16809 7.68743 2.50796C7.09672 2.81931 6.22108 3.27559 5.85533 3.45326C5.16392 3.82127 4.59087 3.2374 4.59087 2.79264C4.59087 2.44766 4.80614 2.21351 5.11387 2.04132C5.94784 1.53575 7.70562 0.549097 8.43773 0.160103C8.88274 -0.0765813 9.20338 -0.0968629 9.81434 0.417832C10.5668 1.05066 11.2364 1.6275 11.2364 1.6275C11.2364 1.6275 11.4548 1.80978 11.8031 1.73636C12.6585 1.55552 14 1.25508 14 1.25508ZM4.74832 8.43586C4.86089 8.14667 4.82326 7.82321 4.60745 7.6013C4.41353 7.4028 4.13041 7.35049 3.86045 7.41235C3.93596 7.1446 3.89426 6.85961 3.6993 6.65849C3.50479 6.4605 3.2222 6.40714 2.95227 6.46957C3.02721 6.20221 2.98563 5.91725 2.79055 5.71672C2.48509 5.4034 1.95672 5.41685 1.60962 5.74771C1.26435 6.07902 1.04317 6.67928 1.35132 7.03259C1.65897 7.38413 2.01245 7.17024 2.28193 7.10883C2.20696 7.3762 1.98234 7.62488 2.25897 7.97484C2.53534 8.32497 2.92007 8.11255 3.18983 8.0517C3.11461 8.31805 2.89979 8.59171 3.16579 8.91618C3.4342 9.24165 3.87381 9.06824 4.16417 8.97804C4.05211 9.26614 3.81226 9.57669 4.12041 9.9247C4.42808 10.2752 5.13909 10.1131 5.48639 9.78168C5.83276 9.45037 5.86601 8.92528 5.56136 8.61097C5.35103 8.39533 5.03749 8.34516 4.74832 8.43586ZM11.0854 6.23105C8.57482 3.7204 9.7557 4.90178 8.4046 3.54778C8.4046 3.54778 7.99854 3.14353 7.46337 3.37835C7.08768 3.54298 6.604 3.76734 6.24006 3.93864C5.84014 4.14834 5.55232 4.21326 5.41719 4.21235C4.64406 4.2073 4.0168 3.58588 4.0168 2.81352C4.0168 2.31246 4.2828 1.87624 4.67954 1.62863C5.23742 1.24257 6.52155 0.559549 6.52155 0.559549C6.52155 0.559549 6.13035 0.0638362 5.27338 0.0638362C4.41667 0.0638362 2.62675 1.23644 2.62675 1.23644C2.62675 1.23644 2.11897 1.56168 1.39514 1.26873L0 0.7829V5.63232C0 5.63232 0.398372 5.74762 0.756322 5.89383C0.837166 5.66328 0.967612 5.45038 1.14856 5.27454C1.74241 4.70891 2.72671 4.70304 3.267 5.25937C3.42976 5.42848 3.54335 5.63023 3.60131 5.85324C3.81901 5.92044 4.01621 6.03947 4.17467 6.20274C4.33791 6.37073 4.45107 6.5736 4.50952 6.79549C4.72696 6.86274 4.92388 6.98223 5.08288 7.14561C5.26194 7.33026 5.38123 7.55331 5.43693 7.79496C5.66424 7.86117 5.86965 7.98436 6.0351 8.1535C6.3598 8.48702 6.47505 8.93952 6.40522 9.37599C6.40579 9.37599 6.40686 9.37599 6.40737 9.37698C6.41268 9.38393 6.60855 9.60228 6.73069 9.72544C6.97006 9.96503 7.36092 9.96503 7.60102 9.72544C7.83954 9.48593 7.84058 9.09584 7.60102 8.85511C7.59243 8.84655 6.73744 7.95224 6.80625 7.8829C6.87455 7.81403 7.96386 8.94748 7.98414 8.96821C8.22319 9.20733 8.6138 9.20733 8.85393 8.96821C9.09349 8.72871 9.09299 8.33861 8.85393 8.09845C8.84218 8.08727 8.79314 8.04029 8.77495 8.02159C8.77495 8.02159 7.69494 7.05949 7.77714 6.97729C7.86036 6.89458 9.20188 8.1465 9.20405 8.1465C9.4452 8.36366 9.81665 8.36205 10.0486 8.12995C10.2744 7.90425 10.2792 7.54723 10.0791 7.30665C10.0749 7.29385 9.05672 6.22983 9.13618 6.14978C9.21679 6.06868 10.2242 7.10604 10.2264 7.10818C10.4649 7.34724 10.856 7.34724 11.0961 7.10818C11.3352 6.8691 11.3352 6.47852 11.0961 6.23732C11.0929 6.23528 11.0886 6.23314 11.0854 6.23105Z" fill="#728099"/>
</svg>
