<svg width="289" height="38" viewBox="0 0 289 38" fill="none" xmlns="http://www.w3.org/2000/svg">
<circle cx="17.2472" cy="19.0001" r="17.2472" fill="#4C7FF7"/>
<mask id="mask0_4011_46607" style="mask-type:alpha" maskUnits="userSpaceOnUse" x="0" y="1" width="35" height="36">
<circle cx="17.2472" cy="19.0001" r="17.2472" fill="url(#paint0_linear_4011_46607)"/>
</mask>
<g mask="url(#mask0_4011_46607)">
<path d="M7.19971 16.2773C7.19971 15.7272 7.70199 15.314 8.24179 15.42L28.3367 19.367C28.7465 19.4475 29.042 19.8067 29.042 20.2243V29.6313H7.19971V16.2773Z" fill="url(#paint1_linear_4011_46607)"/>
<path d="M19.0568 11.7325C18.9232 10.291 19.9834 9.01426 21.4248 8.88066C22.8662 8.74706 24.143 9.80725 24.2766 11.2487C24.4102 12.6901 23.35 13.9668 21.9086 14.1004C20.4672 14.234 19.1904 13.1739 19.0568 11.7325Z" fill="url(#paint2_linear_4011_46607)"/>
<path d="M15.3674 10.128C14.3625 10.7954 13.0068 10.5218 12.3394 9.51691C11.6721 8.51202 11.9457 7.15637 12.9506 6.48899C13.9555 5.82161 15.3111 6.09521 15.9785 7.1001C16.6459 8.10499 16.3723 9.46064 15.3674 10.128Z" fill="url(#paint3_linear_4011_46607)"/>
<g style="mix-blend-mode:color-dodge">
<path d="M12.1461 21.6375C10.6337 19.5253 11.12 16.587 13.2322 15.0746C15.3444 13.5622 18.2827 14.0485 19.7951 16.1607C21.3075 18.2729 20.8212 21.2112 18.709 22.7236C16.5968 24.2359 13.6585 23.7497 12.1461 21.6375Z" fill="url(#paint4_linear_4011_46607)"/>
</g>
<path d="M5.45215 26.0448C5.45215 25.0176 6.16787 24.1292 7.17153 23.9106L27.9822 19.3778C28.5269 19.2591 29.0419 19.674 29.0419 20.2315V37.2017C29.0419 38.2308 28.3236 39.1203 27.3176 39.337L6.50983 43.8194C5.96569 43.9366 5.45215 43.5219 5.45215 42.9653V26.0448Z" fill="url(#paint5_linear_4011_46607)"/>
</g>
<path d="M41.0993 28H43.3842C43.8044 28 44.0408 27.7374 44.1458 27.4747L45.4327 24.6384H53.2852L54.5721 27.4747C54.756 27.8424 54.9398 28 55.3337 28H57.6186C58.0125 28 58.2226 27.6586 58.0651 27.3172L49.9761 9.64234C49.8974 9.48476 49.7923 9.35345 49.5297 9.35345H49.267C49.0307 9.35345 48.8994 9.48476 48.8206 9.64234L40.6529 27.3172C40.4953 27.6586 40.7054 28 41.0993 28ZM46.7196 21.7232L49.2933 15.9454H49.3721L51.9984 21.7232H46.7196ZM60.5838 18.8343C60.5838 24.0869 64.7858 28.2364 70.0121 28.2364C73.8202 28.2364 76.5253 26.5293 76.5253 26.5293C76.6303 26.4505 76.7354 26.3192 76.7354 26.1091V19.3858C76.7354 19.1232 76.5253 18.8868 76.2626 18.8868H71.2202C70.9313 18.8868 70.7212 19.0969 70.7212 19.3858V21.4606C70.7212 21.7232 70.9313 21.9333 71.2202 21.9333H73.3212V24.1656C72.796 24.3757 71.6667 24.8222 70.196 24.8222C66.8868 24.8222 64.2868 22.0646 64.2868 18.808C64.2868 15.5252 66.8868 12.7151 70.1697 12.7151C71.6141 12.7151 73.0061 13.2403 74.1354 14.2383C74.3717 14.4484 74.6081 14.4484 74.8182 14.2383L76.4465 12.5312C76.6566 12.3211 76.6303 12.006 76.4202 11.7959C74.6344 10.2726 72.3758 9.35345 70.0121 9.35345C64.7858 9.35345 60.5838 13.5817 60.5838 18.8343ZM81.899 21.0404C81.899 25.0323 85.0768 28.2626 89.2001 28.2626C93.3496 28.2626 96.5274 25.0323 96.5274 21.0404V10.1151C96.5274 9.85244 96.291 9.61607 96.0284 9.61607H93.5334C93.2446 9.61607 93.0344 9.85244 93.0344 10.1151V20.8828C93.0344 23.0889 91.4849 24.8485 89.2001 24.8485C86.9152 24.8485 85.392 23.0889 85.392 20.8565V10.1151C85.392 9.85244 85.1819 9.61607 84.893 9.61607H82.398C82.1354 9.61607 81.899 9.85244 81.899 10.1151V21.0404ZM100.406 28H102.691C103.111 28 103.347 27.7374 103.453 27.4747L104.739 24.6384H112.592L113.879 27.4747C114.063 27.8424 114.247 28 114.64 28H116.925C117.319 28 117.529 27.6586 117.372 27.3172L109.283 9.64234C109.204 9.48476 109.099 9.35345 108.836 9.35345H108.574C108.337 9.35345 108.206 9.48476 108.127 9.64234L99.9596 27.3172C99.802 27.6586 100.012 28 100.406 28ZM106.026 21.7232L108.6 15.9454H108.679L111.305 21.7232H106.026Z" fill="#26385B"/>
<path d="M130.044 7.78125V30.2187" stroke="url(#paint6_linear_4011_46607)" stroke-width="2.11176" stroke-linecap="round"/>
<path d="M143.577 16.9692C143.521 16.9692 143.473 16.9495 143.433 16.9101C143.394 16.8707 143.374 16.8228 143.374 16.7665V11.2675C143.374 11.2056 143.394 11.1549 143.433 11.1155C143.473 11.076 143.521 11.0563 143.577 11.0563H145.841C146.28 11.0563 146.663 11.1267 146.99 11.2675C147.316 11.4027 147.57 11.611 147.75 11.8926C147.93 12.1685 148.02 12.5148 148.02 12.9316C148.02 13.3539 147.93 13.7031 147.75 13.979C147.57 14.2493 147.316 14.452 146.99 14.5872C146.663 14.7223 146.28 14.7899 145.841 14.7899H144.582V16.7665C144.582 16.8228 144.562 16.8707 144.523 16.9101C144.489 16.9495 144.441 16.9692 144.379 16.9692H143.577ZM144.565 13.8523H145.798C146.125 13.8523 146.376 13.7763 146.55 13.6242C146.725 13.4665 146.812 13.2357 146.812 12.9316C146.812 12.65 146.73 12.4247 146.567 12.2558C146.404 12.0812 146.148 11.9939 145.798 11.9939H144.565V13.8523ZM150.201 16.9692C150.145 16.9692 150.097 16.9495 150.057 16.9101C150.018 16.8707 149.998 16.8228 149.998 16.7665V11.2675C149.998 11.2056 150.018 11.1549 150.057 11.1155C150.097 11.076 150.145 11.0563 150.201 11.0563H152.389C153.07 11.0563 153.608 11.214 154.002 11.5294C154.396 11.8447 154.593 12.3037 154.593 12.9062C154.593 13.3229 154.489 13.6693 154.281 13.9452C154.078 14.2211 153.805 14.4211 153.461 14.5449L154.695 16.6989C154.712 16.7327 154.72 16.7637 154.72 16.7919C154.72 16.8425 154.7 16.8848 154.661 16.9186C154.627 16.9523 154.588 16.9692 154.543 16.9692H153.774C153.678 16.9692 153.605 16.9439 153.554 16.8932C153.504 16.8425 153.464 16.7919 153.436 16.7412L152.346 14.7392H151.172V16.7665C151.172 16.8228 151.153 16.8707 151.113 16.9101C151.079 16.9495 151.032 16.9692 150.97 16.9692H150.201ZM151.172 13.7847H152.363C152.707 13.7847 152.963 13.7087 153.132 13.5566C153.301 13.399 153.385 13.1793 153.385 12.8978C153.385 12.6162 153.301 12.3966 153.132 12.2389C152.969 12.0756 152.712 11.9939 152.363 11.9939H151.172V13.7847ZM158.993 17.0537C158.492 17.0537 158.061 16.9721 157.701 16.8087C157.341 16.6398 157.059 16.3836 156.856 16.0401C156.654 15.6909 156.544 15.2573 156.527 14.7392C156.521 14.4971 156.518 14.2577 156.518 14.0212C156.518 13.7847 156.521 13.5426 156.527 13.2948C156.544 12.7823 156.656 12.3543 156.865 12.0108C157.073 11.6673 157.357 11.4083 157.718 11.2337C158.084 11.0591 158.509 10.9719 158.993 10.9719C159.478 10.9719 159.903 11.0591 160.269 11.2337C160.635 11.4083 160.922 11.6673 161.13 12.0108C161.339 12.3543 161.451 12.7823 161.468 13.2948C161.48 13.5426 161.485 13.7847 161.485 14.0212C161.485 14.2577 161.48 14.4971 161.468 14.7392C161.451 15.2573 161.342 15.6909 161.139 16.0401C160.936 16.3836 160.652 16.6398 160.286 16.8087C159.925 16.9721 159.495 17.0537 158.993 17.0537ZM158.993 16.0823C159.359 16.0823 159.658 15.9753 159.889 15.7613C160.12 15.5417 160.244 15.1869 160.26 14.697C160.272 14.4492 160.277 14.2211 160.277 14.0128C160.277 13.7988 160.272 13.5707 160.26 13.3286C160.249 13.002 160.187 12.7373 160.075 12.5346C159.968 12.3262 159.821 12.177 159.635 12.0869C159.45 11.9911 159.236 11.9433 158.993 11.9433C158.757 11.9433 158.546 11.9911 158.36 12.0869C158.174 12.177 158.025 12.3262 157.912 12.5346C157.805 12.7373 157.746 13.002 157.735 13.3286C157.729 13.5707 157.726 13.7988 157.726 14.0128C157.726 14.2211 157.729 14.4492 157.735 14.697C157.752 15.1869 157.876 15.5417 158.106 15.7613C158.337 15.9753 158.633 16.0823 158.993 16.0823ZM165.2 16.9692C165.11 16.9692 165.04 16.9467 164.989 16.9017C164.938 16.8566 164.902 16.8003 164.879 16.7327L163.072 11.3097C163.06 11.2816 163.055 11.2562 163.055 11.2337C163.055 11.183 163.072 11.1408 163.105 11.107C163.139 11.0732 163.181 11.0563 163.232 11.0563H163.975C164.054 11.0563 164.113 11.0788 164.153 11.1239C164.198 11.1633 164.226 11.2027 164.237 11.2422L165.665 15.5924L167.084 11.2422C167.101 11.2027 167.129 11.1633 167.168 11.1239C167.214 11.0788 167.275 11.0563 167.354 11.0563H168.098C168.143 11.0563 168.182 11.0732 168.216 11.107C168.255 11.1408 168.275 11.183 168.275 11.2337C168.275 11.2562 168.269 11.2816 168.258 11.3097L166.45 16.7327C166.428 16.8003 166.391 16.8566 166.341 16.9017C166.29 16.9467 166.22 16.9692 166.129 16.9692H165.2ZM170.428 16.9692C170.371 16.9692 170.323 16.9495 170.284 16.9101C170.245 16.8707 170.225 16.8228 170.225 16.7665V11.2591C170.225 11.2027 170.245 11.1549 170.284 11.1155C170.323 11.076 170.371 11.0563 170.428 11.0563H171.222C171.284 11.0563 171.331 11.076 171.365 11.1155C171.405 11.1549 171.424 11.2027 171.424 11.2591V16.7665C171.424 16.8228 171.405 16.8707 171.365 16.9101C171.331 16.9495 171.284 16.9692 171.222 16.9692H170.428ZM174.008 16.9692C173.951 16.9692 173.903 16.9495 173.864 16.9101C173.825 16.8707 173.805 16.8228 173.805 16.7665V11.2675C173.805 11.2056 173.825 11.1549 173.864 11.1155C173.903 11.076 173.951 11.0563 174.008 11.0563H176.069C176.637 11.0563 177.105 11.1436 177.471 11.3182C177.843 11.4928 178.121 11.7518 178.307 12.0953C178.499 12.4388 178.597 12.8584 178.603 13.3539C178.614 13.6017 178.62 13.8213 178.62 14.0128C178.62 14.2042 178.614 14.4211 178.603 14.6632C178.592 15.1869 178.496 15.6205 178.316 15.964C178.135 16.3019 177.862 16.5553 177.496 16.7243C177.136 16.8876 176.674 16.9692 176.111 16.9692H174.008ZM174.979 15.9978H176.069C176.384 15.9978 176.64 15.9528 176.837 15.8627C177.035 15.7726 177.178 15.629 177.268 15.4319C177.364 15.2292 177.415 14.9645 177.42 14.6379C177.426 14.4689 177.429 14.3225 177.429 14.1986C177.434 14.0691 177.434 13.9424 177.429 13.8185C177.429 13.689 177.426 13.5426 177.42 13.3793C177.409 12.9175 177.294 12.5768 177.074 12.3572C176.854 12.1375 176.505 12.0277 176.026 12.0277H174.979V15.9978ZM181.003 16.9692C180.947 16.9692 180.899 16.9495 180.859 16.9101C180.82 16.8707 180.8 16.8228 180.8 16.7665V11.2591C180.8 11.2027 180.82 11.1549 180.859 11.1155C180.899 11.076 180.947 11.0563 181.003 11.0563H181.797C181.859 11.0563 181.907 11.076 181.94 11.1155C181.98 11.1549 182 11.2027 182 11.2591V16.7665C182 16.8228 181.98 16.8707 181.94 16.9101C181.907 16.9495 181.859 16.9692 181.797 16.9692H181.003ZM184.583 16.9692C184.527 16.9692 184.479 16.9495 184.439 16.9101C184.4 16.8707 184.38 16.8228 184.38 16.7665V11.2675C184.38 11.2056 184.4 11.1549 184.439 11.1155C184.479 11.076 184.527 11.0563 184.583 11.0563H185.233C185.312 11.0563 185.369 11.076 185.402 11.1155C185.442 11.1492 185.467 11.1746 185.478 11.1915L187.911 14.9757V11.2675C187.911 11.2056 187.928 11.1549 187.962 11.1155C188.001 11.076 188.052 11.0563 188.114 11.0563H188.823C188.885 11.0563 188.936 11.076 188.975 11.1155C189.015 11.1549 189.035 11.2056 189.035 11.2675V16.7581C189.035 16.82 189.015 16.8707 188.975 16.9101C188.936 16.9495 188.888 16.9692 188.832 16.9692H188.173C188.094 16.9692 188.038 16.9495 188.004 16.9101C187.97 16.8707 187.945 16.8453 187.928 16.8341L185.504 13.1343V16.7665C185.504 16.8228 185.484 16.8707 185.445 16.9101C185.405 16.9495 185.354 16.9692 185.292 16.9692H184.583ZM193.706 17.0537C193.188 17.0537 192.746 16.9636 192.38 16.7834C192.019 16.6032 191.738 16.3442 191.535 16.0063C191.338 15.6628 191.231 15.2545 191.214 14.7815C191.208 14.5393 191.206 14.2803 191.206 14.0043C191.206 13.7228 191.208 13.4581 191.214 13.2103C191.231 12.7429 191.338 12.3431 191.535 12.0108C191.738 11.6786 192.022 11.4224 192.388 11.2422C192.76 11.062 193.199 10.9719 193.706 10.9719C194.117 10.9719 194.477 11.0282 194.787 11.1408C195.097 11.2478 195.353 11.3886 195.556 11.5631C195.764 11.7321 195.919 11.9151 196.02 12.1122C196.127 12.3093 196.184 12.4923 196.189 12.6613C196.195 12.7119 196.181 12.7542 196.147 12.788C196.113 12.8218 196.068 12.8386 196.012 12.8386H195.142C195.086 12.8386 195.043 12.8274 195.015 12.8049C194.987 12.7823 194.962 12.7485 194.939 12.7035C194.894 12.5852 194.824 12.4698 194.728 12.3572C194.632 12.2389 194.503 12.1404 194.339 12.0615C194.176 11.9827 193.965 11.9433 193.706 11.9433C193.323 11.9433 193.016 12.0446 192.785 12.2474C192.56 12.4501 192.439 12.7851 192.422 13.2525C192.405 13.7425 192.405 14.238 192.422 14.7392C192.439 15.2179 192.563 15.5614 192.794 15.7698C193.03 15.9781 193.34 16.0823 193.723 16.0823C193.976 16.0823 194.202 16.0373 194.399 15.9471C194.601 15.857 194.759 15.7163 194.872 15.5248C194.99 15.3333 195.049 15.0884 195.049 14.7899V14.528H194.019C193.962 14.528 193.914 14.5083 193.875 14.4689C193.835 14.4295 193.816 14.3788 193.816 14.3169V13.8692C193.816 13.8072 193.835 13.7566 193.875 13.7171C193.914 13.6777 193.962 13.658 194.019 13.658H196.037C196.099 13.658 196.147 13.6777 196.181 13.7171C196.22 13.7566 196.24 13.8072 196.24 13.8692V14.7561C196.24 15.2292 196.136 15.6374 195.928 15.9809C195.725 16.3244 195.432 16.5891 195.049 16.775C194.672 16.9608 194.224 17.0537 193.706 17.0537ZM202.662 16.9692C202.606 16.9692 202.558 16.9495 202.519 16.9101C202.479 16.8707 202.46 16.8228 202.46 16.7665V12.0953H200.897C200.841 12.0953 200.793 12.0756 200.753 12.0362C200.714 11.9968 200.694 11.9489 200.694 11.8926V11.2675C200.694 11.2056 200.714 11.1549 200.753 11.1155C200.793 11.076 200.841 11.0563 200.897 11.0563H205.205C205.267 11.0563 205.318 11.076 205.357 11.1155C205.396 11.1549 205.416 11.2056 205.416 11.2675V11.8926C205.416 11.9489 205.396 11.9968 205.357 12.0362C205.318 12.0756 205.267 12.0953 205.205 12.0953H203.651V16.7665C203.651 16.8228 203.631 16.8707 203.591 16.9101C203.552 16.9495 203.501 16.9692 203.439 16.9692H202.662ZM207.532 16.9692C207.475 16.9692 207.428 16.9495 207.388 16.9101C207.349 16.8707 207.329 16.8228 207.329 16.7665V11.2675C207.329 11.2056 207.349 11.1549 207.388 11.1155C207.428 11.076 207.475 11.0563 207.532 11.0563H209.72C210.401 11.0563 210.939 11.214 211.333 11.5294C211.727 11.8447 211.924 12.3037 211.924 12.9062C211.924 13.3229 211.82 13.6693 211.612 13.9452C211.409 14.2211 211.136 14.4211 210.792 14.5449L212.026 16.6989C212.042 16.7327 212.051 16.7637 212.051 16.7919C212.051 16.8425 212.031 16.8848 211.992 16.9186C211.958 16.9523 211.919 16.9692 211.874 16.9692H211.105C211.009 16.9692 210.936 16.9439 210.885 16.8932C210.835 16.8425 210.795 16.7919 210.767 16.7412L209.677 14.7392H208.503V16.7665C208.503 16.8228 208.483 16.8707 208.444 16.9101C208.41 16.9495 208.362 16.9692 208.3 16.9692H207.532ZM208.503 13.7847H209.694C210.038 13.7847 210.294 13.7087 210.463 13.5566C210.632 13.399 210.716 13.1793 210.716 12.8978C210.716 12.6162 210.632 12.3966 210.463 12.2389C210.3 12.0756 210.043 11.9939 209.694 11.9939H208.503V13.7847ZM213.705 16.9692C213.66 16.9692 213.618 16.9523 213.579 16.9186C213.545 16.8848 213.528 16.8425 213.528 16.7919C213.528 16.7693 213.534 16.744 213.545 16.7158L215.581 11.2675C215.597 11.2112 215.628 11.1633 215.673 11.1239C215.724 11.0788 215.792 11.0563 215.876 11.0563H216.797C216.881 11.0563 216.946 11.0788 216.991 11.1239C217.036 11.1633 217.07 11.2112 217.093 11.2675L219.128 16.7158C219.134 16.744 219.137 16.7693 219.137 16.7919C219.137 16.8425 219.12 16.8848 219.086 16.9186C219.052 16.9523 219.013 16.9692 218.968 16.9692H218.233C218.154 16.9692 218.095 16.9523 218.056 16.9186C218.022 16.8791 217.999 16.8425 217.988 16.8087L217.591 15.7782H215.082L214.685 16.8087C214.674 16.8425 214.649 16.8791 214.609 16.9186C214.575 16.9523 214.519 16.9692 214.44 16.9692H213.705ZM215.378 14.8068H217.295L216.332 12.1967L215.378 14.8068ZM221.184 16.9692C221.128 16.9692 221.08 16.9495 221.04 16.9101C221.001 16.8707 220.981 16.8228 220.981 16.7665V11.2675C220.981 11.2056 221.001 11.1549 221.04 11.1155C221.08 11.076 221.128 11.0563 221.184 11.0563H221.834C221.913 11.0563 221.97 11.076 222.003 11.1155C222.043 11.1492 222.068 11.1746 222.079 11.1915L224.512 14.9757V11.2675C224.512 11.2056 224.529 11.1549 224.563 11.1155C224.602 11.076 224.653 11.0563 224.715 11.0563H225.424C225.486 11.0563 225.537 11.076 225.576 11.1155C225.616 11.1549 225.636 11.2056 225.636 11.2675V16.7581C225.636 16.82 225.616 16.8707 225.576 16.9101C225.537 16.9495 225.489 16.9692 225.433 16.9692H224.774C224.695 16.9692 224.639 16.9495 224.605 16.9101C224.571 16.8707 224.546 16.8453 224.529 16.8341L222.105 13.1343V16.7665C222.105 16.8228 222.085 16.8707 222.046 16.9101C222.006 16.9495 221.955 16.9692 221.893 16.9692H221.184ZM230.062 17.0537C229.538 17.0537 229.099 16.9777 228.744 16.8256C228.395 16.668 228.128 16.4652 227.942 16.2175C227.762 15.964 227.666 15.6994 227.655 15.4234C227.655 15.3728 227.672 15.3305 227.705 15.2967C227.739 15.2629 227.781 15.246 227.832 15.246H228.584C228.657 15.246 228.71 15.2629 228.744 15.2967C228.784 15.3249 228.817 15.3615 228.846 15.4065C228.879 15.5135 228.944 15.6205 229.04 15.7275C229.136 15.8289 229.265 15.9134 229.428 15.9809C229.597 16.0485 229.809 16.0823 230.062 16.0823C230.467 16.0823 230.769 16.0147 230.966 15.8796C231.169 15.7444 231.27 15.5614 231.27 15.3305C231.27 15.1672 231.216 15.0377 231.109 14.942C231.002 14.8406 230.836 14.7505 230.611 14.6716C230.391 14.5872 230.099 14.4999 229.733 14.4098C229.31 14.3084 228.955 14.1874 228.668 14.0466C228.387 13.9002 228.173 13.7171 228.026 13.4975C227.886 13.2779 227.815 12.9991 227.815 12.6613C227.815 12.3346 227.902 12.0446 228.077 11.7912C228.257 11.5378 228.511 11.3379 228.837 11.1915C229.169 11.0451 229.564 10.9719 230.02 10.9719C230.386 10.9719 230.71 11.0225 230.991 11.1239C231.273 11.2196 231.506 11.3492 231.692 11.5125C231.878 11.6701 232.019 11.8419 232.115 12.0277C232.216 12.2079 232.27 12.3853 232.275 12.5599C232.275 12.6049 232.258 12.6472 232.224 12.6866C232.196 12.7204 232.154 12.7373 232.098 12.7373H231.312C231.267 12.7373 231.222 12.726 231.177 12.7035C231.132 12.681 231.095 12.6387 231.067 12.5768C231.033 12.4022 230.924 12.253 230.738 12.1291C230.552 12.0052 230.313 11.9433 230.02 11.9433C229.716 11.9433 229.471 11.9996 229.285 12.1122C229.099 12.2248 229.006 12.3994 229.006 12.6359C229.006 12.7936 229.051 12.9259 229.141 13.0329C229.237 13.1343 229.386 13.2244 229.589 13.3032C229.797 13.3821 230.07 13.4665 230.408 13.5566C230.887 13.6636 231.278 13.7875 231.582 13.9283C231.887 14.0691 232.109 14.2493 232.25 14.4689C232.391 14.6829 232.461 14.956 232.461 15.2883C232.461 15.6599 232.36 15.9781 232.157 16.2428C231.96 16.5018 231.681 16.7017 231.321 16.8425C230.96 16.9833 230.541 17.0537 230.062 17.0537ZM234.688 16.9692C234.631 16.9692 234.583 16.9495 234.544 16.9101C234.505 16.8707 234.485 16.8228 234.485 16.7665V11.2675C234.485 11.2056 234.505 11.1549 234.544 11.1155C234.583 11.076 234.631 11.0563 234.688 11.0563H236.951C237.391 11.0563 237.774 11.1267 238.1 11.2675C238.427 11.4027 238.68 11.611 238.86 11.8926C239.041 12.1685 239.131 12.5148 239.131 12.9316C239.131 13.3539 239.041 13.7031 238.86 13.979C238.68 14.2493 238.427 14.452 238.1 14.5872C237.774 14.7223 237.391 14.7899 236.951 14.7899H235.693V16.7665C235.693 16.8228 235.673 16.8707 235.634 16.9101C235.6 16.9495 235.552 16.9692 235.49 16.9692H234.688ZM235.676 13.8523H236.909C237.236 13.8523 237.486 13.7763 237.661 13.6242C237.836 13.4665 237.923 13.2357 237.923 12.9316C237.923 12.65 237.841 12.4247 237.678 12.2558C237.515 12.0812 237.258 11.9939 236.909 11.9939H235.676V13.8523ZM240.374 16.9692C240.329 16.9692 240.287 16.9523 240.248 16.9186C240.214 16.8848 240.197 16.8425 240.197 16.7919C240.197 16.7693 240.203 16.744 240.214 16.7158L242.25 11.2675C242.267 11.2112 242.298 11.1633 242.343 11.1239C242.393 11.0788 242.461 11.0563 242.545 11.0563H243.466C243.551 11.0563 243.615 11.0788 243.66 11.1239C243.705 11.1633 243.739 11.2112 243.762 11.2675L245.797 16.7158C245.803 16.744 245.806 16.7693 245.806 16.7919C245.806 16.8425 245.789 16.8848 245.755 16.9186C245.721 16.9523 245.682 16.9692 245.637 16.9692H244.902C244.823 16.9692 244.764 16.9523 244.725 16.9186C244.691 16.8791 244.668 16.8425 244.657 16.8087L244.26 15.7782H241.751L241.354 16.8087C241.343 16.8425 241.318 16.8791 241.278 16.9186C241.244 16.9523 241.188 16.9692 241.109 16.9692H240.374ZM242.047 14.8068H243.964L243.001 12.1967L242.047 14.8068ZM247.853 16.9692C247.797 16.9692 247.749 16.9495 247.709 16.9101C247.67 16.8707 247.65 16.8228 247.65 16.7665V11.2675C247.65 11.2056 247.67 11.1549 247.709 11.1155C247.749 11.076 247.797 11.0563 247.853 11.0563H250.041C250.722 11.0563 251.26 11.214 251.654 11.5294C252.048 11.8447 252.246 12.3037 252.246 12.9062C252.246 13.3229 252.141 13.6693 251.933 13.9452C251.73 14.2211 251.457 14.4211 251.114 14.5449L252.347 16.6989C252.364 16.7327 252.372 16.7637 252.372 16.7919C252.372 16.8425 252.353 16.8848 252.313 16.9186C252.279 16.9523 252.24 16.9692 252.195 16.9692H251.426C251.33 16.9692 251.257 16.9439 251.207 16.8932C251.156 16.8425 251.116 16.7919 251.088 16.7412L249.999 14.7392H248.825V16.7665C248.825 16.8228 248.805 16.8707 248.765 16.9101C248.732 16.9495 248.684 16.9692 248.622 16.9692H247.853ZM248.825 13.7847H250.016C250.359 13.7847 250.615 13.7087 250.784 13.5566C250.953 13.399 251.038 13.1793 251.038 12.8978C251.038 12.6162 250.953 12.3966 250.784 12.2389C250.621 12.0756 250.365 11.9939 250.016 11.9939H248.825V13.7847ZM254.593 16.9692C254.536 16.9692 254.488 16.9495 254.449 16.9101C254.41 16.8707 254.39 16.8228 254.39 16.7665V11.2675C254.39 11.2056 254.41 11.1549 254.449 11.1155C254.488 11.076 254.536 11.0563 254.593 11.0563H258.309C258.371 11.0563 258.422 11.076 258.461 11.1155C258.501 11.1549 258.52 11.2056 258.52 11.2675V11.825C258.52 11.8813 258.501 11.9292 258.461 11.9686C258.422 12.008 258.371 12.0277 258.309 12.0277H255.53V13.5229H258.123C258.185 13.5229 258.236 13.5426 258.275 13.582C258.315 13.6158 258.335 13.6636 258.335 13.7256V14.2493C258.335 14.3112 258.315 14.3619 258.275 14.4013C258.236 14.4351 258.185 14.452 258.123 14.452H255.53V15.9978H258.377C258.439 15.9978 258.489 16.0175 258.529 16.057C258.568 16.0964 258.588 16.1471 258.588 16.209V16.7665C258.588 16.8228 258.568 16.8707 258.529 16.9101C258.489 16.9495 258.439 16.9692 258.377 16.9692H254.593ZM260.903 16.9692C260.847 16.9692 260.799 16.9495 260.759 16.9101C260.72 16.8707 260.7 16.8228 260.7 16.7665V11.2675C260.7 11.2056 260.72 11.1549 260.759 11.1155C260.799 11.076 260.847 11.0563 260.903 11.0563H261.554C261.632 11.0563 261.689 11.076 261.722 11.1155C261.762 11.1492 261.787 11.1746 261.798 11.1915L264.231 14.9757V11.2675C264.231 11.2056 264.248 11.1549 264.282 11.1155C264.321 11.076 264.372 11.0563 264.434 11.0563H265.143C265.205 11.0563 265.256 11.076 265.296 11.1155C265.335 11.1549 265.355 11.2056 265.355 11.2675V16.7581C265.355 16.82 265.335 16.8707 265.296 16.9101C265.256 16.9495 265.208 16.9692 265.152 16.9692H264.493C264.414 16.9692 264.358 16.9495 264.324 16.9101C264.29 16.8707 264.265 16.8453 264.248 16.8341L261.824 13.1343V16.7665C261.824 16.8228 261.804 16.8707 261.765 16.9101C261.725 16.9495 261.675 16.9692 261.613 16.9692H260.903ZM270.009 17.0537C269.486 17.0537 269.041 16.9636 268.675 16.7834C268.314 16.5976 268.038 16.3357 267.847 15.9978C267.655 15.6543 267.548 15.2432 267.526 14.7646C267.52 14.5337 267.517 14.2859 267.517 14.0212C267.517 13.7566 267.52 13.5031 267.526 13.261C267.548 12.788 267.655 12.3797 267.847 12.0362C268.044 11.6927 268.323 11.4308 268.683 11.2506C269.049 11.0648 269.491 10.9719 270.009 10.9719C270.392 10.9719 270.736 11.0225 271.04 11.1239C271.344 11.2253 271.603 11.366 271.817 11.5463C272.031 11.7208 272.197 11.9264 272.315 12.1629C272.434 12.3994 272.495 12.6556 272.501 12.9316C272.507 12.9822 272.49 13.0245 272.45 13.0583C272.417 13.0921 272.374 13.1089 272.324 13.1089H271.521C271.459 13.1089 271.409 13.0949 271.369 13.0667C271.33 13.0329 271.302 12.9794 271.285 12.9062C271.195 12.5346 271.04 12.2811 270.82 12.146C270.601 12.0108 270.327 11.9433 270.001 11.9433C269.623 11.9433 269.322 12.0503 269.097 12.2642C268.872 12.4726 268.751 12.8189 268.734 13.3032C268.717 13.765 268.717 14.238 268.734 14.7223C268.751 15.2066 268.872 15.5558 269.097 15.7698C269.322 15.9781 269.623 16.0823 270.001 16.0823C270.327 16.0823 270.601 16.0147 270.82 15.8796C271.04 15.7388 271.195 15.4854 271.285 15.1193C271.302 15.0405 271.33 14.987 271.369 14.9588C271.409 14.9307 271.459 14.9166 271.521 14.9166H272.324C272.374 14.9166 272.417 14.9335 272.45 14.9673C272.49 15.0011 272.507 15.0433 272.501 15.094C272.495 15.3699 272.434 15.6262 272.315 15.8627C272.197 16.0992 272.031 16.3076 271.817 16.4878C271.603 16.6623 271.344 16.8003 271.04 16.9017C270.736 17.003 270.392 17.0537 270.009 17.0537ZM276.159 16.9692C276.103 16.9692 276.055 16.9495 276.015 16.9101C275.976 16.8707 275.956 16.8228 275.956 16.7665V14.8575L273.963 11.3266C273.957 11.3154 273.952 11.3013 273.946 11.2844C273.94 11.2675 273.937 11.2506 273.937 11.2337C273.937 11.183 273.954 11.1408 273.988 11.107C274.022 11.0732 274.061 11.0563 274.106 11.0563H274.858C274.926 11.0563 274.979 11.0732 275.019 11.107C275.064 11.1408 275.095 11.1774 275.112 11.2168L276.548 13.6749L277.975 11.2168C277.998 11.1774 278.029 11.1408 278.068 11.107C278.113 11.0732 278.169 11.0563 278.237 11.0563H278.98C279.031 11.0563 279.073 11.0732 279.107 11.107C279.141 11.1408 279.158 11.183 279.158 11.2337C279.158 11.2506 279.155 11.2675 279.149 11.2844C279.149 11.3013 279.144 11.3154 279.132 11.3266L277.139 14.8575V16.7665C277.139 16.8228 277.119 16.8707 277.08 16.9101C277.04 16.9495 276.99 16.9692 276.928 16.9692H276.159ZM143.577 26.9692C143.521 26.9692 143.473 26.9495 143.433 26.9101C143.394 26.8707 143.374 26.8228 143.374 26.7665V21.2591C143.374 21.2027 143.394 21.1549 143.433 21.1155C143.473 21.076 143.521 21.0563 143.577 21.0563H144.371C144.433 21.0563 144.481 21.076 144.515 21.1155C144.554 21.1549 144.574 21.2027 144.574 21.2591V26.7665C144.574 26.8228 144.554 26.8707 144.515 26.9101C144.481 26.9495 144.433 26.9692 144.371 26.9692H143.577ZM147.157 26.9692C147.101 26.9692 147.053 26.9495 147.013 26.9101C146.974 26.8707 146.954 26.8228 146.954 26.7665V21.2675C146.954 21.2056 146.974 21.1549 147.013 21.1155C147.053 21.076 147.101 21.0563 147.157 21.0563H147.807C147.886 21.0563 147.943 21.076 147.976 21.1155C148.016 21.1492 148.041 21.1746 148.052 21.1915L150.485 24.9757V21.2675C150.485 21.2056 150.502 21.1549 150.536 21.1155C150.575 21.076 150.626 21.0563 150.688 21.0563H151.397C151.459 21.0563 151.51 21.076 151.549 21.1155C151.589 21.1549 151.609 21.2056 151.609 21.2675V26.7581C151.609 26.82 151.589 26.8707 151.549 26.9101C151.51 26.9495 151.462 26.9692 151.406 26.9692H150.747C150.668 26.9692 150.612 26.9495 150.578 26.9101C150.544 26.8707 150.519 26.8453 150.502 26.8341L148.078 23.1343V26.7665C148.078 26.8228 148.058 26.8707 148.019 26.9101C147.979 26.9495 147.929 26.9692 147.867 26.9692H147.157ZM158.266 26.9692C158.21 26.9692 158.162 26.9495 158.122 26.9101C158.083 26.8707 158.063 26.8228 158.063 26.7665V22.0953H156.501C156.444 22.0953 156.396 22.0756 156.357 22.0362C156.318 21.9968 156.298 21.9489 156.298 21.8926V21.2675C156.298 21.2056 156.318 21.1549 156.357 21.1155C156.396 21.076 156.444 21.0563 156.501 21.0563H160.809C160.87 21.0563 160.921 21.076 160.961 21.1155C161 21.1549 161.02 21.2056 161.02 21.2675V21.8926C161.02 21.9489 161 21.9968 160.961 22.0362C160.921 22.0756 160.87 22.0953 160.809 22.0953H159.254V26.7665C159.254 26.8228 159.235 26.8707 159.195 26.9101C159.156 26.9495 159.105 26.9692 159.043 26.9692H158.266ZM163.135 26.9692C163.079 26.9692 163.031 26.9523 162.992 26.9186C162.952 26.8791 162.933 26.8285 162.933 26.7665V21.2675C162.933 21.2056 162.952 21.1549 162.992 21.1155C163.031 21.076 163.079 21.0563 163.135 21.0563H163.904C163.966 21.0563 164.014 21.076 164.048 21.1155C164.087 21.1549 164.107 21.2056 164.107 21.2675V23.4468H166.599V21.2675C166.599 21.2056 166.618 21.1549 166.658 21.1155C166.697 21.076 166.745 21.0563 166.801 21.0563H167.562C167.624 21.0563 167.674 21.076 167.714 21.1155C167.753 21.1549 167.773 21.2056 167.773 21.2675V26.7665C167.773 26.8228 167.753 26.8707 167.714 26.9101C167.674 26.9495 167.624 26.9692 167.562 26.9692H166.801C166.745 26.9692 166.697 26.9495 166.658 26.9101C166.618 26.8707 166.599 26.8228 166.599 26.7665V24.5027H164.107V26.7665C164.107 26.8228 164.087 26.8707 164.048 26.9101C164.014 26.9495 163.966 26.9692 163.904 26.9692H163.135ZM170.345 26.9692C170.289 26.9692 170.241 26.9495 170.201 26.9101C170.162 26.8707 170.142 26.8228 170.142 26.7665V21.2675C170.142 21.2056 170.162 21.1549 170.201 21.1155C170.241 21.076 170.289 21.0563 170.345 21.0563H174.062C174.124 21.0563 174.174 21.076 174.214 21.1155C174.253 21.1549 174.273 21.2056 174.273 21.2675V21.825C174.273 21.8813 174.253 21.9292 174.214 21.9686C174.174 22.008 174.124 22.0277 174.062 22.0277H171.283V23.5229H173.876C173.938 23.5229 173.989 23.5426 174.028 23.582C174.067 23.6158 174.087 23.6636 174.087 23.7256V24.2493C174.087 24.3112 174.067 24.3619 174.028 24.4013C173.989 24.4351 173.938 24.452 173.876 24.452H171.283V25.9978H174.129C174.191 25.9978 174.242 26.0175 174.281 26.057C174.321 26.0964 174.341 26.1471 174.341 26.209V26.7665C174.341 26.8228 174.321 26.8707 174.281 26.9101C174.242 26.9495 174.191 26.9692 174.129 26.9692H170.345ZM181.796 27.0537C181.306 27.0537 180.881 26.9721 180.52 26.8087C180.16 26.6398 179.881 26.3836 179.684 26.0401C179.487 25.6909 179.388 25.246 179.388 24.7054V21.2675C179.388 21.2056 179.408 21.1549 179.447 21.1155C179.487 21.076 179.535 21.0563 179.591 21.0563H180.36C180.422 21.0563 180.47 21.076 180.503 21.1155C180.543 21.1549 180.562 21.2056 180.562 21.2675V24.7054C180.562 25.1672 180.672 25.5107 180.892 25.736C181.112 25.9556 181.413 26.0654 181.796 26.0654C182.179 26.0654 182.477 25.9556 182.691 25.736C182.911 25.5107 183.021 25.1672 183.021 24.7054V21.2675C183.021 21.2056 183.04 21.1549 183.08 21.1155C183.119 21.076 183.17 21.0563 183.232 21.0563H183.992C184.054 21.0563 184.102 21.076 184.136 21.1155C184.175 21.1549 184.195 21.2056 184.195 21.2675V24.7054C184.195 25.246 184.096 25.6909 183.899 26.0401C183.708 26.3836 183.432 26.6398 183.071 26.8087C182.716 26.9721 182.291 27.0537 181.796 27.0537ZM188.569 27.0537C188.046 27.0537 187.606 26.9777 187.252 26.8256C186.902 26.668 186.635 26.4652 186.449 26.2175C186.269 25.964 186.173 25.6994 186.162 25.4234C186.162 25.3728 186.179 25.3305 186.213 25.2967C186.246 25.2629 186.289 25.246 186.339 25.246H187.091C187.164 25.246 187.218 25.2629 187.252 25.2967C187.291 25.3249 187.325 25.3615 187.353 25.4065C187.387 25.5135 187.452 25.6205 187.547 25.7275C187.643 25.8289 187.772 25.9134 187.936 25.9809C188.105 26.0485 188.316 26.0823 188.569 26.0823C188.975 26.0823 189.276 26.0147 189.473 25.8796C189.676 25.7444 189.777 25.5614 189.777 25.3305C189.777 25.1672 189.724 25.0377 189.617 24.942C189.51 24.8406 189.344 24.7505 189.118 24.6716C188.899 24.5872 188.606 24.4999 188.24 24.4098C187.818 24.3084 187.463 24.1874 187.176 24.0466C186.894 23.9002 186.68 23.7171 186.534 23.4975C186.393 23.2779 186.322 22.9991 186.322 22.6613C186.322 22.3346 186.41 22.0446 186.584 21.7912C186.764 21.5378 187.018 21.3379 187.345 21.1915C187.677 21.0451 188.071 20.9719 188.527 20.9719C188.893 20.9719 189.217 21.0225 189.499 21.1239C189.78 21.2196 190.014 21.3492 190.2 21.5125C190.385 21.6701 190.526 21.8419 190.622 22.0277C190.723 22.2079 190.777 22.3853 190.782 22.5599C190.782 22.6049 190.766 22.6472 190.732 22.6866C190.704 22.7204 190.661 22.7373 190.605 22.7373H189.819C189.774 22.7373 189.729 22.726 189.684 22.7035C189.639 22.681 189.603 22.6387 189.575 22.5768C189.541 22.4022 189.431 22.253 189.245 22.1291C189.059 22.0052 188.82 21.9433 188.527 21.9433C188.223 21.9433 187.978 21.9996 187.792 22.1122C187.606 22.2248 187.513 22.3994 187.513 22.6359C187.513 22.7936 187.559 22.9259 187.649 23.0329C187.744 23.1343 187.894 23.2244 188.096 23.3032C188.305 23.3821 188.578 23.4665 188.916 23.5566C189.394 23.6636 189.786 23.7875 190.09 23.9283C190.394 24.0691 190.616 24.2493 190.757 24.4689C190.898 24.6829 190.968 24.956 190.968 25.2883C190.968 25.6599 190.867 25.9781 190.664 26.2428C190.467 26.5018 190.188 26.7017 189.828 26.8425C189.468 26.9833 189.048 27.0537 188.569 27.0537ZM193.195 26.9692C193.139 26.9692 193.091 26.9495 193.051 26.9101C193.012 26.8707 192.992 26.8228 192.992 26.7665V21.2675C192.992 21.2056 193.012 21.1549 193.051 21.1155C193.091 21.076 193.139 21.0563 193.195 21.0563H196.912C196.974 21.0563 197.024 21.076 197.064 21.1155C197.103 21.1549 197.123 21.2056 197.123 21.2675V21.825C197.123 21.8813 197.103 21.9292 197.064 21.9686C197.024 22.008 196.974 22.0277 196.912 22.0277H194.133V23.5229H196.726C196.788 23.5229 196.838 23.5426 196.878 23.582C196.917 23.6158 196.937 23.6636 196.937 23.7256V24.2493C196.937 24.3112 196.917 24.3619 196.878 24.4013C196.838 24.4351 196.788 24.452 196.726 24.452H194.133V25.9978H196.979C197.041 25.9978 197.092 26.0175 197.131 26.057C197.171 26.0964 197.19 26.1471 197.19 26.209V26.7665C197.19 26.8228 197.171 26.8707 197.131 26.9101C197.092 26.9495 197.041 26.9692 196.979 26.9692H193.195ZM204.561 27.0537C204.06 27.0537 203.629 26.9721 203.269 26.8087C202.908 26.6398 202.627 26.3836 202.424 26.0401C202.221 25.6909 202.111 25.2573 202.095 24.7392C202.089 24.4971 202.086 24.2577 202.086 24.0212C202.086 23.7847 202.089 23.5426 202.095 23.2948C202.111 22.7823 202.224 22.3543 202.432 22.0108C202.641 21.6673 202.925 21.4083 203.286 21.2337C203.652 21.0591 204.077 20.9719 204.561 20.9719C205.045 20.9719 205.471 21.0591 205.837 21.2337C206.203 21.4083 206.49 21.6673 206.698 22.0108C206.907 22.3543 207.019 22.7823 207.036 23.2948C207.047 23.5426 207.053 23.7847 207.053 24.0212C207.053 24.2577 207.047 24.4971 207.036 24.7392C207.019 25.2573 206.909 25.6909 206.707 26.0401C206.504 26.3836 206.22 26.6398 205.854 26.8087C205.493 26.9721 205.062 27.0537 204.561 27.0537ZM204.561 26.0823C204.927 26.0823 205.226 25.9753 205.457 25.7613C205.687 25.5417 205.811 25.1869 205.828 24.697C205.839 24.4492 205.845 24.2211 205.845 24.0128C205.845 23.7988 205.839 23.5707 205.828 23.3286C205.817 23.002 205.755 22.7373 205.642 22.5346C205.535 22.3262 205.389 22.177 205.203 22.0869C205.017 21.9911 204.803 21.9433 204.561 21.9433C204.325 21.9433 204.113 21.9911 203.928 22.0869C203.742 22.177 203.593 22.3262 203.48 22.5346C203.373 22.7373 203.314 23.002 203.303 23.3286C203.297 23.5707 203.294 23.7988 203.294 24.0128C203.294 24.2211 203.297 24.4492 203.303 24.697C203.319 25.1869 203.443 25.5417 203.674 25.7613C203.905 25.9753 204.201 26.0823 204.561 26.0823ZM209.421 26.9692C209.364 26.9692 209.317 26.9495 209.277 26.9101C209.238 26.8707 209.218 26.8228 209.218 26.7665V21.2675C209.218 21.2056 209.238 21.1549 209.277 21.1155C209.317 21.076 209.364 21.0563 209.421 21.0563H213.087C213.149 21.0563 213.199 21.076 213.239 21.1155C213.278 21.1549 213.298 21.2056 213.298 21.2675V21.8588C213.298 21.9207 213.278 21.9714 213.239 22.0108C213.199 22.0446 213.149 22.0615 213.087 22.0615H210.375V23.6665H212.918C212.98 23.6665 213.03 23.6862 213.07 23.7256C213.109 23.765 213.129 23.8157 213.129 23.8776V24.4689C213.129 24.5252 213.109 24.5731 213.07 24.6125C213.03 24.6519 212.98 24.6716 212.918 24.6716H210.375V26.7665C210.375 26.8228 210.356 26.8707 210.316 26.9101C210.277 26.9495 210.226 26.9692 210.164 26.9692H209.421ZM218.412 26.9692C218.356 26.9692 218.308 26.9495 218.269 26.9101C218.229 26.8707 218.21 26.8228 218.21 26.7665V21.2675C218.21 21.2056 218.229 21.1549 218.269 21.1155C218.308 21.076 218.356 21.0563 218.412 21.0563H222.078C222.14 21.0563 222.191 21.076 222.23 21.1155C222.27 21.1549 222.289 21.2056 222.289 21.2675V21.8588C222.289 21.9207 222.27 21.9714 222.23 22.0108C222.191 22.0446 222.14 22.0615 222.078 22.0615H219.367V23.6665H221.909C221.971 23.6665 222.022 23.6862 222.061 23.7256C222.101 23.765 222.121 23.8157 222.121 23.8776V24.4689C222.121 24.5252 222.101 24.5731 222.061 24.6125C222.022 24.6519 221.971 24.6716 221.909 24.6716H219.367V26.7665C219.367 26.8228 219.347 26.8707 219.308 26.9101C219.268 26.9495 219.218 26.9692 219.156 26.9692H218.412ZM226.695 27.0537C226.205 27.0537 225.78 26.9721 225.42 26.8087C225.059 26.6398 224.781 26.3836 224.584 26.0401C224.386 25.6909 224.288 25.246 224.288 24.7054V21.2675C224.288 21.2056 224.308 21.1549 224.347 21.1155C224.386 21.076 224.434 21.0563 224.491 21.0563H225.259C225.321 21.0563 225.369 21.076 225.403 21.1155C225.442 21.1549 225.462 21.2056 225.462 21.2675V24.7054C225.462 25.1672 225.572 25.5107 225.791 25.736C226.011 25.9556 226.312 26.0654 226.695 26.0654C227.078 26.0654 227.377 25.9556 227.591 25.736C227.81 25.5107 227.92 25.1672 227.92 24.7054V21.2675C227.92 21.2056 227.94 21.1549 227.979 21.1155C228.019 21.076 228.069 21.0563 228.131 21.0563H228.892C228.953 21.0563 229.001 21.076 229.035 21.1155C229.075 21.1549 229.094 21.2056 229.094 21.2675V24.7054C229.094 25.246 228.996 25.6909 228.799 26.0401C228.607 26.3836 228.331 26.6398 227.971 26.8087C227.616 26.9721 227.191 27.0537 226.695 27.0537ZM231.619 26.9692C231.563 26.9692 231.515 26.9495 231.475 26.9101C231.436 26.8707 231.416 26.8228 231.416 26.7665V21.2675C231.416 21.2056 231.436 21.1549 231.475 21.1155C231.515 21.076 231.563 21.0563 231.619 21.0563H232.269C232.348 21.0563 232.405 21.076 232.438 21.1155C232.478 21.1492 232.503 21.1746 232.514 21.1915L234.947 24.9757V21.2675C234.947 21.2056 234.964 21.1549 234.998 21.1155C235.037 21.076 235.088 21.0563 235.15 21.0563H235.859C235.921 21.0563 235.972 21.076 236.011 21.1155C236.051 21.1549 236.071 21.2056 236.071 21.2675V26.7581C236.071 26.82 236.051 26.8707 236.011 26.9101C235.972 26.9495 235.924 26.9692 235.868 26.9692H235.209C235.13 26.9692 235.074 26.9495 235.04 26.9101C235.006 26.8707 234.981 26.8453 234.964 26.8341L232.54 23.1343V26.7665C232.54 26.8228 232.52 26.8707 232.481 26.9101C232.441 26.9495 232.39 26.9692 232.329 26.9692H231.619ZM238.647 26.9692C238.591 26.9692 238.543 26.9495 238.504 26.9101C238.464 26.8707 238.444 26.8228 238.444 26.7665V21.2675C238.444 21.2056 238.464 21.1549 238.504 21.1155C238.543 21.076 238.591 21.0563 238.647 21.0563H240.708C241.277 21.0563 241.744 21.1436 242.11 21.3182C242.482 21.4928 242.761 21.7518 242.947 22.0953C243.138 22.4388 243.237 22.8584 243.242 23.3539C243.254 23.6017 243.259 23.8213 243.259 24.0128C243.259 24.2042 243.254 24.4211 243.242 24.6632C243.231 25.1869 243.135 25.6205 242.955 25.964C242.775 26.3019 242.502 26.5553 242.136 26.7243C241.775 26.8876 241.314 26.9692 240.75 26.9692H238.647ZM239.619 25.9978H240.708C241.024 25.9978 241.28 25.9528 241.477 25.8627C241.674 25.7726 241.818 25.629 241.908 25.4319C242.003 25.2292 242.054 24.9645 242.06 24.6379C242.065 24.4689 242.068 24.3225 242.068 24.1986C242.074 24.0691 242.074 23.9424 242.068 23.8185C242.068 23.689 242.065 23.5426 242.06 23.3793C242.048 22.9175 241.933 22.5768 241.713 22.3572C241.494 22.1375 241.145 22.0277 240.666 22.0277H239.619V25.9978ZM247.492 27.0537C246.969 27.0537 246.529 26.9777 246.175 26.8256C245.825 26.668 245.558 26.4652 245.372 26.2175C245.192 25.964 245.096 25.6994 245.085 25.4234C245.085 25.3728 245.102 25.3305 245.136 25.2967C245.169 25.2629 245.212 25.246 245.262 25.246H246.014C246.087 25.246 246.141 25.2629 246.175 25.2967C246.214 25.3249 246.248 25.3615 246.276 25.4065C246.31 25.5135 246.374 25.6205 246.47 25.7275C246.566 25.8289 246.695 25.9134 246.859 25.9809C247.028 26.0485 247.239 26.0823 247.492 26.0823C247.898 26.0823 248.199 26.0147 248.396 25.8796C248.599 25.7444 248.7 25.5614 248.7 25.3305C248.7 25.1672 248.647 25.0377 248.54 24.942C248.433 24.8406 248.267 24.7505 248.041 24.6716C247.822 24.5872 247.529 24.4999 247.163 24.4098C246.74 24.3084 246.386 24.1874 246.098 24.0466C245.817 23.9002 245.603 23.7171 245.457 23.4975C245.316 23.2779 245.245 22.9991 245.245 22.6613C245.245 22.3346 245.333 22.0446 245.507 21.7912C245.687 21.5378 245.941 21.3379 246.267 21.1915C246.6 21.0451 246.994 20.9719 247.45 20.9719C247.816 20.9719 248.14 21.0225 248.421 21.1239C248.703 21.2196 248.937 21.3492 249.123 21.5125C249.308 21.6701 249.449 21.8419 249.545 22.0277C249.646 22.2079 249.7 22.3853 249.705 22.5599C249.705 22.6049 249.688 22.6472 249.655 22.6866C249.627 22.7204 249.584 22.7373 249.528 22.7373H248.742C248.697 22.7373 248.652 22.726 248.607 22.7035C248.562 22.681 248.526 22.6387 248.497 22.5768C248.464 22.4022 248.354 22.253 248.168 22.1291C247.982 22.0052 247.743 21.9433 247.45 21.9433C247.146 21.9433 246.901 21.9996 246.715 22.1122C246.529 22.2248 246.436 22.3994 246.436 22.6359C246.436 22.7936 246.481 22.9259 246.572 23.0329C246.667 23.1343 246.816 23.2244 247.019 23.3032C247.228 23.3821 247.501 23.4665 247.839 23.5566C248.317 23.6636 248.709 23.7875 249.013 23.9283C249.317 24.0691 249.539 24.2493 249.68 24.4689C249.821 24.6829 249.891 24.956 249.891 25.2883C249.891 25.6599 249.79 25.9781 249.587 26.2428C249.39 26.5018 249.111 26.7017 248.751 26.8425C248.39 26.9833 247.971 27.0537 247.492 27.0537Z" fill="#26385B"/>
<defs>
<linearGradient id="paint0_linear_4011_46607" x1="36.6895" y1="1.75293" x2="36.9285" y2="32.6889" gradientUnits="userSpaceOnUse">
<stop stop-color="#41D7FF"/>
<stop offset="1" stop-color="#4C7FF7"/>
</linearGradient>
<linearGradient id="paint1_linear_4011_46607" x1="17.9499" y1="15.39" x2="17.9499" y2="23.8371" gradientUnits="userSpaceOnUse">
<stop stop-color="#1E3C91"/>
<stop offset="1" stop-color="#4C7FF7"/>
</linearGradient>
<linearGradient id="paint2_linear_4011_46607" x1="18.521" y1="13.6965" x2="24.5174" y2="8.0247" gradientUnits="userSpaceOnUse">
<stop stop-color="white" stop-opacity="0.8"/>
<stop offset="1" stop-color="white" stop-opacity="0"/>
</linearGradient>
<linearGradient id="paint3_linear_4011_46607" x1="17.0202" y1="9.74541" x2="10.9753" y2="7.24053" gradientUnits="userSpaceOnUse">
<stop stop-color="white"/>
<stop offset="1" stop-color="white" stop-opacity="0"/>
</linearGradient>
<linearGradient id="paint4_linear_4011_46607" x1="11.5391" y1="12.1707" x2="18.709" y2="22.7236" gradientUnits="userSpaceOnUse">
<stop stop-color="white" stop-opacity="0.8"/>
<stop offset="1" stop-color="white" stop-opacity="0.15"/>
</linearGradient>
<linearGradient id="paint5_linear_4011_46607" x1="30.543" y1="19.1471" x2="31.1347" y2="38.2078" gradientUnits="userSpaceOnUse">
<stop stop-color="white"/>
<stop offset="1" stop-color="#4C7FF7"/>
</linearGradient>
<linearGradient id="paint6_linear_4011_46607" x1="130.544" y1="7.78125" x2="130.544" y2="30.2187" gradientUnits="userSpaceOnUse">
<stop stop-color="#234BB9"/>
<stop offset="1" stop-color="#4C7FF7"/>
</linearGradient>
</defs>
</svg>
