<svg width="16" height="18" viewBox="0 0 16 18" fill="none" xmlns="http://www.w3.org/2000/svg">
<path d="M8 15.7338V9.6C8 9.23069 8.20355 8.89144 8.52941 8.71765L14.0294 5.78431C14.6955 5.42906 15.5 5.91175 15.5 6.66667V12.4338C15.5 12.7851 15.3157 13.1106 15.0145 13.2913L9.5145 16.5913C8.84797 16.9912 8 16.5111 8 15.7338Z" fill="#728099"/>
<path opacity="0.4" d="M8 16.2565V9.76712C8 9.39406 7.79234 9.05202 7.46135 8.8799L1.46135 5.7599C0.795644 5.41374 0 5.89679 0 6.64712V12.7465C0 13.1017 0.188445 13.4302 0.495057 13.6096L6.49506 17.1196C7.16171 17.5096 8 17.0288 8 16.2565Z" fill="#728099"/>
<path d="M8.00009 0L0 4.5V13.5L8.00009 18L16 13.5V4.5L8.00009 0ZM14.3759 4.8044L8.00009 8.3893L1.62407 4.8044L8.00009 1.21791L14.3759 4.8044ZM1.08259 5.7177L7.45879 9.30275V16.4776L1.08259 12.891V5.7177ZM8.54138 16.4776V9.30275L14.9174 5.71774V12.8911L8.54138 16.4776Z" fill="#728099"/>
</svg>
