<svg width="112" height="104" viewBox="0 0 112 104" fill="none" xmlns="http://www.w3.org/2000/svg">
<mask id="mask0" mask-type="alpha" maskUnits="userSpaceOnUse" x="4" y="0" width="102" height="102">
<path d="M105.999 51C105.999 79.1665 80.2542 102 55.0377 102C30.4356 102 4.07617 79.1665 4.07617 51C4.07617 22.8335 34.5359 0 55.0377 0C75.5395 0 105.999 19.931 105.999 51Z" fill="#C4C4C4"/>
</mask>
<g mask="url(#mask0)">
<path d="M105.999 51C105.999 79.1665 80.2542 102 55.0377 102C30.4356 102 4.07617 79.1665 4.07617 51C4.07617 22.8335 34.5359 0 55.0377 0C75.5395 0 105.999 19.931 105.999 51Z" fill="url(#paint0_linear)"/>
<g opacity="0.9" filter="url(#filter0_d)">
<path d="M40.769 61.9041L25.8203 68.024H86.2947L70.6665 61.9041H40.769Z" fill="url(#paint1_linear)"/>
<g filter="url(#filter1_d)">
<path d="M30.4289 56.5243L35.3536 74.6555C35.7879 76.2544 37.4348 77.1938 39.0321 76.7537L57.5301 71.6565C59.1274 71.2164 60.0702 69.5634 59.6359 67.9644L54.7113 49.8332C54.277 48.2343 52.6301 47.2949 51.0327 47.735L32.5348 52.8322C30.9375 53.2723 29.9946 54.9253 30.4289 56.5243Z" fill="url(#paint2_linear)"/>
</g>
<rect width="19.7814" height="9.00809" rx="1" transform="matrix(0.964086 -0.265593 0.262173 0.965022 32.9531 55.5186)" fill="url(#paint3_linear)"/>
<rect width="19.774" height="2.69932" rx="1" transform="matrix(0.964147 -0.265371 0.262393 0.964962 35.7988 65.96)" fill="url(#paint4_linear)" fill-opacity="0.7"/>
<rect width="19.774" height="2.69932" rx="1" transform="matrix(0.964147 -0.26537 0.262394 0.964962 36.9844 70.3135)" fill="url(#paint5_linear)" fill-opacity="0.4"/>
<g filter="url(#filter2_d)">
<path d="M55.4642 43.5975L52.463 68.292C52.2631 69.9368 53.4341 71.4349 55.0784 71.6381L74.1046 73.99C75.749 74.1933 77.244 73.0247 77.4439 71.38L80.4452 46.6854C80.6451 45.0407 79.4741 43.5426 77.8298 43.3393L58.8035 40.9874C57.1592 40.7842 55.6641 41.9527 55.4642 43.5975Z" fill="url(#paint6_linear)"/>
</g>
<rect width="19.7712" height="11.2232" rx="1" transform="matrix(0.992448 0.122667 -0.120659 0.992694 58.1016 44.2942)" fill="url(#paint7_linear)"/>
<rect width="19.7668" height="3.36318" rx="1" transform="matrix(0.992462 0.122556 -0.120769 0.992681 56.4746 57.6748)" fill="url(#paint8_linear)" fill-opacity="0.7"/>
<rect width="19.7668" height="3.36318" rx="1" transform="matrix(0.992462 0.122556 -0.120769 0.992681 55.7949 63.2498)" fill="url(#paint9_linear)" fill-opacity="0.4"/>
<path d="M25.8203 104.064V68.0239H86.2947V104.064H25.8203Z" fill="url(#paint10_linear)"/>
</g>
</g>
<path d="M8.51282 42.8401C8.51282 44.9174 6.83031 46.6001 4.75641 46.6001C2.68251 46.6001 1 44.9174 1 42.8401C1 40.7628 2.68251 39.0801 4.75641 39.0801C6.83031 39.0801 8.51282 40.7628 8.51282 42.8401Z" stroke="#D1DAF6" stroke-width="2"/>
<g filter="url(#filter3_d)">
<ellipse cx="97.4653" cy="23.9203" rx="10.3305" ry="10.3805" fill="url(#paint11_linear)"/>
</g>
<path d="M102.766 21.9278C103.253 21.4384 103.253 20.6451 102.766 20.1557C102.279 19.6664 101.49 19.6664 101.003 20.1557L102.766 21.9278ZM96.1188 26.8353L95.237 27.7213C95.4709 27.9563 95.788 28.0883 96.1188 28.0883C96.4495 28.0883 96.7667 27.9563 97.0005 27.7213L96.1188 26.8353ZM94.3057 23.2412C93.8188 22.7519 93.0292 22.7518 92.5422 23.2411C92.0552 23.7305 92.0552 24.5238 92.5422 25.0132L94.3057 23.2412ZM101.003 20.1557L95.237 25.9493L97.0005 27.7213L102.766 21.9278L101.003 20.1557ZM97.0006 25.9493L94.3057 23.2412L92.5422 25.0132L95.237 27.7213L97.0006 25.9493Z" fill="#F8FCFF"/>
<g opacity="0.7" filter="url(#filter4_d)">
<ellipse cx="56.145" cy="85.3009" rx="10.3305" ry="10.3805" fill="url(#paint12_linear)"/>
</g>
<g opacity="0.7">
<path d="M57.4277 81.239C57.4277 80.5487 56.8681 79.989 56.1777 79.989C55.4874 79.989 54.9277 80.5487 54.9277 81.239H57.4277ZM54.9277 89.399C54.9277 90.0894 55.4874 90.649 56.1777 90.649C56.8681 90.649 57.4277 90.0894 57.4277 89.399H54.9277ZM54.9277 81.239V89.399H57.4277V81.239H54.9277Z" fill="#F8FCFF"/>
<path d="M60.2559 86.5691C60.9462 86.5691 61.5059 86.0094 61.5059 85.3191C61.5059 84.6287 60.9462 84.0691 60.2559 84.0691L60.2559 86.5691ZM52.102 84.0691C51.4117 84.0691 50.852 84.6287 50.852 85.3191C50.852 86.0094 51.4117 86.5691 52.102 86.5691L52.102 84.0691ZM60.2559 84.0691L52.102 84.0691L52.102 86.5691L60.2559 86.5691L60.2559 84.0691Z" fill="#F8FCFF"/>
</g>
<defs>
<filter id="filter0_d" x="21.8203" y="40.9644" width="68.4744" height="71.0996" filterUnits="userSpaceOnUse" color-interpolation-filters="sRGB">
<feFlood flood-opacity="0" result="BackgroundImageFix"/>
<feColorMatrix in="SourceAlpha" type="matrix" values="0 0 0 0 0 0 0 0 0 0 0 0 0 0 0 0 0 0 127 0"/>
<feOffset dy="4"/>
<feGaussianBlur stdDeviation="2"/>
<feColorMatrix type="matrix" values="0 0 0 0 0.690196 0 0 0 0 0.794874 0 0 0 0 0.992157 0 0 0 0.53 0"/>
<feBlend mode="normal" in2="BackgroundImageFix" result="effect1_dropShadow"/>
<feBlend mode="normal" in="SourceGraphic" in2="effect1_dropShadow" result="shape"/>
</filter>
<filter id="filter1_d" x="26.3223" y="47.6267" width="37.4185" height="37.2355" filterUnits="userSpaceOnUse" color-interpolation-filters="sRGB">
<feFlood flood-opacity="0" result="BackgroundImageFix"/>
<feColorMatrix in="SourceAlpha" type="matrix" values="0 0 0 0 0 0 0 0 0 0 0 0 0 0 0 0 0 0 127 0"/>
<feOffset dy="4"/>
<feGaussianBlur stdDeviation="2"/>
<feColorMatrix type="matrix" values="0 0 0 0 0.690196 0 0 0 0 0.794874 0 0 0 0 0.992157 0 0 0 0.53 0"/>
<feBlend mode="normal" in2="BackgroundImageFix" result="effect1_dropShadow"/>
<feBlend mode="normal" in="SourceGraphic" in2="effect1_dropShadow" result="shape"/>
</filter>
<filter id="filter2_d" x="48.4414" y="40.9644" width="36.0266" height="41.0485" filterUnits="userSpaceOnUse" color-interpolation-filters="sRGB">
<feFlood flood-opacity="0" result="BackgroundImageFix"/>
<feColorMatrix in="SourceAlpha" type="matrix" values="0 0 0 0 0 0 0 0 0 0 0 0 0 0 0 0 0 0 127 0"/>
<feOffset dy="4"/>
<feGaussianBlur stdDeviation="2"/>
<feColorMatrix type="matrix" values="0 0 0 0 0.690196 0 0 0 0 0.794874 0 0 0 0 0.992157 0 0 0 0.53 0"/>
<feBlend mode="normal" in2="BackgroundImageFix" result="effect1_dropShadow"/>
<feBlend mode="normal" in="SourceGraphic" in2="effect1_dropShadow" result="shape"/>
</filter>
<filter id="filter3_d" x="83.1348" y="13.5398" width="28.661" height="28.7611" filterUnits="userSpaceOnUse" color-interpolation-filters="sRGB">
<feFlood flood-opacity="0" result="BackgroundImageFix"/>
<feColorMatrix in="SourceAlpha" type="matrix" values="0 0 0 0 0 0 0 0 0 0 0 0 0 0 0 0 0 0 127 0"/>
<feOffset dy="4"/>
<feGaussianBlur stdDeviation="2"/>
<feColorMatrix type="matrix" values="0 0 0 0 0.690196 0 0 0 0 0.794874 0 0 0 0 0.992157 0 0 0 0.53 0"/>
<feBlend mode="normal" in2="BackgroundImageFix" result="effect1_dropShadow"/>
<feBlend mode="normal" in="SourceGraphic" in2="effect1_dropShadow" result="shape"/>
</filter>
<filter id="filter4_d" x="41.8145" y="74.9204" width="28.661" height="28.7611" filterUnits="userSpaceOnUse" color-interpolation-filters="sRGB">
<feFlood flood-opacity="0" result="BackgroundImageFix"/>
<feColorMatrix in="SourceAlpha" type="matrix" values="0 0 0 0 0 0 0 0 0 0 0 0 0 0 0 0 0 0 127 0"/>
<feOffset dy="4"/>
<feGaussianBlur stdDeviation="2"/>
<feColorMatrix type="matrix" values="0 0 0 0 0.690196 0 0 0 0 0.794874 0 0 0 0 0.992157 0 0 0 0.53 0"/>
<feBlend mode="normal" in2="BackgroundImageFix" result="effect1_dropShadow"/>
<feBlend mode="normal" in="SourceGraphic" in2="effect1_dropShadow" result="shape"/>
</filter>
<linearGradient id="paint0_linear" x1="55.0377" y1="0" x2="55.0377" y2="102" gradientUnits="userSpaceOnUse">
<stop offset="0.59375" stop-color="#F1F6FF"/>
<stop offset="0.838542" stop-color="#B9CFFC"/>
</linearGradient>
<linearGradient id="paint1_linear" x1="56.0575" y1="61.9041" x2="56.0575" y2="68.024" gradientUnits="userSpaceOnUse">
<stop stop-color="#7A9EF5"/>
<stop offset="1" stop-color="#5590FC"/>
</linearGradient>
<linearGradient id="paint2_linear" x1="41.7838" y1="50.2836" x2="48.3687" y2="74.1809" gradientUnits="userSpaceOnUse">
<stop offset="0.526042" stop-color="#F8FBFF"/>
<stop offset="1" stop-color="#CAD9FE"/>
</linearGradient>
<linearGradient id="paint3_linear" x1="9.89071" y1="0" x2="9.89071" y2="9.00809" gradientUnits="userSpaceOnUse">
<stop offset="0.567708" stop-color="#99B3F7"/>
<stop offset="1" stop-color="#6FA1FC"/>
</linearGradient>
<linearGradient id="paint4_linear" x1="9.88702" y1="0" x2="9.88702" y2="2.69932" gradientUnits="userSpaceOnUse">
<stop offset="0.567708" stop-color="#99B3F7"/>
<stop offset="1" stop-color="#6FA1FC"/>
</linearGradient>
<linearGradient id="paint5_linear" x1="9.88702" y1="0" x2="9.88702" y2="2.69932" gradientUnits="userSpaceOnUse">
<stop offset="0.567708" stop-color="#99B3F7"/>
<stop offset="1" stop-color="#6FA1FC"/>
</linearGradient>
<linearGradient id="paint6_linear" x1="68.3166" y1="42.1634" x2="64.5288" y2="72.8063" gradientUnits="userSpaceOnUse">
<stop offset="0.526042" stop-color="#F8FBFF"/>
<stop offset="1" stop-color="#CAD9FE"/>
</linearGradient>
<linearGradient id="paint7_linear" x1="9.88559" y1="0" x2="9.88559" y2="11.2232" gradientUnits="userSpaceOnUse">
<stop offset="0.567708" stop-color="#99B3F7"/>
<stop offset="1" stop-color="#6FA1FC"/>
</linearGradient>
<linearGradient id="paint8_linear" x1="9.88339" y1="0" x2="9.88339" y2="3.36318" gradientUnits="userSpaceOnUse">
<stop offset="0.567708" stop-color="#99B3F7"/>
<stop offset="1" stop-color="#6FA1FC"/>
</linearGradient>
<linearGradient id="paint9_linear" x1="9.88339" y1="0" x2="9.88339" y2="3.36318" gradientUnits="userSpaceOnUse">
<stop offset="0.567708" stop-color="#99B3F7"/>
<stop offset="1" stop-color="#6FA1FC"/>
</linearGradient>
<linearGradient id="paint10_linear" x1="56.0575" y1="68.0239" x2="56.0575" y2="104.064" gradientUnits="userSpaceOnUse">
<stop stop-color="#AAC1FD"/>
<stop offset="1" stop-color="#92B4FC"/>
</linearGradient>
<linearGradient id="paint11_linear" x1="97.4653" y1="13.5398" x2="97.4653" y2="34.3009" gradientUnits="userSpaceOnUse">
<stop stop-color="#A6BEFD"/>
<stop offset="1" stop-color="#6393EA"/>
</linearGradient>
<linearGradient id="paint12_linear" x1="56.145" y1="74.9204" x2="56.145" y2="95.6815" gradientUnits="userSpaceOnUse">
<stop stop-color="#A6BEFD"/>
<stop offset="1" stop-color="#6393EA"/>
</linearGradient>
</defs>
</svg>
