<?xml version="1.0" encoding="UTF-8"?>
<svg width="16px" height="16px" viewBox="0 0 16 16" version="1.1" xmlns="http://www.w3.org/2000/svg" xmlns:xlink="http://www.w3.org/1999/xlink">
    <!-- Generator: Sketch 53.2 (72643) - https://sketchapp.com -->
    <title>verified copy</title>
    <desc>Created with Sketch.</desc>
    <g id="Page-1" stroke="none" stroke-width="1" fill="none" fill-rule="evenodd">
        <g id="SE_Signatories" transform="translate(-392.000000, -388.000000)" fill="#15D380">
            <g id="verified-copy" transform="translate(392.000000, 388.000000)">
                <path d="M13.6568438,2.343125 C12.1458437,0.83215625 10.136875,0 8,0 C5.86309375,0 3.85409375,0.83215625 2.343125,2.343125 C0.832125,3.854125 0,5.863125 0,8 C0,10.136875 0.832125,12.1458438 2.343125,13.6568438 C3.854125,15.1678437 5.86309375,16 8,16 C10.136875,16 12.1458438,15.1678437 13.6568438,13.6568438 C15.1678437,12.1458437 16,10.136875 16,8 C16,5.863125 15.1678437,3.85415625 13.6568438,2.343125 Z M8,15.0625 C4.10571875,15.0625 0.9375,11.8942813 0.9375,8 C0.9375,4.10571875 4.10571875,0.9375 8,0.9375 C11.8942812,0.9375 15.0625,4.10571875 15.0625,8 C15.0625,11.8942813 11.8942813,15.0625 8,15.0625 Z" id="Shape" fill-rule="nonzero"></path>
                <path d="M11.8220312,5.43309375 C11.639,5.25009375 11.3421875,5.25009375 11.1591562,5.433125 L7.0198125,9.57246875 L4.84084375,7.3935 C4.6578125,7.21046875 4.361,7.21046875 4.1779375,7.3935 C3.994875,7.57653125 3.994875,7.87334375 4.1779375,8.05640625 L6.68834375,10.5668125 C6.779875,10.6583437 6.89984375,10.7040937 7.01978125,10.7040937 C7.13971875,10.7040937 7.25971875,10.6583125 7.35121875,10.5668125 L11.8220312,6.096 C12.0050937,5.91296875 12.0050937,5.61615625 11.8220312,5.43309375 Z" id="Path"></path>
            </g>
        </g>
    </g>
</svg>