<?xml version="1.0" encoding="UTF-8"?>
<svg width="16px" height="16px" viewBox="0 0 16 16" version="1.1" xmlns="http://www.w3.org/2000/svg" xmlns:xlink="http://www.w3.org/1999/xlink">
    <!-- Generator: Sketch 53.2 (72643) - https://sketchapp.com -->
    <title>clock</title>
    <desc>Created with Sketch.</desc>
    <g id="Page-1" stroke="none" stroke-width="1" fill="none" fill-rule="evenodd">
        <g id="SE_Signatories" transform="translate(-392.000000, -265.000000)" fill="#728099">
            <g id="clock" transform="translate(392.000000, 265.000000)">
                <path d="M15.3613595,4.88577778 C14.5178039,2.91911111 13.0843399,1.48881046 11.1012549,0.64303268 C10.1100915,0.220313725 9.07168627,0.00439215686 7.98684967,0.00439215686 C6.90219608,0.00439215686 5.87145098,0.21827451 4.88138562,0.64303268 C2.91471895,1.48656209 1.47490196,2.91594771 0.629856209,4.88577778 C0.206405229,5.87265359 0,6.90656209 0,7.99121569 C0,9.07607843 0.206405229,10.1185621 0.629856209,11.1056471 C1.47490196,13.0754771 2.91490196,14.5134379 4.88138562,15.3571765 C5.87163399,15.7819346 6.90216993,15.9956078 7.98684967,15.9956078 C9.07152941,15.9956078 10.1100915,15.7796863 11.101098,15.3571765 C13.084183,14.5113725 14.5176471,13.0721307 15.3613856,11.1056471 C15.7861176,10.1153987 16,9.07607843 16,7.99121569 C16,6.90656209 15.7863007,5.876 15.3613595,4.88577778 Z M14.0842876,11.5255686 C13.4562876,12.6025621 12.5959477,13.4569673 11.5123922,14.0886797 C10.4353987,14.7166797 9.25534641,15.0333856 7.98703268,15.0333856 C7.03356863,15.0333856 6.12376471,14.8497516 5.25762092,14.4735163 C4.39150327,14.0974641 3.64368627,13.603085 3.01811765,12.9776993 C2.39254902,12.3521307 1.89464052,11.5970196 1.5223268,10.7294118 C1.15111111,9.86496732 0.971215686,8.94488889 0.971215686,7.99124183 C0.971215686,6.7227451 1.28287582,5.54867974 1.90734641,4.47466667 C2.53403922,3.39673203 3.39456209,2.54141176 4.47045752,1.91152941 C5.54616993,1.2816732 6.71856209,0.966640523 7.98684967,0.966640523 C9.25534641,0.966640523 10.4351895,1.28352941 11.5122092,1.91152941 C12.5957647,2.54326797 13.4542484,3.39856209 14.0841046,4.47464052 C14.7139608,5.55053595 15.0288105,6.7227451 15.0288105,7.99121569 C15.0288105,9.25973856 14.7160261,10.4418039 14.0842876,11.5255686 Z" id="Shape" fill-rule="nonzero"></path>
                <path d="M8.49427451,7.9212549 L8.49427451,3.38977778 C8.49427451,3.11861438 8.25801307,2.89989542 7.98682353,2.89989542 C7.73320261,2.89989542 7.50569935,3.11861438 7.50569935,3.38977778 L7.50569935,7.99121569 C7.50569935,8 7.52324183,8.03508497 7.52324183,8.06122876 C7.50569935,8.21871895 7.54956863,8.34993464 7.65445752,8.45500654 L10.2702222,11.0705882 C10.4452549,11.2456209 10.7688627,11.2456209 10.9437647,11.0705882 C11.144915,10.8694118 11.1316863,10.5775163 10.9437647,10.3882614 L8.49427451,7.9212549 Z" id="Path"></path>
            </g>
        </g>
    </g>
</svg>