<?xml version="1.0" encoding="UTF-8"?>
<svg width="20px" height="21px" viewBox="0 0 20 21" version="1.1" xmlns="http://www.w3.org/2000/svg" xmlns:xlink="http://www.w3.org/1999/xlink">
    <!-- Generator: Sketch 53.2 (72643) - https://sketchapp.com -->
    <title>Fill 4</title>
    <desc>Created with Sketch.</desc>
    <g id="Page-1" stroke="none" stroke-width="1" fill="none" fill-rule="evenodd">
        <g id="SE_Collaboration-2" transform="translate(-382.000000, -425.000000)" fill="#0083E3">
            <path d="M400.928,439.1744 C400.928,438.8648 401.1648,438.6216 401.4592,438.6216 C401.7568,438.6216 402,438.8648 402,439.1744 L402,444.6048 C402,444.9136 401.7568,445.164 401.4592,445.164 L382.5336,445.164 C382.2376,445.164 382,444.9136 382,444.6048 L382,439.1744 C382,438.8648 382.2376,438.6216 382.5336,438.6216 C382.8296,438.6216 383.0744,438.8648 383.0744,439.1744 L383.0744,444.0504 L400.928,444.0504 L400.928,439.1744 Z M397.1464,435.5536 C397.3592,435.3304 397.3592,434.9832 397.1464,434.7624 C396.9384,434.544 396.596,434.544 396.3936,434.7624 L392.5336,438.7584 L392.5336,425.5576 C392.5336,425.2512 392.2976,425 392.0016,425 C391.7032,425 391.46,425.2512 391.46,425.5576 L391.46,438.7584 L387.6104,434.7624 C387.3968,434.544 387.0544,434.544 386.8496,434.7624 C386.6352,434.9832 386.6352,435.3304 386.8496,435.5536 L391.62,440.4992 C391.8264,440.7128 392.1688,440.7128 392.3816,440.4992 L397.1464,435.5536 Z" id="Fill-4"></path>
        </g>
    </g>
</svg>