<svg width="15" height="13" viewBox="0 0 15 13" fill="none" xmlns="http://www.w3.org/2000/svg">
<path d="M15 7.53813C15 9.11672 13.7652 10.4071 12.1875 10.5648V9.42501C13.117 9.27466 13.8281 8.48598 13.8281 7.53813C13.8281 6.48321 12.9476 5.62505 11.8652 5.62505H11.0449V4.62567C11.0449 2.70489 9.44149 1.14214 7.4707 1.14214C5.63129 1.14214 4.10282 2.48472 3.91537 4.26518L3.86559 4.73821L3.37933 4.77614C2.14153 4.87273 1.17188 5.89775 1.17188 7.10983C1.17188 8.14133 1.86024 9.01823 2.8125 9.32931C2.92969 9.38463 3.04688 9.41575 3.16406 9.42267V10.5648C3.10547 10.5648 2.95898 10.5363 2.8125 10.5133C1.20644 10.1722 0 8.77597 0 7.10983C0 6.22846 0.338516 5.38736 0.953064 4.74156C1.45615 4.21287 2.10651 3.85372 2.81891 3.70449C3.01838 2.74393 3.52753 1.86713 4.28123 1.20025C5.15579 0.426295 6.28853 0 7.4707 0C10.0453 0 12.1476 2.00823 12.2151 4.50175C13.7796 4.67196 15 5.96869 15 7.53813ZM9.81445 10.8136V6.05335H8.64258V10.8136L8.00217 10.1896L7.17361 10.9971L9.22852 13L11.2834 10.9971L10.4549 10.1896L9.81445 10.8136ZM7.56271 8.0338L5.50781 6.03093L3.45291 8.0338L4.28146 8.84133L4.92188 8.21728V12.9919H6.09375V8.21728L6.73416 8.84133L7.56271 8.0338Z" fill="#728099"/>
</svg>
