<svg width="100" height="97" viewBox="0 0 100 97" fill="none" xmlns="http://www.w3.org/2000/svg">
<mask id="mask0" mask-type="alpha" maskUnits="userSpaceOnUse" x="3" y="0" width="97" height="97">
<path d="M100 48.5C100 75.2858 75.7122 97 51.9231 97C28.7136 97 3.84619 75.2858 3.84619 48.5C3.84619 21.7142 32.5818 0 51.9231 0C71.2644 0 100 18.954 100 48.5Z" fill="#C4C4C4"/>
</mask>
<g mask="url(#mask0)">
<path d="M100 48.5C100 75.2858 75.7122 97 51.9231 97C28.7136 97 3.84619 75.2858 3.84619 48.5C3.84619 21.7142 32.5818 0 51.9231 0C71.2644 0 100 18.954 100 48.5Z" fill="url(#paint0_linear)"/>
<g opacity="0.6">
<ellipse cx="25.2992" cy="85.1115" rx="21.0102" ry="16.3705" fill="url(#paint1_linear)"/>
<path d="M20.4507 73.2428V67.1038H28.5315V73.2428C28.2083 75.2072 25.9726 75.9712 24.8951 76.1076C22.9557 76.435 21.1241 74.3341 20.4507 73.2428Z" fill="#A9C7FD"/>
<ellipse cx="24.087" cy="50.7334" rx="14.9495" ry="14.7334" fill="url(#paint2_linear)"/>
<ellipse cx="13.986" cy="58.1001" rx="4.04042" ry="4.09262" fill="#BAD4FD"/>
<ellipse cx="13.9859" cy="58.1" rx="2.24468" ry="2.27368" fill="#D4DFFE"/>
<ellipse cx="34.9962" cy="58.1001" rx="4.04042" ry="4.09262" fill="#BAD4FD"/>
<ellipse cx="34.9961" cy="58.1" rx="2.24468" ry="2.27368" fill="#D4DFFE"/>
<path d="M14.0635 55.0855C13.0938 65.2352 21.471 68.3183 25.7807 68.5912C34.1849 67.9364 36.2858 59.3146 36.2857 55.0855C36.609 44.9359 32.38 45.1268 30.2251 46.491C28.7436 47.5824 24.6494 49.1103 20.124 46.491C15.5987 43.8718 14.1981 51.1293 14.0635 55.0855Z" fill="url(#paint3_linear)"/>
<path d="M31.7641 59.3279C28.5318 56.7086 23.2793 58.1 22.0671 59.3279C22.0671 63.2568 25.5688 64.3755 27.3197 64.2391C30.2288 64.2391 31.4948 60.8285 31.7641 59.3279Z" fill="white"/>
<path d="M22.4709 54.0074C23.4406 54.0074 23.683 54.826 23.683 55.2352C22.8968 54.9698 22.0451 54.9698 21.2588 55.2352C21.2588 54.826 21.5012 54.0074 22.4709 54.0074Z" fill="#4C7FF7"/>
<path d="M31.3598 54.0074C32.3295 54.0074 32.572 54.826 32.572 55.2352C31.7857 54.9698 30.934 54.9698 30.1477 55.2352C30.1477 54.826 30.3901 54.0074 31.3598 54.0074Z" fill="#4C7FF7"/>
<ellipse cx="33.7841" cy="56.8722" rx="2.02021" ry="1.22778" fill="#BBCDFB"/>
<ellipse cx="20.0468" cy="56.8722" rx="2.02021" ry="1.22778" fill="#BBCDFB"/>
</g>
<g opacity="0.6">
<ellipse cx="77.2992" cy="85.1115" rx="21.0102" ry="16.3705" fill="url(#paint4_linear)"/>
<path d="M72.4507 73.2428V67.1038H80.5315V73.2428C80.2083 75.2072 77.9726 75.9712 76.8951 76.1076C74.9557 76.435 73.1241 74.3341 72.4507 73.2428Z" fill="#A9C7FD"/>
<ellipse cx="76.087" cy="50.7334" rx="14.9495" ry="14.7334" fill="url(#paint5_linear)"/>
<ellipse cx="65.986" cy="58.1001" rx="4.04042" ry="4.09262" fill="#BAD4FD"/>
<ellipse cx="65.9859" cy="58.1" rx="2.24468" ry="2.27368" fill="#D4DFFE"/>
<ellipse cx="86.9962" cy="58.1001" rx="4.04042" ry="4.09262" fill="#BAD4FD"/>
<ellipse cx="86.9961" cy="58.1" rx="2.24468" ry="2.27368" fill="#D4DFFE"/>
<path d="M66.0635 55.0855C65.0938 65.2352 73.471 68.3183 77.7807 68.5912C86.1849 67.9364 88.2858 59.3146 88.2857 55.0855C88.609 44.9359 84.38 45.1268 82.2251 46.491C80.7436 47.5824 76.6494 49.1103 72.124 46.491C67.5987 43.8718 66.1981 51.1293 66.0635 55.0855Z" fill="url(#paint6_linear)"/>
<path d="M83.7641 59.3279C80.5318 56.7086 75.2793 58.1 74.0671 59.3279C74.0671 63.2568 77.5688 64.3755 79.3197 64.2391C82.2288 64.2391 83.4948 60.8285 83.7641 59.3279Z" fill="white"/>
<path d="M74.4709 54.0074C75.4406 54.0074 75.683 54.826 75.683 55.2352C74.8968 54.9698 74.0451 54.9698 73.2588 55.2352C73.2588 54.826 73.5012 54.0074 74.4709 54.0074Z" fill="#4C7FF7"/>
<path d="M83.3598 54.0074C84.3295 54.0074 84.572 54.826 84.572 55.2352C83.7857 54.9698 82.934 54.9698 82.1477 55.2352C82.1477 54.826 82.3901 54.0074 83.3598 54.0074Z" fill="#4C7FF7"/>
<ellipse cx="85.7841" cy="56.8722" rx="2.02021" ry="1.22778" fill="#BBCDFB"/>
<ellipse cx="72.0468" cy="56.8722" rx="2.02021" ry="1.22778" fill="#BBCDFB"/>
</g>
<ellipse cx="52.9658" cy="90.3969" rx="28.3898" ry="22.1205" fill="url(#paint7_linear)"/>
<path d="M46.4143 74.3595V66.0643H57.3335V74.3595C56.8967 77.014 53.8757 78.0463 52.4198 78.2306C49.7992 78.673 47.3242 75.8342 46.4143 74.3595Z" fill="#A9C7FD"/>
<ellipse cx="51.3279" cy="43.9438" rx="20.2005" ry="19.9084" fill="url(#paint8_linear)"/>
<ellipse cx="37.6788" cy="53.898" rx="5.45958" ry="5.53012" fill="#BAD4FD"/>
<ellipse cx="37.6789" cy="53.8979" rx="3.0331" ry="3.07229" fill="#D4DFFE"/>
<ellipse cx="66.0687" cy="53.898" rx="5.45959" ry="5.53012" fill="#BAD4FD"/>
<ellipse cx="66.0687" cy="53.8979" rx="3.0331" ry="3.07229" fill="#D4DFFE"/>
<path d="M37.7836 49.8246C36.4733 63.5393 47.7928 67.7053 53.6164 68.074C64.9724 67.1892 67.8112 55.5391 67.8112 49.8246C68.2479 36.1099 62.5336 36.368 59.6218 38.2113C57.62 39.686 52.0877 41.7506 45.9728 38.2113C39.858 34.6721 37.9655 44.4788 37.7836 49.8246Z" fill="url(#paint9_linear)"/>
<path d="M61.7014 55.5571C57.3337 52.0178 50.2363 53.898 48.5984 55.5571C48.5984 60.866 53.33 62.3776 55.6958 62.1933C59.6268 62.1933 61.3374 57.5848 61.7014 55.5571Z" fill="white"/>
<path d="M49.1442 48.3678C50.4545 48.3678 50.7821 49.4738 50.7821 50.0268L50.4238 49.9059C49.5938 49.6256 48.6947 49.6256 47.8646 49.9059L47.5063 50.0268C47.5063 49.4738 47.8339 48.3678 49.1442 48.3678Z" fill="#4C7FF7"/>
<path d="M61.1552 48.3678C62.4655 48.3678 62.7931 49.4738 62.7931 50.0268L62.4348 49.9059C61.6048 49.6256 60.7057 49.6256 59.8756 49.9059L59.5173 50.0268C59.5173 49.4738 59.8449 48.3678 61.1552 48.3678Z" fill="#4C7FF7"/>
<ellipse cx="64.431" cy="52.2389" rx="2.72979" ry="1.65903" fill="#BBCDFB"/>
<ellipse cx="45.8685" cy="52.2389" rx="2.72979" ry="1.65903" fill="#BBCDFB"/>
</g>
<path d="M7.97436 40.74C7.97436 42.696 6.40485 44.2667 4.48718 44.2667C2.56951 44.2667 1 42.696 1 40.74C1 38.784 2.56951 37.2134 4.48718 37.2134C6.40485 37.2134 7.97436 38.784 7.97436 40.74Z" stroke="#D1DAF6" stroke-width="2"/>
<path d="M88.4294 12.9333C88.4294 12.243 87.8698 11.6833 87.1794 11.6833C86.4891 11.6833 85.9294 12.243 85.9294 12.9333H88.4294ZM85.9294 20.6933C85.9294 21.3837 86.4891 21.9433 87.1794 21.9433C87.8698 21.9433 88.4294 21.3837 88.4294 20.6933H85.9294ZM85.9294 12.9333V20.6933H88.4294V12.9333H85.9294Z" fill="#729FFA"/>
<path d="M91.0256 18.0634C91.716 18.0634 92.2756 17.5037 92.2756 16.8134C92.2756 16.123 91.716 15.5634 91.0256 15.5634L91.0256 18.0634ZM83.3333 15.5634C82.643 15.5634 82.0833 16.123 82.0833 16.8134C82.0833 17.5037 82.643 18.0634 83.3333 18.0634L83.3333 15.5634ZM91.0256 15.5634L83.3333 15.5634L83.3333 18.0634L91.0256 18.0634L91.0256 15.5634Z" fill="#729FFA"/>
<defs>
<linearGradient id="paint0_linear" x1="51.9231" y1="0" x2="51.9231" y2="97" gradientUnits="userSpaceOnUse">
<stop stop-color="#DDE6F8"/>
<stop offset="0.786458" stop-color="#B9CFFC"/>
</linearGradient>
<linearGradient id="paint1_linear" x1="25.2992" y1="71.6058" x2="11.7356" y2="90.6773" gradientUnits="userSpaceOnUse">
<stop stop-color="#7CA3F9"/>
<stop offset="1" stop-color="#6F9FFB"/>
</linearGradient>
<linearGradient id="paint2_linear" x1="24.087" y1="36" x2="24.087" y2="65.4669" gradientUnits="userSpaceOnUse">
<stop stop-color="#7EA8F3"/>
<stop offset="1" stop-color="#9DBBFC"/>
</linearGradient>
<linearGradient id="paint3_linear" x1="25.1447" y1="45.8223" x2="25.1447" y2="68.5912" gradientUnits="userSpaceOnUse">
<stop stop-color="#D9E2FE"/>
<stop offset="0.947917" stop-color="#CEDCFE"/>
</linearGradient>
<linearGradient id="paint4_linear" x1="77.2992" y1="71.6058" x2="63.7356" y2="90.6773" gradientUnits="userSpaceOnUse">
<stop stop-color="#7CA3F9"/>
<stop offset="1" stop-color="#6F9FFB"/>
</linearGradient>
<linearGradient id="paint5_linear" x1="76.087" y1="36" x2="76.087" y2="65.4669" gradientUnits="userSpaceOnUse">
<stop stop-color="#7EA8F3"/>
<stop offset="1" stop-color="#9DBBFC"/>
</linearGradient>
<linearGradient id="paint6_linear" x1="77.1447" y1="45.8223" x2="77.1447" y2="68.5912" gradientUnits="userSpaceOnUse">
<stop stop-color="#D9E2FE"/>
<stop offset="0.947917" stop-color="#CEDCFE"/>
</linearGradient>
<linearGradient id="paint7_linear" x1="52.9658" y1="72.1475" x2="34.638" y2="97.9177" gradientUnits="userSpaceOnUse">
<stop stop-color="#7CA3F9"/>
<stop offset="1" stop-color="#6F9FFB"/>
</linearGradient>
<linearGradient id="paint8_linear" x1="51.3279" y1="24.0354" x2="51.3279" y2="63.8523" gradientUnits="userSpaceOnUse">
<stop stop-color="#7EA8F3"/>
<stop offset="1" stop-color="#9DBBFC"/>
</linearGradient>
<linearGradient id="paint9_linear" x1="52.7569" y1="37.3077" x2="52.7569" y2="68.074" gradientUnits="userSpaceOnUse">
<stop stop-color="#D9E2FE"/>
<stop offset="0.947917" stop-color="#CEDCFE"/>
</linearGradient>
</defs>
</svg>
