<svg width="12" height="15" viewBox="0 0 12 15" fill="none" xmlns="http://www.w3.org/2000/svg">
<path d="M7.98835 9.61491C8.00617 9.41418 8.00357 9.21138 7.98039 9.01126C7.95243 8.77067 7.89487 8.53753 7.80976 8.31641C7.79915 8.28888 7.78819 8.26149 7.77673 8.23435C7.64946 7.93267 7.46977 7.65523 7.24245 7.41467C7.23918 7.41121 7.23584 7.40767 7.23252 7.40421C7.08137 7.24593 6.91607 7.11132 6.74098 7L5.92942 7.84982C5.85468 7.92811 5.8059 8.02285 5.78476 8.12799C5.96246 8.18909 6.12858 8.29181 6.26699 8.43676L6.27168 8.44173C6.50191 8.68536 6.62824 9.01 6.62739 9.35582C6.62652 9.7016 6.49852 10.0255 6.26699 10.268L3.49854 13.167C3.02004 13.6681 2.21153 13.6681 1.73303 13.167L1.72836 13.1621C1.49814 12.9185 1.3718 12.5938 1.37265 12.248C1.37354 11.9022 1.50152 11.5783 1.73303 11.3358L3.31627 9.67794C3.12702 9.23496 3.02725 8.75031 3.02727 8.24914C3.02727 8.13913 3.03224 8.02997 3.04173 7.92182L0.767542 10.3032C0.272594 10.8215 0 11.5134 0 12.2514C0 12.9845 0.268888 13.672 0.757613 14.1891C0.760885 14.1926 0.764248 14.1961 0.767542 14.1996C1.78668 15.2668 3.44491 15.2668 4.46407 14.1996L7.23254 11.3006C7.66462 10.8481 7.92717 10.2634 7.98693 9.63118L7.98835 9.61491Z" fill="#728099"/>
<path d="M4.76752 7.59579C4.91867 7.75406 5.08397 7.88868 5.25906 8L6.07061 7.15017C6.14536 7.07191 6.19416 6.97715 6.21527 6.87201C6.03758 6.81094 5.87144 6.70819 5.73302 6.56321L5.72833 6.55825C5.49811 6.31461 5.3718 5.98998 5.37265 5.64418C5.37352 5.2984 5.50152 4.97442 5.73305 4.73197L8.50151 1.83297C8.98001 1.33192 9.7885 1.33192 10.267 1.83299L10.2705 1.83675C10.5019 2.08154 10.6282 2.40618 10.6274 2.752C10.6265 3.0978 10.4985 3.42171 10.267 3.66418L8.68372 5.32209C8.87296 5.76509 8.97274 6.24974 8.97274 6.75086C8.97274 6.86087 8.96777 6.97003 8.9583 7.07816L11.2325 4.69674C11.7274 4.17845 12 3.48659 12 2.74856C12 2.01551 11.7311 1.328 11.2424 0.810874C11.2391 0.807387 11.2358 0.803876 11.2325 0.800389C10.2133 -0.266796 8.55507 -0.266796 7.53596 0.800389L4.76754 3.69944C4.27259 4.21773 4 4.90962 4 5.64762C4 6.38072 4.26889 7.0682 4.75761 7.58533C4.76088 7.58879 4.76422 7.59233 4.76752 7.59579V7.59579Z" fill="#728099"/>
</svg>
