<?xml version="1.0" encoding="UTF-8"?>
<svg width="68px" height="68px" viewBox="0 0 68 68" version="1.1" xmlns="http://www.w3.org/2000/svg" xmlns:xlink="http://www.w3.org/1999/xlink">
    <!-- Generator: Sketch 53.2 (72643) - https://sketchapp.com -->
    <title>Group 5</title>
    <desc>Created with Sketch.</desc>
    <g id="Page-1" stroke="none" stroke-width="1" fill="none" fill-rule="evenodd">
        <g id="IF_Sign-Confirmation" transform="translate(-504.000000, -209.000000)">
            <g id="EvidenceModal-Six" transform="translate(456.000000, 161.000000)">
                <g id="Group-5" transform="translate(48.000000, 48.000000)">
                    <circle id="Oval" fill-opacity="0.534222147" fill="#DEDEDE" cx="34" cy="34" r="34"></circle>
                    <g id="Group-7" transform="translate(19.000000, 17.000000)" fill="#0083E3">
                        <path d="M6.72531888,2.99657908 C5.48360969,4.23576276 4.23225765,5.48466582 2.99414541,6.72032908 C3.99072704,6.72032908 5.03804847,6.73617092 6.084375,6.71229337 C6.48799745,6.70310969 6.71230867,6.45117092 6.71957908,6.02994643 C6.73725765,5.00428316 6.72531888,3.97816071 6.72531888,2.99657908 M8.39353316,1.67527806 C8.39353316,3.11183418 8.39735969,4.50951276 8.39223214,5.90719133 C8.38848214,6.90897704 8.00131378,7.7116301 7.06633929,8.14043112 C6.71016582,8.30382398 6.28526786,8.37407908 5.88929847,8.38341582 C4.62279337,8.41318622 3.35514031,8.39451276 2.08794643,8.39451276 L1.66121173,8.39451276 L1.66121173,8.80754847 C1.66121173,16.5064515 1.6611352,24.2053546 1.66128827,31.9042577 C1.6613648,32.6210434 1.8301148,32.7891046 2.54965561,32.7890281 C10.093125,32.7885689 17.6365944,32.7878801 25.1800638,32.7871913 C25.7586352,32.7871148 25.7821301,32.7636199 25.7821301,32.1758648 C25.7824362,28.0396148 25.7817474,23.9032117 25.7841964,19.7668852 C25.7843495,19.5769362 25.794375,19.383773 25.8299617,19.1978801 C25.9065689,18.7973954 26.2583801,18.5241811 26.6481505,18.5403291 C27.0301913,18.5562474 27.3510842,18.8333648 27.415676,19.2179311 C27.4411607,19.3701505 27.4490434,19.5268852 27.4491199,19.6815536 C27.4508036,23.8536964 27.4515689,28.0259923 27.4498087,32.1981352 C27.4491964,33.6655332 26.6784566,34.438875 25.2231505,34.4389515 C17.6318495,34.4393342 10.0405485,34.4396403 2.44932398,34.4385689 C1.21603316,34.4384158 0.326211735,33.785227 0.0657780612,32.6798189 C0.0144260204,32.4618597 0.00531887755,32.2298189 0.00531887755,32.0042832 C0.0030994898,23.9109413 0.00577806122,15.817523 3.82653061e-05,7.72410459 C-0.000267857143,7.36073724 0.120038265,7.09081378 0.374732143,6.83749745 C2.53603316,4.68759949 4.69159439,2.5318852 6.84172194,0.370966837 C7.09557398,0.115890306 7.36940051,-0.00043622449 7.73116071,2.29591837e-05 C13.3619005,0.00668112245 18.9925638,0.00346683673 24.6233036,0.00545663265 C26.1645536,0.00599234694 27.1294515,0.970201531 27.1366454,2.50892602 C27.1403189,3.30989541 27.1491199,4.11109439 27.1351913,4.91175765 C27.1239413,5.56066071 26.5897577,5.95096684 26.0267985,5.74571173 C25.6777423,5.61851786 25.4835842,5.30152806 25.4807526,4.82596684 C25.4761607,4.04895153 25.4821301,3.27185969 25.4784566,2.49476786 C25.4757015,1.9123699 25.2335587,1.66540561 24.646875,1.66509949 C19.3150638,1.66203827 13.983176,1.66219133 8.6513648,1.66196173 C8.58172194,1.66196173 8.51207908,1.66892602 8.39353316,1.67527806" id="Fill-1"></path>
                        <path d="M20.0367092,13.9735332 C21.5398469,14.8328189 23.0149745,15.6761097 24.5038776,16.5272066 C25.7543878,14.3423342 26.9807908,12.1997066 28.2246429,10.0265434 C26.7277806,9.16825255 25.253648,8.323125 23.7591582,7.46621173 C22.516301,9.63883929 21.2901276,11.7823852 20.0367092,13.9735332 L20.0367092,13.9735332 Z M14.9402296,28.0113138 C15.0252551,27.9762628 15.0703316,27.9648597 15.1078316,27.9412883 C17.0793367,26.7017219 19.0501531,25.4610077 21.0212755,24.220676 C21.3651276,24.004324 21.5057908,23.6848087 21.5293622,23.2879209 C21.5895153,22.2739668 21.6468367,21.2595536 21.7395153,20.2484311 C21.7667602,19.9517219 21.868852,19.6448342 22.0066071,19.3788903 C22.3168622,18.7798087 22.6708929,18.2033801 23.0179592,17.5987117 C21.9511224,16.9877679 20.92125,16.3979464 19.8747704,15.7986352 C19.5016837,16.4496046 19.1640306,17.0670536 18.7959184,17.6657526 C18.6689541,17.8720791 18.4913265,18.0676913 18.2934949,18.2064413 C17.4722449,18.7825638 16.6437245,19.3496556 15.7989796,19.890574 C15.3369643,20.1863648 15.1327041,20.5716964 15.1450255,21.113227 C15.1558163,21.5905485 15.1216071,22.0688648 15.1069898,22.5467219 C15.0520408,24.3499362 14.9969388,26.1531505 14.9402296,28.0113138 L14.9402296,28.0113138 Z M13.332398,28.4029974 C13.332398,27.7199617 13.3185459,27.0882015 13.335,26.4572066 C13.3830612,24.6171046 13.4501786,22.7774617 13.4957908,20.9372832 C13.5204337,19.9428444 13.9272704,19.1672066 14.7484439,18.6095281 C15.5390051,18.0725893 16.3358418,17.5446046 17.1207398,16.9995536 C17.2709694,16.8952423 17.4058929,16.7461607 17.5008673,16.589273 C17.81625,16.0685587 18.1189286,15.5395026 18.4058418,15.0027168 C18.4692092,14.8841709 18.4979082,14.7037883 18.4568112,14.5804209 C18.2960204,14.0965179 18.321199,13.638023 18.5723724,13.1977423 C19.8267092,10.9987883 21.0759184,8.79692602 22.3448724,6.60646684 C22.8234184,5.78047194 23.7107908,5.53947704 24.5403827,6.00508929 C26.0710714,6.86414541 27.5941071,7.73735969 29.1070408,8.62733418 C29.9177296,9.10427296 30.1523724,9.97159439 29.6873724,10.7946046 C28.4422194,12.9986862 27.1772449,15.1915944 25.9125765,17.3845791 C25.6623214,17.8184311 25.2839541,18.0872066 24.7776276,18.1804209 C24.6590816,18.2021556 24.5236224,18.3103699 24.4591837,18.4171301 C24.1193878,18.9789413 23.7867857,19.5461097 23.4811224,20.1269005 C23.3859184,20.3078954 23.3569133,20.5353444 23.3414541,20.7448087 C23.2763265,21.6265944 23.2281122,22.5096811 23.1730102,23.3922321 C23.1113265,24.379477 22.670051,25.1389668 21.8269898,25.6679464 C19.7630357,26.9629974 17.6953316,28.2523852 15.6453827,29.569477 C15.1036224,29.9174617 14.5730357,30.0889668 13.9105102,30.078023 C11.3530867,30.0357015 8.79451531,30.0619515 6.23632653,30.0584311 C6.0590051,30.0582015 5.87602041,30.0454974 5.7057398,30.0004974 C5.34910714,29.9063648 5.10076531,29.5475128 5.12058673,29.1946301 C5.14125,28.8249107 5.40443878,28.5039413 5.76742347,28.4323852 C5.91818878,28.4026913 6.07653061,28.4042219 6.23142857,28.4041454 C8.4309949,28.4025383 10.6304847,28.4029974 12.830051,28.4029974 L13.332398,28.4029974 Z" id="Fill-3"></path>
                        <path d="M16.6160051,26.1865561 C15.9905969,26.1995663 15.5842959,25.6659949 15.7372806,25.1306633 C15.7727908,25.006301 15.8349337,24.8871429 15.899602,24.7738776 C16.6685051,23.4265561 17.4299847,22.0746429 18.2209286,20.7403316 C18.3569235,20.5108929 18.5909541,20.2709694 18.8324082,20.1864031 C19.4255204,19.9784694 19.9907755,20.5757143 19.8174337,21.1818367 C19.7817704,21.3064286 19.7272806,21.428801 19.6629184,21.5416071 C18.8817704,22.9095153 18.0953418,24.2743622 17.3148061,25.6425765 C17.1385561,25.9516071 16.9102653,26.1714796 16.6160051,26.1865561" id="Fill-5"></path>
                    </g>
                </g>
            </g>
        </g>
    </g>
</svg>