<?xml version="1.0" encoding="UTF-8"?>
<svg width="18px" height="19px" viewBox="0 0 18 19" version="1.1" xmlns="http://www.w3.org/2000/svg" xmlns:xlink="http://www.w3.org/1999/xlink">
    <!-- Generator: Sketch 53.2 (72643) - https://sketchapp.com -->
    <title>calendar copy</title>
    <desc>Created with Sketch.</desc>
    <g id="Page-1" stroke="none" stroke-width="1" fill="none" fill-rule="evenodd">
        <g id="IF_Project-Discovery" transform="translate(-800.000000, -475.000000)" fill="#0083E3" fill-rule="nonzero">
            <g id="Card-3" transform="translate(777.000000, 229.000000)">
                <g id="calendar-copy" transform="translate(23.750000, 246.050000)">
                    <g id="Group" transform="translate(4.974545, 9.327273)">
                        <path d="M3.14665909,2.66817 C3.01923818,2.53644818 2.87331818,2.42405455 2.71345909,2.33446091 C2.87627182,2.19874909 3.01623273,2.03780182 3.12800455,1.85773364 C3.23122636,1.68061909 3.28288909,1.47816545 3.27724091,1.27322455 C3.27843273,1.10616273 3.24381818,0.940759091 3.17567727,0.788206364 C3.10541182,0.636016364 3.00198273,0.501496364 2.87305909,0.394388182 C2.73330545,0.277330909 2.57209909,0.188618182 2.39840455,0.133224545 C2.20356818,0.0705245455 1.99987091,0.0397445455 1.79524091,0.0420245455 C1.56211091,0.0393818182 1.33022455,0.07581 1.10916818,0.149806364 C0.922156364,0.212402727 0.748513636,0.309406364 0.597204545,0.435842727 C0.470353636,0.539997273 0.363608182,0.666433636 0.28215,0.808933636 C0.215149091,0.922156364 0.178047273,1.05051 0.174368182,1.18202455 C0.168875455,1.29187909 0.21033,1.39888364 0.288368182,1.47635182 C0.353451818,1.54568455 0.444081818,1.58537727 0.539168182,1.58620636 C0.610521818,1.58822727 0.681357273,1.57402909 0.746440909,1.54475182 C0.799502727,1.52361 0.842978182,1.48381364 0.868731818,1.43282455 C0.908113636,1.34577 0.951640909,1.25042455 0.997240909,1.15093364 C1.03641545,1.06341273 1.08657545,0.981229091 1.14647727,0.906351818 C1.20233727,0.839454545 1.27343182,0.786859091 1.35375,0.75297 C1.46272364,0.710945455 1.57900364,0.691202727 1.69575,0.694933636 C1.87923818,0.686487273 2.05749273,0.757478182 2.18491364,0.88977 C2.30466545,1.00931455 2.37052636,1.17249 2.36731364,1.34162455 C2.37938727,1.54356 2.29570091,1.73938091 2.14138636,1.87017 C1.98862636,1.99386 1.79689909,2.05920273 1.60040455,2.05464273 L1.47604091,2.05878818 C1.34665091,2.04915 1.21783091,2.08428273 1.11124091,2.15827909 C1.03040455,2.22134182 0.984234545,2.31901909 0.986877273,2.42151545 C0.980762727,2.51924455 1.01791636,2.61474545 1.08844091,2.68267909 C1.16979545,2.74947273 1.27358727,2.78284364 1.37862273,2.77595182 C1.40764091,2.77595182 1.47189545,2.77802455 1.56309545,2.76351545 C1.65429545,2.74900636 1.72476818,2.74900636 1.77036818,2.74900636 C1.99557,2.73558545 2.21600455,2.81756182 2.37767727,2.97493364 C2.52572182,3.14697 2.60018455,3.37030636 2.58495,3.59675182 C2.59588364,3.76474636 2.55852273,3.93232636 2.47716818,4.07969727 C2.39871545,4.20955364 2.28709909,4.31614364 2.15382273,4.38853364 C2.02645364,4.45708909 1.88395364,4.49268818 1.73927727,4.49217 C1.52376545,4.50496909 1.31385,4.42055727 1.16720455,4.26209727 C0.999935455,4.05124909 0.870856364,3.81273 0.785822727,3.55737 C0.764059091,3.50026636 0.723019091,3.45259364 0.66975,3.42264273 C0.615340909,3.38554091 0.551138182,3.36533182 0.485277273,3.36460636 C0.367131818,3.36077182 0.252302727,3.40398818 0.166077273,3.48482455 C0.0790227273,3.56757818 0.0321272727,3.68401364 0.0375681818,3.80402455 C0.0446154545,3.93434727 0.0777790909,4.06192364 0.134986364,4.17918818 C0.214734545,4.34707909 0.321894545,4.50046091 0.452113636,4.63311545 C0.60135,4.79302636 0.780122727,4.92252 0.978586364,5.01449727 C1.20974727,5.11580182 1.46002909,5.16596182 1.71233182,5.16166091 C1.96271727,5.16430364 2.21149636,5.12077636 2.44607727,5.03315182 C2.65889455,4.95392182 2.85399,4.83344455 3.02022273,4.67871545 C3.17692091,4.53393545 3.30180273,4.35816818 3.38709545,4.16260636 C3.46907182,3.97352182 3.51140727,3.76966909 3.51145909,3.56358818 C3.51322091,3.39885818 3.48223364,3.23537182 3.42025909,3.08271545 C3.35740364,2.92777909 3.26439,2.78688545 3.14665909,2.66817 Z" id="Path"></path>
                        <path d="M6.63298636,0.176751818 C6.56448273,0.0861736364 6.45633818,0.0344072727 6.34280455,0.0378790909 C6.26424818,0.0289145455 6.18527727,0.0512481818 6.12309545,0.100060909 C6.03464182,0.204889091 5.95157727,0.314173636 5.87436818,0.427551818 C5.59781455,0.820178182 5.21746909,1.12808182 4.77582273,1.31675182 C4.64156182,1.37463273 4.51258636,1.44396545 4.39029545,1.52402455 C4.31106545,1.58812364 4.26971455,1.68797727 4.28044091,1.78933364 C4.27981909,1.88835818 4.31946,1.98339273 4.39029545,2.05257 C4.45532727,2.12024455 4.54518,2.15843455 4.63902273,2.15827909 C4.83800455,2.15827909 5.22627818,1.93717091 5.80389545,1.49500636 L5.80389545,4.60409727 L5.81425909,4.60202455 C5.80254818,4.75120909 5.84773364,4.89930545 5.94069545,5.01657 C6.02604,5.10973909 6.14812364,5.16057273 6.27440455,5.15544273 C6.58671273,5.15544273 6.74284091,4.92676909 6.74284091,4.46937 L6.74284091,0.562279091 C6.75092455,0.425012727 6.71221636,0.289093636 6.63298636,0.176751818 Z" id="Path"></path>
                    </g>
                    <path d="M16.56135,2.21009727 C16.2322009,1.87939364 15.7842845,1.69424727 15.3177136,1.69606091 L14.6399318,1.69606091 L14.6399318,1.50951545 C14.6412273,1.12341818 14.4926127,0.751881818 14.2253864,0.473151818 L14.2005136,0.446206364 C14.1985964,0.444289091 14.1966791,0.442371818 14.1947618,0.440454545 C13.6103564,-0.140738182 12.6654518,-0.138199091 12.0842591,0.446206364 C11.8030936,0.726128182 11.6449445,1.10652545 11.6448409,1.50329727 L11.6448409,1.68984273 L5.43080455,1.68984273 L5.43080455,1.50329727 C5.4321,1.1172 5.28348545,0.745663636 5.01625909,0.466933636 L4.99138636,0.439988182 C4.98946909,0.438070909 4.98755182,0.436153636 4.98563455,0.434236364 C4.40128091,-0.146956364 3.45637636,-0.144417273 2.87513182,0.439988182 C2.59396636,0.71991 2.43581727,1.10030727 2.43571364,1.49707909 L2.43571364,1.68362455 L1.75793182,1.68362455 L1.75171364,1.67947909 C0.786496364,1.68175909 0.00461181818,2.46364364 0.00233181818,3.42886091 L0.00233181818,16.9844973 C0.00264272727,17.4360927 0.177995455,17.8699664 0.491495455,18.19497 L0.516368182,18.2219155 C0.845517273,18.5526191 1.29343364,18.7377655 1.76000455,18.7359518 L15.3177136,18.7359518 C15.7840255,18.7382836 16.2318382,18.5539145 16.56135,18.2239882 C16.8920536,17.8948391 17.0772,17.4469227 17.0753864,16.9803518 L17.0753864,3.45373364 C17.0772,2.98711091 16.8920536,2.53924636 16.56135,2.21009727 Z M12.4739318,2.09817 L12.4739318,1.49293364 C12.4743464,1.31778818 12.5444564,1.14994909 12.6687682,1.02657 C12.6702191,1.02511909 12.67167,1.02366818 12.6731727,1.02216545 C12.9301909,0.767582727 13.3448918,0.769551818 13.5994227,1.02657 L13.6160045,1.04315182 C13.7295382,1.16539091 13.7924973,1.32613091 13.7921864,1.49293364 L13.7921864,2.70340636 C13.7923936,2.71459909 13.7923418,2.72584364 13.7919791,2.73703636 C13.7804755,3.09401182 13.4817436,3.37403727 13.1247682,3.36253364 C12.76401,3.35797364 12.47388,3.06421636 12.4739318,2.70340636 L12.4739318,2.09817 L12.4739318,2.09817 Z M3.27309545,2.70340636 L3.27309545,2.09817 L3.28138636,1.49293364 C3.28123091,1.31804727 3.35056364,1.15031182 3.47415,1.02657 C3.47560091,1.02511909 3.47705182,1.02366818 3.47855455,1.02216545 C3.73557273,0.767582727 4.15027364,0.769551818 4.40480455,1.02657 L4.42138636,1.04315182 C4.53492,1.16539091 4.59787909,1.32613091 4.59756818,1.49293364 L4.59756818,2.70340636 C4.59953727,2.73429 4.59917455,2.76522545 4.59658364,2.79605727 C4.56725455,3.13821273 4.26613909,3.39186273 3.92393182,3.36253364 C3.90118364,3.36362182 3.87843545,3.36351818 3.85568727,3.36211909 C3.51296182,3.34108091 3.25210909,3.04618364 3.27309545,2.70340636 Z M0.848004545,3.43093364 C0.850284545,2.92819364 1.25726455,2.52121364 1.76000455,2.51893364 L2.43778636,2.51893364 L2.43778636,2.70547909 C2.43778636,3.11587909 2.72589545,4.20198818 3.95502273,4.20198818 C5.16756818,4.20198818 5.42665909,3.11587909 5.42665909,2.70340636 L5.42665909,2.51686091 L11.6406955,2.51686091 L11.6406955,2.70340636 C11.6406955,3.11587909 11.8935682,4.20198818 13.1372045,4.20198818 C14.4264409,4.20198818 14.6337136,3.11795182 14.6337136,2.70340636 L14.6337136,2.51686091 L15.3094227,2.51686091 C15.5513618,2.51655 15.7833518,2.61277636 15.9540409,2.78424273 C16.1253,2.95503545 16.2215264,3.18697364 16.2214227,3.42886091 L16.2214228,6.03013364 L0.848004545,6.03013364 L0.848004545,3.43093364 Z M16.2234955,16.98657 C16.2238064,17.2285091 16.12758,17.4604991 15.9561136,17.6311882 C15.7854245,17.8026545 15.5534345,17.8988809 15.3114955,17.89857 L1.76000455,17.89857 C1.51635545,17.8953573 1.28410636,17.7945709 1.11538636,17.6187518 L1.09673182,17.60217 C0.937598182,17.4341755 0.848626364,17.2117718 0.848004545,16.9803518 L0.848004545,6.86751545 L16.2234962,6.86751545 L16.2234955,16.98657 L16.2234955,16.98657 Z" id="Shape"></path>
                </g>
            </g>
        </g>
    </g>
</svg>