<svg width="37" height="36" viewBox="0 0 37 36" fill="none" xmlns="http://www.w3.org/2000/svg">
<path d="M18.5 36C8.564 36 0.5 27.936 0.5 18C0.5 8.064 8.564 0 18.5 0C28.436 0 36.5 8.064 36.5 18C36.5 27.936 28.436 36 18.5 36Z" fill="#4C7FF7"/>
<mask id="mask0_4129_2728" style="mask-type:alpha" maskUnits="userSpaceOnUse" x="0" y="0" width="37" height="36">
<circle cx="18.5" cy="18" r="18" fill="url(#paint0_linear_4129_2728)"/>
</mask>
<g mask="url(#mask0_4129_2728)">
<path d="M8.01416 15.1582C8.01416 14.5841 8.53837 14.1528 9.10173 14.2635L30.0738 18.3828C30.5015 18.4668 30.8099 18.8417 30.8099 19.2775V29.0951H8.01416V15.1582Z" fill="url(#paint1_linear_4129_2728)"/>
<path d="M20.3892 10.4152C20.2497 8.9109 21.3562 7.57838 22.8605 7.43895C24.3649 7.29952 25.6974 8.40598 25.8368 9.9103C25.9762 11.4146 24.8698 12.7471 23.3655 12.8866C21.8611 13.026 20.5286 11.9195 20.3892 10.4152Z" fill="url(#paint2_linear_4129_2728)"/>
<path d="M16.5386 8.7408C15.4898 9.43732 14.075 9.15177 13.3785 8.10302C12.682 7.05426 12.9675 5.63944 14.0163 4.94293C15.065 4.24642 16.4799 4.53196 17.1764 5.58072C17.8729 6.62947 17.5873 8.04429 16.5386 8.7408Z" fill="url(#paint3_linear_4129_2728)"/>
<g style="mix-blend-mode:color-dodge">
<path d="M13.1763 20.7522C11.5979 18.5478 12.1054 15.4812 14.3098 13.9028C16.5142 12.3244 19.5807 12.8319 21.1591 15.0363C22.7375 17.2407 22.23 20.3073 20.0256 21.8857C17.8212 23.4641 14.7547 22.9566 13.1763 20.7522Z" fill="url(#paint4_linear_4129_2728)"/>
</g>
<path d="M6.19043 25.3523C6.19043 24.2803 6.93739 23.3531 7.98486 23.125L29.7039 18.3943C30.2724 18.2705 30.8098 18.7035 30.8098 19.2852V36.9963C30.8098 38.0702 30.0602 38.9985 29.0103 39.2247L7.29428 43.9028C6.72639 44.0251 6.19043 43.5923 6.19043 43.0114V25.3523Z" fill="url(#paint5_linear_4129_2728)"/>
</g>
<defs>
<linearGradient id="paint0_linear_4129_2728" x1="38.7909" y1="-7.07373e-09" x2="39.0404" y2="32.2863" gradientUnits="userSpaceOnUse">
<stop stop-color="#41D7FF"/>
<stop offset="1" stop-color="#4C7FF7"/>
</linearGradient>
<linearGradient id="paint1_linear_4129_2728" x1="19.3184" y1="13.7998" x2="19.3184" y2="22.7998" gradientUnits="userSpaceOnUse">
<stop stop-color="#1E3C91"/>
<stop offset="1" stop-color="#4C7FF7"/>
</linearGradient>
<linearGradient id="paint2_linear_4129_2728" x1="19.8299" y1="12.465" x2="26.0881" y2="6.54563" gradientUnits="userSpaceOnUse">
<stop stop-color="white" stop-opacity="0.8"/>
<stop offset="1" stop-color="white" stop-opacity="0"/>
</linearGradient>
<linearGradient id="paint3_linear_4129_2728" x1="18.2636" y1="8.3415" x2="11.9548" y2="5.72727" gradientUnits="userSpaceOnUse">
<stop stop-color="white"/>
<stop offset="1" stop-color="white" stop-opacity="0"/>
</linearGradient>
<linearGradient id="paint4_linear_4129_2728" x1="12.5428" y1="10.8722" x2="20.0256" y2="21.8857" gradientUnits="userSpaceOnUse">
<stop stop-color="white" stop-opacity="0.8"/>
<stop offset="1" stop-color="white" stop-opacity="0.15"/>
</linearGradient>
<linearGradient id="paint5_linear_4129_2728" x1="32.3765" y1="18.1535" x2="32.994" y2="38.0463" gradientUnits="userSpaceOnUse">
<stop stop-color="white"/>
<stop offset="1" stop-color="#4C7FF7"/>
</linearGradient>
</defs>
</svg>
