<svg width="175" height="14" viewBox="0 0 175 14" fill="none" xmlns="http://www.w3.org/2000/svg">
<path d="M6.6417 0.0310059C8.50015 0.0310059 9.81021 0.609869 11.0593 1.73713C11.2117 1.88946 11.2117 2.10273 11.0898 2.25506L9.96254 3.41278C9.84068 3.56512 9.65788 3.56512 9.50555 3.41278C8.74388 2.74252 7.70802 2.34646 6.70263 2.34646C4.35671 2.34646 2.62012 4.29631 2.62012 6.61176C2.62012 8.89675 4.38718 10.8466 6.70263 10.8466C7.79942 10.8466 8.74388 10.4201 9.50555 9.81074C9.65788 9.68888 9.84068 9.68888 9.96254 9.81074L11.0898 10.9685C11.2421 11.0903 11.2117 11.3341 11.0593 11.4559C9.81021 12.6746 8.25642 13.223 6.61123 13.223C2.95525 13.223 0 10.3287 0 6.6727C0 3.01672 2.98572 0.0310059 6.6417 0.0310059Z" fill="#4C7FF7"/>
<path d="M13.4966 0.54851C13.4966 0.365711 13.649 0.213379 13.8318 0.213379H15.5379C15.7207 0.213379 15.873 0.365711 15.873 0.54851V12.6437C15.873 12.8265 15.7207 12.9788 15.5379 12.9788H13.8318C13.649 12.9788 13.4966 12.8265 13.4966 12.6437V0.54851Z" fill="#4C7FF7"/>
<path d="M19.2243 0.54851C19.2243 0.365711 19.3766 0.213379 19.5594 0.213379H24.7997C26.9933 0.213379 28.7908 1.98044 28.7908 4.14356C28.7908 5.81921 27.6635 7.1902 26.0793 7.83L28.5775 12.4609C28.6994 12.7046 28.5775 12.9788 28.2728 12.9788H26.3535C26.2011 12.9788 26.1097 12.8874 26.0488 12.8265L23.6115 7.98233H21.5702V12.6437C21.5702 12.8265 21.4179 12.9788 21.2351 12.9788H19.5594C19.3462 12.9788 19.2243 12.8265 19.2243 12.6437V0.54851V0.54851ZM24.5864 6.03248C25.5613 6.03248 26.3839 5.17942 26.3839 4.17402C26.3839 3.19909 25.5309 2.40697 24.5864 2.40697H21.6007V6.03248H24.5864Z" fill="#4C7FF7"/>
<path d="M37.0472 0.0307617C38.9057 0.0307617 40.2157 0.609625 41.4648 1.73688C41.6172 1.88922 41.6172 2.10248 41.4953 2.25481L40.3681 3.41254C40.2462 3.56487 40.0634 3.56487 39.9111 3.41254C39.1494 2.74228 38.1135 2.34621 37.1081 2.34621C34.7622 2.34621 33.0256 4.29607 33.0256 6.61152C33.0256 8.89651 34.7927 10.8464 37.1081 10.8464C38.2049 10.8464 39.1494 10.4198 39.9111 9.8105C40.0634 9.68863 40.2462 9.68863 40.3681 9.8105L41.4953 10.9682C41.6476 11.0901 41.6172 11.3338 41.4648 11.4557C40.2157 12.6743 38.6619 13.2227 37.0167 13.2227C33.3608 13.2227 30.4055 10.3284 30.4055 6.67245C30.4055 3.01648 33.3912 0.0307617 37.0472 0.0307617Z" fill="#4C7FF7"/>
<path d="M43.9022 0.54851C43.9022 0.365711 44.0545 0.213379 44.2373 0.213379H45.913C46.0958 0.213379 46.2481 0.365711 46.2481 0.54851V10.8157H50.9095C51.1227 10.8157 51.2446 10.968 51.2446 11.1508V12.6437C51.2446 12.8265 51.0923 12.9788 50.9095 12.9788H44.2068C43.9936 12.9788 43.8717 12.8265 43.8717 12.6437V0.54851H43.9022Z" fill="#4C7FF7"/>
<path d="M53.1335 0.54851C53.1335 0.365711 53.2859 0.213379 53.4687 0.213379H60.9025C61.1158 0.213379 61.2376 0.365711 61.2376 0.54851V2.04137C61.2376 2.22417 61.0853 2.3765 60.9025 2.3765H55.4795V5.39268H59.9885C60.1713 5.39268 60.3236 5.54501 60.3236 5.72781V7.25114C60.3236 7.4644 60.1713 7.58627 59.9885 7.58627H55.4795V10.7852H60.9025C61.1158 10.7852 61.2376 10.9376 61.2376 11.1204V12.6132C61.2376 12.796 61.0853 12.9484 60.9025 12.9484H53.4687C53.2554 12.9484 53.1335 12.796 53.1335 12.6132V0.54851Z" fill="#4C7FF7"/>
<path d="M63.1266 11.212L63.7968 10.0847C63.9492 9.84097 64.2538 9.84097 64.4062 9.96283C64.4976 10.0238 65.9904 11.0901 67.1786 11.0901C68.1231 11.0901 68.8543 10.4808 68.8543 9.68864C68.8543 8.74418 68.0621 8.10438 66.5388 7.49505C64.8327 6.79432 63.0961 5.69753 63.0961 3.53441C63.0961 1.91968 64.3148 0.0307617 67.2091 0.0307617C69.0675 0.0307617 70.4995 0.975223 70.8651 1.24942C71.0479 1.37129 71.1088 1.67595 70.9869 1.85875L70.2862 2.89461C70.1339 3.10788 69.8597 3.26021 69.6464 3.10788C69.4941 3.01648 68.1231 2.10248 67.1177 2.10248C66.0818 2.10248 65.503 2.80321 65.503 3.38208C65.503 4.23514 66.1732 4.814 67.6661 5.42333C69.4331 6.12406 71.4744 7.19039 71.4744 9.56677C71.4744 11.4557 69.8597 13.1923 67.27 13.1923C64.9546 13.1923 63.614 12.126 63.2484 11.7604C63.0352 11.608 62.9438 11.5166 63.1266 11.212Z" fill="#4C7FF7"/>
<path d="M83.6305 0.0307617C87.2865 0.0307617 90.2112 2.98601 90.2112 6.64199C90.2112 10.298 87.2865 13.1923 83.6305 13.1923C79.9745 13.1923 77.0802 10.298 77.0802 6.64199C77.0802 2.98601 79.9745 0.0307617 83.6305 0.0307617ZM83.6305 11.9127C86.5248 11.9127 88.9316 9.5363 88.9316 6.64199C88.9316 3.74767 86.5248 1.31035 83.6305 1.31035C80.7362 1.31035 78.3598 3.71721 78.3598 6.64199C78.3598 9.5363 80.7362 11.9127 83.6305 11.9127Z" fill="#728099"/>
<path d="M93.0142 0.54851C93.0142 0.365711 93.1665 0.213379 93.3493 0.213379H100.539C100.753 0.213379 100.875 0.365711 100.875 0.54851V1.06644C100.875 1.24924 100.722 1.40157 100.539 1.40157H94.3852V6.39808H99.6254C99.8082 6.39808 99.9605 6.55041 99.9605 6.73321V7.25114C99.9605 7.43394 99.8082 7.58627 99.6254 7.58627H94.3852V12.5828C94.3852 12.7656 94.2328 12.9179 94.05 12.9179H93.3798C93.1665 12.9179 93.0446 12.7656 93.0446 12.5828V0.54851H93.0142Z" fill="#728099"/>
<path d="M105.597 12.5217L111.294 0.213266C111.355 0.0913997 111.446 0 111.599 0H111.782C111.964 0 112.025 0.0913997 112.086 0.213266L117.722 12.5217C117.844 12.7655 117.692 13.0092 117.418 13.0092H115.834C115.559 13.0092 115.437 12.8873 115.316 12.6436L114.432 10.6633H108.918L108.034 12.6436C107.973 12.8264 107.79 13.0092 107.516 13.0092H105.932C105.627 13.0092 105.475 12.7655 105.597 12.5217ZM113.488 8.65248L111.66 4.63091H111.599L109.832 8.65248H113.488Z" fill="#4C7FF7"/>
<path d="M119.368 0.365893C119.368 0.183094 119.52 0.0307617 119.703 0.0307617H120.16L127.776 8.10438H127.807V0.548692C127.807 0.365893 127.959 0.213561 128.142 0.213561H129.818C130 0.213561 130.153 0.365893 130.153 0.548692V12.8572C130.153 13.0399 130 13.1923 129.818 13.1923H129.391L121.744 4.814H121.714V12.6744C121.714 12.8572 121.561 13.0095 121.378 13.0095H119.703C119.52 13.0095 119.368 12.8572 119.368 12.6744V0.365893Z" fill="#4C7FF7"/>
<path d="M139.171 0.0307617C140.816 0.0307617 142.4 0.670558 143.619 1.73688C143.771 1.88922 143.771 2.10248 143.649 2.25482L142.522 3.44301C142.37 3.59534 142.217 3.59534 142.035 3.44301C141.243 2.74228 140.268 2.37668 139.262 2.37668C136.977 2.37668 135.18 4.32654 135.18 6.61152C135.18 8.86604 136.977 10.7854 139.293 10.7854C140.329 10.7854 141.09 10.4808 141.456 10.3284V8.77464H139.993C139.78 8.77464 139.658 8.62231 139.658 8.43951V7.00759C139.658 6.79432 139.811 6.67246 139.993 6.67246H143.497C143.68 6.67246 143.832 6.82479 143.832 7.00759V11.6994C143.832 11.8518 143.771 11.9432 143.68 12.0041C143.68 12.0041 141.791 13.1923 139.14 13.1923C135.515 13.1923 132.59 10.298 132.59 6.64199C132.59 2.98601 135.515 0.0307617 139.171 0.0307617Z" fill="#4C7FF7"/>
<path d="M146.513 0.54851C146.513 0.365711 146.666 0.213379 146.848 0.213379H154.313C154.526 0.213379 154.648 0.365711 154.648 0.54851V2.04137C154.648 2.22417 154.496 2.3765 154.313 2.3765H148.89V5.39268H153.399C153.582 5.39268 153.734 5.54501 153.734 5.72781V7.25114C153.734 7.4644 153.582 7.58627 153.399 7.58627H148.89V10.7852H154.313C154.526 10.7852 154.648 10.9376 154.648 11.1204V12.6132C154.648 12.796 154.496 12.9484 154.313 12.9484H146.879C146.666 12.9484 146.544 12.796 146.544 12.6132V0.54851H146.513Z" fill="#4C7FF7"/>
<path d="M157.268 0.54851C157.268 0.365711 157.42 0.213379 157.603 0.213379H159.279C159.462 0.213379 159.614 0.365711 159.614 0.54851V10.8157H164.275C164.489 10.8157 164.61 10.968 164.61 11.1508V12.6437C164.61 12.8265 164.458 12.9788 164.275 12.9788H157.573C157.359 12.9788 157.237 12.8265 157.237 12.6437V0.54851H157.268Z" fill="#4C7FF7"/>
<path d="M165.768 11.212L166.438 10.0847C166.591 9.84097 166.895 9.84097 167.048 9.96283C167.139 10.0238 168.632 11.0901 169.82 11.0901C170.765 11.0901 171.496 10.4808 171.496 9.68864C171.496 8.74418 170.704 8.10438 169.18 7.49505C167.474 6.79432 165.738 5.69753 165.738 3.53441C165.738 1.91968 166.956 0.0307617 169.851 0.0307617C171.709 0.0307617 173.141 0.975223 173.507 1.24942C173.689 1.37129 173.75 1.67595 173.628 1.85875L172.928 2.89461C172.775 3.10788 172.501 3.26021 172.288 3.10788C172.136 3.01648 170.765 2.10248 169.759 2.10248C168.723 2.10248 168.144 2.80321 168.144 3.38208C168.144 4.23514 168.815 4.814 170.308 5.42333C172.075 6.12406 174.116 7.19039 174.116 9.56677C174.116 11.4557 172.501 13.1923 169.911 13.1923C167.596 13.1923 166.256 12.126 165.89 11.7604C165.677 11.608 165.585 11.5166 165.768 11.212Z" fill="#4C7FF7"/>
</svg>
