<?xml version="1.0" encoding="UTF-8"?>
<svg width="350px" height="212px" viewBox="0 0 350 212" version="1.1" xmlns="http://www.w3.org/2000/svg" xmlns:xlink="http://www.w3.org/1999/xlink">
    <!-- Generator: Sketch 52.6 (67491) - http://www.bohemiancoding.com/sketch -->
    <title>Logo Angels</title>
    <desc>Created with Sketch.</desc>
    <defs>
        <polygon id="path-1" points="0 0.5303 22.4330326 0.5303 22.4330326 27 0 27"></polygon>
        <polygon id="path-3" points="0.1401 0.5303 22.5722983 0.5303 22.5722983 27 0.1401 27"></polygon>
        <polygon id="path-5" points="0.663860042 0.5303 17.5664 0.5303 17.5664 27 0.663860042 27"></polygon>
        <polygon id="path-7" points="0 0.5304 21.728 0.5304 21.728 27 0 27"></polygon>
        <polygon id="path-9" points="0.0979600417 0.5303 17 0.5303 17 27 0.0979600417 27"></polygon>
    </defs>
    <g id="Symbols" stroke="none" stroke-width="1" fill="none" fill-rule="evenodd">
        <g id="Logo-Angels">
            <g>
                <g id="Group-3" transform="translate(0.000000, 184.309000)">
                    <mask id="mask-2" fill="white">
                        <use xlink:href="#path-1"></use>
                    </mask>
                    <g id="Clip-2"></g>
                    <path d="M13.272,0.5303 C16.985,0.5303 19.669,1.7063 22.168,3.9493 C22.5,4.2433 22.5,4.6853 22.206,4.9783 L19.963,7.2953 C19.706,7.5893 19.338,7.5893 19.044,7.2953 C17.5,5.9343 15.441,5.1263 13.382,5.1263 C8.677,5.1263 5.184,9.0593 5.184,13.6923 C5.184,18.2883 8.713,22.1843 13.419,22.1843 C15.625,22.1843 17.5,21.3393 19.044,20.0893 C19.338,19.8323 19.742,19.8673 19.963,20.0893 L22.242,22.4423 C22.537,22.6993 22.463,23.1763 22.206,23.4333 C19.706,25.8613 16.544,27.0003 13.272,27.0003 C5.919,27.0003 0,21.1553 0,13.8023 C0,6.4493 5.919,0.5303 13.272,0.5303" id="Fill-1" fill="#FFFFFF" mask="url(#mask-2)"></path>
                </g>
                <path d="M27.0225,185.9057 C27.0225,185.5377 27.3535,185.2077 27.7205,185.2077 L31.1395,185.2077 C31.5075,185.2077 31.8375,185.5377 31.8375,185.9057 L31.8375,210.2437 C31.8375,210.6107 31.5075,210.9417 31.1395,210.9417 L27.7205,210.9417 C27.3535,210.9417 27.0225,210.6107 27.0225,210.2437 L27.0225,185.9057 Z" id="Fill-4" fill="#FFFFFF"></path>
                <path d="M49.3374,196.935 C51.2864,196.935 52.9774,195.244 52.9774,193.185 C52.9774,191.236 51.2864,189.619 49.3374,189.619 L43.3454,189.619 L43.3454,196.935 L49.3374,196.935 Z M38.5294,185.906 C38.5294,185.538 38.8234,185.207 39.2274,185.207 L49.7424,185.207 C54.1534,185.207 57.7564,188.737 57.7564,193.111 C57.7564,196.494 55.5144,199.25 52.3164,200.538 L57.3524,209.875 C57.6094,210.353 57.3524,210.942 56.7274,210.942 L52.8664,210.942 C52.5364,210.942 52.3524,210.757 52.2784,210.611 L47.3894,200.869 L43.3084,200.869 L43.3084,210.244 C43.3084,210.611 42.9774,210.942 42.6094,210.942 L39.2274,210.942 C38.8234,210.942 38.5294,210.611 38.5294,210.244 L38.5294,185.906 Z" id="Fill-6" fill="#FFFFFF"></path>
                <g id="Group-10" transform="translate(61.000000, 184.309000)">
                    <mask id="mask-4" fill="white">
                        <use xlink:href="#path-3"></use>
                    </mask>
                    <g id="Clip-9"></g>
                    <path d="M13.4111,0.5303 C17.1251,0.5303 19.8081,1.7063 22.3081,3.9493 C22.6391,4.2433 22.6391,4.6853 22.3451,4.9783 L20.1021,7.2953 C19.8451,7.5893 19.4781,7.5893 19.1831,7.2953 C17.6401,5.9343 15.5801,5.1263 13.5221,5.1263 C8.8161,5.1263 5.3231,9.0593 5.3231,13.6923 C5.3231,18.2883 8.8531,22.1843 13.5581,22.1843 C15.7641,22.1843 17.6401,21.3393 19.1831,20.0893 C19.4781,19.8323 19.8821,19.8673 20.1021,20.0893 L22.3821,22.4423 C22.6761,22.6993 22.6021,23.1763 22.3451,23.4333 C19.8451,25.8613 16.6831,27.0003 13.4111,27.0003 C6.0591,27.0003 0.1401,21.1553 0.1401,13.8023 C0.1401,6.4493 6.0591,0.5303 13.4111,0.5303" id="Fill-8" fill="#FFFFFF" mask="url(#mask-4)"></path>
                </g>
                <path d="M88.1616,185.9057 C88.1616,185.5377 88.4556,185.2077 88.8606,185.2077 L92.2426,185.2077 C92.6106,185.2077 92.9416,185.5377 92.9416,185.9057 L92.9416,206.5297 L102.3156,206.5297 C102.7206,206.5297 103.0146,206.8607 103.0146,207.2277 L103.0146,210.2437 C103.0146,210.6107 102.7206,210.9417 102.3156,210.9417 L88.8606,210.9417 C88.4556,210.9417 88.1616,210.6107 88.1616,210.2437 L88.1616,185.9057 Z" id="Fill-11" fill="#FFFFFF"></path>
                <path d="M106.7275,185.9057 C106.7275,185.5377 107.0215,185.2077 107.4255,185.2077 L122.3885,185.2077 C122.7925,185.2077 123.0865,185.5377 123.0865,185.9057 L123.0865,188.9207 C123.0865,189.2877 122.7925,189.6187 122.3885,189.6187 L111.5065,189.6187 L111.5065,195.6477 L120.5875,195.6477 C120.9555,195.6477 121.2855,195.9787 121.2855,196.3457 L121.2855,199.3977 C121.2855,199.8017 120.9555,200.0967 120.5875,200.0967 L111.5065,200.0967 L111.5065,206.5297 L122.3885,206.5297 C122.7925,206.5297 123.0865,206.8607 123.0865,207.2277 L123.0865,210.2437 C123.0865,210.6107 122.7925,210.9417 122.3885,210.9417 L107.4255,210.9417 C107.0215,210.9417 106.7275,210.6107 106.7275,210.2437 L106.7275,185.9057 Z" id="Fill-13" fill="#FFFFFF"></path>
                <g id="Group-17" transform="translate(126.000000, 184.309000)">
                    <mask id="mask-6" fill="white">
                        <use xlink:href="#path-5"></use>
                    </mask>
                    <g id="Clip-16"></g>
                    <path d="M0.8384,23.0293 L2.1624,20.7513 C2.4564,20.2363 3.0814,20.2363 3.4124,20.4933 C3.5954,20.6033 6.5734,22.7723 8.9634,22.7723 C10.8744,22.7723 12.3084,21.5223 12.3084,19.9413 C12.3084,18.0663 10.7284,16.7803 7.6394,15.5303 C4.1844,14.1333 0.7284,11.9263 0.7284,7.5893 C0.7284,4.3163 3.1544,0.5303 9.0004,0.5303 C12.7504,0.5303 15.6174,2.4423 16.3534,2.9943 C16.7204,3.2143 16.8304,3.8393 16.5734,4.2063 L15.1764,6.3013 C14.8814,6.7433 14.3304,7.0383 13.8894,6.7433 C13.5954,6.5593 10.8004,4.7203 8.7784,4.7203 C6.6834,4.7203 5.5444,6.1193 5.5444,7.2953 C5.5444,9.0223 6.9044,10.1993 9.8814,11.4123 C13.4484,12.8453 17.5664,14.9783 17.5664,19.7213 C17.5664,23.5083 14.2944,27.0003 9.1094,27.0003 C4.4774,27.0003 1.7574,24.8323 1.0224,24.1333 C0.6914,23.8013 0.5074,23.6183 0.8384,23.0293" id="Fill-15" fill="#FFFFFF" mask="url(#mask-6)"></path>
                </g>
                <path d="M168.125,208.7367 C173.971,208.7367 178.785,203.9567 178.785,198.1117 C178.785,192.2657 173.971,187.4137 168.125,187.4137 C162.279,187.4137 157.5,192.2657 157.5,198.1117 C157.5,203.9567 162.279,208.7367 168.125,208.7367 M168.125,184.8397 C175.478,184.8397 181.359,190.7577 181.359,198.1117 C181.359,205.4647 175.478,211.3087 168.125,211.3087 C160.771,211.3087 154.926,205.4647 154.926,198.1117 C154.926,190.7577 160.771,184.8397 168.125,184.8397" id="Fill-18" fill="#74B6F8"></path>
                <path d="M186.9854,185.9057 C186.9854,185.5377 187.2794,185.2077 187.6834,185.2077 L202.1684,185.2077 C202.5724,185.2077 202.8674,185.5377 202.8674,185.9057 L202.8674,186.9717 C202.8674,187.3397 202.5724,187.6707 202.1684,187.6707 L189.8164,187.6707 L189.8164,197.7437 L200.3674,197.7437 C200.7344,197.7437 201.0664,198.0747 201.0664,198.4417 L201.0664,199.5087 C201.0664,199.8757 200.7344,200.2067 200.3674,200.2067 L189.8164,200.2067 L189.8164,210.2437 C189.8164,210.6107 189.4844,210.9417 189.1174,210.9417 L187.6834,210.9417 C187.2794,210.9417 186.9854,210.6107 186.9854,210.2437 L186.9854,185.9057 Z" id="Fill-20" fill="#74B6F8"></path>
                <path d="M228.1611,202.1557 L224.4841,194.0677 L224.3751,194.0677 L220.7711,202.1557 L228.1611,202.1557 Z M212.2781,209.9857 L223.7131,185.2437 C223.8231,185.0227 224.0071,184.8397 224.3381,184.8397 L224.7051,184.8397 C225.0721,184.8397 225.2201,185.0227 225.3301,185.2437 L236.6531,209.9857 C236.8741,210.4637 236.5791,210.9417 236.0291,210.9417 L232.8301,210.9417 C232.2781,210.9417 232.0201,210.7197 231.7641,210.2067 L229.9631,206.2357 L218.9701,206.2357 L217.1691,210.2067 C217.0211,210.5747 216.6911,210.9417 216.1021,210.9417 L212.9031,210.9417 C212.3521,210.9417 212.0581,210.4637 212.2781,209.9857 Z" id="Fill-22" fill="#FFFFFF"></path>
                <g id="Group-26" transform="translate(240.000000, 184.309000)">
                    <mask id="mask-8" fill="white">
                        <use xlink:href="#path-7"></use>
                    </mask>
                    <g id="Clip-25"></g>
                    <path d="M0,1.1914 C0,0.8244 0.331,0.5304 0.699,0.5304 L1.618,0.5304 L16.912,16.7804 L16.949,16.7804 L16.949,1.5964 C16.949,1.2284 17.242,0.8984 17.646,0.8984 L21.028,0.8984 C21.396,0.8984 21.728,1.2284 21.728,1.5964 L21.728,26.3384 C21.728,26.7064 21.396,27.0004 21.028,27.0004 L20.146,27.0004 L4.779,10.1264 L4.742,10.1264 L4.742,25.9344 C4.742,26.3014 4.448,26.6324 4.044,26.6324 L0.699,26.6324 C0.331,26.6324 0,26.3014 0,25.9344 L0,1.1914 Z" id="Fill-24" fill="#FFFFFF" mask="url(#mask-8)"></path>
                </g>
                <path d="M279.7783,184.8393 C283.0883,184.8393 286.2503,186.1263 288.7503,188.2583 C289.0433,188.5523 289.0803,188.9943 288.7853,189.2873 L286.5073,191.6773 C286.2133,191.9723 285.8823,191.9723 285.5503,191.6773 C283.9693,190.2803 282.0213,189.5443 280.0003,189.5443 C275.4043,189.5443 271.7643,193.4793 271.7643,198.0743 C271.7643,202.6323 275.4043,206.4933 280.0363,206.4933 C282.0953,206.4933 283.6753,205.8683 284.4113,205.5743 L284.4113,202.4493 L281.4693,202.4493 C281.0653,202.4493 280.7713,202.1553 280.7713,201.7873 L280.7713,198.8833 C280.7713,198.4793 281.0653,198.1843 281.4693,198.1843 L288.5283,198.1843 C288.8963,198.1843 289.1903,198.5163 289.1903,198.8833 L289.1903,208.2943 C289.1903,208.5893 289.0433,208.7723 288.8963,208.8823 C288.8963,208.8823 285.1093,211.2723 279.7783,211.2723 C272.4633,211.2723 266.5803,205.4643 266.5803,198.1113 C266.5803,190.7583 272.4633,184.8393 279.7783,184.8393" id="Fill-27" fill="#FFFFFF"></path>
                <path d="M294.5957,185.9057 C294.5957,185.5377 294.8897,185.2077 295.2937,185.2077 L310.2567,185.2077 C310.6617,185.2077 310.9557,185.5377 310.9557,185.9057 L310.9557,188.9207 C310.9557,189.2877 310.6617,189.6187 310.2567,189.6187 L299.3747,189.6187 L299.3747,195.6477 L308.4557,195.6477 C308.8237,195.6477 309.1537,195.9787 309.1537,196.3457 L309.1537,199.3977 C309.1537,199.8017 308.8237,200.0967 308.4557,200.0967 L299.3747,200.0967 L299.3747,206.5297 L310.2567,206.5297 C310.6617,206.5297 310.9557,206.8607 310.9557,207.2277 L310.9557,210.2437 C310.9557,210.6107 310.6617,210.9417 310.2567,210.9417 L295.2937,210.9417 C294.8897,210.9417 294.5957,210.6107 294.5957,210.2437 L294.5957,185.9057 Z" id="Fill-29" fill="#FFFFFF"></path>
                <path d="M316.2139,185.9057 C316.2139,185.5377 316.5079,185.2077 316.9119,185.2077 L320.2949,185.2077 C320.6619,185.2077 320.9929,185.5377 320.9929,185.9057 L320.9929,206.5297 L330.3679,206.5297 C330.7729,206.5297 331.0669,206.8607 331.0669,207.2277 L331.0669,210.2437 C331.0669,210.6107 330.7729,210.9417 330.3679,210.9417 L316.9119,210.9417 C316.5079,210.9417 316.2139,210.6107 316.2139,210.2437 L316.2139,185.9057 Z" id="Fill-31" fill="#FFFFFF"></path>
                <g id="Group-35" transform="translate(333.000000, 184.309000)">
                    <mask id="mask-10" fill="white">
                        <use xlink:href="#path-9"></use>
                    </mask>
                    <g id="Clip-34"></g>
                    <path d="M0.2725,23.0293 L1.5955,20.7513 C1.8895,20.2363 2.5155,20.2363 2.8455,20.4933 C3.0305,20.6033 6.0075,22.7723 8.3975,22.7723 C10.3085,22.7723 11.7425,21.5223 11.7425,19.9413 C11.7425,18.0663 10.1615,16.7803 7.0745,15.5303 C3.6175,14.1333 0.1625,11.9263 0.1625,7.5893 C0.1625,4.3163 2.5875,0.5303 8.4335,0.5303 C12.1845,0.5303 15.0515,2.4423 15.7865,2.9943 C16.1545,3.2143 16.2635,3.8393 16.0065,4.2063 L14.6105,6.3013 C14.3155,6.7433 13.7635,7.0383 13.3235,6.7433 C13.0295,6.5593 10.2345,4.7203 8.2125,4.7203 C6.1175,4.7203 4.9785,6.1193 4.9785,7.2953 C4.9785,9.0223 6.3375,10.1993 9.3165,11.4123 C12.8815,12.8453 17.0005,14.9783 17.0005,19.7213 C17.0005,23.5083 13.7285,27.0003 8.5435,27.0003 C3.9125,27.0003 1.1915,24.8323 0.4565,24.1333 C0.1255,23.8013 -0.0585,23.6183 0.2725,23.0293" id="Fill-33" fill="#FFFFFF" mask="url(#mask-10)"></path>
                </g>
                <path d="M292.3447,113.7992 C277.8997,113.7992 264.9077,104.6712 260.0167,91.0852 C259.8237,90.5442 260.1037,89.9462 260.6467,89.7522 C261.1867,89.5572 261.7837,89.8382 261.9787,90.3792 C266.5737,103.1402 278.7757,111.7142 292.3447,111.7142 C305.9137,111.7142 318.1167,103.1402 322.7087,90.3792 C322.9047,89.8372 323.5037,89.5582 324.0427,89.7502 C324.5847,89.9462 324.8657,90.5432 324.6707,91.0852 C319.7817,104.6712 306.7907,113.7992 292.3447,113.7992" id="Fill-36" fill="#FFFFFF"></path>
                <path d="M266.7988,59.1235 C266.5638,59.1235 266.3258,59.0445 266.1308,58.8805 C265.6898,58.5115 265.6308,57.8525 266.0008,57.4115 C272.5508,49.5915 282.1528,45.1045 292.3448,45.1045 C302.5358,45.1045 312.1378,49.5915 318.6868,57.4115 C319.0568,57.8525 318.9988,58.5105 318.5578,58.8795 C318.1148,59.2495 317.4578,59.1905 317.0888,58.7495 C310.9368,51.4035 301.9178,47.1905 292.3448,47.1905 C282.7718,47.1905 273.7518,51.4035 267.5998,58.7505 C267.3928,58.9965 267.0968,59.1235 266.7988,59.1235" id="Fill-38" fill="#FFFFFF"></path>
                <path d="M311.7266,87.5287 C311.6996,87.5747 311.6376,87.6397 311.6496,87.6667 C311.6796,87.7257 311.7476,87.7667 311.7976,87.8167 C311.8276,87.7207 311.8556,87.6277 311.8846,87.5317 C311.8316,87.5317 311.7776,87.5317 311.7266,87.5287 Z M302.6906,96.0517 C301.5266,91.8437 300.3706,87.6327 299.1816,83.4307 C299.0976,83.1327 298.6556,82.6437 298.5916,82.6747 C297.4966,83.2167 296.3416,83.7117 295.3916,84.4597 C294.6446,85.0467 295.1276,85.9177 295.4846,86.6307 C297.2646,90.1797 299.8486,93.1447 302.6906,96.0517 Z M285.7226,82.5537 C284.5116,86.7787 283.3076,90.9837 282.1056,95.1757 C283.1426,95.5487 283.5236,94.8707 283.9326,94.3277 C285.2516,92.5797 286.6216,90.8617 287.8296,89.0387 C290.5696,84.9077 290.4496,84.6047 285.7226,82.5537 Z M306.0496,83.8667 C307.1136,83.0837 307.8626,84.0747 308.6756,84.3987 C312.1586,85.7857 315.6666,86.8597 319.4476,85.7787 C320.2816,85.5397 321.1096,85.2077 321.8626,84.7797 C322.8496,84.2197 324.1616,83.5537 323.9936,82.3527 C323.8506,81.3397 322.3826,81.5727 321.4966,81.3157 C318.7146,80.5097 315.9106,79.7837 313.1096,79.0457 C312.5066,78.8857 311.8856,78.8047 311.6866,78.0727 C319.5286,76.6017 323.3116,72.8217 323.8616,65.9067 C323.8746,65.7317 323.9446,65.5527 323.9246,65.3837 C323.7616,64.0127 324.2256,62.0477 322.9116,61.5077 C321.4186,60.8977 320.9976,62.9477 320.2546,63.9037 C315.2816,70.3077 309.2216,75.5127 302.4846,79.9227 C300.7266,81.0727 300.5456,82.0797 301.1116,83.9397 C302.5146,88.5567 303.6776,93.2487 304.9136,97.9177 C305.1086,98.6527 305.5086,99.5297 304.6686,100.0837 C303.7286,100.7067 303.2206,99.7947 302.7256,99.2537 C299.5136,95.7427 296.4066,92.1327 294.1576,87.9057 C292.4366,84.6697 292.6596,83.7777 295.9166,82.0887 C297.9126,81.0547 298.3846,79.9477 297.6276,77.7987 C296.2616,73.9097 295.2316,69.9027 294.0106,65.9627 C293.7136,65.0027 293.5856,63.5907 292.2756,63.6477 C291.2066,63.6947 291.0216,64.9557 290.7406,65.8797 C289.4646,70.0807 288.2616,74.3057 286.8686,78.4657 C286.2966,80.1667 286.8086,80.9267 288.2806,81.7547 C292.1166,83.9077 292.3466,84.9027 290.0716,88.7817 C287.7896,92.6717 284.9066,96.1157 281.8246,99.3967 C281.3666,99.8857 280.9106,100.6197 280.0766,100.1577 C279.2636,99.7087 279.6046,98.9057 279.7186,98.2487 C280.6036,93.1277 282.2516,88.2027 283.6936,83.2297 C284.1096,81.7937 283.9076,81.0587 282.6466,80.2267 C275.2536,75.3417 268.5646,69.6747 263.3956,62.3777 C263.0396,61.8757 262.6476,61.1667 262.0116,61.3037 C261.1026,61.5017 261.0676,62.5057 260.9086,63.2357 C259.6546,68.9987 263.6926,75.6147 269.4716,77.2797 C270.6456,77.6177 271.8596,77.8177 273.4576,78.1707 C270.3716,79.8097 267.2496,80.1987 264.2916,81.0917 C263.0656,81.4607 260.8656,80.9647 260.8446,82.6017 C260.8266,84.1767 262.7916,84.9227 264.2816,85.4897 C267.7806,86.8197 271.2086,86.2027 274.5796,84.9507 C275.8676,84.4727 277.1186,83.8947 278.7056,83.2287 C277.0766,86.3027 274.8016,88.3677 272.5576,90.8687 C275.3416,91.6297 277.6916,90.6817 280.5696,90.4137 C278.2176,92.4937 275.9486,93.4157 273.3166,93.0867 C270.5906,92.7437 270.0456,91.3117 271.6706,89.1607 C271.9736,88.7587 272.5246,88.4937 272.3726,87.7017 C269.7286,87.8397 267.0416,88.2707 264.4086,87.4117 C262.4366,86.7677 260.6656,85.8507 259.4366,84.1287 C258.0646,82.2057 258.4606,80.7997 260.7096,80.0947 C262.6166,79.4977 264.5996,79.1477 266.5666,78.6827 C266.6036,77.6487 265.7016,77.6137 265.2096,77.2487 C260.3566,73.6517 258.5706,68.7667 259.2096,62.9087 C259.3726,61.4127 259.8556,59.8407 261.5646,59.4177 C263.2256,59.0067 264.1036,60.2907 264.9276,61.4587 C269.7756,68.3237 276.1236,73.5747 282.9236,78.3727 C284.5196,79.4997 284.9846,79.0757 285.4486,77.3917 C286.5936,73.2447 287.8866,69.1367 289.1456,65.0217 C289.6526,63.3657 290.3726,61.7227 292.4186,61.7557 C294.4646,61.7867 295.1246,63.5017 295.6246,65.1227 C296.8956,69.2317 298.2286,73.3327 299.2656,77.5047 C299.7766,79.5527 300.4086,79.3117 301.7876,78.3487 C308.6156,73.5887 314.9176,68.2887 319.8006,61.4577 C320.6226,60.3047 321.4936,58.9977 323.1656,59.4197 C324.7476,59.8147 325.2336,61.2587 325.4426,62.6807 C326.2866,68.4637 324.4366,73.2267 319.9156,76.9517 C319.3316,77.4317 318.4786,77.5897 318.0306,78.6257 C319.8466,79.0677 321.6096,79.4487 323.3446,79.9287 C326.3926,80.7747 326.9016,82.5807 324.6626,84.8517 C321.9806,87.5737 318.5636,88.1187 314.9176,87.9247 C314.0936,87.8797 313.2486,87.4497 312.4176,87.8727 C312.4176,88.0917 312.3586,88.2867 312.4276,88.4097 C313.0276,89.4797 314.7596,90.2407 313.7956,91.7547 C312.7606,93.3757 310.9336,93.3247 309.2536,93.0567 C307.4356,92.7667 305.8406,91.8697 303.9036,90.5917 C306.8296,90.4307 309.3116,91.7437 312.0206,90.9277 C309.9406,88.4637 307.9806,86.1447 306.0186,83.8247 L306.0496,83.8667 Z" id="Fill-40" fill="#74B6F8"></path>
                <path d="M253.5625,43.7348 C254.0405,43.2558 254.7475,43.2538 255.2255,43.7308 C255.6855,44.1888 255.7075,44.9168 255.2295,45.3958 C254.7725,45.8538 254.0025,45.8768 253.5445,45.4188 C253.0655,44.9408 253.1065,44.1928 253.5625,43.7348" id="Fill-42" fill="#74B6F8"></path>
                <path d="M258.1992,39.6166 C258.7302,39.1986 259.4322,39.2826 259.8502,39.8136 C260.2502,40.3226 260.1842,41.0486 259.6522,41.4666 C259.1442,41.8666 258.3772,41.7956 257.9772,41.2866 C257.5592,40.7556 257.6902,40.0156 258.1992,39.6166" id="Fill-44" fill="#74B6F8"></path>
                <path d="M263.2979,36.0903 C263.8759,35.7383 264.5639,35.9073 264.9139,36.4863 C265.2489,37.0403 265.0959,37.7513 264.5189,38.1023 C263.9639,38.4373 263.2119,38.2743 262.8769,37.7213 C262.5269,37.1423 262.7449,36.4253 263.2979,36.0903" id="Fill-46" fill="#74B6F8"></path>
                <path d="M268.7871,33.2055 C269.4031,32.9285 270.0641,33.1785 270.3431,33.7945 C270.6081,34.3845 270.3701,35.0725 269.7531,35.3505 C269.1621,35.6155 268.4361,35.3635 268.1701,34.7725 C267.8921,34.1565 268.1961,33.4715 268.7871,33.2055" id="Fill-48" fill="#74B6F8"></path>
                <path d="M274.5684,31.017 C275.2154,30.816 275.8404,31.145 276.0404,31.791 C276.2334,32.41 275.9124,33.063 275.2674,33.264 C274.6484,33.455 273.9584,33.116 273.7654,32.498 C273.5654,31.852 273.9514,31.208 274.5684,31.017" id="Fill-50" fill="#74B6F8"></path>
                <path d="M280.582,29.5473 C281.248,29.4273 281.829,29.8293 281.949,30.4943 C282.063,31.1313 281.666,31.7413 281.001,31.8623 C280.364,31.9783 279.721,31.5563 279.604,30.9193 C279.484,30.2543 279.945,29.6613 280.582,29.5473" id="Fill-52" fill="#74B6F8"></path>
                <path d="M286.7441,28.8158 C287.4211,28.7758 287.9481,29.2468 287.9861,29.9208 C288.0251,30.5678 287.5561,31.1258 286.8811,31.1638 C286.2341,31.2028 285.6471,30.7058 285.6081,30.0588 C285.5701,29.3838 286.0991,28.8528 286.7441,28.8158" id="Fill-54" fill="#74B6F8"></path>
                <path d="M292.9365,28.8285 C293.6135,28.8705 294.0815,29.4005 294.0395,30.0755 C293.9985,30.7225 293.4665,31.2205 292.7915,31.1785 C292.1455,31.1375 291.6215,30.5745 291.6615,29.9295 C291.7035,29.2535 292.2915,28.7895 292.9365,28.8285" id="Fill-56" fill="#74B6F8"></path>
                <path d="M299.0928,29.5893 C299.7588,29.7123 300.1588,30.2933 300.0348,30.9593 C299.9178,31.5963 299.3298,32.0263 298.6638,31.9023 C298.0278,31.7833 297.5748,31.1613 297.6928,30.5263 C297.8168,29.8603 298.4558,29.4703 299.0928,29.5893" id="Fill-58" fill="#74B6F8"></path>
                <path d="M305.1152,31.0893 C305.7602,31.2933 306.0872,31.9203 305.8842,32.5673 C305.6882,33.1833 305.0532,33.5373 304.4082,33.3333 C303.7902,33.1403 303.4172,32.4663 303.6122,31.8503 C303.8152,31.2043 304.4982,30.8963 305.1152,31.0893" id="Fill-60" fill="#74B6F8"></path>
                <path d="M310.8838,33.3061 C311.4998,33.5861 311.7478,34.2471 311.4678,34.8651 C311.1988,35.4531 310.5258,35.7271 309.9078,35.4471 C309.3198,35.1791 309.0308,34.4661 309.3008,33.8771 C309.5788,33.2601 310.2958,33.0361 310.8838,33.3061" id="Fill-62" fill="#74B6F8"></path>
                <path d="M316.3564,36.2153 C316.9344,36.5693 317.0994,37.2553 316.7474,37.8323 C316.4084,38.3843 315.7054,38.5753 315.1284,38.2223 C314.5774,37.8843 314.3774,37.1413 314.7144,36.5893 C315.0674,36.0123 315.8044,35.8783 316.3564,36.2153" id="Fill-64" fill="#74B6F8"></path>
                <path d="M321.4238,39.7533 C321.9538,40.1733 322.0348,40.8753 321.6148,41.4053 C321.2138,41.9133 320.4938,42.0173 319.9628,41.5973 C319.4558,41.1963 319.3458,40.4343 319.7478,39.9273 C320.1678,39.3973 320.9178,39.3513 321.4238,39.7533" id="Fill-66" fill="#74B6F8"></path>
                <path d="M326.043,43.892 C326.52,44.372 326.516,45.08 326.035,45.555 C325.575,46.011 324.847,46.028 324.37,45.547 C323.915,45.087 323.898,44.318 324.358,43.862 C324.84,43.386 325.59,43.432 326.043,43.892" id="Fill-68" fill="#74B6F8"></path>
                <path d="M330.1289,48.557 C330.5449,49.09 330.4549,49.791 329.9209,50.207 C329.4079,50.603 328.6849,50.533 328.2709,49.997 C327.8729,49.487 327.9499,48.721 328.4609,48.325 C328.9959,47.91 329.7329,48.044 330.1289,48.557" id="Fill-70" fill="#74B6F8"></path>
                <path d="M333.6152,53.6645 C333.9642,54.2455 333.7892,54.9315 333.2092,55.2775 C332.6522,55.6095 331.9412,55.4515 331.5952,54.8705 C331.2632,54.3155 331.4312,53.5635 331.9862,53.2325 C332.5672,52.8855 333.2832,53.1095 333.6152,53.6645" id="Fill-72" fill="#74B6F8"></path>
                <path d="M336.4629,59.1733 C336.7359,59.7923 336.4819,60.4523 335.8629,60.7263 C335.2719,60.9873 334.5849,60.7443 334.3109,60.1263 C334.0499,59.5343 334.3069,58.8103 334.8999,58.5473 C335.5189,58.2743 336.2009,58.5823 336.4629,59.1733" id="Fill-74" fill="#74B6F8"></path>
                <path d="M338.6143,64.9731 C338.8103,65.6201 338.4773,66.2441 337.8303,66.4401 C337.2123,66.6281 336.5593,66.3031 336.3643,65.6561 C336.1763,65.0361 336.5193,64.3481 337.1383,64.1611 C337.7863,63.9641 338.4273,64.3531 338.6143,64.9731" id="Fill-76" fill="#74B6F8"></path>
                <path d="M340.0508,71.0199 C340.1678,71.6859 339.7598,72.2649 339.0928,72.3799 C338.4558,72.4919 337.8488,72.0889 337.7328,71.4219 C337.6218,70.7859 338.0488,70.1439 338.6848,70.0329 C339.3518,69.9179 339.9398,70.3819 340.0508,71.0199" id="Fill-78" fill="#74B6F8"></path>
                <path d="M340.7363,77.1567 C340.7713,77.8327 340.2983,78.3577 339.6223,78.3927 C338.9753,78.4267 338.4223,77.9537 338.3863,77.2787 C338.3543,76.6327 338.8523,76.0457 339.5003,76.0127 C340.1743,75.9787 340.7043,76.5107 340.7363,77.1567" id="Fill-80" fill="#74B6F8"></path>
                <path d="M340.6826,83.3666 C340.6356,84.0406 340.1036,84.5066 339.4276,84.4596 C338.7836,84.4146 338.2886,83.8806 338.3336,83.2046 C338.3786,82.5596 338.9466,82.0386 339.5906,82.0826 C340.2656,82.1296 340.7266,82.7206 340.6826,83.3666" id="Fill-82" fill="#74B6F8"></path>
                <path d="M339.8828,89.5092 C339.7558,90.1742 339.1718,90.5712 338.5078,90.4432 C337.8708,90.3212 337.4448,89.7312 337.5728,89.0672 C337.6948,88.4312 338.3208,87.9832 338.9548,88.1052 C339.6198,88.2322 340.0048,88.8752 339.8828,89.5092" id="Fill-84" fill="#74B6F8"></path>
                <path d="M338.3486,95.4985 C338.1416,96.1425 337.5136,96.4645 336.8686,96.2575 C336.2526,96.0585 335.9036,95.4205 336.1096,94.7765 C336.3086,94.1615 336.9836,93.7915 337.5986,93.9885 C338.2426,94.1975 338.5466,94.8825 338.3486,95.4985" id="Fill-86" fill="#74B6F8"></path>
                <path d="M336.0908,101.268 C335.8068,101.882 335.1428,102.124 334.5288,101.841 C333.9428,101.57 333.6718,100.893 333.9558,100.28 C334.2288,99.692 334.9428,99.407 335.5298,99.68 C336.1448,99.963 336.3628,100.68 336.0908,101.268" id="Fill-88" fill="#74B6F8"></path>
                <path d="M333.1377,106.7358 C332.7817,107.3108 332.0917,107.4718 331.5177,107.1148 C330.9677,106.7728 330.7827,106.0698 331.1397,105.4948 C331.4807,104.9448 332.2247,104.7498 332.7757,105.0898 C333.3507,105.4488 333.4787,106.1868 333.1377,106.7358" id="Fill-90" fill="#74B6F8"></path>
                <path d="M329.5654,111.7768 C329.1424,112.3048 328.4394,112.3808 327.9134,111.9578 C327.4084,111.5528 327.3064,110.8318 327.7304,110.3038 C328.1364,109.7998 328.8984,109.6948 329.4024,110.0998 C329.9304,110.5238 329.9704,111.2718 329.5654,111.7768" id="Fill-92" fill="#74B6F8"></path>
                <path d="M325.3975,116.3686 C324.9125,116.8426 324.2055,116.8336 323.7325,116.3486 C323.2815,115.8876 323.2675,115.1576 323.7525,114.6846 C324.2155,114.2326 324.9855,114.2226 325.4375,114.6846 C325.9105,115.1686 325.8605,115.9166 325.3975,116.3686" id="Fill-94" fill="#74B6F8"></path>
                <path d="M320.7041,120.4233 C320.1671,120.8343 319.4661,120.7403 319.0561,120.2033 C318.6631,119.6903 318.7381,118.9653 319.2751,118.5543 C319.7891,118.1613 320.5551,118.2433 320.9471,118.7563 C321.3571,119.2943 321.2181,120.0303 320.7041,120.4233" id="Fill-96" fill="#74B6F8"></path>
                <path d="M315.5723,123.8754 C314.9903,124.2194 314.3053,124.0404 313.9623,123.4574 C313.6343,122.8994 313.7973,122.1894 314.3813,121.8484 C314.9373,121.5194 315.6873,121.6924 316.0153,122.2504 C316.3573,122.8324 316.1313,123.5474 315.5723,123.8754" id="Fill-98" fill="#74B6F8"></path>
                <path d="M310.0586,126.6801 C309.4376,126.9501 308.7816,126.6901 308.5106,126.0701 C308.2536,125.4771 308.5006,124.7921 309.1216,124.5231 C309.7146,124.2641 310.4376,124.5281 310.6956,125.1211 C310.9646,125.7411 310.6546,126.4221 310.0586,126.6801" id="Fill-100" fill="#74B6F8"></path>
                <path d="M304.2227,128.8012 C303.5737,128.9922 302.9517,128.6552 302.7607,128.0062 C302.5767,127.3862 302.9077,126.7372 303.5557,126.5452 C304.1757,126.3612 304.8627,126.7102 305.0457,127.3312 C305.2377,127.9802 304.8437,128.6182 304.2227,128.8012" id="Fill-102" fill="#74B6F8"></path>
                <path d="M298.1973,130.1879 C297.5313,130.3009 296.9543,129.8889 296.8433,129.2219 C296.7363,128.5839 297.1423,127.9789 297.8113,127.8679 C298.4493,127.7609 299.0873,128.1909 299.1933,128.8289 C299.3043,129.4969 298.8363,130.0819 298.1973,130.1879" id="Fill-104" fill="#74B6F8"></path>
                <path d="M292.0508,130.8373 C291.3748,130.8683 290.8538,130.3903 290.8218,129.7153 C290.7928,129.0673 291.2688,128.5163 291.9448,128.4863 C292.5908,128.4573 293.1738,128.9603 293.2018,129.6083 C293.2338,130.2823 292.6968,130.8083 292.0508,130.8373" id="Fill-106" fill="#74B6F8"></path>
                <path d="M285.8232,130.7416 C285.1482,130.6906 284.6882,130.1546 284.7382,129.4796 C284.7862,128.8346 285.3262,128.3446 285.9992,128.3956 C286.6432,128.4436 287.1622,129.0126 287.1142,129.6596 C287.0622,130.3336 286.4682,130.7906 285.8232,130.7416" id="Fill-108" fill="#74B6F8"></path>
                <path d="M279.6914,129.9018 C279.0274,129.7708 278.6344,129.1828 278.7664,128.5188 C278.8934,127.8838 279.4874,127.4638 280.1504,127.5948 C280.7864,127.7218 281.2294,128.3488 281.1044,128.9848 C280.9704,129.6468 280.3264,130.0288 279.6914,129.9018" id="Fill-110" fill="#74B6F8"></path>
                <path d="M273.6992,128.3236 C273.0572,128.1116 272.7392,127.4796 272.9512,126.8386 C273.1542,126.2226 273.7942,125.8776 274.4362,126.0896 C275.0512,126.2916 275.4162,126.9696 275.2142,127.5846 C275.0022,128.2266 274.3142,128.5256 273.6992,128.3236" id="Fill-112" fill="#74B6F8"></path>
                <path d="M267.9492,126.0268 C267.3382,125.7388 267.0992,125.0738 267.3872,124.4608 C267.6632,123.8758 268.3422,123.6108 268.9532,123.8988 C269.5382,124.1738 269.8182,124.8928 269.5422,125.4778 C269.2542,126.0888 268.5342,126.3028 267.9492,126.0268" id="Fill-114" fill="#74B6F8"></path>
                <path d="M262.5195,123.0483 C261.9475,122.6883 261.7905,121.9983 262.1515,121.4253 C262.4965,120.8783 263.2015,120.6963 263.7745,121.0573 C264.3215,121.4023 264.5115,122.1483 264.1665,122.6943 C263.8065,123.2693 263.0675,123.3933 262.5195,123.0483" id="Fill-116" fill="#74B6F8"></path>
                <path d="M257.4863,119.433 C256.9633,119.007 256.8893,118.303 257.3183,117.778 C257.7273,117.276 258.4473,117.182 258.9713,117.608 C259.4743,118.017 259.5743,118.781 259.1643,119.282 C258.7373,119.806 257.9893,119.842 257.4863,119.433" id="Fill-118" fill="#74B6F8"></path>
                <path d="M252.9268,115.2348 C252.4568,114.7478 252.4698,114.0408 252.9568,113.5708 C253.4218,113.1228 254.1508,113.1148 254.6198,113.6018 C255.0698,114.0678 255.0748,114.8378 254.6098,115.2878 C254.1218,115.7558 253.3748,115.7018 252.9268,115.2348" id="Fill-120" fill="#74B6F8"></path>
                <path d="M60.8823,113.7992 C46.4373,113.7992 33.4453,104.6712 28.5553,91.0852 C28.3613,90.5442 28.6413,89.9462 29.1833,89.7522 C29.7243,89.5572 30.3223,89.8382 30.5163,90.3792 C35.1113,103.1402 47.3133,111.7142 60.8823,111.7142 C74.4523,111.7142 86.6533,103.1402 91.2473,90.3792 C91.4423,89.8372 92.0413,89.5582 92.5803,89.7502 C93.1223,89.9462 93.4033,90.5432 93.2093,91.0852 C88.3193,104.6712 75.3303,113.7992 60.8823,113.7992" id="Fill-122" fill="#FFFFFF"></path>
                <path d="M35.3369,59.1235 C35.1009,59.1235 34.8639,59.0445 34.6689,58.8805 C34.2279,58.5115 34.1689,57.8525 34.5389,57.4115 C41.0889,49.5915 50.6909,45.1045 60.8829,45.1045 C71.0749,45.1045 80.6759,49.5915 87.2259,57.4115 C87.5949,57.8525 87.5369,58.5105 87.0959,58.8795 C86.6529,59.2495 85.9959,59.1905 85.6269,58.7495 C79.4749,51.4035 70.4559,47.1905 60.8829,47.1905 C51.3089,47.1905 42.2909,51.4035 36.1379,58.7505 C35.9309,58.9965 35.6349,59.1235 35.3369,59.1235" id="Fill-124" fill="#FFFFFF"></path>
                <path d="M80.2642,87.5287 C80.2372,87.5747 80.1762,87.6397 80.1872,87.6667 C80.2182,87.7257 80.2852,87.7667 80.3362,87.8167 C80.3652,87.7207 80.3932,87.6277 80.4222,87.5317 C80.3692,87.5317 80.3162,87.5317 80.2642,87.5287 Z M71.2282,96.0517 C70.0642,91.8437 68.9082,87.6327 67.7202,83.4307 C67.6362,83.1327 67.1932,82.6437 67.1292,82.6747 C66.0352,83.2167 64.8792,83.7117 63.9292,84.4597 C63.1822,85.0467 63.6662,85.9177 64.0222,86.6307 C65.8022,90.1797 68.3862,93.1447 71.2282,96.0517 Z M54.2612,82.5537 C53.0502,86.7787 51.8452,90.9837 50.6432,95.1757 C51.6802,95.5487 52.0602,94.8707 52.4702,94.3277 C53.7902,92.5797 55.1592,90.8617 56.3672,89.0387 C59.1072,84.9077 58.9872,84.6047 54.2612,82.5537 Z M74.5882,83.8667 C75.6502,83.0837 76.4002,84.0747 77.2142,84.3987 C80.6972,85.7857 84.2052,86.8597 87.9852,85.7787 C88.8192,85.5397 89.6472,85.2077 90.4002,84.7797 C91.3872,84.2197 92.6992,83.5537 92.5312,82.3527 C92.3892,81.3397 90.9202,81.5727 90.0342,81.3157 C87.2532,80.5097 84.4492,79.7837 81.6482,79.0457 C81.0442,78.8857 80.4232,78.8047 80.2252,78.0727 C88.0662,76.6017 91.8492,72.8217 92.3992,65.9067 C92.4122,65.7317 92.4832,65.5527 92.4642,65.3837 C92.2992,64.0127 92.7642,62.0477 91.4502,61.5077 C89.9572,60.8977 89.5352,62.9477 88.7922,63.9037 C83.8192,70.3077 77.7602,75.5127 71.0222,79.9227 C69.2652,81.0727 69.0842,82.0797 69.6492,83.9397 C71.0532,88.5567 72.2162,93.2487 73.4512,97.9177 C73.6462,98.6527 74.0472,99.5297 73.2072,100.0837 C72.2672,100.7067 71.7592,99.7947 71.2642,99.2537 C68.0512,95.7427 64.9442,92.1327 62.6962,87.9057 C60.9742,84.6697 61.1972,83.7777 64.4552,82.0887 C66.4502,81.0547 66.9232,79.9477 66.1662,77.7987 C64.7992,73.9097 63.7692,69.9027 62.5482,65.9627 C62.2512,65.0027 62.1242,63.5907 60.8132,63.6477 C59.7442,63.6947 59.5602,64.9557 59.2792,65.8797 C58.0032,70.0807 56.8002,74.3057 55.4062,78.4657 C54.8352,80.1667 55.3462,80.9267 56.8182,81.7547 C60.6542,83.9077 60.8852,84.9027 58.6092,88.7817 C56.3272,92.6717 53.4442,96.1157 50.3622,99.3967 C49.9042,99.8857 49.4482,100.6197 48.6142,100.1577 C47.8022,99.7087 48.1422,98.9057 48.2562,98.2487 C49.1422,93.1277 50.7902,88.2027 52.2302,83.2297 C52.6472,81.7937 52.4452,81.0587 51.1842,80.2267 C43.7922,75.3417 37.1022,69.6747 31.9332,62.3777 C31.5782,61.8757 31.1862,61.1667 30.5502,61.3037 C29.6402,61.5017 29.6052,62.5057 29.4472,63.2357 C28.1932,68.9987 32.2302,75.6147 38.0102,77.2797 C39.1832,77.6177 40.3972,77.8177 41.9952,78.1707 C38.9092,79.8097 35.7882,80.1987 32.8292,81.0917 C31.6032,81.4607 29.4032,80.9647 29.3832,82.6017 C29.3642,84.1767 31.3302,84.9227 32.8202,85.4897 C36.3192,86.8197 39.7472,86.2027 43.1182,84.9507 C44.4052,84.4727 45.6562,83.8947 47.2432,83.2287 C45.6142,86.3027 43.3402,88.3677 41.0962,90.8687 C43.8792,91.6297 46.2292,90.6817 49.1082,90.4137 C46.7562,92.4937 44.4872,93.4157 41.8542,93.0867 C39.1282,92.7437 38.5842,91.3117 40.2092,89.1607 C40.5122,88.7587 41.0622,88.4937 40.9112,87.7017 C38.2672,87.8397 35.5802,88.2707 32.9462,87.4117 C30.9742,86.7677 29.2032,85.8507 27.9742,84.1287 C26.6022,82.2057 26.9992,80.7997 29.2472,80.0947 C31.1542,79.4977 33.1382,79.1477 35.1042,78.6827 C35.1432,77.6487 34.2402,77.6137 33.7472,77.2487 C28.8942,73.6517 27.1082,68.7667 27.7482,62.9087 C27.9102,61.4127 28.3932,59.8407 30.1012,59.4177 C31.7632,59.0067 32.6412,60.2907 33.4652,61.4587 C38.3132,68.3237 44.6632,73.5747 51.4612,78.3727 C53.0572,79.4997 53.5222,79.0757 53.9872,77.3917 C55.1322,73.2447 56.4242,69.1367 57.6832,65.0217 C58.1912,63.3657 58.9112,61.7227 60.9562,61.7557 C63.0032,61.7867 63.6632,63.5017 64.1632,65.1227 C65.4332,69.2317 66.7672,73.3327 67.8042,77.5047 C68.3142,79.5527 68.9462,79.3117 70.3252,78.3487 C77.1522,73.5887 83.4562,68.2887 88.3392,61.4577 C89.1612,60.3047 90.0312,58.9977 91.7042,59.4197 C93.2852,59.8147 93.7712,61.2587 93.9802,62.6807 C94.8242,68.4637 92.9742,73.2267 88.4532,76.9517 C87.8702,77.4317 87.0172,77.5897 86.5682,78.6257 C88.3852,79.0677 90.1482,79.4487 91.8832,79.9287 C94.9312,80.7747 95.4402,82.5807 93.2002,84.8517 C90.5192,87.5737 87.1012,88.1187 83.4562,87.9247 C82.6312,87.8797 81.7862,87.4497 80.9562,87.8727 C80.9562,88.0917 80.8972,88.2867 80.9652,88.4097 C81.5652,89.4797 83.2982,90.2407 82.3342,91.7547 C81.2982,93.3757 79.4722,93.3247 77.7912,93.0567 C75.9732,92.7667 74.3782,91.8697 72.4412,90.5917 C75.3672,90.4307 77.8492,91.7437 80.5582,90.9277 C78.4782,88.4637 76.5172,86.1447 74.5572,83.8247 L74.5882,83.8667 Z" id="Fill-126" fill="#74B6F8"></path>
                <path d="M96.4375,115.9164 C95.9595,116.3964 95.2525,116.3974 94.7735,115.9204 C94.3155,115.4634 94.2925,114.7354 94.7705,114.2554 C95.2275,113.7974 95.9975,113.7754 96.4555,114.2324 C96.9345,114.7104 96.8945,115.4584 96.4375,115.9164" id="Fill-128" fill="#74B6F8"></path>
                <path d="M91.8013,120.0346 C91.2703,120.4526 90.5673,120.3686 90.1503,119.8376 C89.7503,119.3286 89.8163,118.6026 90.3473,118.1856 C90.8563,117.7846 91.6233,117.8566 92.0223,118.3656 C92.4403,118.8966 92.3103,119.6356 91.8013,120.0346" id="Fill-130" fill="#74B6F8"></path>
                <path d="M86.7017,123.5619 C86.1237,123.9129 85.4367,123.7439 85.0857,123.1659 C84.7507,122.6119 84.9047,121.9009 85.4827,121.5499 C86.0357,121.2149 86.7877,121.3769 87.1227,121.9299 C87.4737,122.5099 87.2547,123.2269 86.7017,123.5619" id="Fill-132" fill="#74B6F8"></path>
                <path d="M81.2134,126.4457 C80.5974,126.7237 79.9354,126.4727 79.6574,125.8567 C79.3914,125.2667 79.6304,124.5787 80.2474,124.3007 C80.8374,124.0357 81.5644,124.2887 81.8294,124.8787 C82.1074,125.4947 81.8034,126.1797 81.2134,126.4457" id="Fill-134" fill="#74B6F8"></path>
                <path d="M75.4316,128.6352 C74.7856,128.8362 74.1596,128.5072 73.9596,127.8612 C73.7666,127.2412 74.0876,126.5882 74.7336,126.3872 C75.3516,126.1962 76.0416,126.5352 76.2346,127.1542 C76.4346,127.7992 76.0496,128.4442 75.4316,128.6352" id="Fill-136" fill="#74B6F8"></path>
                <path d="M69.418,130.1049 C68.752,130.2239 68.172,129.8219 68.051,129.1569 C67.936,128.5199 68.334,127.9099 68.999,127.7889 C69.636,127.6739 70.279,128.0949 70.396,128.7319 C70.515,129.3969 70.055,129.9899 69.418,130.1049" id="Fill-138" fill="#74B6F8"></path>
                <path d="M63.2554,130.8354 C62.5804,130.8754 62.0514,130.4044 62.0134,129.7304 C61.9754,129.0834 62.4444,128.5254 63.1194,128.4874 C63.7654,128.4494 64.3534,128.9454 64.3914,129.5924 C64.4294,130.2674 63.9004,130.7984 63.2554,130.8354" id="Fill-140" fill="#74B6F8"></path>
                <path d="M57.0635,130.8227 C56.3875,130.7807 55.9195,130.2507 55.9605,129.5757 C56.0005,128.9287 56.5335,128.4307 57.2085,128.4727 C57.8545,128.5137 58.3785,129.0767 58.3385,129.7227 C58.2975,130.3977 57.7085,130.8617 57.0635,130.8227" id="Fill-142" fill="#74B6F8"></path>
                <path d="M50.9072,130.0629 C50.2412,129.9389 49.8422,129.3579 49.9652,128.6929 C50.0822,128.0559 50.6702,127.6259 51.3352,127.7499 C51.9722,127.8679 52.4252,128.4899 52.3072,129.1259 C52.1842,129.7919 51.5442,130.1809 50.9072,130.0629" id="Fill-144" fill="#74B6F8"></path>
                <path d="M44.8848,128.5619 C44.2398,128.3589 43.9128,127.7309 44.1168,127.0849 C44.3118,126.4689 44.9468,126.1149 45.5928,126.3179 C46.2098,126.5119 46.5828,127.1859 46.3878,127.8019 C46.1848,128.4469 45.5028,128.7549 44.8848,128.5619" id="Fill-146" fill="#74B6F8"></path>
                <path d="M39.1162,126.3451 C38.5002,126.0661 38.2522,125.4041 38.5322,124.7871 C38.8002,124.1991 39.4752,123.9241 40.0922,124.2041 C40.6802,124.4721 40.9692,125.1861 40.7002,125.7751 C40.4212,126.3911 39.7052,126.6151 39.1162,126.3451" id="Fill-148" fill="#74B6F8"></path>
                <path d="M33.6436,123.436 C33.0666,123.083 32.9006,122.396 33.2536,121.819 C33.5916,121.267 34.2946,121.076 34.8716,121.429 C35.4226,121.768 35.6226,122.511 35.2856,123.063 C34.9326,123.639 34.1956,123.774 33.6436,123.436" id="Fill-150" fill="#74B6F8"></path>
                <path d="M28.5762,119.8979 C28.0462,119.4779 27.9652,118.7759 28.3852,118.2459 C28.7852,117.7379 29.5062,117.6339 30.0372,118.0539 C30.5442,118.4549 30.6542,119.2169 30.2522,119.7249 C29.8312,120.2549 29.0832,120.2999 28.5762,119.8979" id="Fill-152" fill="#74B6F8"></path>
                <path d="M23.9565,115.7602 C23.4805,115.2792 23.4835,114.5722 23.9645,114.0962 C24.4255,113.6402 25.1535,113.6232 25.6295,114.1052 C26.0845,114.5642 26.1015,115.3332 25.6415,115.7892 C25.1605,116.2652 24.4115,116.2192 23.9565,115.7602" id="Fill-154" fill="#74B6F8"></path>
                <path d="M19.8706,111.0951 C19.4556,110.5611 19.5456,109.8601 20.0786,109.4451 C20.5916,109.0481 21.3156,109.1181 21.7296,109.6541 C22.1266,110.1641 22.0506,110.9311 21.5386,111.3261 C21.0046,111.7421 20.2666,111.6071 19.8706,111.0951" id="Fill-156" fill="#74B6F8"></path>
                <path d="M16.3848,105.9867 C16.0378,105.4067 16.2108,104.7207 16.7918,104.3737 C17.3478,104.0427 18.0588,104.1997 18.4048,104.7807 C18.7378,105.3357 18.5688,106.0877 18.0138,106.4197 C17.4328,106.7657 16.7178,106.5427 16.3848,105.9867" id="Fill-158" fill="#74B6F8"></path>
                <path d="M13.5376,100.4779 C13.2636,99.8599 13.5176,99.1989 14.1376,98.9259 C14.7276,98.6639 15.4146,98.9069 15.6896,99.5259 C15.9506,100.1169 15.6926,100.8419 15.1006,101.1039 C14.4816,101.3779 13.7986,101.0699 13.5376,100.4779" id="Fill-160" fill="#74B6F8"></path>
                <path d="M11.3857,94.6781 C11.1897,94.0311 11.5217,93.4071 12.1697,93.2111 C12.7877,93.0231 13.4407,93.3491 13.6367,93.9961 C13.8247,94.6151 13.4797,95.3031 12.8617,95.4901 C12.2137,95.6871 11.5737,95.2981 11.3857,94.6781" id="Fill-162" fill="#74B6F8"></path>
                <path d="M9.9497,88.6313 C9.8337,87.9653 10.2407,87.3863 10.9067,87.2723 C11.5447,87.1603 12.1517,87.5623 12.2677,88.2293 C12.3777,88.8653 11.9527,89.5073 11.3147,89.6183 C10.6487,89.7343 10.0607,89.2693 9.9497,88.6313" id="Fill-164" fill="#74B6F8"></path>
                <path d="M9.2637,82.4955 C9.2287,81.8185 9.7017,81.2935 10.3777,81.2595 C11.0247,81.2245 11.5777,81.6975 11.6127,82.3735 C11.6467,83.0185 11.1477,83.6055 10.4997,83.6385 C9.8257,83.6735 9.2977,83.1415 9.2637,82.4955" id="Fill-166" fill="#74B6F8"></path>
                <path d="M9.3174,76.2846 C9.3644,75.6116 9.8974,75.1456 10.5714,75.1926 C11.2164,75.2366 11.7114,75.7716 11.6654,76.4466 C11.6214,77.0916 11.0544,77.6136 10.4094,77.5686 C9.7344,77.5226 9.2734,76.9306 9.3174,76.2846" id="Fill-168" fill="#74B6F8"></path>
                <path d="M10.1172,70.142 C10.2432,69.478 10.8292,69.08 11.4932,69.208 C12.1292,69.33 12.5552,69.92 12.4272,70.584 C12.3062,71.22 11.6802,71.669 11.0442,71.547 C10.3802,71.42 9.9952,70.776 10.1172,70.142" id="Fill-170" fill="#74B6F8"></path>
                <path d="M11.6514,64.1537 C11.8584,63.5087 12.4874,63.1877 13.1314,63.3947 C13.7474,63.5927 14.0974,64.2307 13.8904,64.8747 C13.6924,65.4897 13.0164,65.8597 12.4014,65.6627 C11.7574,65.4547 11.4524,64.7697 11.6514,64.1537" id="Fill-172" fill="#74B6F8"></path>
                <path d="M13.9097,58.3832 C14.1937,57.7702 14.8577,57.5272 15.4717,57.8102 C16.0577,58.0812 16.3277,58.7582 16.0437,59.3722 C15.7717,59.9592 15.0567,60.2442 14.4697,59.9722 C13.8557,59.6882 13.6387,58.9712 13.9097,58.3832" id="Fill-174" fill="#74B6F8"></path>
                <path d="M16.8623,52.9154 C17.2183,52.3414 17.9083,52.1794 18.4823,52.5374 C19.0313,52.8784 19.2173,53.5824 18.8613,54.1564 C18.5193,54.7074 17.7753,54.9014 17.2243,54.5614 C16.6503,54.2034 16.5213,53.4644 16.8623,52.9154" id="Fill-176" fill="#74B6F8"></path>
                <path d="M20.4346,47.8744 C20.8566,47.3474 21.5606,47.2704 22.0886,47.6934 C22.5926,48.0984 22.6926,48.8194 22.2686,49.3484 C21.8636,49.8524 21.1016,49.9574 20.5976,49.5514 C20.0696,49.1274 20.0286,48.3794 20.4346,47.8744" id="Fill-178" fill="#74B6F8"></path>
                <path d="M24.603,43.2826 C25.087,42.8096 25.795,42.8176 26.268,43.3036 C26.719,43.7646 26.732,44.4936 26.247,44.9666 C25.784,45.4186 25.015,45.4286 24.562,44.9666 C24.089,44.4826 24.14,43.7346 24.603,43.2826" id="Fill-180" fill="#74B6F8"></path>
                <path d="M29.2954,39.2279 C29.8334,38.8179 30.5344,38.9109 30.9444,39.4479 C31.3374,39.9609 31.2614,40.6869 30.7244,41.0969 C30.2114,41.4899 29.4454,41.4089 29.0524,40.8949 C28.6424,40.3579 28.7824,39.6209 29.2954,39.2279" id="Fill-182" fill="#74B6F8"></path>
                <path d="M34.4272,35.7758 C35.0102,35.4328 35.6952,35.6108 36.0382,36.1938 C36.3662,36.7518 36.2032,37.4618 35.6202,37.8028 C35.0632,38.1318 34.3122,37.9598 33.9842,37.4018 C33.6422,36.8188 33.8692,36.1038 34.4272,35.7758" id="Fill-184" fill="#74B6F8"></path>
                <path d="M39.9409,32.9711 C40.5619,32.7011 41.2189,32.9611 41.4899,33.5811 C41.7469,34.1751 41.4989,34.8601 40.8789,35.1281 C40.2859,35.3871 39.5629,35.1241 39.3039,34.5311 C39.0349,33.9101 39.3469,33.2301 39.9409,32.9711" id="Fill-186" fill="#74B6F8"></path>
                <path d="M45.7778,30.85 C46.4258,30.659 47.0478,30.996 47.2388,31.645 C47.4238,32.265 47.0928,32.914 46.4448,33.106 C45.8238,33.29 45.1368,32.941 44.9538,32.32 C44.7628,31.671 45.1568,31.034 45.7778,30.85" id="Fill-188" fill="#74B6F8"></path>
                <path d="M51.8022,29.4633 C52.4702,29.3513 53.0462,29.7623 53.1572,30.4293 C53.2632,31.0673 52.8582,31.6723 52.1902,31.7833 C51.5522,31.8903 50.9142,31.4603 50.8062,30.8223 C50.6952,30.1543 51.1642,29.5693 51.8022,29.4633" id="Fill-190" fill="#74B6F8"></path>
                <path d="M57.9492,28.8149 C58.6252,28.7839 59.1472,29.2609 59.1782,29.9359 C59.2072,30.5839 58.7312,31.1349 58.0552,31.1659 C57.4092,31.1939 56.8262,30.6909 56.7982,30.0439 C56.7662,29.3689 57.3032,28.8429 57.9492,28.8149" id="Fill-192" fill="#74B6F8"></path>
                <path d="M64.1772,28.9106 C64.8522,28.9606 65.3132,29.4966 65.2622,30.1716 C65.2132,30.8166 64.6752,31.3066 64.0012,31.2566 C63.3562,31.2086 62.8382,30.6386 62.8862,29.9926 C62.9372,29.3186 63.5322,28.8606 64.1772,28.9106" id="Fill-194" fill="#74B6F8"></path>
                <path d="M70.3081,29.7494 C70.9721,29.8814 71.3651,30.4684 71.2331,31.1324 C71.1061,31.7674 70.5131,32.1874 69.8501,32.0574 C69.2141,31.9304 68.7701,31.3034 68.8961,30.6674 C69.0291,30.0044 69.6741,29.6224 70.3081,29.7494" id="Fill-196" fill="#74B6F8"></path>
                <path d="M76.3003,31.3276 C76.9423,31.5396 77.2603,32.1716 77.0483,32.8126 C76.8463,33.4286 76.2063,33.7736 75.5633,33.5616 C74.9493,33.3596 74.5843,32.6816 74.7863,32.0676 C74.9983,31.4256 75.6853,31.1256 76.3003,31.3276" id="Fill-198" fill="#74B6F8"></path>
                <path d="M82.0508,33.6244 C82.6628,33.9124 82.9008,34.5784 82.6128,35.1904 C82.3368,35.7754 81.6588,36.0404 81.0468,35.7524 C80.4618,35.4774 80.1818,34.7594 80.4578,34.1744 C80.7468,33.5624 81.4658,33.3484 82.0508,33.6244" id="Fill-200" fill="#74B6F8"></path>
                <path d="M87.481,36.6029 C88.053,36.9629 88.21,37.6529 87.848,38.2259 C87.503,38.7729 86.799,38.9549 86.226,38.5949 C85.679,38.2489 85.488,37.5029 85.833,36.9569 C86.193,36.3829 86.933,36.2579 87.481,36.6029" id="Fill-202" fill="#74B6F8"></path>
                <path d="M92.5132,40.2192 C93.0372,40.6452 93.1102,41.3482 92.6832,41.8732 C92.2742,42.3752 91.5522,42.4702 91.0282,42.0432 C90.5252,41.6342 90.4262,40.8702 90.8352,40.3692 C91.2632,39.8452 92.0112,39.8092 92.5132,40.2192" id="Fill-204" fill="#74B6F8"></path>
                <path d="M97.0742,44.4174 C97.5432,44.9034 97.5302,45.6114 97.0432,46.0804 C96.5772,46.5294 95.8502,46.5364 95.3802,46.0494 C94.9302,45.5844 94.9252,44.8144 95.3902,44.3644 C95.8772,43.8954 96.6252,43.9504 97.0742,44.4174" id="Fill-206" fill="#74B6F8"></path>
                <path d="M176.5879,4.0004 C135.4559,4.0004 101.9929,37.4634 101.9929,78.5944 C101.9929,119.7254 135.4559,153.1874 176.5879,153.1874 C217.7189,153.1874 251.1819,119.7254 251.1819,78.5944 C251.1819,37.4634 217.7189,4.0004 176.5879,4.0004 M176.5879,157.1874 C133.2509,157.1874 97.9929,121.9314 97.9929,78.5944 C97.9929,35.2574 133.2509,0.0004 176.5879,0.0004 C219.9249,0.0004 255.1819,35.2574 255.1819,78.5944 C255.1819,121.9314 219.9249,157.1874 176.5879,157.1874" id="Fill-208" fill="#FFFFFF"></path>
                <path d="M176.5889,138.1293 C151.6359,138.1293 129.1959,122.3623 120.7509,98.8973 C120.4129,97.9613 120.8979,96.9303 121.8349,96.5933 C122.7679,96.2563 123.8019,96.7413 124.1369,97.6773 C132.0719,119.7193 153.1509,134.5273 176.5889,134.5273 C200.0259,134.5273 221.1039,119.7183 229.0369,97.6763 C229.3739,96.7393 230.4089,96.2573 231.3409,96.5913 C232.2769,96.9283 232.7629,97.9603 232.4259,98.8953 C223.9809,122.3623 201.5409,138.1293 176.5889,138.1293" id="Fill-210" fill="#74B6F8"></path>
                <path d="M132.4644,43.6889 C132.0564,43.6889 131.6464,43.5509 131.3094,43.2679 C130.5474,42.6299 130.4464,41.4939 131.0844,40.7319 C142.3994,27.2229 158.9844,19.4749 176.5894,19.4749 C194.1924,19.4749 210.7774,27.2229 222.0894,40.7309 C222.7284,41.4929 222.6284,42.6289 221.8654,43.2669 C221.1004,43.9059 219.9654,43.8049 219.3284,43.0429 C208.7024,30.3539 193.1234,23.0779 176.5894,23.0779 C160.0524,23.0779 144.4744,30.3549 133.8464,43.0429 C133.4904,43.4689 132.9794,43.6889 132.4644,43.6889" id="Fill-212" fill="#74B6F8"></path>
                <path d="M210.0654,92.7524 C210.0174,92.8334 209.9134,92.9434 209.9344,92.9894 C209.9854,93.0944 210.1024,93.1644 210.1904,93.2494 C210.2404,93.0854 210.2904,92.9224 210.3374,92.7574 C210.2474,92.7574 210.1554,92.7574 210.0654,92.7524 Z M194.4584,107.4764 C192.4474,100.2074 190.4514,92.9334 188.3984,85.6754 C188.2534,85.1594 187.4864,84.3144 187.3784,84.3684 C185.4854,85.3054 183.4924,86.1594 181.8494,87.4504 C180.5604,88.4654 181.3944,89.9704 182.0124,91.2024 C185.0864,97.3324 189.5484,102.4544 194.4584,107.4764 Z M165.1504,84.1614 C163.0594,91.4564 160.9784,98.7194 158.9014,105.9614 C160.6914,106.6054 161.3494,105.4344 162.0584,104.4964 C164.3374,101.4774 166.7014,98.5104 168.7904,95.3604 C173.5214,88.2244 173.3134,87.7014 165.1504,84.1614 Z M200.2604,86.4264 C202.0954,85.0744 203.3904,86.7884 204.7954,87.3464 C210.8124,89.7414 216.8734,91.5984 223.4014,89.7294 C224.8414,89.3154 226.2734,88.7424 227.5744,88.0034 C229.2774,87.0384 231.5444,85.8864 231.2534,83.8144 C231.0084,82.0614 228.4714,82.4644 226.9414,82.0214 C222.1364,80.6284 217.2934,79.3744 212.4564,78.0994 C211.4144,77.8244 210.3414,77.6834 209.9984,76.4214 C223.5414,73.8794 230.0774,67.3494 231.0254,55.4044 C231.0484,55.1034 231.1714,54.7944 231.1364,54.5024 C230.8534,52.1344 231.6564,48.7384 229.3874,47.8084 C226.8084,46.7534 226.0794,50.2954 224.7974,51.9454 C216.2064,63.0064 205.7404,71.9984 194.1034,79.6134 C191.0674,81.6024 190.7534,83.3414 191.7304,86.5554 C194.1554,94.5284 196.1624,102.6324 198.2964,110.6974 C198.6334,111.9664 199.3284,113.4814 197.8764,114.4384 C196.2524,115.5134 195.3764,113.9384 194.5184,113.0034 C188.9704,106.9404 183.6044,100.7064 179.7194,93.4034 C176.7474,87.8144 177.1324,86.2734 182.7594,83.3564 C186.2044,81.5704 187.0214,79.6584 185.7134,75.9434 C183.3544,69.2284 181.5734,62.3094 179.4644,55.5024 C178.9524,53.8434 178.7324,51.4044 176.4674,51.5044 C174.6234,51.5844 174.3034,53.7624 173.8184,55.3584 C171.6144,62.6144 169.5384,69.9124 167.1274,77.0974 C166.1424,80.0364 167.0254,81.3494 169.5674,82.7774 C176.1934,86.4984 176.5924,88.2184 172.6624,94.9164 C168.7194,101.6354 163.7404,107.5854 158.4184,113.2514 C157.6254,114.0974 156.8374,115.3644 155.3974,114.5654 C153.9944,113.7904 154.5824,112.4034 154.7794,111.2704 C156.3084,102.4244 159.1544,93.9164 161.6444,85.3264 C162.3634,82.8454 162.0154,81.5774 159.8374,80.1404 C147.0684,71.7034 135.5124,61.9124 126.5844,49.3114 C125.9704,48.4424 125.2924,47.2194 124.1974,47.4554 C122.6234,47.7954 122.5634,49.5284 122.2894,50.7914 C120.1234,60.7454 127.0974,72.1744 137.0804,75.0494 C139.1074,75.6344 141.2044,75.9794 143.9654,76.5874 C138.6334,79.4204 133.2434,80.0924 128.1304,81.6334 C126.0134,82.2714 122.2144,81.4134 122.1794,84.2424 C122.1464,86.9634 125.5424,88.2504 128.1154,89.2304 C134.1594,91.5284 140.0804,90.4624 145.9034,88.2994 C148.1274,87.4744 150.2874,86.4754 153.0294,85.3244 C150.2144,90.6344 146.2884,94.2014 142.4124,98.5214 C147.2194,99.8364 151.2774,98.1994 156.2504,97.7344 C152.1874,101.3274 148.2694,102.9214 143.7204,102.3524 C139.0134,101.7614 138.0714,99.2874 140.8774,95.5714 C141.4004,94.8774 142.3524,94.4204 142.0914,93.0524 C137.5244,93.2884 132.8844,94.0344 128.3344,92.5504 C124.9294,91.4394 121.8694,89.8554 119.7464,86.8804 C117.3754,83.5584 118.0614,81.1284 121.9464,79.9124 C125.2384,78.8814 128.6644,78.2754 132.0624,77.4754 C132.1274,75.6884 130.5684,75.6274 129.7174,74.9964 C121.3344,68.7834 118.2494,60.3474 119.3544,50.2264 C119.6334,47.6424 120.4704,44.9264 123.4204,44.1964 C126.2894,43.4864 127.8074,45.7044 129.2304,47.7224 C137.6044,59.5794 148.5724,68.6484 160.3144,76.9374 C163.0724,78.8844 163.8744,78.1504 164.6764,75.2434 C166.6544,68.0794 168.8864,60.9844 171.0644,53.8764 C171.9394,51.0154 173.1824,48.1784 176.7164,48.2334 C180.2514,48.2894 181.3914,51.2514 182.2554,54.0494 C184.4494,61.1484 186.7524,68.2314 188.5434,75.4384 C189.4254,78.9774 190.5154,78.5604 192.8974,76.8984 C204.6904,68.6744 215.5804,59.5194 224.0124,47.7204 C225.4344,45.7304 226.9364,43.4704 229.8254,44.1994 C232.5564,44.8834 233.3974,47.3774 233.7564,49.8334 C235.2144,59.8204 232.0194,68.0494 224.2114,74.4834 C223.2034,75.3144 221.7304,75.5844 220.9554,77.3744 C224.0924,78.1384 227.1374,78.7964 230.1334,79.6274 C235.3984,81.0864 236.2774,84.2064 232.4104,88.1304 C227.7794,92.8304 221.8754,93.7724 215.5794,93.4354 C214.1544,93.3564 212.6954,92.6144 211.2614,93.3474 C211.2614,93.7264 211.1594,94.0624 211.2774,94.2734 C212.3124,96.1234 215.3054,97.4374 213.6414,100.0514 C211.8514,102.8524 208.6974,102.7654 205.7944,102.3024 C202.6564,101.8004 199.8994,100.2504 196.5534,98.0454 C201.6064,97.7664 205.8944,100.0334 210.5764,98.6244 C206.9814,94.3674 203.5934,90.3624 200.2094,86.3564 L200.2604,86.4264 Z" id="Fill-214" fill="#FFFFFF"></path>
            </g>
        </g>
    </g>
</svg>