<svg width="26" height="24" viewBox="0 0 26 24" fill="none" xmlns="http://www.w3.org/2000/svg">
<g clip-path="url(#clip0_1015_5935)">
<path d="M6.85337 5.9749C7.11415 6.22404 7.58914 6.07852 7.77076 5.76651C7.95237 5.45451 7.90581 5.05868 7.78589 4.71873C7.66598 4.37878 7.47971 4.06212 7.38657 3.71403C7.16188 2.8758 7.50881 1.98868 7.96169 1.24825C8.01058 1.16792 8.06181 1.08759 8.13282 1.02472C8.22596 0.944392 8.34471 0.900152 8.46346 0.868719C9.75921 0.519459 11.2459 1.52533 11.4031 2.85834C11.4263 3.05276 11.424 3.25067 11.3844 3.44277C11.2261 4.20415 10.5194 4.71524 10.1411 5.39513C10.1015 5.46615 10.0642 5.54415 10.0724 5.62564C10.0922 5.83171 10.353 5.89807 10.5555 5.93998C11.3227 6.09831 11.963 6.61638 12.5265 7.16239C13.09 7.7084 13.6197 8.3068 14.3008 8.69448C14.9818 9.08216 15.8713 9.2207 16.5372 8.80741C16.9249 7.19848 17.1868 5.55812 17.3207 3.90845C17.3417 3.64534 17.436 3.30539 17.6991 3.29841C17.8306 3.29491 17.9424 3.38456 18.0553 3.45325C18.4593 3.69889 18.9715 3.68609 19.4314 3.57432C19.8913 3.46256 20.3232 3.25999 20.7819 3.14473C21.6655 2.92237 22.5305 2.58592 23.4351 2.69768C23.6085 2.71863 24.2663 2.82341 24.4072 2.92703C24.6354 3.09351 24.2768 3.77456 24.2884 4.05747C24.335 5.19722 25.037 6.51393 24.4072 7.46508C24.342 7.56404 23.2476 7.49652 23.1557 7.57102C23.0195 7.68162 22.846 7.73168 22.6772 7.77942C21.4606 8.12402 20.2428 8.46979 19.0263 8.81439C18.6793 8.91218 18.3114 9.02511 18.0809 9.30219C17.8236 9.61187 17.7969 10.0624 17.5466 10.3779C17.2078 10.804 16.5838 10.8517 16.0412 10.8098C15.2473 10.7481 14.4614 10.5723 13.7163 10.2894C13.4125 10.1742 13.1098 10.0391 12.7861 10.0042C12.4625 9.96928 12.1051 10.0554 11.9025 10.3104C11.7372 10.5188 11.7034 10.7982 11.6755 11.0625C11.6161 11.6201 11.5567 12.1778 11.4974 12.7354C11.4007 13.6435 11.6278 15.1302 11.254 15.9637C10.8803 16.7973 9.85235 16.9778 8.95708 17.1617C8.53447 17.2479 7.8604 18.3096 7.51114 18.0547C6.82077 17.5506 7.06176 15.3956 7.32254 14.5818C7.47505 14.1068 6.60306 13.6132 6.69853 13.1231C6.84871 12.3571 6.84988 11.2918 6.69853 10.5269C6.49712 9.50709 7.20612 8.80508 6.9302 7.80386C6.83358 7.4546 6.16183 7.42783 5.94063 7.14143C5.54248 6.62686 5.42722 6.11577 4.86608 5.7863C4.22227 5.40794 3.71468 4.80255 3.4539 4.10287C3.33981 3.79668 2.90323 3.02948 3.08368 2.75822C3.26414 2.48696 4.14427 2.86183 4.24789 3.17151L6.85104 5.97956L6.85337 5.9749Z" fill="white"/>
<path d="M17.0601 23.9999C12.2066 23.9999 7.27734 23.9976 2.40749 23.9836C1.96393 23.9825 1.35621 23.7485 1.10474 23.3177C0.828829 22.845 1.0931 22.171 1.32594 21.8578C1.92201 21.051 2.54137 20.2431 3.13977 19.4619C3.63688 18.8134 4.15029 18.1428 4.64741 17.4781C5.12124 16.8448 5.7371 16.5991 6.30989 16.499V13.7165C6.30756 11.8853 6.3064 9.99111 6.31687 8.12839C6.31687 8.05388 6.31222 8.01662 6.30872 7.99916C6.29708 7.99101 6.27263 7.97355 6.22607 7.95143C4.41108 7.07478 3.08971 5.61953 2.29921 3.62875C2.01631 2.91626 2.20375 2.29225 2.79866 1.96045C3.44246 1.60071 4.11653 1.70549 4.55777 2.23404C4.76499 2.48201 4.94894 2.77539 5.12007 3.13164C5.60322 4.13518 6.27729 4.85815 7.18071 5.34013C7.2331 5.36807 7.3437 5.39834 7.49621 5.3995C7.69529 5.40183 7.89437 5.40416 8.09344 5.40648C9.00618 5.41813 9.95034 5.42977 10.8689 5.39368C11.7572 5.35875 12.4126 5.71267 12.8725 6.47871C13.5012 7.52417 14.3708 8.1377 15.5304 8.3554C15.783 8.40314 16.0449 8.42875 16.3209 8.4532V7.73954C16.3209 6.0107 16.3209 4.26673 16.3232 2.52392C16.3232 2.49598 16.3232 2.46688 16.3232 2.43777C16.3197 2.22822 16.3139 1.94066 16.4699 1.67755C16.4745 1.6694 16.9984 0.821862 17.6317 1.05819C17.9938 1.19324 18.4013 1.55531 18.4816 1.98723C18.534 2.26896 18.527 2.54721 18.52 2.79169C18.5165 2.93721 18.5119 3.07575 18.52 3.20265C18.91 3.33537 19.2849 3.20032 19.8507 2.97331C19.9415 2.93721 20.0323 2.89996 20.1231 2.8662C20.356 2.77772 20.5853 2.67527 20.8286 2.56583C21.3083 2.35162 21.8054 2.12926 22.3468 2.01168C22.9568 1.88012 23.6064 2.08036 24.1291 2.24102L24.1606 2.25034C24.7601 2.43544 25.1152 2.98378 25.1094 3.71839C25.1047 4.24578 25.1059 4.78364 25.1071 5.30404C25.1071 5.80581 25.1082 6.30758 25.1047 6.80935C25.1013 7.36234 24.9313 7.77214 24.6018 8.02594C24.2782 8.27508 23.8544 8.33328 23.3421 8.20173C22.7414 8.04689 22.1861 8.28439 21.5435 8.55914C21.384 8.62783 21.228 8.70117 21.0615 8.77918C20.6831 8.9573 20.2908 9.14124 19.8612 9.25883C19.4386 9.37525 19.023 9.4125 18.5829 9.45325C18.5573 9.45557 18.5317 9.4579 18.5061 9.46023V9.47187C18.5037 10.6233 18.5002 11.8131 18.5107 12.9819C18.5107 13.0576 18.5235 13.1135 18.5317 13.1391L18.754 13.3976C19.2605 13.989 19.7844 14.6002 20.3443 15.1334C20.6971 15.4687 21.1628 15.7318 21.6494 15.9937C21.9276 16.1439 22.2338 16.2615 22.5575 16.3861C22.7228 16.4501 22.8939 16.5153 23.0627 16.5875C23.7764 16.8878 24.2607 17.4513 24.4609 18.2162C24.8125 19.555 25.1583 20.888 25.4878 22.1768C25.6333 22.7449 25.5809 23.1815 25.3259 23.5086C25.0698 23.8381 24.6565 23.9988 24.0605 23.9988H21.8997C20.2966 23.9988 18.6795 23.9988 17.0543 23.9988L17.0601 23.9999ZM2.16999 22.7542C2.24217 22.7892 2.34229 22.8206 2.41098 22.8206C8.90838 22.8381 15.5152 22.8369 21.9044 22.8357H24.0651C24.2723 22.8357 24.369 22.8066 24.4051 22.7915C24.4097 22.7531 24.4132 22.6576 24.3643 22.4667C24.0348 21.1791 23.6902 19.8484 23.3387 18.5119C23.2281 18.0928 22.9987 17.8227 22.6145 17.6609C22.4608 17.5968 22.306 17.5363 22.1419 17.4734C21.7984 17.3407 21.4433 17.2045 21.0999 17.0194C20.5632 16.7307 20.0009 16.4117 19.5445 15.9774C18.9415 15.4035 18.399 14.769 17.8727 14.1566L17.6352 13.8795C17.3908 13.5955 17.3512 13.202 17.3488 12.9936C17.3488 12.9866 17.3488 12.9784 17.3488 12.9715C17.3488 12.9715 17.3488 12.9738 17.3477 12.9738C16.8657 13.7375 15.3231 14.2684 14.5012 13.9529C14.1042 13.8004 13.8411 13.8574 13.5303 14.1601C13.2404 14.4418 12.9377 14.7015 12.6175 14.9751C12.4743 15.0973 12.3265 15.2242 12.174 15.3581L11.2088 16.2044V8.17845L12.153 8.92819C13.8248 10.2554 15.2079 10.6815 16.7784 10.3543L17.3442 10.2368C17.3442 10.0656 17.3442 9.89448 17.3442 9.72451L16.8424 9.67095C16.6852 9.65465 16.5292 9.64068 16.3744 9.62788C16.0286 9.59877 15.6712 9.5685 15.3161 9.50098C13.8318 9.22274 12.6734 8.40779 11.8748 7.07944C11.6349 6.68128 11.3753 6.53925 10.9155 6.55788C9.96548 6.5963 9.00618 6.58349 8.07715 6.57185C7.87923 6.56952 7.68132 6.56719 7.4834 6.56486C7.25871 6.56254 6.92808 6.52645 6.63121 6.36811C5.51823 5.77321 4.65672 4.85465 4.06996 3.6369C3.94307 3.37263 3.80569 3.15143 3.66249 2.98029C3.61942 2.92907 3.56587 2.86503 3.36562 2.9768C3.34816 2.98611 3.33885 2.99426 3.33303 2.99892C3.33186 3.01871 3.33303 3.08041 3.37959 3.20032C4.0688 4.93615 5.16431 6.14692 6.73016 6.90365C7.39725 7.22613 7.48107 7.73139 7.47875 8.13421C7.46827 9.9946 7.46943 11.8864 7.4706 13.7154V17.5666L6.92459 17.5992C6.23305 17.6411 5.85585 17.8017 5.57761 18.1743C5.077 18.8437 4.56126 19.5178 4.06182 20.1686C3.46574 20.9462 2.84988 21.7495 2.25963 22.5482C2.22354 22.5971 2.18862 22.6809 2.16766 22.7519L2.16999 22.7542ZM12.373 10.5231V13.6479C12.4918 13.5419 12.6082 13.4348 12.7188 13.3277C13.3568 12.706 14.0972 12.5512 14.9203 12.8667C15.2021 12.975 16.0484 12.6886 16.315 12.415C16.3162 12.1414 16.3162 11.8678 16.3162 11.5989C14.7236 11.7421 13.4243 11.2007 12.3742 10.5231H12.373ZM17.4874 3.74633C17.4862 5.08167 17.4874 6.41468 17.4874 7.73954V8.58243C17.5351 8.51839 17.598 8.46135 17.6818 8.41711L17.9915 8.25412L18.1044 8.32979C18.2336 8.31582 18.3594 8.30418 18.4816 8.2937C18.8693 8.25878 19.2348 8.22501 19.5573 8.13654C19.8903 8.04456 20.2209 7.88972 20.5702 7.72557C20.7378 7.64641 20.9113 7.56491 21.0883 7.48924C21.8229 7.17491 22.6529 6.81982 23.6379 7.07478C23.7962 7.11553 23.873 7.10622 23.8963 7.10156C23.9091 7.07828 23.944 6.99678 23.9452 6.80236C23.9487 6.30408 23.9475 5.80581 23.9475 5.30636C23.9475 4.78364 23.9464 4.24228 23.9499 3.70908C23.9499 3.59499 23.9359 3.39824 23.823 3.36331L23.7915 3.354C23.3782 3.2271 22.9102 3.08158 22.5994 3.1491C22.1756 3.24107 21.7553 3.42851 21.3106 3.62759C21.0626 3.73818 20.8065 3.85344 20.5434 3.95356C20.4584 3.98616 20.3746 4.01992 20.2896 4.05368C19.6761 4.29933 18.9112 4.60551 18.0532 4.26906C17.825 4.17942 17.6154 3.97685 17.4897 3.74633H17.4874ZM9.20409 17.1591L8.2704 16.7935V16.3965C8.2704 16.1532 8.26924 15.9099 8.26807 15.6666C8.26458 14.9262 8.26109 14.1601 8.29252 13.4011C8.31348 12.9063 8.89092 12.4394 9.324 12.4383C9.78037 12.4383 10.3043 12.9237 10.3438 13.3836L10.3543 13.5047C10.4055 14.0961 10.4649 14.7667 10.3206 15.4035C10.2239 15.8319 9.95034 16.1672 9.70935 16.4617C9.61855 16.5723 9.53356 16.6771 9.46487 16.7761L9.20293 17.1568L9.20409 17.1591Z" fill="#26385B"/>
<path d="M9.26589 5.84778C9.25425 5.84778 9.24261 5.84778 9.23097 5.84778C7.68025 5.83032 6.33443 4.4519 6.35073 2.90002C6.36703 1.29808 7.6884 0 9.29733 0H9.3113C10.9365 0.0069852 12.2032 1.30507 12.1962 2.95474C12.1927 3.72777 11.8853 4.4554 11.3289 5.00257C10.7747 5.54858 10.0436 5.84778 9.26706 5.84778H9.26589ZM9.29733 1.1642C8.32405 1.1642 7.52425 1.94654 7.51493 2.91167C7.50562 3.82789 8.32987 4.67194 9.24494 4.68358C9.72342 4.68824 10.1716 4.50779 10.5116 4.1725C10.8445 3.84419 11.0297 3.40994 11.032 2.94892C11.0366 1.95236 10.2787 1.16886 9.30664 1.1642H9.29849H9.29733Z" fill="#26385B"/>
<path d="M24.9291 22.439C24.5915 21.1187 24.2492 19.7997 23.9034 18.4818C23.7509 17.8997 23.4017 17.4771 22.8428 17.242C22.3539 17.0359 21.8428 16.8741 21.3783 16.6249C20.8753 16.3537 20.3573 16.0626 19.9475 15.6738C19.2781 15.037 18.6832 14.3198 18.0789 13.6178C17.973 13.4944 16.8973 12.4175 16.8961 12.5875C16.8961 12.6527 15.2918 13.7517 14.7109 13.5282C14.0927 13.2907 13.5933 13.4059 13.1253 13.8623C12.7213 14.2558 12.2812 14.6097 11.7911 15.0393C10.7282 14.1615 6.89329 16.6133 6.89329 17.1383C6.17498 17.1814 5.56028 17.3502 5.11439 17.9463C4.01771 19.4132 2.88378 20.851 1.79526 22.3225C1.6346 22.5391 1.50304 22.9617 1.60898 23.1433C1.73472 23.3575 2.13171 23.5205 2.41112 23.5205C9.63033 23.5403 16.8484 23.5368 24.0676 23.5356C24.8627 23.5356 25.1258 23.2027 24.9303 22.4401L24.9291 22.439Z" fill="#26385B"/>
<path d="M4.64517 19.7984C6.03755 19.562 7.24483 20.2501 8.63721 20.0138C9.22746 19.9136 9.82586 20.6273 10.4231 20.6692C11.3451 20.7332 12.2055 19.9649 13.0845 20.2489C13.9634 20.533 14.9483 20.703 15.7912 20.3246C16.3582 20.0708 16.7948 19.597 17.314 19.257C18.7658 18.307 21.1384 19.3991 22.6367 18.4537C22.2002 18.2791 21.7508 18.1254 21.3386 17.9042C20.8357 17.633 20.3176 17.3419 19.9078 16.9531C19.2384 16.3163 18.6435 15.5991 18.0393 14.8971C17.9334 14.7737 16.8576 13.6968 16.8565 13.8668C16.8565 13.932 15.2522 15.031 14.6713 14.8075C14.0531 14.57 13.5536 14.6852 13.0856 15.1416C12.6816 15.5351 12.2416 15.889 11.7515 16.3186C10.6885 15.4408 6.85366 17.8926 6.85366 18.4176C6.13535 18.4607 5.52065 18.6295 5.07476 19.2256C4.9304 19.4189 4.78371 19.6109 4.63818 19.803L4.64284 19.7995L4.64517 19.7984Z" fill="white"/>
</g>
<defs>
<clipPath id="clip0_1015_5935">
<rect width="24.5856" height="24" fill="white" transform="translate(0.987305)"/>
</clipPath>
</defs>
</svg>
