<svg width="128" height="111" viewBox="0 0 128 111" fill="none" xmlns="http://www.w3.org/2000/svg">
<circle cx="12.6386" cy="71.9851" r="3.84653" fill="#4C7FF7"/>
<circle cx="83.5248" cy="102.208" r="2.19802" fill="#4C7FF7"/>
<circle cx="98.3614" cy="3.84653" r="3.84653" fill="#4C7FF7"/>
<ellipse opacity="0.1" cx="39.5644" cy="40.6633" rx="39.5644" ry="37.3663" fill="url(#paint0_linear)"/>
<ellipse opacity="0.1" cx="87.9208" cy="73.6337" rx="39.5644" ry="37.3663" fill="url(#paint1_linear)"/>
<g filter="url(#filter0_d)">
<path d="M14.8198 46.5428L25.0576 84.2356C25.4919 85.8345 27.1388 86.7739 28.7361 86.3338L67.0908 75.7651C68.6881 75.3249 69.6309 73.6719 69.1966 72.073L58.9588 34.3802C58.5245 32.7813 56.8776 31.8419 55.2803 32.282L16.9257 42.8507C15.3283 43.2909 14.3855 44.9439 14.8198 46.5428Z" fill="url(#paint2_linear)"/>
<path d="M14.8198 46.5428L25.0576 84.2356C25.4919 85.8345 27.1388 86.7739 28.7361 86.3338L67.0908 75.7651C68.6881 75.3249 69.6309 73.6719 69.1966 72.073L58.9588 34.3802C58.5245 32.7813 56.8776 31.8419 55.2803 32.282L16.9257 42.8507C15.3283 43.2909 14.3855 44.9439 14.8198 46.5428Z" stroke="#728099"/>
</g>
<rect width="35.9575" height="16.3744" rx="1" transform="matrix(0.964086 -0.265593 0.262173 0.965022 20.0518 47.0823)" fill="#ECF1FF"/>
<rect width="35.9441" height="4.90667" rx="1" transform="matrix(0.964147 -0.265371 0.262393 0.964962 25.2224 66.0625)" fill="#4C7FF7"/>
<rect width="35.9441" height="4.90666" rx="1" transform="matrix(0.964147 -0.26537 0.262394 0.964962 27.377 73.9755)" fill="url(#paint3_linear)" fill-opacity="0.4"/>
<g filter="url(#filter1_d)">
<path d="M61.2657 22.9781L55.2183 72.7369C55.0184 74.3817 56.1894 75.8798 57.8337 76.0831L97.2879 80.9601C98.9322 81.1634 100.427 79.9948 100.627 78.3501L106.675 28.5912C106.874 26.9465 105.704 25.4484 104.059 25.2451L64.605 20.368C62.9607 20.1648 61.4656 21.3333 61.2657 22.9781Z" fill="white"/>
<path d="M61.2657 22.9781L55.2183 72.7369C55.0184 74.3817 56.1894 75.8798 57.8337 76.0831L97.2879 80.9601C98.9322 81.1634 100.427 79.9948 100.627 78.3501L106.675 28.5912C106.874 26.9465 105.704 25.4484 104.059 25.2451L64.605 20.368C62.9607 20.1648 61.4656 21.3333 61.2657 22.9781Z" stroke="#728099"/>
</g>
<rect width="35.9389" height="20.4008" rx="1" transform="matrix(0.992448 0.122667 -0.120659 0.992694 65.7653 26.6797)" fill="#ECF1FF"/>
<rect width="35.9309" height="6.11339" rx="1" transform="matrix(0.992462 0.122556 -0.120769 0.992681 62.8058 51.0022)" fill="#4C7FF7"/>
<rect width="35.9309" height="6.11339" rx="1" transform="matrix(0.992462 0.122556 -0.120769 0.992681 61.5696 61.1361)" fill="#ECF1FF"/>
<g filter="url(#filter2_d)">
<circle cx="100.01" cy="75.8317" r="16.4851" fill="#20BAC3"/>
</g>
<path d="M101.372 69.2315C101.369 68.5412 100.806 67.9842 100.116 67.9876C99.4258 67.9909 98.8689 68.5532 98.8722 69.2436L101.372 69.2315ZM98.9373 82.7214C98.9406 83.4118 99.503 83.9687 100.193 83.9654C100.884 83.962 101.441 83.3997 101.437 82.7093L98.9373 82.7214ZM106.9 77.194C107.59 77.1906 108.147 76.6283 108.144 75.9379C108.14 75.2476 107.578 74.6907 106.888 74.694L106.9 77.194ZM93.4097 74.7591C92.7194 74.7624 92.1625 75.3248 92.1658 76.0151C92.1691 76.7055 92.7315 77.2624 93.4218 77.2591L93.4097 74.7591ZM98.8722 69.2436L98.9373 82.7214L101.437 82.7093L101.372 69.2315L98.8722 69.2436ZM106.888 74.694L93.4097 74.7591L93.4218 77.2591L106.9 77.194L106.888 74.694Z" fill="#F8FCFF"/>
<defs>
<filter id="filter0_d" x="10.2144" y="31.673" width="63.5876" height="63.2698" filterUnits="userSpaceOnUse" color-interpolation-filters="sRGB">
<feFlood flood-opacity="0" result="BackgroundImageFix"/>
<feColorMatrix in="SourceAlpha" type="matrix" values="0 0 0 0 0 0 0 0 0 0 0 0 0 0 0 0 0 0 127 0"/>
<feOffset dy="4"/>
<feGaussianBlur stdDeviation="2"/>
<feColorMatrix type="matrix" values="0 0 0 0 0.690196 0 0 0 0 0.794874 0 0 0 0 0.992157 0 0 0 0.53 0"/>
<feBlend mode="normal" in2="BackgroundImageFix" result="effect1_dropShadow"/>
<feBlend mode="normal" in="SourceGraphic" in2="effect1_dropShadow" result="shape"/>
</filter>
<filter id="filter1_d" x="50.6962" y="19.8448" width="60.5006" height="69.6384" filterUnits="userSpaceOnUse" color-interpolation-filters="sRGB">
<feFlood flood-opacity="0" result="BackgroundImageFix"/>
<feColorMatrix in="SourceAlpha" type="matrix" values="0 0 0 0 0 0 0 0 0 0 0 0 0 0 0 0 0 0 127 0"/>
<feOffset dy="4"/>
<feGaussianBlur stdDeviation="2"/>
<feColorMatrix type="matrix" values="0 0 0 0 0.690196 0 0 0 0 0.794874 0 0 0 0 0.992157 0 0 0 0.53 0"/>
<feBlend mode="normal" in2="BackgroundImageFix" result="effect1_dropShadow"/>
<feBlend mode="normal" in="SourceGraphic" in2="effect1_dropShadow" result="shape"/>
</filter>
<filter id="filter2_d" x="79.5248" y="59.3466" width="40.9703" height="40.9703" filterUnits="userSpaceOnUse" color-interpolation-filters="sRGB">
<feFlood flood-opacity="0" result="BackgroundImageFix"/>
<feColorMatrix in="SourceAlpha" type="matrix" values="0 0 0 0 0 0 0 0 0 0 0 0 0 0 0 0 0 0 127 0"/>
<feOffset dy="4"/>
<feGaussianBlur stdDeviation="2"/>
<feColorMatrix type="matrix" values="0 0 0 0 0.690196 0 0 0 0 0.794874 0 0 0 0 0.992157 0 0 0 0.53 0"/>
<feBlend mode="normal" in2="BackgroundImageFix" result="effect1_dropShadow"/>
<feBlend mode="normal" in="SourceGraphic" in2="effect1_dropShadow" result="shape"/>
</filter>
<linearGradient id="paint0_linear" x1="39.5644" y1="3.297" x2="39.5644" y2="78.0297" gradientUnits="userSpaceOnUse">
<stop stop-color="#AAC1FD"/>
<stop offset="1" stop-color="#92B4FC"/>
</linearGradient>
<linearGradient id="paint1_linear" x1="87.9208" y1="36.2673" x2="87.9208" y2="111" gradientUnits="userSpaceOnUse">
<stop stop-color="#AAC1FD"/>
<stop offset="1" stop-color="#92B4FC"/>
</linearGradient>
<linearGradient id="paint2_linear" x1="36.103" y1="37.5664" x2="48.0727" y2="81.0055" gradientUnits="userSpaceOnUse">
<stop offset="0.526042" stop-color="white"/>
</linearGradient>
<linearGradient id="paint3_linear" x1="17.972" y1="0" x2="17.972" y2="4.90666" gradientUnits="userSpaceOnUse">
<stop offset="0.567708" stop-color="#99B3F7"/>
<stop offset="1" stop-color="#6FA1FC"/>
</linearGradient>
</defs>
</svg>
