<svg width="177" height="160" viewBox="0 0 177 160" fill="none" xmlns="http://www.w3.org/2000/svg">
<ellipse opacity="0.2" cx="88.4074" cy="152.933" rx="50.4074" ry="7.06645" fill="#9CA6B8"/>
<path d="M54.9546 39.8427C49.0745 53.6522 28.2186 44.3223 19.0594 55.3758C-8.49852 74.111 -7.04883 121.464 29.1547 128.124C57.2879 138.804 84.072 121.59 111.342 120.04C131.627 124.749 159.995 136.946 173.803 114.036C188.702 85.9653 137.185 87.1688 155.609 57.9033C180.454 11.8104 69.6662 -36.1613 54.9451 39.8488L54.9546 39.8427Z" fill="#DBE5FD"/>
<rect x="53.825" y="38" width="78.7253" height="59.044" rx="3" fill="#4C7FF7"/>
<rect x="43" y="49.8086" width="78.7253" height="59.044" rx="3" fill="#4C7FF7"/>
<circle cx="61.6975" cy="79.3306" r="3.93627" fill="#DBE5FD"/>
<circle cx="75.4746" cy="79.3306" r="3.93627" fill="#DBE5FD"/>
<circle cx="89.2512" cy="79.3306" r="3.93627" fill="#DBE5FD"/>
<circle cx="103.028" cy="79.3306" r="3.93627" fill="#DBE5FD"/>
<path d="M67.3657 118.646C66.5959 119.979 64.6714 119.979 63.9016 118.646L57.9636 108.361L73.3037 108.361L67.3657 118.646Z" fill="#4C7FF7"/>
<path d="M53.825 47.8403H120.694C122.351 47.8403 123.694 49.1835 123.694 50.8403V97.0437" stroke="#DBE5FD" stroke-width="4"/>
</svg>
