<svg width="42" height="42" viewBox="0 0 42 42" fill="none" xmlns="http://www.w3.org/2000/svg">
<rect width="42" height="42" rx="15" fill="#E7EDFD"/>
<path d="M28.0469 23.7266C28.4352 23.7266 28.75 23.4118 28.75 23.0234V20.4219C28.75 18.8711 27.4883 17.6094 25.9375 17.6094H25.0925V15.1297C25.0925 12.8526 23.1999 11 20.8737 11C18.5475 11 16.6549 12.8526 16.6549 15.1297V17.6094H15.8125C14.2617 17.6094 13 18.8711 13 20.4219V26.1875C13 27.7383 14.2617 29 15.8125 29H25.9375C27.4883 29 28.75 27.7383 28.75 26.1875C28.75 25.7992 28.4352 25.4844 28.0469 25.4844C27.6585 25.4844 27.3438 25.7992 27.3438 26.1875C27.3438 26.9629 26.7129 27.5938 25.9375 27.5938H15.8125C15.0371 27.5938 14.4063 26.9629 14.4063 26.1875V20.4219C14.4063 19.6465 15.0371 19.0156 15.8125 19.0156H25.9375C26.7129 19.0156 27.3438 19.6465 27.3438 20.4219V23.0234C27.3438 23.4118 27.6585 23.7266 28.0469 23.7266ZM23.6862 17.6094H18.0612V15.1297C18.0612 13.628 19.3229 12.4062 20.8737 12.4062C22.4245 12.4062 23.6862 13.628 23.6862 15.1297V17.6094Z" fill="#4C7FF7"/>
<path d="M13.6299 21.0801C13.6299 19.6883 14.7581 18.5601 16.1499 18.5601H26.2299C27.6216 18.5601 28.7499 19.6883 28.7499 21.0801V26.1201C28.7499 27.5118 27.6216 28.6401 26.2299 28.6401H16.1499C14.7581 28.6401 13.6299 27.5118 13.6299 26.1201V21.0801Z" fill="#4C7FF7"/>
<path d="M24.8823 24.3765C25.2706 24.3765 25.5854 24.0617 25.5854 23.6733C25.5854 23.285 25.2706 22.9702 24.8823 22.9702C24.494 22.9702 24.1792 23.285 24.1792 23.6733C24.1792 24.0617 24.494 24.3765 24.8823 24.3765Z" fill="#E7EDFD"/>
<path d="M19.5742 24.3765C19.9625 24.3765 20.2773 24.0617 20.2773 23.6733C20.2773 23.285 19.9625 22.9702 19.5742 22.9702C19.1859 22.9702 18.8711 23.285 18.8711 23.6733C18.8711 24.0617 19.1859 24.3765 19.5742 24.3765Z" fill="#E7EDFD"/>
<path d="M16.937 24.3765C17.3253 24.3765 17.6401 24.0617 17.6401 23.6733C17.6401 23.285 17.3253 22.9702 16.937 22.9702C16.5487 22.9702 16.2339 23.285 16.2339 23.6733C16.2339 24.0617 16.5487 24.3765 16.937 24.3765Z" fill="#E7EDFD"/>
<path d="M22.2109 24.3765C22.5993 24.3765 22.9141 24.0617 22.9141 23.6733C22.9141 23.285 22.5993 22.9702 22.2109 22.9702C21.8226 22.9702 21.5078 23.285 21.5078 23.6733C21.5078 24.0617 21.8226 24.3765 22.2109 24.3765Z" fill="#E7EDFD"/>
</svg>
