<svg width="21" height="20" viewBox="0 0 21 20" fill="none" xmlns="http://www.w3.org/2000/svg">
<path d="M10.3137 2.96875H11.4856C11.5898 2.96875 11.6418 3.02083 11.6418 3.125V16.875C11.6418 16.9792 11.5898 17.0312 11.4856 17.0312H10.3137C10.2096 17.0312 10.1575 16.9792 10.1575 16.875V3.125C10.1575 3.02083 10.2096 2.96875 10.3137 2.96875Z" fill="#4C7FF7"/>
<path d="M4.33716 9.25781H17.4622C17.5663 9.25781 17.6184 9.3099 17.6184 9.41406V10.5859C17.6184 10.6901 17.5663 10.7422 17.4622 10.7422H4.33716C4.23299 10.7422 4.18091 10.6901 4.18091 10.5859V9.41406C4.18091 9.3099 4.23299 9.25781 4.33716 9.25781Z" fill="#4C7FF7"/>
</svg>
