<svg width="16" height="16" viewBox="0 0 16 16" fill="none" xmlns="http://www.w3.org/2000/svg">
<path d="M5.03125 1.59399H4.875C4.96094 1.59399 5.03125 1.52368 5.03125 1.43774V1.59399H10.9688V1.43774C10.9688 1.52368 11.0391 1.59399 11.125 1.59399H10.9688V3.00024H12.375V1.43774C12.375 0.748291 11.8145 0.187744 11.125 0.187744H4.875C4.18555 0.187744 3.625 0.748291 3.625 1.43774V3.00024H5.03125V1.59399ZM14.875 3.00024H1.125C0.779297 3.00024 0.5 3.27954 0.5 3.62524V4.25024C0.5 4.33618 0.570312 4.40649 0.65625 4.40649H1.83594L2.31836 14.6213C2.34961 15.2874 2.90039 15.8127 3.56641 15.8127H12.4336C13.1016 15.8127 13.6504 15.2893 13.6816 14.6213L14.1641 4.40649H15.3438C15.4297 4.40649 15.5 4.33618 15.5 4.25024V3.62524C15.5 3.27954 15.2207 3.00024 14.875 3.00024ZM12.2832 14.4065H3.7168L3.24414 4.40649H12.7559L12.2832 14.4065Z" fill="#FF6666"/>
</svg>
