<svg width="57" height="56" viewBox="0 0 57 56" fill="none" xmlns="http://www.w3.org/2000/svg">
<path d="M28.5 56C13.044 56 0.5 43.456 0.5 28C0.5 12.544 13.044 0 28.5 0C43.956 0 56.5 12.544 56.5 28C56.5 43.456 43.956 56 28.5 56Z" fill="#4C7FF7"/>
<path d="M20.8217 20.2606C21.0339 19.6634 21.1828 19.0803 21.4414 18.5505C22.7833 15.7923 24.988 14.1946 28.0582 14.0162C31.2155 13.8335 33.6323 15.2021 35.2763 17.907C35.3789 18.0756 35.4801 18.1431 35.6838 18.1417C39.3906 18.0925 42.4608 20.7426 42.9821 24.4296C43.4584 27.8005 41.4505 31.1124 38.2384 32.2253C37.9433 32.3279 37.8604 32.4656 37.852 32.7663C37.7648 35.8435 36.5157 38.3475 34.0356 40.1812C31.9771 41.703 29.646 42.272 27.1111 41.88C24.4849 41.4753 22.3899 40.1657 20.8597 37.9976C19.8114 36.5124 19.248 34.8431 19.196 33.0192C19.1862 32.6876 19.1018 32.5415 18.7576 32.4614C15.6663 31.7448 13.6457 28.7968 14.0518 25.624C14.4031 22.8727 16.5656 20.654 19.3084 20.2704C19.8114 20.2002 20.3327 20.2606 20.8217 20.2606ZM37.5751 30.2525C38.4056 29.9701 39.0758 29.4881 39.6407 28.8699C41.0557 27.3214 41.3704 25.0633 40.4599 23.1496C39.5676 21.2737 37.6342 20.0751 35.5503 20.2536C34.533 20.3407 33.9977 20.0302 33.5312 19.107C32.5181 17.1047 30.7729 16.0803 28.5345 16.0733C26.3088 16.0663 24.6282 17.1117 23.5154 19.0437C23.0938 19.7758 22.8985 20.5767 22.8367 21.4142C22.7735 22.2643 22.217 22.6634 21.3908 22.4568C21.2995 22.4343 21.2095 22.4133 21.1182 22.3922C20.0124 22.1308 18.9684 22.3261 18.0227 22.9191C15.7675 24.3341 15.4049 27.4296 17.2611 29.3518C17.8471 29.9574 18.5693 30.3396 19.411 30.483C20.5885 25.8572 24.6957 23.3842 28.335 23.314C31.8029 23.2465 36.1475 25.3626 37.5766 30.2539L37.5751 30.2525ZM28.5078 25.4104C24.4737 25.4315 21.2742 28.6352 21.2686 32.6567C21.2629 36.6796 24.5243 39.9339 28.5359 39.9114C32.5687 39.8889 35.7696 36.6838 35.7738 32.6637C35.778 28.6338 32.5265 25.3893 28.5064 25.4104H28.5078Z" fill="white"/>
<path d="M29.5645 31.1321C29.5645 32.474 29.5645 33.8159 29.5645 35.1578C29.5645 35.6834 29.5701 36.2089 29.563 36.7344C29.5532 37.4032 29.126 37.8515 28.5162 37.8501C27.905 37.8473 27.4849 37.4018 27.482 36.7217C27.4764 34.9822 27.4792 33.2412 27.4792 31.5017C27.4792 31.3766 27.4792 31.2516 27.4792 31.052C27.3359 31.1841 27.2446 31.2642 27.1575 31.3485C26.7809 31.7138 26.424 32.1045 26.0221 32.4403C25.5935 32.7986 25.0062 32.7213 24.6381 32.3124C24.2868 31.9218 24.2643 31.3204 24.6352 30.941C25.6807 29.8717 26.7345 28.8122 27.801 27.7654C28.2268 27.3481 28.8239 27.3523 29.2511 27.7738C30.3078 28.8136 31.3532 29.8661 32.386 30.9298C32.792 31.3471 32.7639 31.9373 32.3733 32.349C32.0052 32.7368 31.4094 32.7817 30.9808 32.415C30.6183 32.1045 30.2895 31.7532 29.9537 31.4117C29.8497 31.305 29.7738 31.1715 29.6853 31.0506L29.5645 31.1321Z" fill="white"/>
</svg>
