
<svg width="20" height="20" viewBox="0 0 20 20" fill="none" xmlns="http://www.w3.org/2000/svg">
<path d="M7.8125 6.20546H9.25586V12.8129C9.25586 12.8988 9.32617 12.9691 9.41211 12.9691H10.584C10.6699 12.9691 10.7402 12.8988 10.7402 12.8129V6.20546H12.1875C12.3184 6.20546 12.3906 6.05507 12.3105 5.95351L10.123 3.18397C10.1084 3.1653 10.0898 3.1502 10.0684 3.13981C10.0471 3.12942 10.0237 3.12402 10 3.12402C9.97629 3.12402 9.95288 3.12942 9.93156 3.13981C9.91024 3.1502 9.89157 3.1653 9.87695 3.18397L7.68945 5.95155C7.60938 6.05507 7.68164 6.20546 7.8125 6.20546ZM17.1484 12.2269H15.9766C15.8906 12.2269 15.8203 12.2973 15.8203 12.3832V15.391H4.17969V12.3832C4.17969 12.2973 4.10938 12.2269 4.02344 12.2269H2.85156C2.76562 12.2269 2.69531 12.2973 2.69531 12.3832V16.2504C2.69531 16.5961 2.97461 16.8754 3.32031 16.8754H16.6797C17.0254 16.8754 17.3047 16.5961 17.3047 16.2504V12.3832C17.3047 12.2973 17.2344 12.2269 17.1484 12.2269Z" fill="white"/>
</svg>
