<svg width="28" height="22" viewBox="0 0 28 22" fill="none" xmlns="http://www.w3.org/2000/svg">
<path d="M7.89471 21.4595H8.39471V20.9595V7.30298V6.80298H7.89471H2.78447C1.67631 6.80298 0.581055 7.54075 0.581055 8.66864V19.5939C0.581055 20.7217 1.67629 21.4595 2.78447 21.4595H7.89471Z" stroke="#20BAC3"/>
<path d="M22.1114 7.62835L22.1114 7.62837H18.6303C18.54 7.62837 18.4875 7.60268 18.4551 7.58036C18.417 7.55419 18.3935 7.5226 18.3845 7.50849L18.3837 7.50723C18.3736 7.49151 18.3591 7.46229 18.3545 7.43129C18.3525 7.41781 18.3525 7.40478 18.355 7.39108C18.3574 7.37802 18.3634 7.35695 18.3811 7.32753C18.3811 7.32748 18.3811 7.32743 18.3812 7.32738L19.9935 4.65431C19.9935 4.65427 19.9935 4.65424 19.9936 4.65421C20.4334 3.92647 20.4798 3.06109 20.1186 2.29413C19.7588 1.52957 19.055 0.989801 18.2097 0.795884L17.0734 0.534349L16.9607 1.02147L17.0729 0.534214L17.0731 0.534274C16.635 0.433004 16.1611 0.558474 15.8404 0.886156L15.8403 0.886341L9.66568 7.20172L9.6653 7.2021C8.93781 7.94779 8.5304 8.91806 8.5304 9.93554V17.3954C8.5304 19.6748 10.5308 21.4596 12.9018 21.4596H12.9018L20.6045 21.4589C20.6045 21.4589 20.6045 21.4589 20.6046 21.4589C22.5406 21.4589 24.2888 20.2576 24.8175 18.4798L24.8216 18.4662L24.8248 18.4524L26.4771 11.4715C26.5346 11.2396 26.5645 11.001 26.5645 10.7611C26.5645 8.99544 25.0178 7.62835 23.2048 7.62835H22.1114Z" stroke="#20BAC3"/>
</svg>
